<?xml version="1.0" encoding="UTF-8" standalone="no"?>
<!DOCTYPE svg PUBLIC "-//W3C//DTD SVG 1.1//EN" "http://www.w3.org/Graphics/SVG/1.1/DTD/svg11.dtd">

<!-- Created with Vectornator (http://vectornator.io/) -->
<svg height="100%" stroke-miterlimit="10" style="fill-rule:nonzero;clip-rule:evenodd;stroke-linecap:round;stroke-linejoin:round;" version="1.1" viewBox="0 0 1806 385" width="100%" xml:space="preserve" xmlns="http://www.w3.org/2000/svg" xmlns:vectornator="http://vectornator.io" xmlns:xlink="http://www.w3.org/1999/xlink">
<metadata>
<vectornator:setting key="IsTimeLapseWatermarkDisabled" value="false"/>
<vectornator:setting key="UndoHistoryDisabled" value="true"/>
<vectornator:setting key="VNDimensionsVisible" value="true"/>
<vectornator:setting key="VNSnapToGuides" value="true"/>
<vectornator:setting key="WDCMYKEnabledKey" value="false"/>
<vectornator:setting key="WDDisplayWhiteBackground" value="false"/>
<vectornator:setting key="WDDynamicGuides" value="false"/>
<vectornator:setting key="WDGuidesVisible" value="true"/>
<vectornator:setting key="WDIsolateActiveLayer" value="false"/>
<vectornator:setting key="WDOutlineMode" value="false"/>
<vectornator:setting key="WDRulersVisible" value="true"/>
<vectornator:setting key="WDSnapToEdges" value="false"/>
<vectornator:setting key="WDSnapToGrid" value="false"/>
<vectornator:setting key="WDSnapToPoints" value="false"/>
<vectornator:setting key="WDUnits" value="Points"/>
</metadata>
<defs/>
<g id="Untitled" vectornator:layerName="Untitled">
<path d="M1783 385L23 385C10.4 385 0 374.6 0 362L0 23C0 10.4 10.4 0 23 0L1783 0C1795.7 0 1806 10.4 1806 23L1806 362C1806 374.6 1795.7 385 1783 385Z" fill="#002239" fill-rule="evenodd" opacity="1" stroke="none"/>
</g>
<g id="rZ8Y8y.tif_00000059297034615880540650000014628715563066200713_" vectornator:layerName="rZ8Y8y.tif_00000059297034615880540650000014628715563066200713_">
<g opacity="1">
<path d="M572.85 142.675C572.558 141.825 572.229 141.02 571.845 140.262C572.357 141.121 572.686 141.934 572.85 142.675Z" fill="#ffffff" fill-rule="evenodd" opacity="1" stroke="none"/>
<g opacity="1">
<path d="M816.443 168.7C813.764 158.251 807.018 150.609 793.764 150.609C774.275 150.609 766.121 167.804 766.121 185.263C766.121 202.723 774.275 219.917 793.764 219.917C807.905 219.917 815.675 209.341 816.945 196.096L832.485 196.096C831.215 217.879 815.794 232.916 793.754 232.916C766.496 232.916 750.188 211.261 750.188 185.272C750.188 159.284 766.496 137.629 793.754 137.629C814.267 137.757 830.447 149.092 832.357 168.709L816.443 168.709L816.443 168.7Z" fill="#ffffff" fill-rule="evenodd" opacity="1" stroke="none"/>
<path d="M841.928 197.741C841.928 177.612 854.031 163.087 875.174 163.087C896.318 163.087 908.42 177.612 908.42 197.741C908.42 217.998 896.318 232.523 875.174 232.523C854.031 232.523 841.928 217.998 841.928 197.741ZM893.904 197.741C893.904 186.406 888.173 174.559 875.174 174.559C862.176 174.559 856.444 186.406 856.444 197.741C856.444 209.204 862.176 221.051 875.174 221.051C888.173 221.06 893.904 209.204 893.904 197.741Z" fill="#ffffff" fill-rule="evenodd" opacity="1" stroke="none"/>
<path d="M920.916 139.777L935.442 139.777L935.442 153.535L920.916 153.535L920.916 139.777ZM920.916 164.879L935.442 164.879L935.442 230.74L920.916 230.74L920.916 164.879Z" fill="#ffffff" fill-rule="evenodd" opacity="1" stroke="none"/>
<path d="M951.237 164.879L964.995 164.879L964.995 174.559L965.251 174.815C969.584 167.557 977.098 163.096 985.763 163.096C1000.03 163.096 1009.07 170.738 1009.07 185.519L1009.07 230.74L994.548 230.74L994.548 189.34C994.292 179.02 990.215 174.559 981.677 174.559C971.997 174.559 965.753 182.201 965.753 191.881L965.753 230.74L951.237 230.74L951.237 164.879Z" fill="#ffffff" fill-rule="evenodd" opacity="1" stroke="none"/>
<path d="M1105.77 230.74L1095.58 230.74L1093.15 220.036C1084.62 229.716 1076.85 232.907 1065.77 232.907C1038.51 232.907 1022.2 211.251 1022.2 185.263C1022.2 159.275 1038.51 137.62 1065.77 137.62C1085.64 137.62 1102.33 148.196 1104.75 168.7L1089.21 168.7C1087.69 156.725 1077.24 150.609 1065.78 150.609C1046.29 150.609 1038.13 167.804 1038.13 185.263C1038.13 202.723 1046.29 219.917 1065.78 219.917C1082.08 220.173 1091 210.365 1091.25 194.944L1067.05 194.944L1067.05 182.841L1105.78 182.841L1105.78 230.74L1105.77 230.74Z" fill="#ffffff" fill-rule="evenodd" opacity="1" stroke="none"/>
<path d="M1132.4 201.562C1132.4 211.882 1138 221.051 1150.1 221.051C1158.51 221.051 1163.6 217.358 1166.15 210.091L1179.91 210.091C1176.73 224.488 1164.5 232.514 1150.1 232.514C1129.46 232.514 1117.87 218.116 1117.87 197.86C1117.87 179.13 1130.1 163.078 1149.72 163.078C1170.49 163.078 1183.22 181.808 1180.8 201.553L1132.4 201.553L1132.4 201.562ZM1166.28 192.009C1165.77 182.841 1159.53 174.559 1149.72 174.559C1139.65 174.559 1132.77 182.201 1132.4 192.009L1166.28 192.009Z" fill="#ffffff" fill-rule="evenodd" opacity="1" stroke="none"/>
<path d="M1236.35 186.918C1235.21 178.892 1229.34 174.559 1221.32 174.559C1213.81 174.559 1203.23 178.508 1203.23 198.509C1203.23 209.469 1208.08 221.06 1220.68 221.06C1229.09 221.06 1234.95 215.456 1236.35 206.023L1250.87 206.023C1248.2 223.098 1237.63 232.523 1220.68 232.523C1200.04 232.523 1188.71 217.87 1188.71 198.509C1188.71 178.636 1199.54 163.096 1221.19 163.096C1236.48 163.096 1249.48 170.738 1250.87 186.918C1250.87 186.918 1236.35 186.918 1236.35 186.918Z" fill="#ffffff" fill-rule="evenodd" opacity="1" stroke="none"/>
<path d="M1263.1 139.777L1277.63 139.777L1277.63 191.498L1303.87 164.869L1321.71 164.869L1296.49 189.075L1324.13 230.731L1306.42 230.731L1286.3 198.756L1277.63 207.165L1277.63 230.731L1263.1 230.731C1263.1 230.731 1263.1 139.777 1263.1 139.777Z" fill="#ffffff" fill-rule="evenodd" opacity="1" stroke="none"/>
<path d="M1328.08 197.741C1328.08 177.612 1340.18 163.087 1361.33 163.087C1382.48 163.087 1394.58 177.612 1394.58 197.741C1394.58 217.998 1382.48 232.523 1361.33 232.523C1340.18 232.523 1328.08 217.998 1328.08 197.741ZM1380.06 197.741C1380.06 186.406 1374.32 174.559 1361.33 174.559C1348.33 174.559 1342.6 186.406 1342.6 197.741C1342.6 209.204 1348.33 221.051 1361.33 221.051C1374.32 221.06 1380.06 209.204 1380.06 197.741Z" fill="#ffffff" fill-rule="evenodd" opacity="1" stroke="none"/>
</g>
<g opacity="1">
<path d="M537.922 64.7195C465.479 65.0486 407.022 124.027 407.342 196.479C407.671 268.923 466.667 327.38 539.101 327.06C611.545 326.731 670.002 267.743 669.682 195.309C669.353 122.857 610.366 64.3996 537.922 64.7195ZM521.313 189.45C508.36 189.45 497.857 178.956 497.857 166.003C497.857 153.059 508.36 142.556 521.313 142.556C534.257 142.556 544.76 153.059 544.76 166.003C544.769 178.956 534.266 189.45 521.313 189.45ZM540.016 214.807L540.134 214.661L540.262 214.515C546.954 218.829 554.596 220.356 562.228 220.575C569.87 220.776 577.659 220.201 585.319 218.656C592.97 217.065 600.493 214.716 607.76 211.718C611.837 210.036 615.896 208.198 619.763 206.041C619.79 206.023 619.808 206.014 619.836 205.995C622.24 204.551 624.589 203.024 626.902 201.452C627.405 201.096 627.889 200.721 628.364 200.337L628.419 200.401L628.62 200.639C622.724 206.004 615.704 209.99 608.556 213.509C601.334 216.91 593.802 219.698 586.023 221.709C578.271 223.711 570.181 225.228 561.991 224.479C553.937 223.756 545.445 220.932 540.016 214.807ZM600.201 189.45C600.191 186.634 602.458 184.367 605.256 184.34C608.071 184.331 610.338 186.589 610.366 189.395C610.375 192.201 608.108 194.496 605.311 194.505C602.504 194.523 600.219 192.256 600.201 189.45ZM560.025 315.259C554.961 279.764 585.959 245 603.437 227.212C607.404 223.181 613.538 217.623 619.242 211.718C641.93 190.501 646.445 165.153 600.009 152.483C591.206 149.933 582.083 146.322 572.841 142.675C572.549 141.825 572.22 141.02 571.836 140.262C570.775 138.433 568.92 136.331 566.113 133.945C560.08 128.707 548.736 128.844 538.946 131.166C528.123 128.616 517.446 127.711 507.181 130.17C462.28 142.538 455.058 164.44 453.312 190.83C450.936 219.35 449.546 240.604 438.75 264.882C425.276 245.448 417.333 221.873 417.223 196.434C416.921 129.448 470.982 74.9027 537.968 74.6011C604.954 74.2994 659.499 128.351 659.801 195.337C660.075 255.165 616.956 305.085 560.025 315.259Z" fill="#ffffff" fill-rule="evenodd" opacity="1" stroke="none"/>
<path d="M537.803 166.222C537.803 175.336 530.417 182.713 521.313 182.713C512.199 182.713 504.813 175.336 504.813 166.222C504.813 157.109 512.199 149.732 521.313 149.732C530.417 149.723 537.803 157.109 537.803 166.222Z" fill="#ffffff" fill-rule="evenodd" opacity="1" stroke="none"/>
</g>
</g>
</g>
</svg>
