<?xml version="1.0" encoding="UTF-8" standalone="no"?>
<!DOCTYPE svg PUBLIC "-//W3C//DTD SVG 1.1//EN" "http://www.w3.org/Graphics/SVG/1.1/DTD/svg11.dtd">
<!-- Created with Vectornator (http://vectornator.io/) -->
<svg height="100%" stroke-miterlimit="10" style="fill-rule:nonzero;clip-rule:evenodd;stroke-linecap:round;stroke-linejoin:round;" version="1.1" viewBox="0 0 1806 385" width="100%" xml:space="preserve" xmlns="http://www.w3.org/2000/svg" xmlns:vectornator="http://vectornator.io" xmlns:xlink="http://www.w3.org/1999/xlink">
<defs/>
<path d="M0 0L1806 0L1806 385L0 385L0 0Z" fill="#002239" fill-rule="nonzero" opacity="1" stroke="none"/>
<g id="rZ8Y8y.tif_00000059297034615880540650000014628715563066200713_" vectornator:layerName="rZ8Y8y.tif_00000059297034615880540650000014628715563066200713_"/>
<g id="XMLID_2123_" vectornator:layerName="XMLID_2123_"/>
<g id="XMLID_2126_" vectornator:layerName="XMLID_2126_"/>
<g id="Untitled" vectornator:layerName="Untitled">
<g opacity="1" vectornator:layerName="Group 1">
<path d="M509.719 288.408C509.719 288.408 520.119 278.008 532.419 265.708L581.719 216.408C602.219 195.908 594.319 175.008 579.919 161.008L539.619 121.108C536.019 117.508 522.019 102.808 510.819 114.308C504.319 120.808 505.819 130.808 509.419 134.808L555.819 180.808C564.119 189.108 560.119 196.608 551.819 204.508L512.219 244.108L487.419 219.308C478.819 210.708 468.019 207.408 459.019 216.408C450.019 225.408 455.419 234.008 464.019 242.708L491.319 270.008L509.719 288.408Z" fill="#ffffff" fill-rule="nonzero" opacity="1" stroke="none" vectornator:layerName="path"/>
<path d="M507.619 286.608C514.119 293.108 523.419 297.008 532.419 288.008C541.419 279.008 536.719 268.908 531.019 263.208" fill="#ffffff" fill-rule="nonzero" opacity="1" stroke="none" vectornator:layerName="path"/>
<path d="M427.719 96.4079C427.719 96.4079 417.319 106.808 405.019 119.108L355.719 168.008C335.619 188.508 343.519 209.408 357.519 223.408L397.919 263.608C401.519 267.208 415.519 281.908 426.719 270.408C433.219 263.908 431.719 253.908 428.119 249.908L381.719 203.908C373.419 195.608 377.419 188.108 385.719 180.208L425.219 140.608L450.019 165.408C458.619 174.008 469.419 177.308 478.419 168.308C487.419 159.308 482.019 150.708 473.419 142.008L446.119 114.708L427.719 96.4079Z" fill="#ffffff" fill-rule="nonzero" opacity="1" stroke="none" vectornator:layerName="path"/>
<path d="M429.919 98.2079C423.419 91.7079 414.119 88.1079 405.119 97.1079C396.119 106.108 400.819 116.208 406.519 121.908" fill="#ffffff" fill-rule="nonzero" opacity="1" stroke="none" vectornator:layerName="path"/>
<path d="M705.419 203.408L705.419 196.508C705.419 176.608 712.119 164.308 728.519 164.308C742.319 164.308 748.819 172.908 748.819 186.308L775.319 186.308L775.319 181.608C775.319 158.508 760.219 139.908 727.819 139.908C692.619 139.908 677.319 163.608 677.319 196.408L677.319 203.308C677.319 235.908 692.619 259.808 727.819 259.808C760.219 259.808 775.319 241.708 775.319 219.908L775.319 215.408L748.819 215.408C748.819 226.608 742.819 235.308 728.519 235.308C712.019 235.408 705.419 223.108 705.419 203.408ZM842.519 260.008C878.319 260.008 894.319 236.008 894.319 203.508L894.319 196.608C894.319 163.808 878.319 140.108 842.519 140.108C806.719 140.108 790.719 163.808 790.719 196.608L790.719 203.508C790.719 236.008 806.719 260.008 842.519 260.008ZM842.519 235.408C826.119 235.408 818.819 223.108 818.819 203.508L818.819 196.608C818.819 176.708 826.119 164.408 842.519 164.408C858.919 164.408 866.219 176.708 866.219 196.608L866.219 203.508C866.219 223.108 858.919 235.408 842.519 235.408ZM1012.52 257.208L1012.52 178.908C1012.52 158.208 1002.42 140.008 977.319 140.008C959.219 140.008 947.319 147.608 940.219 157.908L937.619 142.808L912.819 142.808L914.719 175.208L914.719 257.208L942.819 257.208L942.819 177.608C946.019 172.208 953.419 164.408 966.519 164.408C979.219 164.408 984.619 172.408 984.619 183.408L984.619 257.208L1012.52 257.208ZM1134.12 257.208L1134.12 178.908C1134.12 158.208 1124.02 140.008 1098.92 140.008C1080.82 140.008 1068.92 147.608 1061.82 157.908L1059.22 142.808L1034.42 142.808L1036.32 175.208L1036.32 257.208L1064.42 257.208L1064.42 177.608C1067.62 172.208 1075.02 164.408 1088.12 164.408C1100.82 164.408 1106.22 172.408 1106.22 183.408L1106.22 257.208L1134.12 257.208ZM1256.82 210.308L1256.82 197.108C1256.82 164.508 1240.82 139.908 1205.62 139.908C1170.22 139.908 1153.22 164.508 1153.22 197.108L1153.22 202.708C1153.22 235.308 1169.82 259.908 1206.72 259.908C1239.52 259.908 1256.82 241.808 1256.82 221.308L1256.82 220.408L1230.32 220.408C1230.32 229.008 1222.32 238.108 1207.02 238.108C1191.02 238.108 1182.42 229.008 1181.32 210.308L1256.82 210.308ZM1205.02 161.808C1220.32 161.808 1227.72 171.508 1228.52 189.608L1181.22 189.608C1182.42 171.508 1189.92 161.808 1205.02 161.808ZM1268.92 142.808L1300.02 198.708L1268.92 257.208L1300.82 257.208L1322.42 213.208L1344.22 257.208L1376.12 257.208L1345.02 198.708L1376.12 142.808L1343.52 142.808L1322.62 184.008L1301.52 142.808L1268.92 142.808ZM1430.82 142.808L1430.82 110.408L1402.72 110.408L1402.72 142.808L1355.22 142.808L1355.22 167.408L1402.72 167.408L1402.72 219.808C1402.72 249.408 1419.12 259.908 1442.62 259.908C1452.72 259.908 1458.62 258.008 1460.32 257.108L1460.32 233.808C1459.02 234.408 1453.42 235.308 1449.32 235.308C1437.62 235.308 1430.72 232.108 1430.72 216.708L1430.72 167.308L1462.42 167.308L1462.42 142.808L1430.82 142.808Z" fill="#ffffff" fill-rule="nonzero" opacity="1" stroke="none" vectornator:layerName="path"/>
</g>
</g>
</svg>
