<?xml version="1.0" encoding="UTF-8" standalone="no"?>
<!DOCTYPE svg PUBLIC "-//W3C//DTD SVG 1.1//EN" "http://www.w3.org/Graphics/SVG/1.1/DTD/svg11.dtd">
<!-- Created with Vectornator (http://vectornator.io/) -->
<svg height="100%" stroke-miterlimit="10" style="fill-rule:nonzero;clip-rule:evenodd;stroke-linecap:round;stroke-linejoin:round;" version="1.1" viewBox="0 0 1806 385" width="100%" xml:space="preserve" xmlns="http://www.w3.org/2000/svg" xmlns:vectornator="http://vectornator.io" xmlns:xlink="http://www.w3.org/1999/xlink">
<defs>
<linearGradient gradientTransform="matrix(1 0 0 1 -256.239 -0.000146432)" gradientUnits="userSpaceOnUse" id="LinearGradient" x1="442.534" x2="528.242" y1="319.009" y2="319.009">
<stop offset="0.29" stop-color="#3a8bff"/>
<stop offset="1" stop-color="#81b5ff"/>
</linearGradient>
<linearGradient gradientTransform="matrix(1 0 0 1 -256.239 -0.000146432)" gradientUnits="userSpaceOnUse" id="LinearGradient_2" x1="442.534" x2="634.042" y1="172.136" y2="172.136">
<stop offset="0.29" stop-color="#0062ee"/>
<stop offset="1" stop-color="#00398a"/>
</linearGradient>
<linearGradient gradientTransform="matrix(1 0 0 1 -256.239 -0.000146432)" gradientUnits="userSpaceOnUse" id="LinearGradient_3" x1="604.832" x2="718.967" y1="192.274" y2="192.274">
<stop offset="0.29" stop-color="#0062ee"/>
<stop offset="1" stop-color="#00398a"/>
</linearGradient>
<linearGradient gradientTransform="matrix(1 0 0 1 -256.239 -0.000146432)" gradientUnits="userSpaceOnUse" id="LinearGradient_4" x1="510.114" x2="651.672" y1="214.369" y2="214.369">
<stop offset="0.29" stop-color="#b3d2ff"/>
<stop offset="1" stop-color="#ffffff"/>
</linearGradient>
<linearGradient gradientTransform="matrix(1 0 0 1 -256.239 -0.000146432)" gradientUnits="userSpaceOnUse" id="LinearGradient_5" x1="442.534" x2="519.337" y1="74.8257" y2="74.8257">
<stop offset="0.29" stop-color="#3a8bff"/>
<stop offset="1" stop-color="#81b5ff"/>
</linearGradient>
</defs>
<g id="Untitled" vectornator:layerName="Untitled">
<path d="M1783 385L23 385C10.4 385 0 374.6 0 362L0 23C0 10.4 10.4 0 23 0L1783 0C1795.7 0 1806 10.4 1806 23L1806 362C1806 374.6 1795.7 385 1783 385Z" fill="#002239" fill-rule="evenodd" opacity="1" stroke="none"/>
</g>
<g id="rZ8Y8y.tif_00000059297034615880540650000014628715563066200713_" vectornator:layerName="rZ8Y8y.tif_00000059297034615880540650000014628715563066200713_">
<g opacity="1">
<g opacity="1">
<path d="M226.834 199.731C224.605 201.335 221.737 201.76 219.139 200.871L211.587 198.283C209.25 197.486 207.679 195.29 207.679 192.821C207.679 190.351 209.25 188.155 211.587 187.358L219.139 184.77C223.132 183.405 227.521 185.174 229.451 188.926C231.38 192.678 230.266 197.278 226.834 199.731" fill="#0dff81" fill-rule="nonzero" opacity="1" stroke="none"/>
<path d="M225.171 263.069C223.955 260.961 224.529 258.274 226.501 256.847L244.099 244.165C247.214 241.916 251.562 242.618 253.812 245.732C253.954 245.922 254.073 246.136 254.192 246.326C255.12 247.922 255.373 249.821 254.896 251.604C254.419 253.387 253.251 254.906 251.651 255.826L251.01 256.158L231.227 265.064C229.002 266.058 226.385 265.206 225.171 263.093" fill="#000000" fill-rule="nonzero" opacity="1" stroke="none"/>
<path d="M254.192 141.737L254.192 141.737C253.19 143.417 251.541 144.611 249.632 145.038C247.709 145.461 245.698 145.047 244.099 143.898L226.501 131.193C224.532 129.76 223.965 127.07 225.189 124.964C226.413 122.859 229.031 122.02 231.251 123.023L251.033 131.905C252.716 132.653 254.033 134.04 254.692 135.76C255.352 137.48 255.3 139.391 254.548 141.072C254.548 141.286 254.334 141.5 254.216 141.714" fill="#000000" fill-rule="nonzero" opacity="1" stroke="none"/>
<path d="M272.003 289.43L270.008 348.588L214.437 348.588C198.9 348.575 186.308 335.983 186.295 320.446L186.295 320.446L186.295 307.859C215.852 307.902 245.076 301.618 272.003 289.43" fill="url(#LinearGradient)" fill-rule="nonzero" opacity="1" stroke="none"/>
<path d="M421.643 263.069C420.429 265.182 417.813 266.034 415.587 265.04L395.805 256.134C392.316 254.587 390.742 250.504 392.29 247.015L392.646 246.326C393.561 244.721 395.08 243.549 396.865 243.071C398.65 242.594 400.552 242.851 402.146 243.785L402.739 244.165L420.337 256.847C422.309 258.274 422.884 260.961 421.667 263.069" fill="#000000" fill-rule="nonzero" opacity="1" stroke="none"/>
<path d="M420.313 131.217L402.716 143.922C399.574 146.158 395.215 145.425 392.979 142.284L392.646 141.761L392.646 141.761C391.698 140.187 391.415 138.301 391.861 136.518C392.307 134.736 393.444 133.204 395.021 132.262C395.238 132.12 395.469 132 395.71 131.905L415.492 123.023C417.712 122.02 420.33 122.859 421.555 124.964C422.779 127.07 422.212 129.76 420.242 131.193" fill="#000000" fill-rule="nonzero" opacity="1" stroke="none"/>
<path d="M441.521 192.821C441.53 195.289 439.963 197.487 437.626 198.283L430.05 200.871C425.623 202.315 420.859 199.929 419.363 195.52C417.867 191.11 420.197 186.318 424.588 184.77C426.36 184.176 428.278 184.176 430.05 184.77L437.626 187.358C439.958 188.16 441.523 190.355 441.521 192.821" fill="#b3d2ff" fill-rule="nonzero" opacity="1" stroke="none"/>
<path d="M254.786 136.156C255.366 138.027 255.152 140.054 254.192 141.761L254.192 141.761C253.19 143.441 251.541 144.634 249.632 145.062C247.709 145.485 245.698 145.07 244.099 143.922L226.501 131.217C224.532 129.784 223.965 127.094 225.189 124.988C226.413 122.882 229.031 122.044 231.251 123.047L251.033 131.929C252.826 132.744 254.189 134.28 254.786 136.156M254.786 251.955C254.178 253.827 252.806 255.354 251.01 256.158L231.227 265.064C228.991 266.136 226.308 265.308 225.064 263.163C223.821 261.018 224.436 258.278 226.478 256.871L244.075 244.189C247.19 241.94 251.538 242.642 253.788 245.756C253.931 245.946 254.049 246.16 254.168 246.35C255.128 248.057 255.343 250.084 254.762 251.955M219.139 200.895L211.587 198.307C209.25 197.51 207.679 195.314 207.679 192.844C207.679 190.375 209.25 188.179 211.587 187.382L219.139 184.794C222.027 183.776 225.238 184.389 227.548 186.399C229.856 188.409 230.907 191.505 230.297 194.505C229.687 197.505 227.512 199.946 224.601 200.895C222.829 201.489 220.912 201.489 219.139 200.895M306.748 36.4122L263.098 36.4122C263.085 78.8278 228.71 113.213 186.295 113.239L186.295 307.859C215.852 307.902 245.076 301.618 272.003 289.43L275.399 188.831C269.391 185.862 265.092 177.978 265.092 168.763C265.092 158.385 270.507 149.764 277.655 147.817C278.63 141.569 280.842 135.578 284.163 130.196C280.996 129.811 278.184 127.989 276.539 125.256C270.08 115.756 261.364 106.019 254.691 90.2741C253.438 87.5084 253.784 84.2812 255.593 81.8433C256.985 80.0226 259.588 79.672 261.411 81.0596C261.597 81.2053 261.771 81.364 261.934 81.5346C272.265 91.319 284.685 94.2401 291.548 103.621C292.047 102.455 292.711 101.368 293.52 100.391C297.514 95.2115 304.5 93.3773 310.524 95.9262C312.373 89.684 318.108 85.4017 324.618 85.4017C331.129 85.4017 336.864 89.684 338.713 95.9262C341.828 94.5274 345.357 94.3577 348.593 95.4513C356.548 80.3039 366.361 66.2073 377.803 53.4875C355.813 42.2253 331.454 36.3715 306.748 36.4122" fill="url(#LinearGradient_2)" fill-rule="nonzero" opacity="1" stroke="none"/>
<path d="M226.834 199.731C224.605 201.335 221.737 201.76 219.139 200.871L211.587 198.283C209.25 197.486 207.679 195.29 207.679 192.821C207.679 190.351 209.25 188.155 211.587 187.358L219.139 184.77C223.132 183.405 227.521 185.174 229.451 188.926C231.38 192.678 230.266 197.278 226.834 199.731" fill="#b3d2ff" fill-rule="nonzero" opacity="1" stroke="none"/>
<path d="M437.626 198.283L430.05 200.871C425.623 202.315 420.859 199.929 419.363 195.52C417.867 191.11 420.197 186.318 424.588 184.77C426.36 184.176 428.278 184.176 430.05 184.77L437.626 187.358C439.963 188.155 441.535 190.351 441.535 192.821C441.535 195.29 439.963 197.486 437.626 198.283M421.643 263.069C420.429 265.182 417.813 266.034 415.587 265.04L395.805 256.134C392.316 254.587 390.742 250.504 392.29 247.015L392.646 246.326C393.561 244.721 395.08 243.549 396.865 243.071C398.65 242.594 400.552 242.851 402.146 243.785L402.739 244.165L420.337 256.847C422.309 258.274 422.884 260.961 421.667 263.069M392.029 136.156C392.636 134.284 394.008 132.757 395.805 131.953L415.587 123.071C417.807 122.068 420.425 122.906 421.65 125.012C422.874 127.118 422.307 129.808 420.337 131.24L402.739 143.946C399.598 146.182 395.239 145.449 393.002 142.307L392.67 141.785L392.67 141.785C391.671 140.084 391.438 138.039 392.029 136.156M391.245 61.2533C386.899 58.4509 382.434 55.8623 377.803 53.4875C366.361 66.2073 356.548 80.3039 348.593 95.4513C351.406 96.3521 353.887 98.0721 355.717 100.391C356.504 101.383 357.166 102.468 357.688 103.621C364.124 94.81 375.452 92.8152 385.379 83.3632C387.365 81.2976 390.559 80.9852 392.907 82.627C393.422 82.9657 393.865 83.4013 394.214 83.9094C395.54 85.6019 395.806 87.8953 394.902 89.8466L394.617 90.5115C387.968 105.948 379.299 115.78 372.887 125.256C371.21 128.012 368.351 129.836 365.145 130.196C368.439 135.579 370.612 141.573 371.534 147.817C377.97 149.574 382.981 156.699 383.93 165.676C384.045 166.701 384.101 167.732 384.097 168.763C384.097 177.432 380.297 184.936 374.811 188.237C374.49 188.466 374.148 188.665 373.79 188.831L373.79 190.327L378.54 331.061C430.269 304.218 462.734 250.791 462.728 192.512L462.728 192.512C462.774 139.449 435.845 90.0019 391.245 61.2533" fill="url(#LinearGradient_3)" fill-rule="nonzero" opacity="1" stroke="none"/>
<path d="M354.268 183.654C356.008 186.782 355.805 190.629 353.746 193.557C346.978 203.436 337.502 210.941 325.438 210.941L322.873 210.941C312.447 210.038 301.499 203.222 294.731 195.029C292.231 191.974 291.881 187.691 293.852 184.271C296.508 179.845 297.911 174.78 297.913 169.618C297.915 164.773 296.724 160.002 294.446 155.725C292.741 152.623 292.943 148.821 294.968 145.917C295.487 146.61 296.085 147.239 296.749 147.793C301.666 151.661 308.563 151.758 313.587 148.031C313.587 153.422 319.026 157.791 325.699 157.791C326.308 157.838 326.919 157.838 327.528 157.791C333.37 157.079 337.834 153.042 337.834 148.149C342.933 151.965 349.975 151.818 354.91 147.793L355.575 147.2C356.468 149.851 356.146 152.762 354.696 155.155C352.071 159.556 350.692 164.589 350.706 169.713C350.711 174.607 351.935 179.423 354.268 183.725M394.142 83.9094C393.794 83.4013 393.351 82.9657 392.836 82.627C390.507 81.0396 387.375 81.3498 385.403 83.3632C375.476 92.8627 364.029 94.81 357.712 103.621C357.189 102.468 356.527 101.383 355.741 100.391C353.911 98.0721 351.43 96.3521 348.616 95.4513C345.381 94.3577 341.852 94.5274 338.737 95.9262C336.887 89.684 331.153 85.4017 324.642 85.4017C318.132 85.4017 312.397 89.684 310.547 95.9262C304.523 93.3773 297.538 95.2115 293.543 100.391C292.735 101.368 292.071 102.455 291.572 103.621C284.709 94.2401 272.288 91.319 261.958 81.5346C261.224 80.7107 260.191 80.2144 259.089 80.1564C257.987 80.0985 256.908 80.4835 256.092 81.2258C255.878 81.4081 255.686 81.6154 255.522 81.8433C253.712 84.2812 253.367 87.5084 254.619 90.2741C261.293 106.019 270.008 115.709 276.468 125.256C278.133 128.013 280.985 129.839 284.186 130.196C280.866 135.578 278.654 141.569 277.679 147.817C270.555 149.764 265.116 158.385 265.116 168.763C265.116 177.978 269.415 185.862 275.423 188.831L272.027 289.43L270.032 348.588L306.748 348.588C331.454 348.628 355.813 342.775 377.803 331.512L378.635 331.061L373.909 190.327L373.909 188.831C374.267 188.665 374.609 188.466 374.93 188.237C380.416 184.936 384.215 177.432 384.215 168.763C384.219 167.732 384.164 166.701 384.049 165.676C383.099 156.699 378.088 149.574 371.652 147.817C370.704 141.562 368.49 135.566 365.145 130.196C368.351 129.836 371.21 128.012 372.887 125.256C379.299 115.756 387.968 105.948 394.617 90.5115L394.902 89.8466C395.806 87.8953 395.54 85.6019 394.214 83.9094" fill="url(#LinearGradient_4)" fill-rule="nonzero" opacity="1" stroke="none"/>
<path d="M263.098 36.4122C263.085 78.8278 228.71 113.213 186.295 113.239L186.295 64.5543C186.308 49.0173 198.9 36.4253 214.437 36.4122L263.098 36.4122Z" fill="url(#LinearGradient_5)" fill-rule="nonzero" opacity="1" stroke="none"/>
<path d="M338.713 172.278L330.805 179.545C330.123 180.189 329.637 181.012 329.404 181.92C328.881 184.01 327.86 188.118 327.029 192.013C326.761 193.099 325.772 193.851 324.654 193.818L324.654 193.818C323.536 193.851 322.547 193.099 322.279 192.013L319.762 181.92C319.54 181.007 319.052 180.181 318.361 179.545L310.452 172.278C309.532 171.352 309.532 169.856 310.452 168.93C310.969 168.376 311.719 168.103 312.471 168.193L324.345 169.808L324.986 169.808L325.913 169.689L336.861 168.193C337.853 168.094 338.802 168.625 339.236 169.523C339.674 170.462 339.453 171.577 338.689 172.278M350.564 169.618C350.613 164.513 352.041 159.516 354.696 155.155C356.078 152.77 356.355 149.901 355.456 147.295L354.91 147.793C349.948 151.693 342.98 151.751 337.953 147.936C337.953 152.78 333.536 156.865 327.646 157.53C327.038 157.577 326.426 157.577 325.818 157.53C319.144 157.53 313.706 153.16 313.706 147.77C308.68 151.585 301.711 151.527 296.749 147.627C296.085 147.073 295.487 146.443 294.968 145.751C292.943 148.655 292.741 152.456 294.446 155.559C296.755 159.883 297.946 164.716 297.913 169.618C297.93 174.722 296.568 179.735 293.971 184.129C292 187.549 292.35 191.832 294.849 194.887C301.665 203.08 312.566 209.896 322.992 210.798L325.556 210.798C337.621 210.798 347.096 203.294 353.865 193.414C355.827 190.497 355.983 186.723 354.268 183.654C351.935 179.352 350.711 174.536 350.706 169.642" fill="#b3d2ff" fill-rule="nonzero" opacity="1" stroke="none"/>
<path d="M338.713 172.278L330.805 179.545C330.123 180.189 329.637 181.012 329.404 181.92C328.881 184.01 327.86 188.118 327.029 192.013C326.761 193.099 325.772 193.851 324.654 193.818L324.654 193.818C323.536 193.851 322.547 193.099 322.279 192.013L319.762 181.92C319.54 181.007 319.052 180.181 318.361 179.545L310.452 172.278C309.532 171.352 309.532 169.856 310.452 168.93C310.969 168.376 311.719 168.103 312.471 168.193L324.345 169.808L324.986 169.808L325.913 169.689L336.861 168.193C337.853 168.094 338.802 168.625 339.236 169.523C339.674 170.462 339.453 171.577 338.689 172.278" fill="#003580" fill-rule="nonzero" opacity="1" stroke="none"/>
</g>
<g opacity="1">
<path d="M663.567 201.552C663.817 213.208 661.824 224.803 657.699 235.706C654.081 244.986 648.391 253.317 641.063 260.063C633.698 266.747 624.964 271.747 615.471 274.714C604.691 278.08 593.448 279.718 582.156 279.568C579.42 279.568 576.287 279.568 572.801 279.568C569.315 279.568 565.697 279.126 562.079 278.729C558.46 278.332 554.709 277.714 550.958 277.008C547.477 276.338 544.055 275.393 540.721 274.184C533.153 272.275 527.902 265.396 528.058 257.593L528.058 141.321C527.872 138.565 528.793 135.85 530.617 133.775C532.696 131.729 535.239 130.215 538.03 129.363C544.931 127.204 552.049 125.813 559.254 125.215C566.712 124.553 573.551 124.245 579.729 124.245C591.268 124.037 602.775 125.523 613.882 128.657C623.628 131.452 632.658 136.312 640.358 142.91C647.809 149.553 653.65 157.808 657.434 167.046C661.765 178.023 663.851 189.757 663.567 201.552ZM623.854 202.038C623.854 186.286 620.016 174.503 612.294 166.738C604.266 158.902 593.364 154.72 582.156 155.176C579.243 155.176 576.463 155.176 573.904 155.397C571.281 155.562 568.672 155.901 566.094 156.412L566.094 247.134C568.622 247.695 571.189 248.064 573.772 248.238C576.773 248.503 579.641 248.635 582.597 248.635C593.855 249.186 604.826 244.974 612.823 237.03C620.324 229.308 624.031 217.658 624.031 201.994L623.854 202.038Z" fill="#ffffff" fill-rule="nonzero" opacity="1" stroke="none"/>
<path d="M718.195 232.882C719.979 239.179 724.315 244.443 730.154 247.399C736.286 250.413 743.047 251.925 749.878 251.812C761.745 251.837 773.418 248.797 783.767 242.987C786.246 244.637 788.339 246.804 789.9 249.341C791.487 251.898 792.327 254.848 792.327 257.857C792.39 261.429 791.169 264.905 788.885 267.654C786.32 270.628 783.124 272.995 779.531 274.581C775.02 276.602 770.254 277.998 765.366 278.729C759.439 279.648 753.449 280.09 747.451 280.052C738.468 280.133 729.53 278.777 720.975 276.038C713.156 273.487 705.967 269.306 699.883 263.77C693.862 258.269 689.157 251.482 686.116 243.914C682.597 234.986 680.901 225.444 681.13 215.85C680.897 206.571 682.595 197.344 686.116 188.756C692.064 174.399 704.02 163.379 718.813 158.618C725.938 156.296 733.383 155.105 740.876 155.088C748.644 155.005 756.366 156.289 763.689 158.883C770.217 161.208 776.217 164.808 781.34 169.473C786.316 174.053 790.271 179.632 792.944 185.844C795.76 192.376 797.173 199.426 797.093 206.539C797.429 210.861 795.923 215.125 792.944 218.277C789.636 221.098 785.569 222.878 781.251 223.395L718.195 232.882ZM741.362 182.667C734.934 182.46 728.68 184.771 723.932 189.109C718.989 194.106 716.066 200.754 715.725 207.774L762.322 200.229C761.41 189.566 752.025 181.662 741.362 182.578L741.362 182.667Z" fill="#ffffff" fill-rule="nonzero" opacity="1" stroke="none"/>
<path d="M854.985 167.179L896.464 167.179C897.258 168.811 898.097 170.841 899.023 173.268C899.931 175.847 900.379 178.565 900.347 181.299C900.733 185.358 899.46 189.401 896.817 192.507C894.36 194.837 891.067 196.078 887.683 195.949L856.795 195.949L856.795 275.684C854.55 276.29 852.264 276.732 849.955 277.008C846.722 277.433 843.465 277.639 840.203 277.625C834.688 278.067 829.168 276.837 824.363 274.095C821.097 271.742 819.464 267.153 819.464 260.328L819.464 156.677C819.314 149.557 820.683 142.487 823.48 135.938C825.976 130.356 829.793 125.465 834.599 121.685C839.532 117.991 845.137 115.293 851.103 113.742C857.768 111.894 864.66 110.988 871.577 111.051C880.379 110.499 889.188 112.01 897.302 115.463C902.782 118.24 906.117 123.978 905.819 130.113C905.875 132.944 905.239 135.747 903.966 138.276C902.9 140.393 901.395 142.258 899.553 143.748C896.307 142.753 893.006 141.942 889.668 141.321C885.765 140.635 881.806 140.309 877.842 140.35C871.877 139.955 865.93 141.353 860.766 144.365C856.652 147.578 854.47 152.674 854.985 157.868L854.985 167.179ZM920.821 124.995C920.732 119.69 922.803 114.578 926.558 110.83C935.02 102.982 948.101 102.982 956.563 110.83C960.318 114.578 962.388 119.69 962.299 124.995C962.409 130.368 960.339 135.556 956.563 139.38C948.101 147.228 935.02 147.228 926.558 139.38C922.782 135.556 920.713 130.368 920.821 124.995ZM960.093 275.684C957.849 276.294 955.563 276.737 953.254 277.008C950.021 277.433 946.763 277.639 943.502 277.625C938.029 278.07 932.55 276.84 927.793 274.095C924.617 271.742 923.028 267.153 923.028 260.328L923.028 160.074C925.276 159.452 927.56 158.965 929.867 158.618C933.093 158.117 936.354 157.881 939.619 157.913C945.112 157.424 950.618 158.707 955.327 161.575C958.505 163.987 960.093 168.62 960.093 175.475L960.093 275.684Z" fill="#ffffff" fill-rule="nonzero" opacity="1" stroke="none"/>
<path d="M997.512 270.919C993.76 266.953 991.785 261.633 992.041 256.181L992.041 127.642L999.718 126.451C1002.99 125.963 1006.29 125.712 1009.6 125.7C1015.13 125.256 1020.67 126.536 1025.44 129.363C1028.71 131.79 1030.34 136.6 1030.34 143.748L1030.34 245.238L1088.85 245.238C1089.99 247.246 1090.94 249.358 1091.67 251.547C1092.59 254.309 1093.03 257.201 1093 260.108C1093.34 264.42 1092.09 268.707 1089.47 272.154C1087.04 274.888 1083.51 276.38 1079.85 276.214L1012.29 276.214C1006.85 276.534 1001.51 274.621 997.512 270.919Z" fill="#ffffff" fill-rule="nonzero" opacity="1" stroke="none"/>
<path d="M1135.28 277.625C1129.8 278.082 1124.32 276.85 1119.56 274.095C1116.39 271.742 1114.8 267.153 1114.8 260.328L1114.8 117.184C1117.08 116.559 1119.39 116.073 1121.73 115.728C1125 115.215 1128.3 114.964 1131.61 114.978C1137.07 114.554 1142.53 115.833 1147.23 118.64C1150.5 121.067 1152.09 125.7 1152.09 132.54L1152.09 275.684C1149.76 276.274 1147.41 276.716 1145.03 277.008C1141.79 277.433 1138.53 277.639 1135.28 277.625Z" fill="#ffffff" fill-rule="nonzero" opacity="1" stroke="none"/>
<path d="M1227.94 154.956C1235.69 154.894 1243.42 155.753 1250.97 157.515C1257.31 158.999 1263.3 161.697 1268.62 165.458C1273.46 169.006 1277.35 173.688 1279.96 179.093C1282.75 185.225 1284.12 191.906 1283.98 198.641L1283.98 253.754C1284.2 257.357 1283.11 260.919 1280.89 263.77C1278.62 266.334 1275.96 268.51 1272.99 270.212C1267.24 273.572 1260.98 275.971 1254.46 277.317C1246.27 279.007 1237.92 279.82 1229.57 279.744C1212.8 279.744 1199.46 276.537 1189.55 270.124C1179.66 263.722 1173.98 252.496 1174.68 240.736C1174.08 231.172 1177.75 221.833 1184.69 215.231C1191.34 209.348 1201.64 205.701 1215.58 204.289L1248.02 200.847L1248.02 198.199C1248.27 193.483 1245.83 189.03 1241.7 186.727C1236.01 183.952 1229.71 182.69 1223.39 183.064C1217.26 183.044 1211.15 183.786 1205.21 185.27C1199.77 186.56 1194.43 188.272 1189.24 190.389C1187.03 188.853 1185.25 186.77 1184.08 184.343C1182.68 181.615 1181.96 178.585 1182 175.518C1181.92 168.482 1186.49 162.234 1193.21 160.162C1198.53 158.211 1204.05 156.865 1209.67 156.148C1215.73 155.329 1221.83 154.931 1227.94 154.956ZM1229.39 252.033C1232.95 252.035 1236.5 251.679 1239.98 250.974C1242.77 250.487 1245.46 249.532 1247.93 248.149L1247.93 225.954L1227.94 227.631C1223.54 227.888 1219.25 229.093 1215.36 231.161C1212.3 232.836 1210.45 236.103 1210.6 239.589C1210.47 243.213 1212.12 246.671 1215.01 248.856C1219.37 251.539 1224.47 252.731 1229.57 252.253L1229.39 252.033Z" fill="#ffffff" fill-rule="nonzero" opacity="1" stroke="none"/>
<path d="M1488.77 275.684C1486.44 276.278 1484.09 276.72 1481.71 277.008C1478.47 277.433 1475.21 277.639 1471.96 277.625C1466.48 278.076 1461 276.845 1456.24 274.095C1453.07 271.742 1451.48 267.153 1451.48 260.328L1451.48 199.832C1451.85 195.428 1450.24 191.087 1447.06 188.006C1443.72 185.418 1439.55 184.118 1435.33 184.343C1432.19 184.322 1429.07 184.907 1426.15 186.065C1423.39 187.165 1420.81 188.651 1418.47 190.477C1418.65 191.279 1418.78 192.089 1418.87 192.904C1418.87 193.698 1418.87 194.537 1418.87 195.331L1418.87 275.684C1416.55 276.274 1414.19 276.716 1411.81 277.008C1408.57 277.433 1405.32 277.639 1402.06 277.625C1396.58 278.082 1391.1 276.85 1386.35 274.095C1383.17 271.742 1381.59 267.153 1381.59 260.328L1381.59 199.832C1381.95 195.332 1380.13 190.931 1376.68 188.006C1373.23 185.466 1369.01 184.174 1364.73 184.343C1361.56 184.303 1358.42 184.841 1355.46 185.932C1353.12 186.795 1350.85 187.827 1348.66 189.021L1348.66 275.684C1346.42 276.29 1344.13 276.732 1341.83 277.008C1338.59 277.433 1335.34 277.639 1332.07 277.625C1326.56 278.067 1321.04 276.837 1316.23 274.095C1312.97 271.742 1311.33 267.153 1311.33 260.328L1311.33 184.962C1311.16 181.354 1312.1 177.781 1314.03 174.724C1316.09 171.857 1318.65 169.377 1321.57 167.4C1327.67 163.379 1334.4 160.397 1341.47 158.575C1349.51 156.253 1357.86 155.094 1366.23 155.133C1372.79 155.108 1379.32 156.06 1385.6 157.956C1391.66 159.862 1397.33 162.852 1402.32 166.781C1407.47 163.382 1413.03 160.64 1418.87 158.618C1425.98 156.26 1433.44 155.141 1440.93 155.309C1447.07 155.291 1453.18 156.078 1459.11 157.647C1464.65 159.093 1469.83 161.662 1474.34 165.193C1478.87 168.877 1482.49 173.559 1484.93 178.872C1487.77 185.267 1489.15 192.218 1488.94 199.214L1488.77 275.684Z" fill="#ffffff" fill-rule="nonzero" opacity="1" stroke="none"/>
<path d="M1563.65 154.956C1571.4 154.888 1579.13 155.748 1586.68 157.515C1593.02 158.991 1599.02 161.689 1604.33 165.458C1609.18 168.993 1613.08 173.679 1615.67 179.093C1618.48 185.217 1619.86 191.904 1619.69 198.641L1619.69 253.754C1619.86 257.407 1618.7 260.999 1616.42 263.858C1614.15 266.432 1611.47 268.609 1608.48 270.301C1602.73 273.674 1596.47 276.075 1589.95 277.405C1581.76 279.095 1573.41 279.908 1565.05 279.832C1548.32 279.832 1534.99 276.626 1525.08 270.212C1515.23 263.791 1509.6 252.561 1510.34 240.825C1509.68 231.249 1513.29 221.874 1520.23 215.231C1526.87 209.348 1537.17 205.701 1551.11 204.289L1583.55 200.847L1583.55 198.199C1583.81 193.471 1581.34 189.01 1577.19 186.727C1571.51 183.935 1565.2 182.658 1558.88 183.02C1552.75 182.995 1546.64 183.736 1540.7 185.226C1535.25 186.509 1529.91 188.221 1524.73 190.345C1522.55 188.801 1520.79 186.739 1519.61 184.343C1518.22 181.612 1517.53 178.582 1517.58 175.518C1517.47 168.473 1522.04 162.209 1528.78 160.162C1534.11 158.211 1539.63 156.865 1545.24 156.148C1551.35 155.322 1557.5 154.924 1563.65 154.956ZM1565.1 252.033C1568.67 252.032 1572.23 251.678 1575.74 250.974C1578.51 250.496 1581.18 249.54 1583.64 248.149L1583.64 225.954L1563.65 227.631C1559.25 227.888 1554.96 229.093 1551.07 231.161C1548.04 232.856 1546.21 236.115 1546.35 239.589C1546.23 243.211 1547.87 246.666 1550.76 248.856C1555.05 251.492 1560.08 252.684 1565.1 252.253L1565.1 252.033Z" fill="#ffffff" fill-rule="nonzero" opacity="1" stroke="none"/>
</g>
</g>
</g>
</svg>
