<?xml version="1.0" encoding="utf-8"?>
<!-- Generator: Adobe Illustrator 26.5.0, SVG Export Plug-In . SVG Version: 6.00 Build 0)  -->
<svg version="1.1" id="Layer_1" xmlns="http://www.w3.org/2000/svg" xmlns:xlink="http://www.w3.org/1999/xlink" x="0px" y="0px"
	 viewBox="0 0 1806 385" style="enable-background:new 0 0 1806 385;" xml:space="preserve">
<style type="text/css">
	.st0{fill:#002239;}
	.st1{fill:#FFFFFF;}
	.st2{fill:#00CC33;}
</style>
<path class="st0" d="M1783,385H23c-12.6,0-23-10.4-23-23V23C0,10.4,10.4,0,23,0h1760c12.7,0,23,10.4,23,23v339
	C1806,374.6,1795.7,385,1783,385z"/>
<g>
	<path class="st1" d="M650.9,267.1l-57.4-66.3v66.3h-24.3V119h24.3v67.6l57.6-67.6h30.5l-64.4,74.2l65.5,74H650.9z"/>
	<path class="st1" d="M715.7,109.4v157.8h-24.3V109.4H715.7z"/>
	<path class="st1" d="M747.2,134.1c-4.4,0-8.1-1.5-11.1-4.5c-3-3-4.5-6.7-4.5-11.1c0-4.4,1.5-8.1,4.5-11.1c3-3,6.7-4.5,11.1-4.5
		c4.3,0,7.9,1.5,10.9,4.5c3,3,4.5,6.7,4.5,11.1c0,4.4-1.5,8.1-4.5,11.1C755.1,132.6,751.4,134.1,747.2,134.1z M759.1,149.7v117.5
		h-24.3V149.7H759.1z"/>
	<path class="st1" d="M920.5,147.7c9.2,0,17.5,1.9,24.7,5.8c7.4,3.8,13.2,9.5,17.3,17.1c4.3,7.5,6.4,16.6,6.4,27.3v69.3h-24.1v-65.7
		c0-10.5-2.6-18.5-7.9-24.1c-5.3-5.7-12.4-8.5-21.5-8.5s-16.4,2.8-21.8,8.5c-5.3,5.5-7.9,13.6-7.9,24.1v65.7h-24.1v-65.7
		c0-10.5-2.6-18.5-7.9-24.1c-5.3-5.7-12.4-8.5-21.5-8.5c-9.1,0-16.4,2.8-21.8,8.5c-5.3,5.5-7.9,13.6-7.9,24.1v65.7h-24.3V149.7h24.3
		v13.4c4-4.8,9-8.6,15.1-11.3c6.1-2.7,12.7-4.1,19.6-4.1c9.4,0,17.8,2,25.2,6s13.1,9.7,17.1,17.3c3.6-7.1,9.1-12.7,16.6-16.8
		C903.7,149.9,911.8,147.7,920.5,147.7z"/>
	<path class="st1" d="M979,207.8c0-11.8,2.4-22.2,7.3-31.3c5-9.1,11.7-16.1,20-21.1c8.5-5.1,17.9-7.7,28.2-7.7
		c9.2,0,17.3,1.8,24.1,5.5c7,3.6,12.5,8,16.6,13.4v-17.1h24.5v117.5h-24.5v-17.5c-4.1,5.5-9.7,10.2-16.8,13.9
		c-7.1,3.7-15.2,5.5-24.3,5.5c-10.1,0-19.3-2.6-27.7-7.7c-8.4-5.3-15.1-12.5-20-21.7C981.4,230.2,979,219.6,979,207.8z
		 M1075.1,208.3c0-8.1-1.7-15.1-5.1-21.1c-3.3-6-7.6-10.5-13-13.6c-5.4-3.1-11.2-4.7-17.5-4.7c-6.3,0-12.1,1.6-17.5,4.7
		c-5.4,3-9.8,7.5-13.2,13.4c-3.3,5.8-4.9,12.8-4.9,20.9s1.6,15.2,4.9,21.3c3.4,6.1,7.8,10.8,13.2,14.1c5.5,3.1,11.4,4.7,17.5,4.7
		c6.3,0,12.1-1.6,17.5-4.7c5.4-3.1,9.7-7.7,13-13.6C1073.4,223.5,1075.1,216.4,1075.1,208.3z"/>
	<path class="st1" d="M1167.2,119c15.8,0,29.6,3.1,41.4,9.2c11.9,6,21.1,14.6,27.5,26c6.5,11.2,9.8,24.4,9.8,39.4
		s-3.3,28.1-9.8,39.2c-6.4,11.1-15.6,19.6-27.5,25.6c-11.8,5.8-25.6,8.7-41.4,8.7h-48.4V119H1167.2z M1167.2,247.3
		c17.4,0,30.6-4.7,39.9-14.1s13.9-22.6,13.9-39.7c0-17.2-4.6-30.6-13.9-40.3c-9.2-9.7-22.5-14.5-39.9-14.5h-24.1v108.5H1167.2z"/>
	<path class="st1" d="M1346.6,236.8h-62.1l-10.7,30.3h-25.4l53.1-148.4h28.1l53.1,148.4h-25.6L1346.6,236.8z M1339.7,217l-24.1-68.9
		l-24.3,68.9H1339.7z"/>
	<path class="st1" d="M1460.7,268.6c-13.8,0-26.5-3.2-38.2-9.6c-11.5-6.5-20.7-15.6-27.5-27.1c-6.7-11.7-10-24.7-10-39.2
		s3.3-27.5,10-39c6.8-11.5,16-20.5,27.5-26.9c11.7-6.5,24.4-9.8,38.2-9.8c13.9,0,26.7,3.3,38.2,9.8c11.7,6.4,20.8,15.3,27.5,26.9
		c6.7,11.5,10,24.5,10,39s-3.3,27.6-10,39.2c-6.7,11.5-15.9,20.5-27.5,27.1C1487.4,265.4,1474.7,268.6,1460.7,268.6z M1460.7,247.5
		c9.8,0,18.6-2.2,26.2-6.6c7.7-4.5,13.7-10.9,17.9-19.2c4.4-8.4,6.6-18,6.6-29c0-10.9-2.2-20.5-6.6-28.8c-4.3-8.2-10.2-14.6-17.9-19
		c-7.7-4.4-16.4-6.6-26.2-6.6c-9.8,0-18.6,2.2-26.2,6.6s-13.7,10.7-18.1,19c-4.3,8.2-6.4,17.8-6.4,28.8c0,10.9,2.1,20.6,6.4,29
		c4.4,8.2,10.5,14.6,18.1,19.2C1442.2,245.3,1450.9,247.5,1460.7,247.5z"/>
	<path class="st2" d="M478.7,200.7v-16.3h-51.4l64-98.4H269.6l65.8,98.4h-51.6v16.3h51.6l-65.8,98.4h63.7V284h-35.4l50.9-77.1
		l32.4,49.3l32.1-49l50.8,76.8h-35.2V299h62.4l-63.9-98.4H478.7z M298,101h166.1l-50.8,76.8l-32.1-49l-32.4,49.3L298,101z
		 M381.2,155.6l18.9,28.6h-38L381.2,155.6z M381.2,229.3l-19.1-28.6h38L381.2,229.3z"/>
</g>
</svg>
