<?xml version="1.0" encoding="utf-8"?>
<!-- Generator: Adobe Illustrator 26.0.3, SVG Export Plug-In . SVG Version: 6.00 Build 0)  -->
<svg version="1.1" id="Layer_1" xmlns="http://www.w3.org/2000/svg" xmlns:xlink="http://www.w3.org/1999/xlink" x="0px"
     y="0px"
     viewBox="0 0 1806 385" style="enable-background:new 0 0 1806 385;" xml:space="preserve">
<style type="text/css">
	.st0{fill:#002239;}
	.st1{fill:#FEA602;}
    .st2{fill:#FFFFFF;}
</style>
    <path class="st0" d="M1783,385H23c-12.6,0-23-10.4-23-23V23C0,10.4,10.4,0,23,0h1760c12.7,0,23,10.4,23,23v339
	C1806,374.6,1795.7,385,1783,385z"/>
    <g id="rZ8Y8y.tif_00000059297034615880540650000014628715563066200713_">
	<g>
		<path class="st1" d="M331.1,216.4c-13.5,0-27-0.1-40.5,0c-4,0-6.9-0.7-8.6-5c-1.6-4.3,0.9-6.7,3.1-8.7
			c6.6-6.1,13.6-11.7,20.4-17.6c21.1-18.2,42.3-36.4,63.4-54.6c22.2-19.2,44.4-38.5,66.7-57.6c3-2.6,6.3-4.9,9.1-7.7
			c3.1-3.1,6.9-3.3,10.4-0.8c3.4,2.4,2.7,6,1.5,9c-2,4.9-4.6,9.6-7,14.3c-7.7,15-15.5,30-23.2,45c-6,11.8-11.9,23.6-18.1,35.3
			c-2,3.8-1.5,4.6,2.9,4.6c27.3-0.2,54.6-0.1,81.9-0.1c3.7,0,7.1,0.6,8.4,4.7c1.3,4-0.2,7-3.3,9.7c-26.1,22.4-52.1,44.8-78.1,67.2
			c-17.9,15.4-35.8,30.7-53.7,46c-9.8,8.4-19.4,17.1-29.6,25.1c-2.6,2-5.2,2.8-7.4,1c-2.7-2.2-5.9-4.7-3.6-9.2
			c4.3-8.4,8.4-16.9,12.7-25.3c6.8-13.2,13.9-26.3,20.7-39.5c5.6-10.9,10.7-22,17.1-32.5c2.2-3.5-0.6-3.1-2.5-3.2
			c-9-0.1-18-0.1-27-0.1C341.7,216.5,336.4,216.5,331.1,216.4C331.1,216.5,331.1,216.4,331.1,216.4z"/>
        <path class="st2" d="M1202,163.6c0-26.9,0.1-53.8-0.1-80.7c0-3.9,0.9-5.3,5-5.1c6,0.3,12,0.2,18,0c2.9-0.1,3.8,0.9,3.8,3.7
			c-0.2,19.1-0.3,38.1-0.4,57.2c0,1-0.3,2.1,0.6,2.7c1.1,0.7,1.7-0.5,2.4-1.2c13.3-12.6,29.3-13.5,45.5-8.4
			c14.5,4.6,21.6,16.7,24.3,30.8c1.4,7.4,0.4,15.2,0.4,22.9c0.1,20.2,0,40.5,0.2,60.7c0,2.3-0.6,3.3-3,3.3c-6.8-0.1-13.6-0.1-20.5,0
			c-2.7,0-3.3-1.2-3.3-3.7c0.1-23.6,0.5-47.2,0.2-70.7c-0.2-17.2-11.8-23.4-26.6-21.3c-11.7,1.7-20.5,12.3-20.1,24.4
			c0.7,22.5,0.2,45.1,0.3,67.7c0,2.8-0.9,3.8-3.7,3.8c-6.3-0.2-12.6-0.3-19-0.1c-3.5,0.1-4.1-1.1-4.1-4.3
			C1202,218,1202,190.8,1202,163.6z"/>
        <path class="st2" d="M697.2,189.4c0-17.9,0.2-35.9-0.1-53.8c-0.1-4.3,1.5-5,5.2-4.8c5.5,0.3,11,0.6,16.4,0c4.8-0.5,5.3,1.5,5,5.3
			c-0.1,1.3-1.2,3.3,0.6,4.1c1.7,0.7,2.5-1.2,3.6-2.1c13.8-12.9,43.8-13,57.2,1.1c7.6,8,11.8,17.9,12,28.7
			c0.5,25.6,0.2,51.1,0.3,76.7c0,2.5-0.8,3.1-3.2,3.1c-6.7-0.1-13.3-0.2-20,0.1c-3.7,0.1-3-2.2-3-4.2c0-22.1-0.1-44.2,0-66.3
			c0-5.5-1.6-10.4-4.1-15.1c-2.9-5.5-7.5-8-13.5-9c-12-2-23.5,3.2-28.7,13.9c-1.2,2.4-1.2,5.5-1.2,8.3c0,22.6,0,45.2,0.2,67.8
			c0,3.6-0.7,5-4.7,4.7c-5.8-0.4-11.6-0.4-17.5-0.1c-3.5,0.2-4.5-0.9-4.5-4.4C697.4,225.3,697.3,207.4,697.2,189.4
			C697.3,189.4,697.2,189.4,697.2,189.4z"/>
        <path class="st2" d="M1092.1,214.5c1.7,0,3.3,0,5,0c4.8,0,8.4-0.3,11.6,5.6c6.9,12.7,29.3,13.6,38.6,2.6c4.1-4.9,1.8-14-4.6-16.7
			c-7.6-3.2-15.9-4.6-23.9-6.7c-8.8-2.3-18-3.3-25.4-9.4c-6.1-5-9.9-10.9-11-19.2c-3.5-27,19.2-40.9,38.2-41.9
			c7.7-0.4,15.3-0.2,22.8,1.7c15,3.8,24,13.8,29.1,27.8c1.5,4.2,0.4,5.3-4.2,5.2c-3.3-0.1-6.7-0.3-10,0c-6.3,0.6-10.8-0.5-15-6.6
			c-6.1-8.9-24.1-9.6-33.3-1c-5.1,4.8-3,14.2,3.6,16.4c8.9,2.9,18,5.6,27.3,7.3c12.1,2.2,23.1,6.7,29.7,18.4
			c7.3,13,4.1,32.2-7.5,41.6c-13,10.6-27.9,12.8-43.9,10.6c-9.3-1.3-17.9-3.9-25.6-9.7c-8.3-6.2-11.9-14.8-14.7-24
			c-0.6-2,0.4-2.3,2-2.2C1084.8,214.5,1088.5,214.5,1092.1,214.5C1092.1,214.5,1092.1,214.5,1092.1,214.5z"/>
        <path class="st2" d="M590,214.5c1.8,0,3.7,0.2,5.5,0c4.8-0.6,7.5,0.8,9.9,5.6c4.7,9.5,20.4,12.9,32,7.8c6.3-2.8,9.1-6.6,8.8-11.8
			c-0.4-6.4-2.9-9.6-10.3-11.6c-9.9-2.7-19.9-5.2-29.9-7.3c-20.3-4.2-32.2-23-25.4-42.4c5-14.4,16.4-22.5,31.4-25.2
			c10.3-1.8,20.7-1.8,30.6,1.4c14.4,4.7,23.5,14.8,27.6,29.4c0.6,2.3,0.2,3.2-2.5,3.2c-6.5-0.2-13-0.1-19.5,0c-2.4,0-3.3-0.9-4.4-3
			c-5.8-11.8-27-14.6-37.3-3.8c-4.6,4.8-2.2,13.4,4.3,15.6c8.9,3,17.9,5.7,27.3,7.3c14.4,2.4,28.7,9.9,32.2,24.3
			c5.1,21.1-4.6,37.4-24,43.9c-16.2,5.5-32.5,4.7-47.9-2.5c-11.3-5.3-19-14.1-21.7-26.8c-0.7-3.2,0.1-4.3,3.3-4.1
			C583.3,214.7,586.7,214.5,590,214.5C590,214.5,590,214.5,590,214.5z"/>
        <path class="st2" d="M1522.4,224.5c-2.6-0.7-4.4,1.1-6.4,2.1c-9.4,4.5-22.5,0.2-22.1-12.9c0.6-18.4,0.2-36.9,0-55.3c0-3.6,1.2-4.6,4.7-4.4
			c6,0.3,12,0.1,18,0.3c2.7,0.1,4-0.4,3.9-3.5c-0.2-5.1-0.2-10.3,0-15.4c0.1-2.9-1-3.8-3.8-3.7c-6,0.2-12,0-18,0.3
			c-3.6,0.2-5.1-0.6-4.9-4.6c0.4-7.5,0.1-14.9,0.3-22.4c0.1-3.2-0.8-4.3-4.3-4c-5.6,0.4-11.4,0.5-17-0.1c-4.3-0.5-5.2,1.1-5.1,4.8
			c0.2,7.5,0,14.9,0.2,22.4c0.1,2.7-0.7,4-3.6,3.8c-3.5-0.2-7,0-10.5-0.3c-3.3-0.3-4.5,1.1-4.5,4.2c0.1,4.3,0.2,8.6,0.1,12.9
			c-0.1,4.3,1,6.7,6,5.4c2-0.5,4.4,0.5,6.4,0c5.6-1.5,5.9,1.4,5.8,5.7c-0.1,18.6-0.1,37.2,0,55.8c0,11.1,1.9,21.3,11.5,28.8
			c5,3.9,10.9,5,16.6,6.2c8.8,2,17.4-0.2,25.6-3.5c2.5,0,2.9-1.6,2.9-3.7c0-5.4,0.1-10.8,0-16.2
			C1524.4,226.1,1524.9,224.2,1522.4,224.5z"/>
        <path class="st2" d="M1060.4,174.6c-3.4-16.2-10.8-29.2-24.7-38.4c-16.3-10.9-38.8-10.1-54.4,2.2c-0.8,0.6-1.4,1.7-2.5,1.3
			c-1.5-0.6-0.7-2-0.6-3c0.4-4.2-0.4-6.5-5.6-5.7c-4,0.6-8.3,0-12.4,0.1c-8.6,0.1-8.5,0.2-8.5,8.7c0,50.1,0.5,100.3-0.5,150.4
			c-0.1,2.8,0.8,4,3.5,4c6.5,0,13,0,19.5,0c2.8,0,4-1,3.9-4.2c-0.2-11.3-0.1-22.6-0.1-33.9c0-5.4,0-10.8,0-17
			c4.4,2.7,6.8,6.6,11,7.9c9.7,3.1,19.2,4.6,29.7,2.8c18.5-3.2,29.8-14.4,37.1-30.2C1062.5,205.4,1063.7,190.3,1060.4,174.6z
			 M1025.6,219.2c-8.5,9.4-25.7,11.1-38,3.5c-6.8-4.2-11.2-9.6-10.3-18.3c0.5-4.9,0.1-9.9,0.1-14.9c0-4.3,0-8.6,0-12.9
			c0-11.9,5.1-19.4,16.7-22.5c15.6-4.2,32.3,0,38.6,17.3C1038.7,188.1,1038.6,204.8,1025.6,219.2z"/>
        <path class="st2" d="M920.4,205.3c0-6.3,0-12.6,0-18.9c0-6.3,0-12.6-0.3-18.9c-0.9-18.5-12.4-32.7-29.7-37.1c-9.2-2.4-18.5-2.1-27.7-0.6
			c-14.9,2.3-31.5,15-34.1,30.7c-0.5,2.9-0.1,3.4,2.7,3.3c5-0.2,10-0.4,15,0c4.6,0.4,8.1,0,9.4-5.3c0.3-1.4,2-2.7,3.3-3.5
			c8.8-5.1,18-6,27-0.9c7.7,4.4,10.1,11.9,9.9,20.3c-0.1,6.3-0.2,6.3-6.4,4.1c-2-0.7-4-1.5-6.1-2.1c-18.4-5.6-34.9-1.8-49.6,10.4
			c-15.7,12.9-14.5,41.9,3.3,53.7c6.4,4.2,12.9,7,20.5,8.1c12.3,1.7,24,1,34.8-5.8c1.8-1.2,3.2-1.4,3.2,1.4
			c-0.1,3.1,1.2,3.8,4.3,3.5c5.3-0.4,10.7-0.3,16,0c3.6,0.2,4.9-0.6,4.8-4.5C920.2,230.6,920.4,218,920.4,205.3z M890.1,223.1
			c-11.2,8.1-27.1,9.8-39.5-0.5c-5.5-4.6-4.8-16.3,1.1-20.8c5.7-4.4,12.3-5.4,20.6-5.3c5.8,0.4,12.8,1,18.4,6.4
			C897,209,897.1,218,890.1,223.1z"/>
        <path class="st2" d="M1429.9,159.9c-6-13.3-15.6-23.2-28.9-27.8c-17.1-5.9-34.6-5.7-50.8,4.6c-10.7,6.9-18.5,16.4-22.3,28.3
			c-4,12.7-4.9,25.6-2.6,39.1c3.2,18.5,12.4,32.4,28.7,41c11.3,6,23.6,7.4,36.7,4.9c12-2.3,22-7.1,29.9-16.1
			c11-12.5,16.2-27.1,15.4-44.9C1436.9,179.5,1434.3,169.7,1429.9,159.9z M1404.2,216.5c-10.3,16.9-33.5,17.2-45.5,1.4
			c-9.1-12.1-8.6-43.5,0.4-54.8c6.8-8.5,15.1-11.1,24.9-10.3c14.3,1.2,25.6,14.1,25.8,28.6c0,3.1,0,6.3,0,9.4
			C1410.2,199.9,1409.1,208.4,1404.2,216.5z"/>
	</g>
</g>
</svg>
