<?xml version="1.0" standalone="no"?>
<!DOCTYPE svg PUBLIC "-//W3C//DTD SVG 20010904//EN"
 "http://www.w3.org/TR/2001/REC-SVG-20010904/DTD/svg10.dtd">
<svg version="1.0" xmlns="http://www.w3.org/2000/svg"
 width="1000.000000pt" height="1000.000000pt" viewBox="0 0 1000.000000 1000.000000"
 preserveAspectRatio="xMidYMid meet">
<metadata>
Created by potrace 1.11, written by Peter Selinger 2001-2013
</metadata>
<g transform="translate(0.000000,1000.000000) scale(0.100000,-0.100000)"
fill="#000000" stroke="none">
<path d="M4826 9763 c-1 -1 -51 -4 -111 -7 -61 -4 -132 -8 -160 -11 -66 -7
-144 -16 -175 -20 -14 -2 -45 -6 -70 -10 -25 -3 -56 -8 -70 -10 -14 -3 -41 -7
-60 -10 -235 -38 -578 -130 -823 -221 -522 -194 -977 -458 -1417 -823 -120
-99 -449 -422 -535 -525 -28 -33 -64 -76 -81 -95 -97 -114 -270 -355 -370
-516 -198 -321 -385 -727 -492 -1070 -39 -123 -96 -331 -106 -385 -4 -21 -22
-112 -40 -206 -5 -26 -14 -81 -21 -131 -3 -21 -8 -49 -10 -63 -2 -14 -7 -52
-10 -85 -3 -33 -8 -71 -10 -85 -26 -149 -26 -772 -1 -965 2 -16 7 -57 10 -90
4 -33 11 -85 16 -115 5 -30 11 -71 14 -90 3 -19 10 -60 16 -90 6 -30 13 -71
16 -90 3 -19 26 -114 50 -211 285 -1137 992 -2136 1981 -2797 67 -45 137 -91
155 -101 203 -116 276 -156 415 -223 269 -129 598 -252 843 -313 67 -17 332
-76 360 -80 20 -3 45 -7 57 -9 33 -7 82 -14 173 -26 47 -6 99 -12 115 -15 207
-28 845 -28 1025 0 14 2 50 7 80 10 63 7 88 11 150 21 25 4 54 8 65 9 38 5
240 47 320 67 257 64 530 154 715 236 30 13 73 31 95 40 88 35 369 182 518
272 441 265 878 639 1199 1027 461 555 782 1184 956 1869 40 156 84 371 97
469 3 28 8 64 10 80 53 370 53 904 0 1270 -34 238 -116 626 -139 663 -3 5 -7
19 -9 33 -9 45 -106 329 -152 442 -178 437 -405 825 -697 1192 -204 256 -466
519 -753 754 -11 9 -63 48 -115 87 -477 355 -968 599 -1532 763 -159 46 -406
103 -498 115 -25 3 -54 8 -65 10 -71 13 -187 29 -315 41 -126 13 -605 27 -614
18z m111 -597 l-3 -326 -185 -137 c-525 -392 -868 -648 -1089 -812 -135 -100
-252 -187 -260 -194 -8 -6 -85 -64 -170 -127 -85 -63 -159 -118 -165 -123 -5
-4 -104 -78 -220 -163 -115 -86 -374 -279 -575 -428 -201 -150 -399 -297 -440
-327 l-75 -55 -485 2 c-267 2 -490 3 -497 3 -24 2 101 308 227 556 301 592
675 1048 1235 1504 97 79 316 230 455 313 479 287 1043 496 1565 578 39 6 81
13 95 15 14 2 48 7 75 10 28 3 66 8 85 10 19 3 71 7 115 11 44 3 81 7 82 8 1
1 54 3 118 4 l115 3 -3 -325z m456 309 c48 -4 96 -8 106 -10 10 -2 42 -6 72
-10 119 -14 329 -51 429 -76 47 -11 93 -22 103 -24 133 -28 449 -135 640 -216
341 -146 652 -324 940 -540 272 -204 507 -425 747 -705 259 -300 531 -739 686
-1106 64 -151 114 -283 114 -299 0 -16 -19 -18 -232 -19 -128 -1 -351 -3 -496
-6 l-263 -4 -122 94 c-295 228 -643 497 -657 509 -8 7 -152 118 -320 248 -168
130 -417 323 -555 429 -137 106 -268 207 -290 224 -22 17 -45 36 -51 41 -6 6
-251 195 -543 420 l-532 410 5 325 c2 179 4 326 5 328 1 2 29 1 64 -2 34 -3
101 -8 150 -11z m85 -1175 c235 -182 434 -336 442 -343 8 -7 53 -42 100 -78
47 -36 195 -151 330 -255 135 -105 319 -247 410 -318 91 -70 172 -132 180
-139 33 -27 959 -744 1008 -781 29 -21 51 -42 50 -46 -2 -4 -57 -50 -123 -101
-181 -141 -496 -387 -530 -413 -16 -13 -120 -94 -230 -180 -110 -86 -215 -169
-234 -184 -72 -57 -135 -102 -143 -102 -4 0 -8 4 -8 10 0 5 -22 47 -49 92 -48
82 -487 842 -666 1153 -51 88 -126 219 -168 292 -42 72 -85 147 -95 165 -43
75 -509 880 -559 966 -60 102 -87 126 -143 126 -68 -1 -76 -10 -245 -302 -5
-9 -35 -60 -65 -112 -30 -52 -59 -103 -65 -112 -15 -25 -68 -117 -100 -173
-15 -27 -36 -62 -46 -77 -11 -14 -19 -28 -19 -31 0 -2 -51 -92 -113 -198 -63
-107 -237 -405 -387 -664 -150 -258 -294 -506 -320 -550 -27 -44 -61 -103 -77
-131 -15 -28 -95 -166 -178 -307 -132 -227 -151 -255 -166 -244 -9 6 -70 58
-135 113 -66 56 -263 224 -439 374 -176 150 -336 287 -355 304 -20 17 -78 67
-130 111 -52 44 -97 82 -100 85 -3 3 -31 27 -63 54 l-58 48 153 114 c84 62
158 117 163 121 6 5 125 94 265 198 241 179 722 537 1305 972 143 106 465 346
715 533 250 187 456 339 458 340 2 0 195 -149 430 -330z m-275 -750 c71 -124
137 -238 147 -255 33 -59 208 -361 265 -460 32 -55 66 -113 74 -130 9 -16 18
-32 21 -35 3 -3 10 -14 16 -25 13 -24 106 -185 484 -840 156 -269 291 -503
300 -520 14 -25 312 -540 615 -1065 40 -69 166 -287 280 -485 114 -198 229
-397 256 -443 27 -45 49 -85 49 -88 0 -3 8 -18 19 -32 10 -15 31 -49 46 -77
15 -27 91 -160 170 -295 78 -135 158 -275 178 -311 l37 -66 -563 3 c-309 2
-1001 6 -1537 8 -536 3 -987 5 -1002 6 l-26 0 0 649 c0 456 -4 655 -11 670 -6
11 -98 94 -204 183 -105 89 -196 168 -202 174 -5 6 -68 59 -140 119 -71 60
-148 125 -170 144 -22 20 -62 54 -89 76 -27 22 -56 47 -65 56 -9 8 -43 37 -76
65 -33 27 -62 51 -65 54 -3 3 -125 108 -272 234 -148 125 -268 229 -268 231 0
2 30 55 66 117 88 149 519 891 552 948 14 25 43 73 64 108 21 34 38 64 38 66
0 3 23 41 50 86 28 45 50 83 50 85 0 2 28 50 61 107 64 108 93 158 389 668
175 303 266 458 298 509 14 23 15 23 25 5 6 -10 69 -120 140 -244z m-3680
-1309 l158 -1 -5 -557 c-3 -307 -9 -832 -12 -1168 -9 -822 -9 -841 10 -870 9
-13 119 -104 246 -201 126 -97 230 -181 230 -185 0 -4 -40 -74 -89 -156 -48
-81 -139 -233 -201 -338 -62 -104 -141 -238 -176 -297 -67 -112 -76 -150 -52
-202 6 -14 23 -34 37 -43 24 -16 90 -17 942 -18 l917 0 108 -82 c60 -46 154
-117 209 -160 55 -42 258 -198 450 -346 193 -148 359 -276 370 -285 11 -10 45
-36 76 -59 l56 -41 2 -149 c8 -512 8 -553 -3 -554 -31 -4 -210 7 -271 16 -16
2 -52 7 -80 10 -50 6 -102 13 -140 20 -65 10 -108 18 -170 30 -38 8 -81 16
-95 18 -14 3 -72 17 -130 32 -58 15 -109 28 -115 29 -5 1 -37 11 -70 21 -33
10 -62 19 -65 20 -73 14 -419 151 -589 231 -200 96 -333 171 -541 308 -437
288 -830 660 -1138 1077 -69 93 -262 383 -262 392 0 3 -23 45 -51 93 -199 345
-403 894 -474 1274 -2 14 -9 50 -15 80 -12 60 -12 57 -34 215 -23 164 -25 188
-33 314 -17 273 -3 670 32 911 12 80 18 121 31 190 5 25 9 50 9 55 2 13 13 63
37 165 11 47 21 90 22 95 1 6 8 33 16 62 17 63 -17 59 390 56 168 -1 376 -2
463 -2z m7797 -27 c11 -29 78 -321 85 -369 4 -22 8 -48 11 -58 3 -10 7 -32 9
-50 3 -18 7 -48 10 -67 6 -36 8 -51 20 -160 13 -112 14 -122 21 -235 12 -200
6 -596 -11 -684 -1 -9 -6 -50 -10 -91 -4 -41 -9 -82 -10 -91 -2 -9 -6 -40 -10
-70 -3 -30 -8 -61 -10 -69 -2 -8 -7 -31 -10 -50 -57 -342 -177 -727 -333
-1070 -70 -153 -182 -366 -245 -463 -20 -31 -37 -59 -37 -62 0 -16 -194 -289
-298 -419 -138 -173 -378 -425 -537 -565 -350 -308 -787 -583 -1205 -760 -69
-28 -134 -56 -145 -61 -92 -41 -473 -157 -605 -185 -147 -31 -244 -49 -315
-60 -16 -2 -48 -7 -70 -10 -64 -10 -86 -13 -145 -19 -127 -13 -192 -17 -312
-21 l-126 -4 -2 132 c-1 73 -3 230 -4 349 -3 151 0 222 8 231 9 11 529 388
816 592 31 22 118 85 194 140 76 55 147 107 159 115 12 8 54 38 92 66 l70 51
575 -3 c1440 -7 1444 -7 1472 6 33 16 68 82 62 118 -5 28 -38 88 -307 552 -87
151 -169 293 -182 315 -12 22 -36 64 -54 93 -17 29 -31 57 -31 62 0 4 30 30
68 56 37 26 69 50 72 54 3 3 52 40 110 82 58 42 116 88 130 103 l25 27 0 1281
0 1282 215 3 c118 1 218 4 223 5 4 1 132 2 283 2 270 0 277 0 284 -21z m-7307
-191 c51 -43 94 -81 97 -84 3 -3 79 -68 170 -144 91 -77 167 -142 170 -145 3
-4 84 -73 180 -154 96 -82 191 -162 211 -180 19 -17 60 -51 89 -76 44 -37 357
-304 450 -383 14 -12 70 -60 125 -107 55 -47 102 -87 105 -90 3 -3 61 -52 130
-110 69 -57 127 -107 130 -110 3 -3 111 -95 240 -205 129 -109 237 -201 240
-204 3 -4 34 -31 70 -61 36 -30 67 -57 70 -60 3 -3 30 -25 60 -50 30 -25 57
-47 60 -50 4 -4 71 -62 161 -139 l26 -22 0 -1059 0 -1060 -36 27 c-82 63 -567
435 -581 446 -8 7 -71 55 -140 107 -69 52 -127 97 -130 100 -7 8 -706 545
-900 693 -52 39 -97 74 -100 77 -3 3 -54 44 -115 90 -265 201 -363 280 -378
304 -9 14 -38 35 -65 48 -26 13 -140 95 -253 182 l-207 159 3 311 c2 171 6
622 10 1001 4 380 8 765 8 858 1 92 3 167 5 167 2 0 45 -35 95 -77z m6067
-1091 l0 -1167 -91 -65 c-50 -36 -96 -70 -102 -75 -24 -21 -101 -75 -103 -72
-2 2 -103 176 -164 282 -9 17 -43 75 -75 130 -32 55 -68 116 -79 137 -12 20
-43 74 -70 120 -26 45 -60 103 -73 128 -14 25 -41 72 -61 105 -59 102 -75 129
-96 167 -47 83 -280 484 -292 504 -13 19 -5 27 139 140 83 65 159 124 167 131
8 7 184 144 390 304 206 161 404 316 440 345 36 29 66 53 68 53 1 1 2 -524 2
-1167z m-5490 -2003 c3 -3 142 -110 310 -239 168 -128 309 -237 315 -241 5 -5
-275 -9 -632 -9 l-641 0 70 118 c39 64 79 131 88 147 10 17 62 104 115 195 54
91 105 177 114 191 l15 27 121 -92 c66 -50 122 -94 125 -97z m3378 -733 c1 -2
-17 -16 -40 -32 -24 -16 -130 -92 -237 -169 -106 -77 -209 -152 -229 -166 -21
-14 -120 -85 -220 -158 -101 -73 -190 -135 -197 -138 -12 -4 -14 52 -13 329 0
183 4 335 8 338 9 5 922 1 928 -4z"/>
</g>
</svg>
