<?xml version="1.0" encoding="utf-8"?>
<!-- Generator: Adobe Illustrator 26.2.1, SVG Export Plug-In . SVG Version: 6.00 Build 0)  -->
<svg version="1.1" id="Layer_1" xmlns="http://www.w3.org/2000/svg" xmlns:xlink="http://www.w3.org/1999/xlink" x="0px"
     y="0px"
     viewBox="0 0 1080 1080" style="enable-background:new 0 0 1080 1080;" xml:space="preserve">
<style type="text/css">
	.st0{fill:#2775CA;}
	.st1{fill:#FFFFFF;}
	.st2{fill:url(#SVGID_1_);}
</style>
    <g>
	<path class="st0" d="M540,967.4c236.9,0,427.4-190.5,427.4-427.4S776.9,112.6,540,112.6S112.6,303.1,112.6,540
		S303.1,967.4,540,967.4z"/>
        <path class="st1" d="M657.5,607.7c0-62.3-37.4-83.7-112.2-92.6c-53.4-7.1-64.1-21.4-64.1-46.3s17.8-40.9,53.4-40.9
		c32.1,0,49.9,10.7,58.7,37.4c1.8,5.4,7.1,8.9,12.5,8.9h28.5c7.1,0,12.5-5.4,12.5-12.4v-1.8c-7.1-39.2-39.2-69.5-80.1-73v-42.7
		c0-7.1-5.4-12.5-14.2-14.2h-26.8c-7.1,0-12.5,5.3-14.2,14.2V385c-53.4,7.1-87.2,42.7-87.2,87.3c0,58.7,35.6,81.9,110.4,90.8
		c49.9,8.9,65.9,19.6,65.9,48.1c0,28.6-24.9,48.1-58.7,48.1c-46.3,0-62.4-19.6-67.7-46.3c-1.7-7.1-7.1-10.7-12.4-10.7h-30.3
		c-7.1,0-12.4,5.4-12.4,12.5v1.8c7.1,44.5,35.6,76.5,94.4,85.5v42.7c0,7.1,5.4,12.4,14.2,14.2h26.6c7.1,0,12.5-5.4,14.2-14.2v-42.7
		C621.9,693.2,657.5,655.7,657.5,607.7L657.5,607.7z"/>
        <path class="st1" d="M449.1,794.6c-138.9-49.9-210.2-204.8-158.5-342c26.8-74.8,85.5-131.8,158.5-158.5c7.1-3.6,10.7-8.9,10.7-17.8
		v-24.9c0-7.1-3.6-12.5-10.7-14.2c-1.8,0-5.4,0-7.1,1.7c-169.2,53.4-261.8,233.4-208.3,402.5c32.1,99.7,108.7,176.4,208.3,208.3
		c7.1,3.6,14.2,0,16-7.1c1.8-1.7,1.8-3.6,1.8-7.1v-24.9C459.9,805.3,454.5,798.3,449.1,794.6z M638,239c-7.1-3.6-14.2,0-16,7.1
		c-1.8,1.8-1.8,3.6-1.8,7.1v24.9c0,7.1,5.4,14.2,10.7,17.8c138.9,49.9,210.2,204.8,158.5,342c-26.8,74.9-85.5,131.8-158.5,158.6
		c-7.1,3.6-10.7,8.9-10.7,17.8v24.9c0,7.1,3.6,12.5,10.7,14.2c1.8,0,5.4,0,7.1-1.7c169.2-53.4,261.8-233.4,208.3-402.6
		C814.3,347.6,735.9,271,638,239L638,239z"/>
</g>
    <g>

		<linearGradient id="SVGID_1_" gradientUnits="userSpaceOnUse" x1="865.4103" y1="1056.0059" x2="1939.1893"
                        y2="1056.0059" gradientTransform="matrix(-0.8237 0.567 -0.567 -0.8237 2293.8542 614.7583)">
		<stop offset="0" style="stop-color:#B6509E"/>
            <stop offset="1" style="stop-color:#2EBAC6"/>
	</linearGradient>
        <path class="st2" d="M814.7,939c-53.9,37.1-113.4,62.5-176.9,75.6c-61.3,12.6-123.8,13.2-185.7,1.8c-61.9-11.4-120-34.3-172.8-68
		c-54.6-34.9-101.1-79.8-138.2-133.7S78.5,701.3,65.4,637.8C52.8,576.4,52.2,514,63.6,452.1s34.3-120,68-172.8
		c34.9-54.6,79.8-101.1,133.7-138.2c53.9-37.1,113.4-62.5,176.9-75.6c61.3-12.6,123.8-13.2,185.7-1.8c61.9,11.4,120,34.3,172.8,68
		c54.6,34.9,101.1,79.8,138.2,133.7s62.5,113.4,75.6,176.9c12.6,61.3,13.2,123.8,1.8,185.7c-11.4,61.9-34.3,120-68,172.8
		C913.5,855.4,868.5,901.9,814.7,939 M844.4,982.2c244.2-168.1,306-502.4,137.8-746.7S479.8-70.4,235.6,97.8s-306,502.4-137.8,746.7
		S600.2,1150.4,844.4,982.2L844.4,982.2z"/>
</g>
</svg>
