<?xml version="1.0" encoding="utf-8"?>
<!-- Generator: Adobe Illustrator 26.2.1, SVG Export Plug-In . SVG Version: 6.00 Build 0)  -->
<svg version="1.1"
     id="Layer_1" shape-rendering="geometricPrecision" text-rendering="geometricPrecision"
     image-rendering="optimizeQuality" xmlns:xodm="http://www.corel.com/coreldraw/odm/2003"
     xmlns="http://www.w3.org/2000/svg" xmlns:xlink="http://www.w3.org/1999/xlink" x="0px" y="0px"
     viewBox="0 0 1080 1080"
     style="enable-background:new 0 0 1080 1080;" xml:space="preserve">
<style type="text/css">
	.st0{fill:#F5AC37;}
	.st1{fill:#FEFEFD;}
	.st2{fill:url(#SVGID_1_);}
</style>
    <g id="Layer_x0020_1">
	<path class="st0" d="M540,112.6c236.1,0,427.4,191.4,427.4,427.4c0,236.1-191.3,427.4-427.4,427.4C304,967.4,112.6,776,112.6,540
		S304,112.6,540,112.6z"/>
        <path class="st1" d="M555.8,570.2h162.4c3.5,0,5.1,0,5.4-4.5c1.3-16.5,1.3-33.2,0-49.7c0-3.2-1.6-4.5-5.1-4.5H395.2
		c-4,0-5.1,1.3-5.1,5.1v47.6c0,6.2,0,6.2,6.4,6.2L555.8,570.2L555.8,570.2z M705.4,455.9c0.5-1.2,0.5-2.5,0-3.7
		c-2.7-5.9-5.9-11.6-9.7-16.9c-5.6-9-12.3-17.3-19.8-24.9c-3.6-4.5-7.7-8.5-12.3-12c-23.1-19.7-50.6-33.6-80.2-40.6
		c-14.9-3.3-30.2-4.9-45.4-4.8H394.7c-4,0-4.5,1.6-4.5,5.1v94.9c0,4,0,5.1,5.1,5.1h308.3c0,0,2.7-0.6,3.2-2.1L705.4,455.9
		L705.4,455.9z M705.4,625.7c-4.5-0.5-9.1-0.5-13.7,0H395.5c-4,0-5.4,0-5.4,5.4v92.7c0,4.3,0,5.4,5.4,5.4h136.8
		c6.6,0.5,13.1,0,19.5-1.3c19.9-1.4,39.3-5.7,58-12.8c6.8-2.4,13.3-5.4,19.5-9.1h1.9c32.1-16.7,58.1-42.9,74.6-75
		C705.6,630.9,707.5,626.8,705.4,625.7L705.4,625.7z M336.4,777.2v-1.6v-62.3v-21.1v-62.8c0-3.5,0-4-4.3-4h-57.9
		c-3.2,0-4.5,0-4.5-4.3v-50.7h62c3.5,0,4.8,0,4.8-4.5v-50.2c0-3.2,0-4-4.3-4h-57.9c-3.2,0-4.5,0-4.5-4.3v-47c0-2.9,0-3.7,4.3-3.7
		h57.5c4,0,5.1,0,5.1-5.1v-144c0-4.3,0-5.4,5.4-5.4h200.3c14.6,0.6,29,2.1,43.3,4.8c29.4,5.5,57.7,16,83.6,31
		c17.2,10.1,32.9,22.3,47,36.3c10.6,11,20.1,22.9,28.6,35.5c8.4,12.8,15.4,26.5,20.9,40.8c0.7,3.7,4.3,6.3,8,5.6h47.8
		c6.2,0,6.2,0,6.4,5.9V506c0,4.3-1.6,5.4-5.9,5.4h-36.9c-3.7,0-4.8,0-4.5,4.8c1.4,16.3,1.4,32.6,0,48.8c0,4.5,0,5.1,5.1,5.1h42.2
		c1.9,2.4,0,4.8,0,7.2c0.2,3.1,0.2,6.3,0,9.3v32.5c0,4.5-1.3,5.9-5.4,5.9H772c-3.5-0.7-7,1.6-7.8,5.1c-12,31.3-31.3,59.3-56.1,81.8
		c-9.1,8.2-18.6,15.8-28.6,23c-10.7,6.2-21.1,12.6-32.1,17.7c-20.2,9.1-41.3,15.8-63.1,20c-20.6,3.7-41.6,5.4-62.5,5.1H336.3
		L336.4,777.2L336.4,777.2z"/>
</g>
    <g>

		<linearGradient id="SVGID_1_" gradientUnits="userSpaceOnUse" x1="865.4103" y1="1056.0059" x2="1939.1893"
                        y2="1056.0059" gradientTransform="matrix(-0.8237 0.567 -0.567 -0.8237 2293.8542 614.7583)">
		<stop offset="0" style="stop-color:#B6509E"/>
            <stop offset="1" style="stop-color:#2EBAC6"/>
	</linearGradient>
        <path class="st2" d="M814.7,939c-53.9,37.1-113.4,62.5-176.9,75.6c-61.3,12.6-123.8,13.2-185.7,1.8c-61.9-11.4-120-34.3-172.8-68
		c-54.6-34.9-101.1-79.8-138.2-133.7S78.5,701.3,65.4,637.8C52.8,576.4,52.2,514,63.6,452.1s34.3-120,68-172.8
		c34.9-54.6,79.8-101.1,133.7-138.2c53.9-37.1,113.4-62.5,176.9-75.6c61.3-12.6,123.8-13.2,185.7-1.8c61.9,11.4,120,34.3,172.8,68
		c54.6,34.9,101.1,79.8,138.2,133.7s62.5,113.4,75.6,176.9c12.6,61.3,13.2,123.8,1.8,185.7c-11.4,61.9-34.3,120-68,172.8
		C913.5,855.4,868.5,901.9,814.7,939 M844.4,982.2c244.2-168.1,306-502.4,137.8-746.7S479.8-70.4,235.6,97.8s-306,502.4-137.8,746.7
		S600.2,1150.4,844.4,982.2L844.4,982.2z"/>
</g>
</svg>
