<?xml version="1.0" encoding="utf-8"?>
<!-- Generator: Adobe Illustrator 26.2.1, SVG Export Plug-In . SVG Version: 6.00 Build 0)  -->
<svg version="1.1" id="Layer_1" xmlns="http://www.w3.org/2000/svg" xmlns:xlink="http://www.w3.org/1999/xlink" x="0px"
	 y="0px"
	 viewBox="0 0 320 320" style="enable-background:new 0 0 320 320;" xml:space="preserve">
<style type="text/css">
	.st0{fill:#10151B;stroke:#F5C09A;stroke-width:11.61;stroke-linecap:round;stroke-linejoin:round;}
	.st1{fill:none;stroke:#F5C09A;stroke-width:11.61;stroke-linecap:round;stroke-linejoin:round;}
	.st2{fill:#F5C09A;}
</style>
	<circle class="st0" cx="160.4" cy="160" r="147.6"/>
	<line class="st1" x1="160.4" y1="12.4" x2="160.4" y2="43.5"/>
	<line class="st1" x1="160.4" y1="277.1" x2="160.4" y2="307.6"/>
	<path class="st2" d="M160.3,36.1L56.2,121.2l-2.3,79l106.5,84.4l106.4-84.3v-79.9L160.3,36.1z M138,251.9c0.2-1.9,0.1-3.7-0.2-5.4
	c-0.3-3-2-5.7-4.5-7.3c-2.7-1.8-5.6-3.4-8.3-4.9l-1.1-0.6c-15.7-8.5-27.8-20.2-36.1-34.7c-5.4-9.4-8.3-21.5-8.8-37.1
	c-0.5-18.3,2.8-32.2,10.9-45.1c8.5-13.6,20.5-24.6,34.8-31.7c1.5-0.7,2.9-1.6,4.3-2.4c1-0.6,1.9-1.1,2.9-1.7
	c5.6-3.2,6.4-7.5,6.2-11.8l22.3-18.2l22.2,17.6c-0.4,4.6,0.3,9.1,6.1,12.5c1,0.5,1.9,1.1,2.9,1.7c1.4,0.8,2.8,1.6,4.3,2.4
	c14.3,7.1,26.3,18.1,34.8,31.7c8.1,13,11.5,26.9,10.9,45.1c-0.5,15.6-3.3,27.7-8.8,37.1c-8.3,14.5-20.4,26.1-36.1,34.7l-1.1,0.6
	c-2.8,1.5-5.6,3.1-8.3,4.9c-2.5,1.6-4.2,4.3-4.5,7.3c-0.3,1.7-0.4,3.5-0.2,5.4l-22.4,17.8L138,251.9z"/>
	<path class="st2" d="M181.6,150.9c-7.9-2.5-15.6-4.3-23-5.6c-3.8-0.6-7.3-1.7-10.4-3.2c-2.2-1.2-3.6-2.1-3.7-3.7
	c-0.8-8.6,1.6-12.4,8.9-13.9c8.9-1.9,15.5,0.9,20.4,8.6c0.6,0.9,1.2,1.8,1.8,2.6c1.3,1.9,3.3,2.9,5.5,2.9c0,0,0,0,0,0
	c3,0.1,6.3-0.1,9.7-0.5c2.3-0.1,4.2-1.7,4.7-3.9c0.5-1.7,0.6-3.6,0.2-5.3l0-0.1c-2.4-8.7-6.8-14.7-13.4-18.4c-2.4-1.4-5-2.5-7.6-3.5
	c-2.5-0.8-3.1-1.6-3.3-1.9c-0.1-0.1-0.3-0.5,0.1-1.5l0.1-0.3l0-0.3c0.2-3.7-0.1-7-0.9-10.2c-0.4-2.3-2.3-4.1-4.6-4.6
	c-4.3-1-8.7-1-13,0c-2.3,0.4-4.2,2.2-4.7,4.7c-0.6,2.8-0.8,5.6-0.8,8.2c0,0.7,0.1,1.4,0.1,2.1c0.1,1,0.2,2,0,2.3
	c-0.3,0.2-1.3,0.4-2,0.5c-0.6,0.1-1.3,0.2-2,0.4c-15.6,4.5-25.1,18.9-22.9,34.8c1.1,8.2,4.8,14.5,10.8,18.2c7.2,4.5,15.3,7.3,24,8.3
	c6.2,0.8,12.2,2.7,17.7,5.6c1.5,0.8,2.6,2.4,2.9,4.2c0.2,1.4,0.2,2.7,0,4.2l0,0.1c-0.7,5-4.4,9-9.3,9.9c-3.7,0.7-7.4,0.9-11.3,0.6
	c-6.1-0.3-10.2-3-12.6-8.3c-1-2.4-2.3-4.7-3.9-6.7c-0.7-1.1-1.8-2-3.1-2.5l-0.2-0.1c-4.5-1.4-9.4-1.1-13.9,0.7
	c-3.2,1.4-4.5,3.8-3.9,7.4c1.3,8.1,5.4,15.4,11.6,20.7c4.4,3.7,9.8,6.3,17.1,8c0.2,0,0.6,0.1,0.9,0.2c0,0.3,0,0.6,0,1
	c-0.2,3.1,0,6.5,0.6,10.5c0.3,3,2.6,5.4,5.5,5.7c1.9,0.4,3.9,0.5,5.8,0.5c1.6,0,3.1-0.1,4.6-0.4c5.4-1,6.3-2.4,7.1-7.5
	c0.3-1.7,0.3-3.4,0.3-5c0-1.7,0-3.2,0.3-4.7l0-0.2c0-0.1,0-0.1,0-0.1l0.1,0c8.2-2,15.4-6.5,20.8-12.8c4.4-4.9,6.9-11.4,7.2-19.1
	C200.5,168.8,196,155.7,181.6,150.9z"/>
</svg>
