<svg width="538" height="538" viewBox="0 0 538 538" fill="none" xmlns="http://www.w3.org/2000/svg">
    <g filter="url(#filter0_d_782_657)">
        <g clip-path="url(#clip0_782_657)">
            <rect x="19" y="15" width="500" height="500" rx="250" fill="url(#paint0_linear_782_657)"/>
            <path d="M407.458 249.474C404.009 248.737 400.415 248.026 396.686 247.343C395.621 238.763 393.758 230.442 391.177 222.465C439.654 230.266 471 242.671 471 256.641C471 256.797 470.996 256.953 470.988 257.108C469.833 280.507 380.737 299.399 271 299.399C160.543 299.399 71 280.259 71 256.647C71 256.502 71.0034 256.357 71.0102 256.212C71.6523 242.255 103.582 229.899 152.525 222.194C149.928 230.161 148.049 238.473 146.966 247.045C142.643 247.818 138.498 248.628 134.542 249.474C129.359 250.582 124.617 251.726 120.315 252.887V252.893C115.725 254.132 111.637 255.39 108.05 256.644C114.999 259.074 123.831 261.519 134.542 263.808C138.17 264.584 141.959 265.33 145.897 266.045L145.897 266.051C178.995 272.056 222.674 275.812 271 275.812C320.117 275.812 364.434 271.932 397.721 265.754L397.721 265.748C401.081 265.124 404.329 264.477 407.458 263.808C418.174 261.518 427.009 259.072 433.959 256.641C427.009 254.21 418.174 251.764 407.458 249.474Z"
                  fill="#F1F1F1"/>
            <path d="M421.677 182.902C421.682 182.79 421.685 182.679 421.685 182.567C421.685 169.962 388.205 159.043 339.376 153.721C350.997 161.423 361.321 171.052 369.933 182.177C370.566 182.306 371.193 182.436 371.814 182.567C371.363 182.663 370.909 182.757 370.451 182.851L370.455 182.857C345.577 187.972 310.862 191.288 271.913 191.288C232.868 191.288 198.078 187.955 173.188 182.819L173.192 182.814C172.796 182.732 172.403 182.65 172.013 182.567C172.551 182.454 173.094 182.341 173.642 182.229C182.251 171.096 192.575 161.458 204.196 153.748C155.506 159.081 122.142 169.984 122.142 182.567V182.572L122.142 182.574C122.142 198.32 194.652 210.835 243.525 214.296C254.46 215.07 271.585 215.124 271.585 215.124C277.628 215.387 288.637 215.078 299.528 214.327C348.667 210.938 420.955 198.56 421.677 182.902Z"
                  fill="#F1F1F1"/>
            <path d="M122.142 345.975C122.142 337.739 136.433 330.223 159.96 324.517C163.714 332.045 168.149 339.145 173.181 345.731C172.789 345.811 172.4 345.893 172.013 345.975C172.546 346.087 173.084 346.199 173.626 346.31C173.661 346.356 173.697 346.401 173.732 346.447H174.269C199.081 351.458 233.43 354.695 271.913 354.695C310.396 354.695 344.745 351.458 369.557 346.447H369.882C369.904 346.418 369.926 346.39 369.948 346.361C370.576 346.234 371.198 346.105 371.814 345.975C371.367 345.88 370.916 345.786 370.462 345.693C375.493 339.105 379.926 332.002 383.677 324.471C407.316 330.182 421.685 337.717 421.685 345.975C421.685 346.132 421.68 346.29 421.669 346.447C420.513 364.072 353.908 378.282 271.913 378.282C189.918 378.282 123.313 364.072 122.157 346.447C122.146 346.29 122.142 346.132 122.142 345.975Z"
                  fill="#F1F1F1"/>
        </g>
        <rect x="11.5" y="7.5" width="515" height="515" rx="257.5" stroke="white" stroke-width="15"/>
    </g>
    <defs>
        <filter id="filter0_d_782_657" x="0" y="0" width="538" height="538" filterUnits="userSpaceOnUse"
                color-interpolation-filters="sRGB">
            <feFlood flood-opacity="0" result="BackgroundImageFix"/>
            <feColorMatrix in="SourceAlpha" type="matrix" values="0 0 0 0 0 0 0 0 0 0 0 0 0 0 0 0 0 0 127 0"
                           result="hardAlpha"/>
            <feOffset dy="4"/>
            <feGaussianBlur stdDeviation="2"/>
            <feComposite in2="hardAlpha" operator="out"/>
            <feColorMatrix type="matrix" values="0 0 0 0 0 0 0 0 0 0 0 0 0 0 0 0 0 0 0.25 0"/>
            <feBlend mode="normal" in2="BackgroundImageFix" result="effect1_dropShadow_782_657"/>
            <feBlend mode="normal" in="SourceGraphic" in2="effect1_dropShadow_782_657" result="shape"/>
        </filter>
        <linearGradient id="paint0_linear_782_657" x1="476.712" y1="46.6656" x2="85.2099" y2="466.955"
                        gradientUnits="userSpaceOnUse">
            <stop stop-color="#5D24C6"/>
            <stop offset="1" stop-color="#9C4ED6"/>
        </linearGradient>
        <clipPath id="clip0_782_657">
            <rect x="19" y="15" width="500" height="500" rx="250" fill="white"/>
        </clipPath>
    </defs>
</svg>
