<?xml version="1.0" encoding="utf-8"?>
<!-- Generator: Adobe Illustrator 26.1.0, SVG Export Plug-In . SVG Version: 6.00 Build 0)  -->
<svg version="1.1"
	 id="Layer_1" image-rendering="optimizeQuality" shape-rendering="geometricPrecision" text-rendering="geometricPrecision" xmlns:xodm="http://www.corel.com/coreldraw/odm/2003"
	 xmlns="http://www.w3.org/2000/svg" xmlns:xlink="http://www.w3.org/1999/xlink" x="0px" y="0px" viewBox="0 0 1080 1080"
	 style="enable-background:new 0 0 1080 1080;" xml:space="preserve">
<style type="text/css">
	
		.st0{fill-rule:evenodd;clip-rule:evenodd;fill:#10151B;stroke:#F5C09A;stroke-width:47.25;stroke-linecap:round;stroke-linejoin:round;stroke-miterlimit:33.75;}
	.st1{fill:#F5C09A;}
</style>
<g id="Untitled">
	<g>
		<path class="st0" d="M543.1,30.9"/>
		<path class="st0" d="M34.1,540C34.1,258.8,262,30.9,543.1,30.9c281.2,0,509.1,227.9,509.1,509.1c0,281.2-227.9,509.1-509.1,509.1
			C262,1049.1,34.1,821.2,34.1,540z"/>
	</g>
</g>
<path class="st1" d="M931.1,289.5c-37.8-58.5-158.4-52.4-302.3,5.7l-81.9-64.8c-4.3-3.4-10.5-3.4-14.8,0L273.4,435
	c-0.1,0.1-0.3,0.3-0.4,0.4c-0.4,0.4-0.8,0.7-1.1,1.1c-0.2,0.2-0.4,0.5-0.6,0.7c-0.3,0.4-0.6,0.9-0.9,1.4c-0.1,0.3-0.3,0.5-0.4,0.8
	c-0.2,0.5-0.4,1.1-0.6,1.7c-0.1,0.2-0.2,0.4-0.2,0.7c-0.2,0.8-0.3,1.7-0.3,2.6v86C162.4,635,111,738.5,147.9,795.6
	c38.2,59.1,160.7,52.3,306.5-7.4l77.7,61.5c2.2,1.7,4.8,2.6,7.4,2.6c2.6,0,5.2-0.9,7.4-2.6l113.4-89.8h136.6c4.3,0,8.2-2.3,10.3-6
	c2.1-3.7,2.1-8.2,0-11.9l-39-67.5l37.3-29.5c2.9-2.3,4.5-5.7,4.5-9.4v-81c26.5-26.1,49.6-52,68.8-77.3c14.9,2.8,30.9-2.2,41.4-14.3
	c13.4-15.4,13.3-37.4,0.9-52.3C945.5,361.9,950.4,319.3,931.1,289.5z M539.5,254.9L779,444.4l-98.5,78L549.8,296.1
	c-2.1-3.7-6.1-6-10.3-6c-4.3,0-8.2,2.3-10.3,6L398.6,522.4l-98.5-78L539.5,254.9z M786.2,545.5c-18.1,18.6-38.3,37.3-60.3,55.7
	l-33.4-57.9l93.7-74.2V545.5z M197.6,763.4c-28.5-44.1,1.7-119,71.3-198.2v70.3c0,3.6,1.7,7.1,4.5,9.4l37.3,29.5l-39,67.5
	c-2.1,3.7-2.1,8.2,0,11.9c2.1,3.7,6.1,6,10.3,6h136.6l14.5,11.5C320.6,811.1,228.5,811.2,197.6,763.4z M329.6,689.4l58.9,46.6h-85.8
	L329.6,689.4z M527.6,815.7L292.8,629.8V469l234.8,185.9V815.7z M551.4,815.7v-55.8h70.5L551.4,815.7z M776.3,736.1H551.4v-86.9
	c0-0.2-0.1-0.4-0.1-0.6c0-0.4-0.1-0.8-0.1-1.3c-0.1-0.4-0.1-0.7-0.2-1.1c-0.1-0.4-0.2-0.8-0.3-1.1c-0.1-0.4-0.3-0.7-0.5-1.1
	c-0.2-0.3-0.4-0.7-0.6-1c-0.2-0.3-0.4-0.6-0.7-1c-0.2-0.3-0.5-0.6-0.7-0.9c-0.3-0.3-0.6-0.6-0.9-0.9c-0.2-0.1-0.3-0.3-0.5-0.4
	L417.5,537.3l122-211.4L776.3,736.1z M786.2,629.8l-30,23.8l-19.5-33.9c17.4-14.1,34-28.3,49.6-42.5V629.8z M886.5,395.5
	c-11.8,0.4-23.4,5.5-31.7,15c-13.4,15.4-13.3,37.3-1,52.2c-12,18.5-26.7,37.7-43.8,57.1v-75.4c0-0.9-0.1-1.7-0.3-2.6
	c-0.1-0.2-0.1-0.5-0.2-0.7c-0.2-0.6-0.3-1.2-0.6-1.7c-0.1-0.3-0.3-0.5-0.4-0.8c-0.3-0.5-0.5-0.9-0.9-1.4c-0.2-0.3-0.4-0.5-0.6-0.7
	c-0.4-0.4-0.7-0.8-1.1-1.1c-0.1-0.1-0.2-0.3-0.4-0.4l-155.3-123c110.6-38.1,200.7-37.6,231.1,9.5C893.9,341,895.1,366.4,886.5,395.5
	z"/>
</svg>
