<?xml version="1.0" encoding="UTF-8"?>
<svg id="a" xmlns="http://www.w3.org/2000/svg" viewBox="0 0 992.15 767.81">
    <defs>
        <style>.b{fill:#f5c09a;}.c{fill:#252736;}</style>
    </defs>
    <path class="b"
          d="M977.58,75.89c-46.48-71.96-194.73-64.44-371.67,6.97L505.17,3.16c-5.32-4.22-12.87-4.22-18.18,0L168.98,254.85c-.18,.15-.33,.33-.48,.48-.51,.44-.99,.88-1.39,1.39-.29,.29-.55,.59-.77,.92-.4,.51-.73,1.1-1.06,1.65-.18,.33-.37,.66-.51,.99-.29,.66-.55,1.36-.73,2.09-.07,.29-.18,.55-.26,.84-.22,1.03-.37,2.05-.37,3.15v105.76C32.51,500.72-30.73,628,14.58,698.12c46.96,72.62,197.62,64.26,376.84-9.09l95.57,75.62c2.68,2.09,5.87,3.15,9.09,3.15s6.42-1.06,9.09-3.15l139.48-110.38h167.93c5.24,0,10.08-2.82,12.68-7.33,2.64-4.55,2.64-10.15,0-14.66l-47.91-83.07,45.82-36.29c3.52-2.75,5.57-7,5.57-11.47v-99.56c32.63-32.04,61.03-64,84.61-94.98,18.29,3.41,38.05-2.68,50.95-17.6,16.46-18.99,16.31-45.93,1.03-64.33,29.91-60.01,35.96-112.39,12.24-149.09ZM510.74,722.83v-68.55h86.66l-86.66,68.55Zm0-97.88v-106.89c0-.26-.07-.51-.07-.77-.04-.55-.07-1.06-.15-1.58-.07-.44-.18-.92-.29-1.36-.15-.44-.26-.92-.44-1.36-.15-.44-.37-.88-.55-1.32-.22-.4-.44-.84-.7-1.25-.22-.4-.51-.77-.81-1.17-.26-.37-.55-.73-.88-1.06-.33-.4-.73-.73-1.1-1.1-.22-.15-.37-.37-.59-.55l-159.13-125.96L496.08,120.72l291.1,504.23H510.74Zm-29.33,97.88L192.74,494.34v-197.7l288.68,228.49v197.7Zm-405.66-64.22c-35.01-54.22,2.05-146.26,87.65-243.63v86.48c0,4.47,2.05,8.72,5.57,11.47l45.82,36.29-47.91,83.07c-2.64,4.51-2.64,10.12,0,14.66,2.6,4.51,7.44,7.33,12.68,7.33h167.93l17.89,14.15c-138.49,48.76-251.66,48.9-289.63-9.82Zm162.28-90.99l72.44,57.33h-105.5l33.07-57.33Zm-36.33-301.25L496.08,33.37l294.4,233-121.12,95.82L508.76,84.07c-2.6-4.55-7.44-7.33-12.68-7.33s-10.08,2.79-12.68,7.33l-160.6,278.12-121.08-95.82Zm536.78,215.59c21.44-17.27,41.79-34.75,60.92-52.27v64.66l-36.91,29.22-24.01-41.61Zm60.92-91.35c-22.32,22.87-47.11,45.86-74.12,68.51l-41.13-71.23,115.25-91.24v93.95ZM632.23,103.71c136-46.85,246.71-46.26,284.17,11.69,15.43,23.86,16.79,55.1,6.27,90.87-14.48,.55-28.78,6.78-38.86,18.4-16.42,18.92-16.35,45.79-1.25,64.15-14.77,22.76-32.81,46.3-53.81,70.16v-92.63c0-1.1-.15-2.13-.37-3.15-.04-.29-.18-.55-.26-.84-.18-.73-.44-1.43-.73-2.09-.15-.33-.33-.66-.51-.99-.33-.55-.66-1.14-1.06-1.65-.22-.33-.48-.62-.73-.92-.44-.51-.92-.95-1.39-1.39-.18-.15-.33-.33-.51-.48l-190.95-151.14Z"/>
    <path class="c"
          d="M365.4,668.43c-138.49,48.76-251.66,48.9-289.63-9.82-35.01-54.22,2.05-146.26,87.65-243.63v86.48c0,4.47,2.05,8.72,5.57,11.47l45.82,36.29-47.91,83.07c-2.64,4.51-2.64,10.12,0,14.66,2.6,4.51,7.44,7.33,12.68,7.33h167.93l17.89,14.15Z"/>
    <polygon class="c" points="310.48 624.95 204.98 624.95 238.05 567.62 310.48 624.95"/>
    <polygon class="c" points="481.42 525.13 481.42 722.83 192.74 494.34 192.74 296.64 481.42 525.13"/>
    <polygon class="c" points="597.4 654.28 510.74 722.83 510.74 654.28 597.4 654.28"/>
    <path class="c"
          d="M922.67,206.28c-14.48,.55-28.78,6.78-38.86,18.4-16.42,18.92-16.35,45.79-1.25,64.15-14.77,22.76-32.81,46.3-53.81,70.16v-92.63c0-1.1-.15-2.13-.37-3.15-.04-.29-.18-.55-.26-.84-.18-.73-.44-1.43-.73-2.09-.15-.33-.33-.66-.51-.99-.33-.55-.66-1.14-1.06-1.65-.22-.33-.48-.62-.73-.92-.44-.51-.92-.95-1.39-1.39-.18-.15-.33-.33-.51-.48l-190.95-151.14c136-46.85,246.71-46.26,284.17,11.69,15.43,23.86,16.79,55.1,6.27,90.87Z"/>
    <path class="c" d="M799.43,429.68v64.66l-36.91,29.22-24.01-41.61c21.44-17.27,41.79-34.75,60.92-52.27Z"/>
    <path class="c" d="M799.43,296.64v93.95c-22.32,22.87-47.11,45.86-74.12,68.51l-41.13-71.23,115.25-91.24Z"/>
    <path class="c"
          d="M510.74,624.95v-106.89c0-.26-.07-.51-.07-.77-.04-.55-.07-1.06-.15-1.58-.07-.44-.18-.92-.29-1.36-.15-.44-.26-.92-.44-1.36-.15-.44-.37-.88-.55-1.32-.22-.4-.44-.84-.7-1.25-.22-.4-.51-.77-.81-1.17-.26-.37-.55-.73-.88-1.06-.33-.4-.73-.73-1.1-1.1-.22-.15-.37-.37-.59-.55l-159.13-125.96L496.08,120.72l291.1,504.23H510.74Z"/>
    <path class="c"
          d="M790.48,266.37l-121.12,95.82L508.76,84.07c-2.6-4.55-7.44-7.33-12.68-7.33s-10.08,2.79-12.68,7.33l-160.6,278.12-121.08-95.82L496.08,33.37l294.4,233Z"/>
</svg>
