<?xml version="1.0" encoding="UTF-8" standalone="no"?>
<!DOCTYPE svg PUBLIC "-//W3C//DTD SVG 1.1//EN" "http://www.w3.org/Graphics/SVG/1.1/DTD/svg11.dtd"
[
<!ATTLIST g
  xmlns:vectornator CDATA #FIXED "http://vectornator.io"
  vectornator:layerName CDATA #IMPLIED >
<!ATTLIST g
  xmlns:vectornator CDATA #FIXED "http://vectornator.io"
  vectornator:mask CDATA #IMPLIED >
<!ATTLIST text
  xmlns:vectornator CDATA #FIXED "http://vectornator.io"
  vectornator:width CDATA #IMPLIED >

<!ATTLIST path
  xmlns:vectornator CDATA #FIXED "http://vectornator.io"
  vectornator:blendMode CDATA #IMPLIED >
<!ATTLIST path
  xmlns:vectornator CDATA #FIXED "http://vectornator.io"
  vectornator:shadowColor CDATA #IMPLIED >
<!ATTLIST path
  xmlns:vectornator CDATA #FIXED "http://vectornator.io"
  vectornator:shadowOpacity CDATA #IMPLIED >
<!ATTLIST path
  xmlns:vectornator CDATA #FIXED "http://vectornator.io"
  vectornator:shadowRadius CDATA #IMPLIED >
<!ATTLIST path
  xmlns:vectornator CDATA #FIXED "http://vectornator.io"
  vectornator:shadowOffset CDATA #IMPLIED >
<!ATTLIST path
  xmlns:vectornator CDATA #FIXED "http://vectornator.io"
  vectornator:shadowAngle CDATA #IMPLIED >

<!ATTLIST image
  xmlns:vectornator CDATA #FIXED "http://vectornator.io"
  vectornator:blendMode CDATA #IMPLIED >
<!ATTLIST image
  xmlns:vectornator CDATA #FIXED "http://vectornator.io"
  vectornator:shadowColor CDATA #IMPLIED >
<!ATTLIST image
  xmlns:vectornator CDATA #FIXED "http://vectornator.io"
  vectornator:shadowOpacity CDATA #IMPLIED >
<!ATTLIST image
  xmlns:vectornator CDATA #FIXED "http://vectornator.io"
  vectornator:shadowRadius CDATA #IMPLIED >
<!ATTLIST image
  xmlns:vectornator CDATA #FIXED "http://vectornator.io"
  vectornator:shadowOffset CDATA #IMPLIED >
<!ATTLIST image
  xmlns:vectornator CDATA #FIXED "http://vectornator.io"
  vectornator:shadowAngle CDATA #IMPLIED >

<!ATTLIST g
  xmlns:vectornator CDATA #FIXED "http://vectornator.io"
  vectornator:blendMode CDATA #IMPLIED >
<!ATTLIST g
  xmlns:vectornator CDATA #FIXED "http://vectornator.io"
  vectornator:shadowColor CDATA #IMPLIED >
<!ATTLIST g
  xmlns:vectornator CDATA #FIXED "http://vectornator.io"
  vectornator:shadowOpacity CDATA #IMPLIED >
<!ATTLIST g
  xmlns:vectornator CDATA #FIXED "http://vectornator.io"
  vectornator:shadowRadius CDATA #IMPLIED >
<!ATTLIST g
  xmlns:vectornator CDATA #FIXED "http://vectornator.io"
  vectornator:shadowOffset CDATA #IMPLIED >
<!ATTLIST g
  xmlns:vectornator CDATA #FIXED "http://vectornator.io"
  vectornator:shadowAngle CDATA #IMPLIED >

<!ENTITY % SVG.filter.extra.content  "| feDropShadow" >
<!ELEMENT feDropShadow EMPTY>
<!ATTLIST feDropShadow
  xmlns:svg CDATA #FIXED "http://www.w3.org/Graphics/SVG/1.1/DTD/svg11.dtd"
  dx CDATA #IMPLIED>
<!ATTLIST feDropShadow
  xmlns:svg CDATA #FIXED "http://www.w3.org/Graphics/SVG/1.1/DTD/svg11.dtd"
  dy CDATA #IMPLIED>
<!ATTLIST feDropShadow
  xmlns:svg CDATA #FIXED "http://www.w3.org/Graphics/SVG/1.1/DTD/svg11.dtd"
  stdDeviation CDATA #IMPLIED>
<!ATTLIST feDropShadow
  xmlns:svg CDATA #FIXED "http://www.w3.org/Graphics/SVG/1.1/DTD/svg11.dtd"
  flood-opacity CDATA #IMPLIED>
<!ATTLIST feDropShadow
  xmlns:svg CDATA #FIXED "http://www.w3.org/Graphics/SVG/1.1/DTD/svg11.dtd"
  in CDATA #IMPLIED>
<!ATTLIST feDropShadow
  xmlns:svg CDATA #FIXED "http://www.w3.org/Graphics/SVG/1.1/DTD/svg11.dtd"
  result CDATA #IMPLIED>
<!ATTLIST feDropShadow
  xmlns:svg CDATA #FIXED "http://www.w3.org/Graphics/SVG/1.1/DTD/svg11.dtd"
  flood-color CDATA #IMPLIED>
]
>
<!-- Created with Vectornator (http://vectornator.io/) -->
<svg height="100%" stroke-miterlimit="10" style="fill-rule:nonzero;clip-rule:evenodd;stroke-linecap:round;stroke-linejoin:round;" version="1.1" viewBox="0 0 122 122" width="100%" xml:space="preserve" xmlns="http://www.w3.org/2000/svg" xmlns:vectornator="http://vectornator.io" xmlns:xlink="http://www.w3.org/1999/xlink">
<defs/>
<g id="optimism-logo" vectornator:layerName="optimism-logo">
<g opacity="1">
<path d="M0 61C0 27.3106 27.3106 0 61 0C94.6894 0 122 27.3106 122 61C122 94.6894 94.6894 122 61 122C27.3106 122 0 94.6894 0 61Z" fill="#ff0420" fill-rule="evenodd" opacity="1" stroke="none"/>
<path d="M43.201 77.177C40.0272 77.3124 36.8953 76.4129 34.277 74.614C31.9806 72.8601 30.6967 70.0867 30.845 67.201C30.8589 66.3727 30.9355 65.5467 31.074 64.73C31.4707 62.53 32.035 59.891 32.767 56.813C34.8417 48.423 40.1957 44.228 48.829 44.228C50.9929 44.1926 53.1414 44.5974 55.144 45.418C56.9216 46.1147 58.4511 47.3256 59.537 48.896C60.632 50.5141 61.1917 52.435 61.137 54.388C61.1213 55.2009 61.0447 56.0115 60.908 56.813C60.45 59.5283 59.901 62.1673 59.261 64.73C58.1943 68.9093 56.3487 72.0363 53.724 74.111C51.102 76.155 47.5943 77.177 43.201 77.177ZM43.842 70.587C45.427 70.6308 46.9733 70.0938 48.19 69.077C49.5346 67.8576 50.4493 66.2364 50.798 64.455C51.5 61.5883 52.0333 59.0867 52.398 56.95C52.5207 56.3012 52.582 55.6423 52.581 54.982C52.581 52.2053 51.132 50.8173 48.234 50.818C46.6362 50.7797 45.0776 51.3154 43.841 52.328C42.5212 53.5603 41.6243 55.1779 41.278 56.95C40.7287 58.994 40.1797 61.4957 39.631 64.455C39.5068 65.0881 39.4455 65.7319 39.448 66.377C39.448 69.1837 40.9127 70.587 43.842 70.587Z" fill="#ffffff" fill-rule="evenodd" opacity="1" stroke="none"/>
<path d="M63.245 76.72C62.9505 76.7372 62.6642 76.6194 62.467 76.4C62.3148 76.154 62.2656 75.858 62.33 75.576L68.645 45.83C68.7009 45.5018 68.8797 45.2071 69.145 45.006C69.3903 44.8036 69.6971 44.6908 70.015 44.686L82.188 44.686C85.054 44.5454 87.895 45.2795 90.334 46.791C92.3742 48.1274 93.5574 50.4416 93.446 52.878C93.4416 53.679 93.3494 54.4771 93.171 55.258C92.6664 58.3413 91.0155 61.1202 88.549 63.038C86.261 64.716 83.1187 65.555 79.122 65.555L72.945 65.555L70.84 75.577C70.784 75.9052 70.6053 76.1998 70.34 76.401C70.095 76.6032 69.7886 76.716 69.471 76.721L63.245 76.72ZM79.445 59.238C80.6441 59.2644 81.8184 58.8947 82.786 58.186C83.7816 57.4549 84.4673 56.3775 84.708 55.166C84.793 54.7131 84.8389 54.2538 84.845 53.793C84.8977 53.0394 84.6126 52.3015 84.067 51.779C83.3034 51.215 82.3578 50.9542 81.413 51.047L75.922 51.047L74.183 59.238L79.445 59.238Z" fill="#ffffff" fill-rule="evenodd" opacity="1" stroke="none"/>
</g>
</g>
</svg>
