<svg width="35" height="36" viewBox="0 0 35 36" fill="none" xmlns="http://www.w3.org/2000/svg">
    <g clip-path="url(#clip0)">
        <path d="M7.28963 3.85051L34.4146 22.3713L27.7063 32.288L0.581299 13.6213L7.28963 3.85051Z" fill="url(#paint0_linear)"/>
        <path d="M34.4168 22.3714C32.0835 25.7255 24.2085 24.413 16.771 19.163C9.18763 14.0589 5.10429 7.20471 7.29179 3.85054C9.62513 0.496373 17.5001 1.80887 24.9376 7.05887C32.521 12.0172 36.6043 19.0172 34.4168 22.3714Z" fill="url(#paint1_linear)"/>
        <path d="M27.7073 32.1423C25.374 35.4964 17.499 34.1839 10.0615 28.9339C2.62401 23.6839 -1.60516 16.9756 0.728176 13.4756C3.06151 10.1214 10.9365 11.4339 18.374 16.6839C25.8115 21.9339 29.8948 28.7881 27.7073 32.1423Z" fill="url(#paint2_linear)"/>
        <path d="M34.4158 22.3715L27.7074 32.2881C25.3741 35.6423 17.4991 34.184 10.0616 29.0798C8.60327 28.059 7.29077 27.0381 5.97827 25.8715C6.9991 25.7256 8.3116 25.1423 9.6241 23.684C11.9574 21.2048 13.1241 20.6215 14.1449 20.7673C15.1658 20.7673 16.3324 21.7881 18.2283 24.2673C20.1241 26.7465 22.7491 27.4756 24.3533 26.1631C24.4991 26.0173 24.6449 26.0173 24.7908 25.8715C26.1033 24.8506 26.5408 24.4131 29.0199 19.7465C29.6033 18.5798 31.6449 16.684 34.4158 17.559C35.1449 19.4548 35.1449 21.059 34.4158 22.3715Z" fill="#0E0F23"/>
        <path fill-rule="evenodd" clip-rule="evenodd" d="M33.3951 21.7881C31.3534 24.7048 24.2076 23.2464 17.3534 18.4339C10.3534 13.6214 6.27007 7.49643 8.31174 4.57976C10.3534 1.66309 17.4992 3.12143 24.3534 7.93393C31.2076 12.7464 35.2909 18.8714 33.3951 21.7881ZM26.9784 17.4131C25.9576 18.8714 22.4576 18.1423 18.9576 15.8089C15.6034 13.4756 13.5617 10.4131 14.5826 8.95476C15.6034 7.49643 19.1034 8.22559 22.6034 10.5589C25.9576 12.8923 27.9992 15.9548 26.9784 17.4131Z" fill="white"/>
        <path d="M6.70784 7.20474C6.70784 7.05891 6.56201 6.91308 6.41618 7.05891C6.27035 7.20474 6.12451 7.20474 6.12451 7.35058C6.27034 7.78808 6.41618 8.07974 6.41618 8.37141C6.41618 8.51724 6.56201 8.66308 6.70784 8.51724C6.85368 8.51724 6.99951 8.37141 6.85368 8.22558C6.85368 7.93391 6.85368 7.64224 6.70784 7.20474Z" fill="white"/>
        <path d="M7.43603 9.5379C7.43603 9.39207 7.2902 9.24624 7.14437 9.39207C6.99854 9.5379 6.99854 9.5379 6.99854 9.68374C8.6027 13.3296 11.9569 17.2671 16.3319 20.1837C16.4777 20.3296 16.6235 20.1837 16.7694 20.1837C16.9152 20.0379 16.7694 19.8921 16.7694 19.7462C12.2485 16.8296 9.0402 13.0379 7.43603 9.5379Z" fill="white"/>
        <path d="M25.0817 23.8297C24.9359 23.8297 24.79 23.8297 24.79 23.9755C24.79 24.1213 24.79 24.2671 24.9359 24.2671C25.3734 24.413 25.9567 24.5588 26.3942 24.7047C26.54 24.7047 26.6859 24.7047 26.6859 24.5588C26.6859 24.413 26.6859 24.2671 26.54 24.2671C26.1025 24.1213 25.5192 23.9755 25.0817 23.8297Z" fill="white"/>
        <path d="M27.7074 24.4131C27.5616 24.4131 27.4158 24.5589 27.4158 24.7047C27.4158 24.8506 27.5616 24.9964 27.7074 24.9964C28.8741 25.1422 30.1866 25.2881 31.2074 25.1422C31.3533 25.1422 31.4991 24.9964 31.4991 24.8506C31.4991 24.7047 31.3533 24.5589 31.2074 24.5589C30.0408 24.7047 28.8741 24.5589 27.7074 24.4131Z" fill="white"/>
    </g>
    <defs>
        <linearGradient id="paint0_linear" x1="12.6041" y1="1.2172" x2="17.9833" y2="19.6887" gradientUnits="userSpaceOnUse">
            <stop stop-color="#03B8FF"/>
            <stop offset="1" stop-color="#FA52A0"/>
        </linearGradient>
        <linearGradient id="paint1_linear" x1="17.0361" y1="-0.0729609" x2="22.4154" y2="18.3987" gradientUnits="userSpaceOnUse">
            <stop stop-color="#03B8FF"/>
            <stop offset="1" stop-color="#FA52A0"/>
        </linearGradient>
        <linearGradient id="paint2_linear" x1="8.18901" y1="2.50325" x2="13.5684" y2="20.9749" gradientUnits="userSpaceOnUse">
            <stop stop-color="#03B8FF"/>
            <stop offset="1" stop-color="#FA52A0"/>
        </linearGradient>
        <clipPath id="clip0">
            <rect width="35" height="35" fill="white" transform="translate(0 0.496231)"/>
        </clipPath>
    </defs>
</svg>
