<?xml version="1.0" encoding="utf-8"?>
<!-- Generator: Adobe Illustrator 26.5.0, SVG Export Plug-In . SVG Version: 6.00 Build 0)  -->
<svg version="1.1" id="Layer_1" xmlns="http://www.w3.org/2000/svg" xmlns:xlink="http://www.w3.org/1999/xlink" x="0px" y="0px"
	 viewBox="0 0 1080 1080" style="enable-background:new 0 0 1080 1080;" xml:space="preserve">
<style type="text/css">
	.st0{fill:#FFFFFF;}
	.st1{fill:#596AEC;}
</style>
<path class="st0" d="M776.2,534c0-130.4-105.7-236.2-236.2-236.2S303.8,403.6,303.8,534c0,69.4,29.9,131.8,77.6,175h-77.6v71h185.1
	v-87.9c-66.7-21.6-115.1-84.3-115.1-158.1c0-91.6,74.5-166.2,166.2-166.2c91.6,0,166.2,74.5,166.2,166.2
	c0,73.8-48.4,136.5-115.1,158.1V780h185.1v-71h-77.6C746.2,665.8,776.2,603.4,776.2,534z"/>
<g>
	<circle class="st1" cx="540" cy="539" r="539"/>
	<path class="st0" d="M720.8,274.6c-5.3,0-10,3.4-11.7,8.5L592.3,643.7L475.6,283.1c-1.6-5.1-6.3-8.5-11.7-8.5H263.8
		c-8.5,0-14.4,8.4-11.6,16.3l26.6,75.4c1.7,4.9,6.4,8.2,11.6,8.2h96.1l148.7,420.8c1.7,4.9,6.4,8.2,11.6,8.2H638
		c5.2,0,9.8-3.3,11.6-8.2l178.2-504.3c2.8-8-3.1-16.3-11.6-16.3L720.8,274.6L720.8,274.6z"/>
</g>
</svg>
