<?xml version="1.0" encoding="UTF-8" standalone="no"?>

<!-- Created with Vectornator (http://vectornator.io/) -->
<svg height="100%" stroke-miterlimit="10"
     style="fill-rule:nonzero;clip-rule:evenodd;stroke-linecap:round;stroke-linejoin:round;" version="1.1"
     viewBox="0 0 1080 1080" width="100%" xml:space="preserve" xmlns="http://www.w3.org/2000/svg"
     xmlns:vectornator="http://vectornator.io" xmlns:xlink="http://www.w3.org/1999/xlink">

<g id="Layer-3" vectornator:layerName="Layer-3">
<path d="M0 534.9C0 239.5 239.5 0 534.9 0C830.3 0 1069.8 239.5 1069.8 534.9C1069.8 830.3 830.3 1069.8 534.9 1069.8C239.5 1069.8 0 830.4 0 534.9Z"
      fill="#ffffff" fill-rule="evenodd" opacity="1" stroke="none"/>
    <path d="M531.7 86.0001C482.5 86.0001 435.2 93.9001 391 108.6L423.5 189.9C456.9 179.7 492.4 174.1 529.2 174.1C728.3 174.1 889.6 335.5 889.6 534.5C889.6 733.6 728.2 894.9 529.2 894.9C330.1 894.9 168.8 733.5 168.8 534.5C168.8 450.1 197.8 372.5 246.4 311.1L246.4 351.4L329.1 351.4L329.1 252.9L329.1 170.8L246.4 170.8L133.5 170.8L133.5 252.9L183.4 252.9C121.8 329.5 84.9 426.8 84.9 532.8C84.9 779.6 284.9 979.6 531.7 979.6C778.5 979.6 978.5 779.6 978.5 532.8C978.5 286 778.4 86.0001 531.7 86.0001Z"
          fill="#0657f9" fill-rule="evenodd" opacity="1" stroke="none"/>
    <path d="M556.9 556L680.9 556C683.6 556 684.8 556 685 552.6C686 540 686 527.3 685 514.6C685 512.1 683.8 511.2 681.1 511.2L434.4 511.2C431.3 511.2 430.5 512.2 430.5 515.1L430.5 551.4C430.5 556.1 430.5 556.1 435.4 556.1L556.9 556L556.9 556ZM671.2 468.7C671.6 467.8 671.6 466.8 671.2 465.9C669.1 461.4 666.7 457.1 663.8 453C659.5 446.1 654.4 439.8 648.7 434C646 430.6 642.8 427.5 639.3 424.8C621.7 409.8 600.7 399.1 578.1 393.8C566.7 391.3 555.1 390.1 543.4 390.1L433.9 390.1C430.8 390.1 430.5 391.3 430.5 394L430.5 466.5C430.5 469.6 430.5 470.4 434.4 470.4L669.8 470.4C669.8 470.4 671.9 470 672.3 468.8L671.2 468.8L671.2 468.7ZM671.2 598.4C667.8 598 664.2 598 660.7 598.4L434.5 598.4C431.4 598.4 430.4 598.4 430.4 602.5L430.4 673.3C430.4 676.6 430.4 677.4 434.5 677.4L538.9 677.4C543.9 677.8 548.9 677.4 553.8 676.4C569 675.3 583.8 672 598.1 666.6C603.3 664.8 608.3 662.5 613 659.6L614.5 659.6C639 646.8 658.9 626.8 671.4 602.3C671.3 602.4 672.8 599.3 671.2 598.4L671.2 598.4ZM389.5 714.1L389.5 712.9L389.5 665.3L389.5 649.2L389.5 601.3C389.5 598.6 389.5 598.2 386.2 598.2L342 598.2C339.5 598.2 338.6 598.2 338.6 594.9L338.6 556.2L385.8 556.2C388.5 556.2 389.5 556.2 389.5 552.8L389.5 514.5C389.5 512 389.5 511.4 386.2 511.4L342 511.4C339.5 511.4 338.6 511.4 338.6 508.1L338.6 472.2C338.6 470 338.6 469.4 341.9 469.4L385.8 469.4C388.9 469.4 389.7 469.4 389.7 465.5L389.7 355.5C389.7 352.2 389.7 351.4 393.8 351.4L546.8 351.4C557.9 351.8 568.9 353 579.9 355.1C602.4 359.3 624 367.3 643.7 378.7C656.8 386.4 668.8 395.7 679.6 406.4C687.7 414.8 695 423.9 701.4 433.5C707.8 443.3 713.1 453.7 717.4 464.7C717.9 467.5 720.7 469.5 723.5 469L759.8 469C764.5 469 764.5 469 764.7 473.5L764.7 507C764.7 510.3 763.5 511.1 760.2 511.1L732 511.1C729.2 511.1 728.3 511.1 728.6 514.8C729.7 527.3 729.7 539.7 728.6 552.1C728.6 555.5 728.6 556 732.5 556L764.7 556C766.2 557.8 764.7 559.7 764.7 561.5C764.9 563.9 764.9 566.3 764.7 568.6L764.7 593.4C764.7 596.8 763.7 597.9 760.6 597.9L722 597.9C719.3 597.4 716.7 599.1 716.1 601.8C706.9 625.7 692.2 647.1 673.2 664.2C666.2 670.4 659 676.3 651.4 681.7C643.2 686.4 635.3 691.3 626.9 695.2C611.5 702.2 595.4 707.2 578.7 710.5C563 713.3 547 714.6 531 714.4L389.4 714.4L389.5 714.1L389.5 714.1Z"
          fill="#000000" fill-rule="evenodd" opacity="1" stroke="none"/>
</g>
</svg>
