<?xml version="1.0" encoding="UTF-8" standalone="no"?>
<!-- Created with Vectornator (http://vectornator.io/) -->
<svg height="100%" stroke-miterlimit="10"
     style="fill-rule:nonzero;clip-rule:evenodd;stroke-linecap:round;stroke-linejoin:round;" version="1.1"
     viewBox="0 0 1080 1080" width="100%" xml:space="preserve" xmlns="http://www.w3.org/2000/svg"
     xmlns:vectornator="http://vectornator.io" xmlns:xlink="http://www.w3.org/1999/xlink">

<g id="Layer-3" vectornator:layerName="Layer-3">
<path d="M0 534.9C0 239.5 239.5 0 534.9 0C830.3 0 1069.8 239.5 1069.8 534.9C1069.8 830.3 830.3 1069.8 534.9 1069.8C239.5 1069.8 0 830.4 0 534.9Z"
      fill="#ffffff" fill-rule="evenodd" opacity="1" stroke="none"/>
    <path d="M531.7 86.0001C482.5 86.0001 435.2 93.9001 391 108.6L423.5 189.9C456.9 179.7 492.4 174.1 529.2 174.1C728.3 174.1 889.6 335.5 889.6 534.5C889.6 733.6 728.2 894.9 529.2 894.9C330.1 894.9 168.8 733.5 168.8 534.5C168.8 450.1 197.8 372.5 246.4 311.1L246.4 351.4L329.1 351.4L329.1 252.9L329.1 170.8L246.4 170.8L133.5 170.8L133.5 252.9L183.4 252.9C121.8 329.5 84.9 426.8 84.9 532.8C84.9 779.6 284.9 979.6 531.7 979.6C778.5 979.6 978.5 779.6 978.5 532.8C978.5 286 778.4 86.0001 531.7 86.0001Z"
          fill="#0657f9" fill-rule="evenodd" opacity="1" stroke="none"/>
    <path d="M580.4 547.6L580.4 547.6C577.9 547.8 565 548.5 536.4 548.5C513.6 548.5 497.4 547.8 491.7 547.6L491.7 547.6C403.4 543.7 337.6 528.3 337.6 510C337.6 491.6 403.5 476.3 491.7 472.3L491.7 532.3C497.5 532.7 514 533.7 536.8 533.7C564.2 533.7 577.9 532.5 580.4 532.3L580.4 472.3C668.4 476.2 734.1 491.6 734.1 509.9C734.1 528.3 668.4 543.6 580.4 547.5L580.4 547.5L580.4 547.6ZM580.4 466.1L580.4 412.4L703.2 412.4L703.2 330.5L368.8 330.5L368.8 412.4L491.6 412.4L491.6 466.1C391.8 470.7 316.7 490.5 316.7 514.2C316.7 537.9 391.8 557.7 491.6 562.3L491.6 734.3L580.4 734.3L580.4 562.2C680 557.6 754.9 537.8 754.9 514.2C754.9 490.6 680 470.7 580.4 466.1L580.4 466.1L580.4 466.1Z"
          fill="#000000" fill-rule="evenodd" opacity="1" stroke="none"/>
</g>
</svg>
