<?xml version="1.0" encoding="UTF-8" standalone="no"?>
<!-- Created with Vectornator (http://vectornator.io/) -->
<svg height="100%" stroke-miterlimit="10"
     style="fill-rule:nonzero;clip-rule:evenodd;stroke-linecap:round;stroke-linejoin:round;" version="1.1"
     viewBox="0 0 1080 1080" width="100%" xml:space="preserve" xmlns="http://www.w3.org/2000/svg"
     xmlns:vectornator="http://vectornator.io" xmlns:xlink="http://www.w3.org/1999/xlink">

<g id="Layer-3" vectornator:layerName="Layer-3">
<path d="M0 534.9C0 239.5 239.5 0 534.9 0C830.3 0 1069.8 239.5 1069.8 534.9C1069.8 830.3 830.3 1069.8 534.9 1069.8C239.5 1069.8 0 830.4 0 534.9Z"
      fill="#ffffff" fill-rule="evenodd" opacity="1" stroke="none"/>
    <path d="M531.7 86.0001C482.5 86.0001 435.2 93.9001 391 108.6L423.5 189.9C456.9 179.7 492.4 174.1 529.2 174.1C728.3 174.1 889.6 335.5 889.6 534.5C889.6 733.6 728.2 894.9 529.2 894.9C330.1 894.9 168.8 733.5 168.8 534.5C168.8 450.1 197.8 372.5 246.4 311.1L246.4 351.4L329.1 351.4L329.1 252.9L329.1 170.8L246.4 170.8L133.5 170.8L133.5 252.9L183.4 252.9C121.8 329.5 84.9 426.8 84.9 532.8C84.9 779.6 284.9 979.6 531.7 979.6C778.5 979.6 978.5 779.6 978.5 532.8C978.5 286 778.4 86.0001 531.7 86.0001Z"
          fill="#0657f9" fill-rule="evenodd" opacity="1" stroke="none"/>
    <path d="M614.8 579.5C614.8 534.4 587.8 519 533.6 512.5C495 507.3 487.2 497 487.2 479C487.2 461 500.1 449.4 525.8 449.4C549 449.4 561.9 457.1 568.3 476.4C569.6 480.3 573.5 482.8 577.3 482.8L597.9 482.8C603.1 482.8 606.9 478.9 606.9 473.8L606.9 472.5C601.7 444.2 578.6 422.2 549 419.7L549 388.8C549 383.6 545.1 379.8 538.7 378.5L519.4 378.5C514.2 378.5 510.4 382.3 509.1 388.8L509.1 418.4C470.5 423.6 446 449.3 446 481.5C446 524 471.8 540.7 525.9 547.2C562 553.6 573.6 561.3 573.6 582C573.6 602.7 555.6 616.8 531.1 616.8C497.6 616.8 486 602.6 482.2 583.3C480.9 578.1 477 575.6 473.2 575.6L451.3 575.6C446.1 575.6 442.3 579.5 442.3 584.6L442.3 585.9C447.5 618.1 468.1 641.3 510.5 647.7L510.5 678.6C510.5 683.8 514.4 687.6 520.8 688.9L540 688.9C545.2 688.9 549 685 550.3 678.6L550.3 647.7C589 641.3 614.8 614.3 614.8 579.5L614.8 579.5Z"
          fill="#000000" fill-rule="evenodd" opacity="1" stroke="none"/>
    <path d="M464.1 714.7C363.6 678.6 312.1 566.6 349.5 467.4C368.8 413.3 411.3 372.1 464.1 352.8C469.3 350.2 471.8 346.4 471.8 339.9L471.8 321.9C471.8 316.7 469.2 312.9 464.1 311.6C462.8 311.6 460.2 311.6 458.9 312.9C336.6 351.5 269.6 481.7 308.2 604C331.4 676.1 386.8 731.5 458.9 754.7C464.1 757.3 469.2 754.7 470.5 749.5C471.8 748.2 471.8 746.9 471.8 744.3L471.8 726.3C471.9 722.5 468 717.4 464.1 714.7ZM600.7 312.9C595.5 310.3 590.4 312.9 589.1 318.1C587.8 319.4 587.8 320.7 587.8 323.3L587.8 341.3C587.8 346.5 591.7 351.6 595.5 354.2C696 390.3 747.5 502.3 710.1 601.5C690.8 655.7 648.3 696.8 595.5 716.2C590.3 718.8 587.8 722.6 587.8 729.1L587.8 747.1C587.8 752.3 590.4 756.1 595.5 757.4C596.8 757.4 599.4 757.4 600.7 756.1C723 717.5 790 587.3 751.4 465C728.1 391.5 671.5 336.1 600.7 312.9L600.7 312.9Z"
          fill="#000000" fill-rule="evenodd" opacity="1" stroke="none"/>
</g>
</svg>
