<svg id="Layer_1" data-name="Layer 1" xmlns="http://www.w3.org/2000/svg" viewBox="0 0 320 320"><defs><style>.cls-1{fill:none;stroke:#f59047;stroke-linecap:round;stroke-linejoin:round;stroke-width:18px;}.cls-2{fill:#f59047;}</style></defs><circle class="cls-1" cx="160" cy="160" r="148.31"/><path class="cls-2" d="M245.1,203.7c-.86,2.57-1.52,5.23-2.61,7.7-1.39,3.13-3.11,6.11-4.69,9.15l-1.48,1.91-6.28,6-2.41,1.78-7.79,4.23-6.8,2.64-1.89.59-7.82,1.89-8.67,1.51-7.86.86c-1.81.11-3.63.24-5.45.33-2.54.11-2.54.09-2.31,2.74v62.18l-.9,1.31h-9.72a30.92,30.92,0,0,1-3.86-.15c-.48-.08-.86-.77-1.28-1.18V242.87H138.75l.11,2.15v34.26c-6.77,0-14.11.09-16.65,0,0-.38,0-6.4,0-9V242.35H71.63l.63-5.19,1.43-8.68,1.2-7.85,1-5.16h3c2.89,0,17.67,0,21.55,0,0-4.06,0-8.66-.1-11.4v-91.3c.14-2.69,0-11.08,0-15h-29V74.13c1.08,0,1.79,0,2.5,0,1.67-.11,41.25-.33,43.89-.37h4.71V38.71h16.58V71.78c.34.4.67,1.13,1,1.14,1.75.08,3.52,0,5.28-.08,3.4.06,12.63.15,16,.11a1.74,1.74,0,0,0,1.2-1.21c.07-2.87,0-5.75-.06-8.62V13.66c0-1.22.53-1.68,1.76-1.58a28.82,28.82,0,0,0,3.08-.05h10.69l1.17,1.62v60l7.49.79,7.85,1.3L203.34,78a66.36,66.36,0,0,1,16.48,8.07l2.68,2.26c1.73,2,3.45,4,5.18,6l1.45,2.39,3.24,8.12c.43,2.62.85,5.24,1.28,7.85l0,8.66-1.56,7.88q-2,4.31-4.1,8.62l-.25.4-7.43,7.52-.45.34-5.53,3.22,5.54,1.45,7.87,3.28,1,.46,7.71,5.78,1.91,2a39.88,39.88,0,0,1,7.57,16.52q.4,4.32.82,8.65c-.12,2.63-.23,5.26-.35,7.89C245.93,198.19,245.51,200.94,245.1,203.7Zm-66.95,9.73,5.24-1.44,3.41-1.18c.3-.11.59-.22.89-.35,7-2.84,12.41-7.12,13.92-15l.12-7.89a14.92,14.92,0,0,0-3.6-8.63l-3.48-3.53L186.8,171l-8.65-2.58-7.9-1.26-8.62-.56-7.91-.2-8.61.15h-5.52v49.2h5.51l8.62,0,7.89-.29,8.65-.78Zm12.13-84.16c.45-2.62.91-5.24,1.36-7.86a15.25,15.25,0,0,0-2-8.71l-2.84-4c-2.23-3.47-6.19-4.29-9.5-6-2.11-1.12-4.7-1.35-7.07-2l-5.91-.89-.77-.08-1.95-.17-7.91-.36-6.65,0h-7.45V144.1h5.45l8.69,0,7.83-.42,8.71-1.26a82.59,82.59,0,0,0,8-2.33c3.2-1.26,6.33-2.77,8.54-5.6Z"/></svg>