<svg id="Layer_1" data-name="Layer 1" xmlns="http://www.w3.org/2000/svg" viewBox="0 0 320 320"><defs><style>.cls-1,.cls-2{fill:none;stroke:#f5c09a;stroke-linecap:round;stroke-width:4.99px;}.cls-1{stroke-miterlimit:10;}.cls-2{stroke-linejoin:round;}</style></defs><circle class="cls-1" cx="159.95" cy="159.71" r="152.16"/><line class="cls-2" x1="54.63" y1="115.21" x2="157.16" y2="202.55"/><polyline class="cls-2" points="53.79 202.55 157.16 282.08 203.57 248.66"/><line class="cls-2" x1="161.66" y1="35.5" x2="265.27" y2="115.76"/><line class="cls-2" x1="270.84" y1="248.66" x2="161.66" y2="59.56"/><line class="cls-2" x1="52.49" y1="248.09" x2="112.99" y2="248.09"/><line class="cls-2" x1="157.67" y1="248.09" x2="270.84" y2="248.66"/><line class="cls-2" x1="265.27" y1="202.55" x2="265.27" y2="115.76"/><line class="cls-2" x1="216.25" y1="154.04" x2="265.27" y2="115.76"/><line class="cls-2" x1="105.14" y1="156.68" x2="161.66" y2="59.56"/><line class="cls-2" x1="71.77" y1="215.62" x2="52.49" y2="248.09"/><line class="cls-2" x1="53.79" y1="202.55" x2="54.63" y2="115.21"/><line class="cls-2" x1="161.66" y1="35.5" x2="54.63" y2="115.21"/><line class="cls-2" x1="157.16" y1="202.55" x2="157.16" y2="282.08"/><line class="cls-2" x1="250.48" y1="213.38" x2="265.27" y2="202.55"/><line class="cls-2" x1="161.66" y1="35.5" x2="161.95" y2="8.55"/><line class="cls-2" x1="157.16" y1="282.08" x2="156.57" y2="311.15"/></svg>