<svg id="Layer_1" data-name="Layer 1" xmlns="http://www.w3.org/2000/svg" xmlns:xlink="http://www.w3.org/1999/xlink" viewBox="0 0 320 320"><defs><style>.cls-1,.cls-2,.cls-3{fill:none;stroke-linecap:round;stroke-linejoin:round;}.cls-1,.cls-2,.cls-3,.cls-5{stroke:#f5c09a;}.cls-1{stroke-width:16.08px;}.cls-2{stroke-width:18px;}.cls-3{stroke-width:6.67px;}.cls-4{clip-path:url(#clip-path);}.cls-5{fill:#f5c09a;stroke-miterlimit:10;stroke-width:4.77px;}</style><clipPath id="clip-path"><polygon class="cls-1" points="259.06 123.66 160 45.25 62.99 124.5 60.94 196.89 160 275.29 259.06 196.89 259.06 123.66"/></clipPath></defs><line class="cls-1" x1="160" y1="14.63" x2="160" y2="45.25"/><circle class="cls-2" cx="160" cy="160" r="145.37"/><line class="cls-1" x1="160" y1="275.29" x2="160" y2="305.37"/><polyline class="cls-3" points="117.21 79.12 160 45.25 259.06 123.66"/><line class="cls-3" x1="60.94" y1="123.66" x2="117.21" y2="79.12"/><line class="cls-3" x1="259.06" y1="196.89" x2="259.06" y2="123.66"/><polyline class="cls-3" points="60.94 123.66 60.94 196.89 160 275.29 259.06 196.89"/><g class="cls-4"><path class="cls-5" d="M168.47,103.63c-1.22,3.43,1,5.21,4.69,6.39a39.61,39.61,0,0,1,7.13,3.28c6.58,3.67,10.17,9.59,12.13,16.66a9.17,9.17,0,0,1-.17,4.17,2.62,2.62,0,0,1-2.48,2.09,53.72,53.72,0,0,1-9.31.48,4.46,4.46,0,0,1-3.6-1.87c-.62-.83-1.21-1.69-1.77-2.56-5.34-8.38-12.83-11.47-22.59-9.41-9.38,2-11.41,7.77-10.61,16.28.27,2.82,2.65,4.29,5,5.46a41.51,41.51,0,0,0,11,3.4,170.41,170.41,0,0,1,22.35,5.42c12.93,4.38,16.84,16.16,16.38,25.77-.31,6.43-2.18,12.47-6.46,17.34a36.42,36.42,0,0,1-19.26,11.92,2.43,2.43,0,0,0-2,2.25c-.62,3.2-.12,6.45-.63,9.67-.67,4.13-1,4.67-5.12,5.38a25.52,25.52,0,0,1-9.46-.24,4,4,0,0,1-3.41-3.52,51.87,51.87,0,0,1-.63-10c0-2.88,0-2.91-2.72-3.58-5.74-1.41-11.16-3.48-15.73-7.4a31.42,31.42,0,0,1-10.64-18.88c-.44-2.41.19-3.76,2.43-4.69a18.46,18.46,0,0,1,12-.6,4,4,0,0,1,2,1.54,25.94,25.94,0,0,1,3.56,6.16c2.79,6.29,7.71,9.34,14.49,9.66a45.48,45.48,0,0,0,11.65-.64,14.71,14.71,0,0,0,11.06-16.79,7.92,7.92,0,0,0-4-5.81,52.51,52.51,0,0,0-18.34-5.79,53.56,53.56,0,0,1-22.65-7.74c-5.79-3.68-8.65-9.56-9.54-16.21-2-14.7,6.63-27.56,20.89-31.69,1.84-.53,4.41-.33,5.31-1.87s.22-3.68.25-5.57a34.33,34.33,0,0,1,.82-7.62,3.43,3.43,0,0,1,2.79-2.78,27.62,27.62,0,0,1,11.8,0,3.43,3.43,0,0,1,2.78,2.8A32.92,32.92,0,0,1,168.47,103.63Z"/><path class="cls-5" d="M134.76,70.32c.39,4.23-1.52,7.19-5.1,9.16-4.33,2.37-8.88,4.39-13,7.06-22.11,14.28-36.89,33.79-40.27,60.33-4.09,32.14,7.2,58.37,32.56,78.55a98.82,98.82,0,0,0,16.49,10.12c1.73.89,3.32,2,5,3a7.76,7.76,0,0,1,4.14,6.65,23,23,0,0,1-.27,6.37c-.64,3.22-2.84,4.63-6,3.91a56.94,56.94,0,0,1-14.43-5.66c-27.75-15-46-37.53-53.83-68.21-2.56-10-2.33-20.32-1.9-30.57A78.88,78.88,0,0,1,63,125.46c7.1-18.24,17.57-34.2,33-46.37,9.12-7.18,19.51-12.43,30.22-16.94a13.74,13.74,0,0,1,1.91-.62,4.35,4.35,0,0,1,5.63,2.72A15.35,15.35,0,0,1,134.76,70.32Z"/><path class="cls-5" d="M261.31,161.14c.22,44.73-29.72,77.12-57.17,90.16a71.15,71.15,0,0,1-12.93,5c-3.69.94-5.66-.36-6.46-4.12a21.12,21.12,0,0,1-.16-6.73,7.11,7.11,0,0,1,3.41-5.53c3-1.94,6.07-3.61,9.17-5.3,15.33-8.37,27.75-19.91,36.48-35,6.5-11.26,8.57-24.63,8.95-37.65.48-16.74-2.25-31.57-11.1-45.8A87,87,0,0,0,196.23,84c-2.4-1.2-4.66-2.64-7-4-4.78-2.76-5.33-6.22-4.61-11.81a9.51,9.51,0,0,1,.86-2.59c1.46-3.2,3.29-4,6.61-2.86a85.5,85.5,0,0,1,12.92,6c10,5.37,19.68,11.26,27.49,19.74,13.44,14.59,23.07,31.22,27.19,50.77C261.2,146.34,261.4,153.55,261.31,161.14Z"/></g><polygon class="cls-1" points="259.06 123.66 160 45.25 62.99 124.5 60.94 196.89 160 275.29 259.06 196.89 259.06 123.66"/></svg>