<svg id="Layer_1" data-name="Layer 1" xmlns="http://www.w3.org/2000/svg" xmlns:xlink="http://www.w3.org/1999/xlink" viewBox="0 0 320 320"><defs><style>.cls-1,.cls-2,.cls-3{fill:none;}.cls-1,.cls-2,.cls-3,.cls-5{stroke:#f5c09a;}.cls-1,.cls-5{stroke-miterlimit:10;}.cls-1,.cls-2{stroke-width:11.61px;}.cls-2,.cls-3{stroke-linecap:round;stroke-linejoin:round;}.cls-3{stroke-width:6.77px;}.cls-4{clip-path:url(#clip-path);}.cls-5{fill:#f5c09a;stroke-width:4.84px;}</style><clipPath id="clip-path"><polygon class="cls-1" points="260.96 123.1 160.38 43.49 61.89 123.96 59.8 197.45 160.38 277.06 260.96 197.45 260.96 123.1"/></clipPath></defs><line class="cls-2" x1="160.38" y1="12.41" x2="160.38" y2="43.49"/><circle class="cls-2" cx="160.38" cy="160" r="147.59"/><line class="cls-2" x1="160.38" y1="277.06" x2="160.38" y2="307.59"/><polyline class="cls-3" points="116.94 77.88 160.38 43.49 260.96 123.1"/><line class="cls-3" x1="59.8" y1="123.1" x2="116.93" y2="77.88"/><line class="cls-3" x1="260.96" y1="197.45" x2="260.96" y2="123.1"/><polyline class="cls-3" points="59.8 123.1 59.8 197.45 160.38 277.06 260.96 197.45"/><g class="cls-4"><path class="cls-5" d="M169,102.77c-1.24,3.48,1.05,5.29,4.77,6.48a40.09,40.09,0,0,1,7.23,3.34c6.69,3.73,10.33,9.73,12.32,16.91a9.16,9.16,0,0,1-.18,4.23,2.64,2.64,0,0,1-2.52,2.12,54.3,54.3,0,0,1-9.45.5,4.55,4.55,0,0,1-3.65-1.91c-.63-.84-1.23-1.71-1.8-2.59-5.43-8.51-13-11.65-22.94-9.56-9.52,2-11.57,7.89-10.76,16.53.27,2.87,2.68,4.36,5,5.55a42,42,0,0,0,11.13,3.44,173.63,173.63,0,0,1,22.69,5.51c13.12,4.45,17.1,16.4,16.63,26.16-.32,6.53-2.21,12.67-6.56,17.61a37.08,37.08,0,0,1-19.55,12.11,2.45,2.45,0,0,0-2,2.28c-.63,3.24-.12,6.55-.65,9.81-.67,4.19-1,4.74-5.2,5.46a25.79,25.79,0,0,1-9.59-.24,4,4,0,0,1-3.47-3.58,52.52,52.52,0,0,1-.64-10.17c0-2.93,0-3-2.76-3.64-5.83-1.43-11.33-3.54-16-7.51a32,32,0,0,1-10.81-19.17c-.44-2.45.2-3.82,2.48-4.76a18.67,18.67,0,0,1,12.19-.61,4,4,0,0,1,2,1.56,26.34,26.34,0,0,1,3.61,6.25c2.83,6.39,7.83,9.49,14.71,9.81a46.51,46.51,0,0,0,11.84-.65A14,14,0,0,0,178.34,182a13.89,13.89,0,0,0,0-5,8,8,0,0,0-4.08-5.9,53.21,53.21,0,0,0-18.62-5.88,54.41,54.41,0,0,1-23-7.86c-5.88-3.73-8.78-9.7-9.68-16.46-2-14.92,6.73-28,21.2-32.17,1.88-.54,4.48-.34,5.4-1.9s.22-3.74.25-5.65a34.75,34.75,0,0,1,.83-7.74,3.49,3.49,0,0,1,2.84-2.82,28.09,28.09,0,0,1,12,0,3.51,3.51,0,0,1,2.83,2.85A33.48,33.48,0,0,1,169,102.77Z"/><path class="cls-5" d="M134.75,68.94c.4,4.3-1.53,7.31-5.18,9.31-4.39,2.41-9,4.46-13.2,7.17-22.45,14.49-37.45,34.31-40.88,61.24-4.16,32.64,7.31,59.27,33.05,79.76a99.66,99.66,0,0,0,16.74,10.27c1.76.91,3.38,2.08,5.1,3a7.87,7.87,0,0,1,4.2,6.75,23.32,23.32,0,0,1-.27,6.47c-.65,3.27-2.88,4.7-6.15,4a57.92,57.92,0,0,1-14.64-5.74C85.34,236,66.8,213.07,58.86,181.92c-2.59-10.17-2.37-20.63-1.93-31a79.9,79.9,0,0,1,5-25.95c7.21-18.52,17.83-34.72,33.54-47.08,9.26-7.29,19.81-12.62,30.68-17.2a15.13,15.13,0,0,1,1.94-.63,4.44,4.44,0,0,1,5.72,2.76A15.47,15.47,0,0,1,134.75,68.94Z"/><path class="cls-5" d="M263.24,161.16c.22,45.41-30.17,78.3-58,91.54a72.88,72.88,0,0,1-13.13,5.07c-3.75,1-5.74-.37-6.57-4.18a21.8,21.8,0,0,1-.15-6.84,7.2,7.2,0,0,1,3.45-5.61c3-2,6.17-3.66,9.32-5.38,15.56-8.5,28.17-20.21,37-35.56,6.6-11.44,8.7-25,9.08-38.23.49-17-2.28-32.06-11.27-46.5a88.31,88.31,0,0,0-35.81-32.61c-2.43-1.22-4.73-2.68-7.08-4-4.85-2.8-5.41-6.31-4.68-12a9.68,9.68,0,0,1,.87-2.63c1.49-3.25,3.34-4.05,6.71-2.91a87.58,87.58,0,0,1,13.11,6.08c10.18,5.46,20,11.44,27.92,20,13.64,14.81,23.43,31.69,27.6,51.54C263.13,146.14,263.33,153.45,263.24,161.16Z"/></g><polygon class="cls-1" points="260.96 123.1 160.38 43.49 61.89 123.96 59.8 197.45 160.38 277.06 260.96 197.45 260.96 123.1"/></svg>