<svg id="Layer_1" data-name="Layer 1" xmlns="http://www.w3.org/2000/svg" xmlns:xlink="http://www.w3.org/1999/xlink" viewBox="0 0 320 320"><defs><style>.cls-1,.cls-2{fill:none;}.cls-2{stroke:#f5c09a;stroke-linecap:round;stroke-linejoin:round;stroke-width:6.9px;}.cls-3{clip-path:url(#clip-path);}.cls-4{fill:#f5c09a;}</style><clipPath id="clip-path"><polygon class="cls-1" points="262.52 122.39 160 41.24 59.6 123.27 57.48 198.18 160 279.32 262.52 198.18 262.52 122.39"/></clipPath></defs><line class="cls-2" x1="160" y1="9.55" x2="160" y2="41.24"/><circle class="cls-2" cx="160" cy="160" r="150.45"/><line class="cls-2" x1="160" y1="279.32" x2="160" y2="310.45"/><polyline class="cls-2" points="115.71 76.29 160 41.24 262.52 122.39"/><line class="cls-2" x1="57.48" y1="122.39" x2="115.71" y2="76.29"/><line class="cls-2" x1="262.52" y1="198.18" x2="262.52" y2="122.39"/><polyline class="cls-2" points="57.48 122.39 57.48 198.18 160 279.32 262.52 198.18"/><g class="cls-3"><path class="cls-4" d="M168.76,101.66c-1.26,3.55,1.07,5.4,4.86,6.61a41.4,41.4,0,0,1,7.38,3.4c6.81,3.8,10.53,9.92,12.56,17.24a9.55,9.55,0,0,1-.19,4.32,2.67,2.67,0,0,1-2.56,2.15,55.5,55.5,0,0,1-9.64.51,4.61,4.61,0,0,1-3.72-1.94c-.64-.86-1.25-1.74-1.83-2.65-5.53-8.67-13.28-11.87-23.39-9.74-9.7,2-11.8,8.05-11,16.85.28,2.92,2.74,4.44,5.14,5.65a42.86,42.86,0,0,0,11.35,3.52,177.51,177.51,0,0,1,23.13,5.61c13.37,4.53,17.42,16.72,16.94,26.67-.32,6.65-2.25,12.91-6.68,17.95a37.7,37.7,0,0,1-19.93,12.34,2.51,2.51,0,0,0-2.07,2.32c-.64,3.31-.12,6.68-.66,10-.68,4.27-1,4.83-5.3,5.56a26.39,26.39,0,0,1-9.78-.24,4.13,4.13,0,0,1-3.53-3.65,54.61,54.61,0,0,1-.66-10.37c0-3,0-3-2.81-3.71-5.94-1.46-11.55-3.6-16.28-7.65a32.55,32.55,0,0,1-11-19.55c-.46-2.49.19-3.89,2.52-4.85a19.06,19.06,0,0,1,12.43-.62,4.11,4.11,0,0,1,2.06,1.59,27.16,27.16,0,0,1,3.68,6.37c2.88,6.52,8,9.68,15,10a47,47,0,0,0,12.07-.66,15.22,15.22,0,0,0,11.44-17.37,8.22,8.22,0,0,0-4.16-6,54.14,54.14,0,0,0-19-6,55.46,55.46,0,0,1-23.45-8c-6-3.8-8.94-9.89-9.87-16.78-2-15.21,6.87-28.52,21.62-32.79,1.91-.55,4.56-.35,5.5-1.94s.23-3.81.26-5.76a34.92,34.92,0,0,1,.84-7.89,3.54,3.54,0,0,1,2.9-2.87,28.52,28.52,0,0,1,12.2,0,3.56,3.56,0,0,1,2.88,2.9A33.62,33.62,0,0,1,168.76,101.66Z"/><path class="cls-4" d="M133.88,67.18c.4,4.38-1.57,7.45-5.28,9.49-4.48,2.45-9.19,4.54-13.46,7.3C92.26,98.75,77,119,73.46,146.41c-4.23,33.26,7.45,60.41,33.69,81.29a101.66,101.66,0,0,0,17.07,10.48c1.79.92,3.44,2.11,5.2,3.1a8,8,0,0,1,4.28,6.88,23.72,23.72,0,0,1-.28,6.58c-.66,3.34-2.93,4.8-6.26,4.05a58.56,58.56,0,0,1-14.93-5.85C83.5,237.45,64.61,214.1,56.51,182.35c-2.64-10.38-2.41-21-2-31.64a81.64,81.64,0,0,1,5.05-26.46c7.35-18.88,18.18-35.39,34.19-48,9.45-7.43,20.19-12.86,31.28-17.53a13.85,13.85,0,0,1,2-.64,4.51,4.51,0,0,1,5.82,2.81A15.7,15.7,0,0,1,133.88,67.18Z"/><path class="cls-4" d="M264.85,161.18c.23,46.29-30.76,79.82-59.17,93.31a73.92,73.92,0,0,1-13.38,5.18c-3.82,1-5.85-.38-6.69-4.27a22.32,22.32,0,0,1-.16-7,7.33,7.33,0,0,1,3.52-5.72c3.08-2,6.29-3.73,9.5-5.48,15.86-8.67,28.72-20.61,37.75-36.26,6.73-11.65,8.87-25.48,9.26-39,.5-17.33-2.32-32.68-11.48-47.4a90.08,90.08,0,0,0-36.51-33.24c-2.47-1.25-4.82-2.74-7.22-4.13-4.94-2.85-5.51-6.43-4.77-12.21a9.6,9.6,0,0,1,.89-2.68c1.52-3.32,3.41-4.13,6.84-3a89.59,89.59,0,0,1,13.37,6.2C217,71.14,227,77.24,235.06,86c13.9,15.1,23.87,32.31,28.13,52.54C264.73,145.87,264.94,153.33,264.85,161.18Z"/></g></svg>