<svg width="357" height="400" viewBox="0 0 357 400" fill="none" xmlns="http://www.w3.org/2000/svg">
<path d="M179.239 258.102L234.413 344.701L285.384 315.162L212.92 200.947L179.239 258.102Z" fill="white"/>
<path d="M331.799 280.423L331.761 256.755L252.582 133.431L223.207 183.277L299.643 306.897L327.28 290.882C329.99 288.679 331.631 285.449 331.803 281.963L331.799 280.423Z" fill="white"/>
<path d="M0.000854492 302.743L39.0279 325.232L168.902 116.95L146.86 116.369C128.08 116.103 107.849 120.986 98.5637 136.143L24.8124 250.454L0.000854492 288.577V302.743Z" fill="white"/>
<path d="M243.86 116.95L185.767 117.161L54.3377 334.045L100.277 360.495L112.769 339.307L243.86 116.95Z" fill="white"/>
<path d="M356.279 116.651C355.793 104.502 349.215 93.3798 338.911 86.9048L194.491 3.85192C184.298 -1.28013 171.566 -1.28672 161.355 3.84862C160.148 4.45748 20.9097 85.2101 20.9097 85.2101C18.9826 86.1345 17.1263 87.2352 15.3805 88.4851C6.18252 95.0771 0.575903 105.321 0 116.576V288.576L24.8116 250.454L24.595 117.738C24.6238 117.253 24.6848 116.775 24.7713 116.304C25.3323 113.181 27.0757 110.396 29.7006 108.513C30.3556 108.044 171.973 26.0708 172.423 25.8459C175.751 24.1742 179.982 24.1544 183.314 25.7939L325.867 107.791C329.239 109.938 331.353 113.58 331.541 117.561V281.963C331.369 285.449 329.99 288.679 327.28 290.882L299.643 306.896L285.383 315.161L234.413 344.699L182.725 374.654C179.941 375.66 176.685 375.603 173.925 374.481L112.768 339.306L100.276 360.494L155.234 392.137C157.052 393.171 158.671 394.087 160 394.833C162.057 395.986 163.459 396.758 163.955 396.999C167.861 398.896 173.481 400 178.546 400C183.189 400 187.717 399.147 192.002 397.469L342.136 310.522C350.753 303.846 355.823 293.777 356.279 282.869V116.651Z" fill="white"/>
</svg>
