<?xml version="1.0" encoding="UTF-8" standalone="no"?>
<!DOCTYPE svg PUBLIC "-//W3C//DTD SVG 1.1//EN" "http://www.w3.org/Graphics/SVG/1.1/DTD/svg11.dtd">

<!-- Created with Vectornator (http://vectornator.io/) -->
<svg height="100%" stroke-miterlimit="10" style="fill-rule:nonzero;clip-rule:evenodd;stroke-linecap:round;stroke-linejoin:round;" version="1.1" viewBox="0 0 128 128" width="100%" xml:space="preserve" xmlns="http://www.w3.org/2000/svg" xmlns:vectornator="http://vectornator.io" xmlns:xlink="http://www.w3.org/1999/xlink">
<metadata>
<vectornator:setting key="IsTimeLapseWatermarkDisabled" value="false"/>
<vectornator:setting key="UndoHistoryDisabled" value="true"/>
<vectornator:setting key="VNDimensionsVisible" value="true"/>
<vectornator:setting key="VNSnapToGuides" value="true"/>
<vectornator:setting key="WDCMYKEnabledKey" value="false"/>
<vectornator:setting key="WDDisplayWhiteBackground" value="false"/>
<vectornator:setting key="WDDynamicGuides" value="false"/>
<vectornator:setting key="WDGuidesVisible" value="true"/>
<vectornator:setting key="WDIsolateActiveLayer" value="false"/>
<vectornator:setting key="WDOutlineMode" value="false"/>
<vectornator:setting key="WDRulersVisible" value="true"/>
<vectornator:setting key="WDSnapToEdges" value="false"/>
<vectornator:setting key="WDSnapToGrid" value="false"/>
<vectornator:setting key="WDSnapToPoints" value="false"/>
<vectornator:setting key="WDUnits" value="Pixels"/>
</metadata>
<defs/>
<g id="Layer-1" vectornator:layerName="Layer 1">
<g opacity="1">
<path d="M64 0L64 0C99.3462-1.43051e-06 128 28.6538 128 64L128 64C128 99.3462 99.3462 128 64 128L64 128C28.6538 128 5.33713e-06 99.3462 0 64L0 64C-8.52346e-06 28.6538 28.6538-1.31557e-06 64 0Z" fill="#000000" fill-rule="evenodd" opacity="1" stroke="none"/>
<path d="M102.548 94.8185L100.135 97.6738L97.92 100.677L95.36 103.385L94.1785 104.418L92.16 106.142L90.1415 106.486L88.7139 106.142L86.4 104.763L83.1015 102.548L79.36 99.1015L76.9477 96.7877L73.3539 93.1938L69.9569 90.3385L67.9877 89.2554L66.3631 88.7631L64.8369 89.2062L62.4739 90.9785L61.1939 92.5046L58.88 94.9169L53.0215 102.942L50.6092 105.502L49.3292 107.028L47.0154 109.095L44.7015 109.44L41.9446 108.258L38.4 105.305L34.1662 101.465L31.6062 99.0523L27.6185 96.2954L25.0585 93.8831L24.1723 92.5538L22.4 90.1908L22.0554 87.8769L23.68 85.2185L25.8954 82.2154L28.0123 79.36L34.1662 73.0585L36.1354 70.4L36.9723 69.3662L38.3015 66.4123L37.9569 64.0985L36.0862 62.2277L24.96 52.8738L22.4 50.4615L20.8739 49.1815L18.9046 46.3754L18.2154 44.1108L19.7415 41.6492L20.8246 39.9754L23.3846 37.2677L25.8462 35.0031L28.2585 32.4431L31.4585 27.9631L34.2154 25.3538L36.7262 23.4338L39.04 23.0892L41.5015 24.6154L45.7354 28.16L51.0031 33.1815L56.8615 37.5138L59.1754 38.8923L60.6523 39.5323L62.4739 39.04L64.3939 37.4646L66.56 35.2492L68.5292 32.5908L73.9939 25.4031L77.5385 21.1692L79.7046 19.2492L81.5262 18.4615L82.9539 18.4615L84.7754 19.7415L86.1046 20.5785L88.5169 22.8923L92.3077 26.9292L95.0154 29.1938L99.2 32.0985L103.089 35.3477L104.665 37.2185L105.255 38.8923L104.96 40.6646L103.582 42.9785L98.7569 48.7385L96.3446 51.2985L92.7508 54.8923L90.9292 57.4031L89.7969 58.7323L88.7631 60.9969L88.4677 62.7692L89.0585 64.1477L90.6339 66.0185L94.6708 69.4154L103.877 76.2585L106.437 78.6708L107.668 79.9508L109.588 82.1169L109.982 84.7262L108.849 87.7785L106.437 90.6338L102.745 94.72L102.548 94.8185ZM34.0677 35.9385L35.3477 37.8585L35.3477 36.4308L34.8554 35.6923L34.1169 35.9385L34.0677 35.9385ZM27.8154 44.7508L27.8154 44.4554L26.9785 44.3569L26.9785 44.6523L27.52 45.0954C27.52 45.0954 27.8154 44.7508 27.8154 44.7508ZM31.7046 42.8308L31.7046 42.1908L31.0154 42.1908L30.72 42.5846L30.8677 42.7323L30.8677 43.0277L31.36 43.1262L31.6554 42.7815L31.7046 42.8308ZM33.8708 40.9108L33.8708 40.6154L33.2308 40.6154L33.0831 40.8615L33.0831 41.1569L33.7231 41.1569L33.8708 40.9108ZM32.7877 42.88L32.8862 43.8154L33.5754 44.4062L37.4646 42.4862L33.5262 42.0431L32.8369 42.88L32.7877 42.88ZM31.0646 46.6215L31.3108 45.6862L31.1631 45.5385L30.6708 45.44L30.08 46.1292L30.1785 47.0646L31.0646 46.6708L31.0646 46.6215ZM37.2185 38.2523L37.2185 38.8923L37.9077 39.1385L38.4985 38.4492L37.6615 38.0554C37.6615 38.0554 37.2185 38.2523 37.2185 38.2523ZM37.9077 40.8615L37.0708 40.1723L36.2831 40.0738L36.5785 41.4523L37.6615 41.4523C37.6615 41.4523 37.9077 40.8615 37.9077 40.8615ZM34.6585 48.1969L36.2339 48.3938L35.3477 47.36L34.0185 46.5231L33.7723 45.7846L32.64 45.0954L33.5754 46.72L33.8708 46.72L34.6092 48.1969L34.6585 48.1969ZM32.7877 48.0492L32.2954 47.6062L31.4092 48L31.6554 48.7385L32.1477 48.8369L32.8369 48L32.7877 48.0492ZM36.3815 44.4554L36.6277 45.5385L37.8585 45.44L37.8585 46.8677L38.6462 45.5385L36.3815 44.5046L36.3815 44.4554ZM39.4831 42.1415L39.3846 42.9292L42.24 43.3231L42.24 43.0277L39.9262 41.9938L39.4831 42.1908L39.4831 42.1415ZM41.0092 46.8677L41.7969 45.2431L40.7139 43.7662L40.4185 43.7662L40.2708 43.6677L39.4831 43.5692L39.0892 44.4062L41.0092 46.9169L41.0092 46.8677ZM34.56 50.0677L36.0369 51.0523L35.6431 50.1662L35.1508 49.7231C35.1508 49.7231 34.56 50.0677 34.56 50.0677ZM43.1262 42.5846L43.1262 44.3077L44.0615 45.9323L44.8 45.6862L45.2923 44.0615L44.2092 42.5846C44.2092 42.5846 43.1262 42.5846 43.1262 42.5846ZM37.6123 49.4277L37.3169 49.4277L37.2185 49.92L37.7108 50.3631L38.3015 50.0185C38.3015 50.0185 37.6123 49.4277 37.6123 49.4277ZM37.3662 53.8092L36.5292 53.4154L37.5631 51.1508L35.1508 51.9877L36.2339 53.76L37.3169 53.76L37.3662 53.8092ZM45.0462 41.6492L46.6708 44.16L47.1139 45.6862L45.8339 47.2123L41.5508 48.1969L41.3046 49.1323L42.0431 50.3138L44.0123 49.6738L43.7662 48.9354L44.5046 48.3938L46.0308 49.6738L47.7046 49.3785L47.9508 48.7385L47.6062 48.1477L47.0154 48.4923L46.5231 48.0492L47.8523 45.0954L47.6062 44.3569L48.2462 42.88L44.9969 41.6L45.0462 41.6492ZM40.7631 48.0985L40.1231 48.0985L40.0246 48.9354L40.5169 49.3785L40.7139 48.0985L40.7631 48.0985ZM40.4185 51.5446L41.1569 51.2985L41.5015 51.5938L44.1108 51.2L44.1108 50.56L39.68 50.56L39.2862 51.7415L39.6308 52.0369L40.2708 52.0369L40.3692 51.4954L40.4185 51.5446ZM40.5169 54.4985L40.1723 53.9077L40.2708 53.12L39.4339 52.7262L38.4985 52.8246L36.9723 54.9908L37.3169 55.2862L40.1231 55.04L40.5662 54.5477L40.5169 54.4985ZM42.0923 52.6277L42.0923 53.7108L41.3046 54.2523L41.3046 54.8923L41.9939 54.8923L43.1262 53.4646L43.0277 52.2338L42.1415 52.6277L42.0923 52.6277ZM61.1446 78.9662L61.2923 77.0954L62.3262 76.2092L61.4892 75.52L60.4554 76.0615L60.6031 76.2092L59.9631 75.9631L59.6677 74.5846L60.1108 74.3877L60.3077 73.1077L59.6677 72.8615L58.9292 73.4031L58.5846 73.1077L58.7323 72.96L58.0431 72.3692L58.4862 71.8769L58.2892 71.4338L59.8646 69.5631L60.7015 69.9569L60.9969 69.6123L60.9969 68.9723L60.4554 68.8738L60.7508 68.5292L60.5046 67.4462L59.7662 67.6923L59.0769 68.5292L58.5846 68.0862L58.5846 67.4462L59.2739 66.9046L59.1754 65.9692L58.3385 65.28L58.88 64.2954L58.4862 65.1323L60.16 66.56L60.4554 66.2154L60.2092 65.4769L59.52 64.8862L59.3723 63.3108L60.2092 61.9815L61.1446 61.8831L62.0308 61.1938L62.8185 61.2923L62.9169 62.5231L62.7692 62.6708L62.4739 62.6708L62.4739 63.0154L62.6708 63.1631L63.4092 62.9169L63.9508 63.6554L62.72 67.2L63.1631 67.0031L63.0154 67.1508L62.9169 67.6431L63.6554 67.3969L63.8031 67.2492L63.8031 66.9538L63.6062 66.8062L63.3108 66.8062L64.7385 65.4769L65.3785 65.4769L67.2 66.3631L67.4954 68.0369L68.5785 68.0369L68.6769 67.5938L69.3169 67.5938L69.6615 67.84L71.04 67.2492L70.7939 66.5108L64.9354 63.9015L64.4431 62.08L65.4769 59.4708L65.0831 58.5846L64 58.5846L63.1139 59.2246L61.44 56.0738L59.9631 57.1569L58.4369 55.8769L58.1415 55.8769L58.24 55.4338L59.2739 54.8923L59.7662 53.6123L59.6185 53.4646L59.6185 53.1692L59.2739 52.8738L60.5046 52.4308L59.6677 52.0369L58.9292 52.5785L57.8954 51.3969L56.1723 49.6738L56.1723 47.3108L55.2862 46.6215L55.8277 45.6369L54.8923 45.3908L54.1539 45.9323L53.8585 45.9323L53.1692 45.3908L52.7262 44.16L52.1846 45.1446L52.8246 47.1138L50.1169 48.2954L50.6092 48.7385L53.76 48.7385L54.4492 49.3292L48.1969 49.5754L47.9508 50.5108L46.3754 52.0369L47.4092 54.9415L49.4277 54.5969L50.4123 55.1385L47.7046 56.32L47.9508 57.0585L47.1631 58.6831L44.6523 60.3077L43.8646 60.2092L42.5354 59.0769L42.6339 58.2892L43.3723 58.0431L43.8154 57.5508L43.8154 56.9108L41.6 57.4031L41.4523 55.8277L41.3046 55.68L40.2215 55.9262L39.7785 56.4185L39.1385 56.4185L38.8923 57.1077L44.3077 61.9323L44.7508 61.44L45.9815 60.9969L45.7354 61.9323L46.9169 64.9354L47.8031 64.2462L47.0154 62.1292L47.2615 61.4892L46.9662 60.1108L48.4923 57.9446L49.92 57.9446L50.4615 57.0092L50.8062 57.3046L52.2339 55.9262L52.5785 54.4985L52.1846 53.6123L51.3969 53.5138L51.2492 53.3662L52.1354 50.9538L53.5139 50.3631L54.2523 51.5446L53.8585 52.3815L53.2185 52.3815L52.9231 52.7754L57.9446 52.9723L58.0923 52.8246L58.4369 53.4154L57.8462 53.76L57.4523 54.5969L57.6 54.7446L57.0092 55.4338L57.0092 56.0738L56.7631 56.4185L54.3015 56.6154L53.0215 57.8462L53.8585 58.5354L54.3015 59.7662L55.1385 60.16L55.8769 59.9138L56.4677 59.2246L56.4677 58.9292L57.2062 59.0277L57.7969 58.3385L57.3539 56.8123L58.0923 56.2708L58.1908 55.7785L59.2739 57.5508L59.2739 59.2738L58.2892 60.4554L55.1877 60.7508L54.6462 61.7354L55.68 62.9169L56.4677 63.0154L55.2369 63.4585L53.7108 62.1785L52.8246 62.5723L52.2831 63.5569L51.3969 63.9508L51.0523 63.36L51.9385 60.9477L49.1815 61.4892L48.9846 61.0462L48.3446 61.0462L48.2462 61.5877L48.8862 61.8338L49.4277 62.8677L49.3292 63.6554L49.6739 64.2462L50.1662 64.3446L50.2646 67.0031L52.6277 63.8031L54.9908 64.0492L54.6954 64.3938L54.6954 64.6892L53.6123 64.6892L52.1846 66.3138L52.9231 67.7908L52.8246 68.2831L51.9385 68.9723L51.6923 69.9077L52.9723 70.1046L53.9569 68.9231L54.2523 68.9231L54.9415 69.76L54.9415 70.8431L53.7108 71.5815L54.5477 71.9754L55.5815 71.4338L56.1231 72.4677L55.4339 73.6L55.2862 73.4523L54.8431 73.6492L53.9077 73.4031L53.0215 73.7969L52.1846 73.1077L51.4462 73.6492L51.7908 74.24L52.6277 74.6338L52.2339 77.4892L51.1508 77.4892L50.7569 78.5723L52.9723 77.2923L52.9723 75.8646L53.4646 75.6677L53.2185 74.9292L52.5785 74.6831L53.1692 73.9938L54.1046 74.24L54.8431 73.6985L54.0062 75.0277L54.3508 77.0462L54.8431 77.4892L55.2862 76.9969L55.2862 75.9138L55.6308 75.5692L56.4677 75.9631L56.9108 75.4708L56.6646 74.7323L57.1077 74.5354L57.6 74.6338L57.8954 76.0123L57.4523 76.2092L56.8123 77.6862L54.8431 78.6215L54.3015 79.6062L55.9754 79.0154L57.2062 80.2954L59.0277 79.8031L59.2739 79.1631L60.0123 78.9169L60.0123 79.5569L60.7015 79.5569L61.2923 78.8185L61.1446 78.9662ZM48.4923 47.0646L48.3939 47.5569L48.8862 48L49.1815 48L48.7877 47.0646C48.7877 47.0646 48.4923 47.0646 48.4923 47.0646ZM44.3077 54.7938L44.5046 55.2369L44.9969 55.3354L45.5877 54.6462L45.5877 54.0062L45.0462 53.9077L44.4554 54.2523L44.3569 54.7446L44.3077 54.7938ZM53.5631 55.0892L54.2031 55.3354L54.7939 54.9908L54.8923 54.4985L54.0554 54.1046L53.3169 54.6462L53.5139 55.0892L53.5631 55.0892ZM70.1046 38.4985L69.7108 39.3354L69.9569 40.0738L71.5815 38.8431L71.2369 38.2523L70.1539 38.4985L70.1046 38.4985ZM72.0246 37.2185L71.9262 37.7108L72.4185 38.1538L72.7139 38.1538L73.0092 37.8092L72.32 37.2185C72.32 37.2185 72.0246 37.2185 72.0246 37.2185ZM80.1477 58.7323L80.4431 58.3877L81.5262 58.1415L81.9692 57.6492L79.0154 57.7477L77.5385 55.04L77.2431 58.8308L76.6523 59.52L75.7169 56.1723L76.5046 54.2523L76.2585 53.1692L73.8954 51.2L70.9908 52.2338L71.1877 54.4L70.6462 55.3846L69.4646 52.6769L67.0523 51.7908L65.1323 49.28L65.5754 48.7877L65.3785 48.3446L65.7723 47.5077L67.4462 47.2123L67.3477 48L68.0369 48.5908L68.7754 48.3446L68.2831 46.1785L69.9569 45.8831L69.7108 44.8L69.2185 44.3569L69.2185 43.7169L68.3323 43.3231L67.9385 44.16L67.3477 44.5046L65.4277 45.7846L64.8369 47.8523L63.36 48.9354L63.8523 49.3785L64.2954 50.6092L64.1477 50.7569L63.3108 50.3631L60.3077 51.5446L60.9969 52.4308L65.3292 51.7415L67.0031 52.8246L67.4954 54.6462L68.6277 55.3354L68.3323 55.68L69.7108 57.1077L71.1385 57.4523L72.0246 57.0585L72.1231 56.2708L72.2708 56.1231L74.88 57.1569L75.3231 58.3877L74.1415 59.4215L73.4523 58.8308L73.4523 58.1908L72.7631 57.9446L72.5169 62.3262L73.8462 63.4585L74.1415 63.1138L74.4369 63.1138L76.3077 61.1938L77.5877 61.3908L79.5569 60.4554L80.0492 60.8985L80.3446 60.8985L80.5908 59.9138L80.0492 59.1754L80.1969 59.0277L80.1969 58.7323L80.1477 58.7323ZM44.9969 73.8462L47.1139 75.0769L47.4092 75.0769L47.5569 74.88L49.6246 77.1938L50.1169 77.2923L50.56 77.0954L48.4431 72.7631L48.6892 71.8277L47.5569 71.1385L46.5723 72.32L47.2123 72.5662L47.8031 72.2215L47.9508 72.3692L46.7692 73.1077L46.6215 72.96L46.3262 73.3046L46.3262 73.0092L46.1785 73.1569L45.3908 73.0585L44.8985 72.6154L44.9969 72.1231L44.5046 72.0246L44.0615 72.2215L43.6185 74.4369L44.4062 74.5354C44.4062 74.5354 44.9969 73.8462 44.9969 73.8462ZM77.2923 33.6246L77.2923 33.92L77.6369 34.2154L78.1292 34.3138L78.2769 34.1662L78.2769 33.8708L78.08 33.7231C78.08 33.7231 77.2923 33.6246 77.2923 33.6246ZM70.4985 41.7477L70.7939 44.8492L71.2862 45.2923L73.2062 44.0123L72.96 43.2738L70.6462 41.6C70.6462 41.6 70.4985 41.7477 70.4985 41.7477ZM73.8954 39.7292L71.9262 40.6646L71.7292 41.9446L72.4185 41.1077L73.4523 41.9446L74.7323 42.1415C74.7323 42.1415 73.8954 39.7292 73.8954 39.7292ZM63.5077 53.1692L62.6708 52.7754L61.1939 53.8585L61.3908 54.3015L62.0308 54.5477L63.36 53.6615L63.4585 53.1692L63.5077 53.1692ZM79.9508 32.1969L80.1477 32.64L80.8862 32.3938L81.5754 31.5569L82.2154 31.8031L82.9539 31.5569L81.1323 30.6215L79.8523 32.1477L79.9508 32.1969ZM49.7723 69.5631L50.8554 69.3169L50.3139 68.5785L49.6739 68.3323C49.6739 68.3323 49.7723 69.5631 49.7723 69.5631ZM78.4739 36.7262L77.9323 35.9877L76.9969 36.0862L76.9969 36.3815L77.8831 37.4154C77.8831 37.4154 78.4739 36.7262 78.4739 36.7262ZM41.0585 80.9846L42.0431 79.5077L41.2554 79.4092L41.1077 79.5569L40.8123 79.5569L40.0739 80.0985L40.32 80.8369L41.1077 80.9354L41.0585 80.9846ZM80.3939 35.4954L80.6892 35.1508L79.8523 34.4615L78.9169 34.56L79.3108 35.4462L80.4431 35.84L80.4431 35.5446L80.3939 35.4954ZM76.16 37.76L75.7169 38.2523L75.7169 38.8923L76.8985 37.5631L76.16 37.8092L76.16 37.76ZM44.7015 76.9477L44.7015 75.52L43.0277 77.2431L43.3723 77.8338L44.0123 77.8338C44.0123 77.8338 44.7015 76.9477 44.7015 76.9477ZM32.64 90.9785L32.3939 90.24L32.0985 90.24L31.8523 90.9292L32.3446 91.3723L32.64 91.0277L32.64 90.9785ZM75.8154 39.1877L74.8308 40.6646L76.3077 39.5815L75.8154 39.1385L75.8154 39.1877ZM49.2308 73.2554L51.0031 72.1723L51.4954 70.8923L50.5108 70.3508L49.3292 71.3846L49.1815 73.2554L49.2308 73.2554ZM73.6 47.6554L73.2554 47.0646L72.4677 46.9662L72.1231 46.6708L71.8277 46.6708L71.5815 45.9323L70.8431 46.1785L70.7446 46.9662L73.2062 48.1477L73.6492 47.6554L73.6 47.6554ZM65.4769 54.6462L64.7385 54.8923L64.2954 55.3846L63.6554 55.1385L63.0646 55.4831L62.5723 57.1077L63.2123 57.3538L63.8031 56.6646L66.2646 57.8462L65.8708 54.8923L66.3139 54.6954L66.3139 54.0554L65.7723 53.9569L65.5262 54.5969L65.4769 54.6462ZM37.3169 88.2215L37.0708 87.4831L35.84 87.9262L35.5939 88.5662L35.7908 89.0092L36.4308 89.0092L37.3169 88.2708L37.3169 88.2215ZM56.7631 63.7046L57.5015 64.8862L56.9108 65.2308L55.4831 65.2308L56.7631 63.6554L56.7631 63.7046ZM79.2123 37.9569L79.2123 38.2523L77.7354 38.9908L77.5877 40.8615L80.8862 37.2677L79.2123 37.8585L79.2123 37.9569ZM40.8123 83.3969L41.9939 84.3815L42.6339 84.3815L43.9631 85.4646L49.4277 80L49.6246 78.4246L46.1292 82.9538L45.1939 83.0523L44.3569 82.3631L44.7508 81.5261L43.4215 80.6892L40.8615 83.3969L40.8123 83.3969ZM46.3754 77.1446L46.5723 77.5877L47.3108 77.3415L47.4092 76.8492L46.72 76.2585L46.3262 77.0954L46.3754 77.1446ZM75.6185 42.9785L75.9139 42.9785L76.5046 42.2892L76.5046 41.9938L76.0123 41.8954L75.4215 42.5846L75.6185 43.0277L75.6185 42.9785ZM75.1262 44.6031L74.1415 44.0615L73.6985 44.5538L73.6985 45.1938L74.24 45.2923L74.5846 45.8831L74.1415 47.8031L74.7323 49.1815L75.0277 49.1815L75.1754 48.9846L75.1754 44.6031L75.1262 44.6031ZM71.7785 49.8708L71.5815 49.4277L71.0892 49.3292L70.4985 49.6738L70.4985 49.9692L71.1877 50.56L71.4831 50.56L71.7292 49.8708L71.7785 49.8708ZM34.8554 92.8L35.6431 92.8985L36.6277 91.7169L36.48 91.5692L36.1846 91.5692L35.8892 91.9138L34.8062 92.16L34.8062 92.8L34.8554 92.8ZM59.2246 63.4585L58.6831 64.4431L59.2246 63.4585ZM83.0523 35.3969L82.9539 35.8892L83.2985 36.1846L83.9385 36.1846L83.9385 35.4954L83.5446 35.2L83.3969 35.3477L83.1015 35.3477L83.0523 35.3969ZM84.7754 33.7231L86.2031 33.7231L86.9415 33.2308L86.9415 32.9354L86.5969 32.64L84.8246 33.7231L84.7754 33.7231ZM46.3262 80.2461L46.9662 80.4923L46.9662 80.1969L46.4246 79.4585L46.1292 79.8031C46.1292 79.8031 46.3262 80.2461 46.3262 80.2461ZM87.5323 30.8185L87.4339 31.6062L88.0739 31.6062L88.1723 30.7692L87.5323 30.7692L87.5323 30.8185ZM35.6923 92.6523L35.6923 92.9477L35.5446 92.8L35.6923 92.6523ZM35.1015 95.0646L34.9046 94.6215L34.56 94.3262L33.8215 94.8677L34.3139 95.3108L34.9539 95.3108C34.9539 95.3108 35.1015 95.0646 35.1015 95.0646ZM83.2 37.3662L82.2646 37.4646L81.6739 38.1538L83.5939 42.3877L83.9877 38.1538L83.1508 37.4646L83.2 37.3662ZM42.0431 87.0892L42.1416 86.5969L41.9939 86.4492L41.3539 86.4492L41.3539 86.7938L41.2554 86.9415L42.0431 87.04L42.0431 87.0892ZM61.3908 65.0831L60.2092 65.8215L61.2923 67.2985L61.44 67.4462L62.0308 66.7569L62.0308 62.6708L60.8492 63.7046L61.44 65.0831L61.3908 65.0831ZM77.1446 44.9477L76.4062 45.4892L77.2431 45.8831L77.9816 45.3415L77.1446 44.9477ZM80.8369 42.5846L79.2616 42.7323L80.3939 43.4215L81.7723 41.1077L80.6892 41.3538L80.7877 42.5846L80.8369 42.5846ZM81.1816 52.0862L80.5416 52.0862L78.8677 51.0523L78.5723 49.3785L77.5385 48.1969L77.6862 46.3262L75.7169 46.9662L76.0616 48.9846L76.9969 48.8862L77.5385 49.6246L76.2585 51.1508L76.5539 52.8246L77.3908 53.2185L77.8339 52.7262L77.4892 52.1354L77.9323 51.6431L78.5723 51.6431L81.0339 53.0708L81.7723 52.5292L83.3969 53.3169L84.6769 50.0677L81.28 52.0862L81.1816 52.0862ZM41.5016 89.7969L42.7323 89.3538L42.9785 88.7138L41.9939 88.1723L41.5508 88.3692L41.1569 89.2062C41.1569 89.2062 41.5016 89.7969 41.5016 89.7969ZM84.9723 37.6615L84.9723 38.3015L85.3169 38.3015L85.4646 38.4L85.6123 38.2523L85.6123 37.9569L84.9231 37.7108L84.9723 37.6615ZM69.4646 64.3446L70.7446 64.8369L71.6308 65.8708L72.9108 66.0677L73.6492 65.5262L74.0923 66.7569L74.3877 66.7569L74.5354 66.56L74.5354 65.92L73.9446 65.1815L74.0923 65.0338L72.6646 64.6892L72.32 64.0985L71.68 64.0985L71.5323 64L71.3846 64.1477L69.76 63.6554L69.0708 62.7692L68.9231 60.8985L67.5939 59.7662L67.2 60.6031L66.8554 60.3077L66.56 60.3077L66.4615 61.1446L65.8215 61.1446L65.6739 63.0646L66.8062 63.4585L67.5446 62.9169L67.3477 62.4738L67.7908 61.9815L69.2677 64.3446L67.9877 64.1477L68.8739 65.4769L69.4646 65.1323L69.5631 64.3446L69.4646 64.3446ZM40.8123 92.3569L40.8123 92.0615L40.32 91.9631L39.8769 92.4554L39.8769 92.7508C39.8769 92.7508 40.8123 92.3569 40.8123 92.3569ZM82.4123 44.16L81.5754 43.7662L79.2615 45.8338L80.8862 46.6215L82.3631 45.5385L82.3631 45.2431L82.4615 45.0954L82.3631 44.16L82.4123 44.16ZM50.7569 82.56L49.7231 81.3785L47.7046 83.4462L48.3446 83.6923L49.6246 82.4615L50.7077 82.4615L50.7569 82.56ZM53.7108 82.2154L53.2185 80.3938L51.2 80.3938L53.4154 82.56C53.4154 82.56 53.7108 82.2154 53.7108 82.2154ZM61.9815 69.3169L61.9815 68.2338L61.7354 68.2338L61.3415 69.0708C61.3415 69.0708 61.9815 69.3169 61.9815 69.3169ZM84.7262 41.5015L84.6277 41.9938L84.8246 42.4369L85.3169 42.5354L86.2031 41.8462L86.3015 41.0585L85.5139 40.96L84.7754 41.5015L84.7262 41.5015ZM59.4215 72.32L60.7015 72.5169L61.7846 74.2892L62.2769 74.3877L62.5723 74.0431L63.1139 74.7815L63.6062 74.88L64.3939 76.7015L66.4615 76.9969L61.9815 72.3692L63.0154 71.8277L63.1631 71.9754L65.5754 70.8431L65.2308 72.2708L67.2492 70.5477L67.2492 70.2523L68.2831 69.7108L63.36 69.0215L62.3262 68.1846L62.6215 69.5631L62.3262 69.9077L62.2277 70.6954L59.4215 72.3692L59.4215 72.32ZM45.0954 89.0585L45.7354 89.3046L47.0646 88.4185L46.9662 87.1877L46.1292 88.5169L45.4892 88.5169L45.0462 89.0585L45.0954 89.0585ZM70.4985 59.4708L70.8431 60.0615L71.1877 60.3569L71.8769 59.52L71.5323 58.9292L70.7446 58.8308C70.7446 58.8308 70.4985 59.4708 70.4985 59.4708ZM84.3815 44.6523L83.5446 44.2585L83.2492 44.2585L82.9539 44.6031L82.9539 46.9662L83.1508 47.1138L83.4462 47.1138L84.3323 44.6523L84.3815 44.6523ZM39.4831 98.1662L39.5815 97.6738L39.4339 97.5262L38.6462 97.4277L38.6462 98.0677C38.6462 98.0677 39.4831 98.1662 39.4831 98.1662ZM83.4954 49.1323L83.7415 48.1969L82.4615 48L80.1969 48.9846L80.5908 49.8708L82.2154 50.3631C82.2154 50.3631 83.4954 49.1323 83.4954 49.1323ZM64.3939 68.48L65.1323 68.2338L65.5754 67.7415L65.0831 67.2985L64.3446 67.84L64.3446 68.48L64.3939 68.48ZM51.4954 84.9231L51.4954 84.6277L51.2985 84.48L50.5108 84.3815L50.0677 84.8738L50.7077 85.12L51.4462 84.8738L51.4954 84.9231ZM87.4831 42.0431L87.2369 42.6831L87.9262 43.2738L88.2215 42.9292L88.2215 41.8462L87.5323 42.0923L87.4831 42.0431ZM75.0277 57.2062L74.88 57.3538L74.88 57.0585L75.0277 57.2062ZM78.9662 53.9077L79.1139 53.76L78.6215 53.6615L77.9323 54.4985L79.0154 54.2523L79.0154 53.9569L78.9662 53.9077ZM50.1662 87.8769L49.4277 88.4185L50.1169 89.0092L51.3969 89.2062L52.5785 88.1723L50.4123 88.6646L50.1662 87.9262L50.1662 87.8769ZM45.6369 96.7385L45.5385 95.8031L44.9969 95.0646L44.0615 94.8185L43.6677 95.6554L44.16 96.0985L44.8 96.0985C44.8 96.0985 45.6369 96.7385 45.6369 96.7385ZM56.6154 82.6585L55.9262 82.0677L55.2862 82.0677L54.8431 82.6092L56.5662 82.6092L56.6154 82.6585ZM53.5139 84.9723L52.7754 85.5138L52.5292 86.1538L52.6769 86.3015L52.9723 86.3015L53.4154 85.76C53.4154 85.76 53.5139 84.9723 53.5139 84.9723ZM74.2892 63.3108L74.1415 63.4585L73.9939 63.3108L74.2892 63.3108ZM68.6277 75.1754L69.6123 73.6985L66.9539 72.0738L67.0523 73.3046L68.48 73.3046L68.6277 73.5015L68.6277 75.2246L68.6277 75.1754ZM44.7015 101.957L44.8 101.465L44.4554 100.874L44.2585 100.431L43.9631 100.775L44.0615 102.006L44.7015 102.006L44.7015 101.957ZM71.8769 69.1692L71.3846 69.0708L70.7939 69.4154L70.6954 69.9077L71.0892 70.7938L74.24 70.7938L74.24 70.4985L71.9262 69.12L71.8769 69.1692ZM72.4185 75.3723L73.3046 73.2554L71.8769 71.1877L70.6462 71.2862L70.1046 72.2708L71.9754 73.8462C71.9754 73.8462 72.4185 75.3723 72.4185 75.3723ZM66.1169 80.1477L65.7231 79.2615L64.8862 78.5723L64.1477 79.1138L66.1169 80.1969L66.1169 80.1477ZM67.3969 84.0862L66.7077 83.2L67.84 81.8708L68.0369 80.5908L64.9846 81.4769L64.9846 82.1169L65.7231 82.7077L66.1662 83.9385L67.4462 84.1354L67.3969 84.0862ZM68.8246 78.9662L68.1354 78.3754L67.3969 78.9169L68.2339 79.6062L68.8739 79.6062L68.8739 78.9169L68.8246 78.9662ZM75.3231 70.1046L76.16 74.24L77.2431 73.9938L78.0308 72.0738L76.6031 70.3015C76.6031 70.3015 75.3231 70.1046 75.3231 70.1046ZM80.9354 78.8185L81.1815 77.8831L80.8369 77.2923L80.0985 77.5385L79.4585 77.2923L81.1815 73.5508L80.7877 72.6646L81.8708 70.6954L77.9323 68.8246L78.3754 70.3508L79.2123 71.04L80.2462 73.9446L75.0769 77.3908L73.0092 77.0954L73.6985 79.7046L76.16 79.1631L75.9139 78.08L77.0954 77.3415L78.6708 79.2123L80.9846 78.8677L80.9354 78.8185ZM72.2215 77.5385L71.9754 76.8L71.3354 76.8L71.0892 77.8338L71.6308 78.5723L72.1723 77.5877L72.2215 77.5385ZM76.1108 80.7877L76.1108 80.1477L74.7815 79.9508L73.6 80.6892L70.5969 80.1477L70.1539 80.64L70.5969 81.8708L71.2369 81.8708L72.4185 80.7877L73.1077 81.3785L76.16 80.7877L76.1108 80.7877ZM71.4831 84.9231L70.9908 83.1015L70.0062 82.56L69.0708 82.6585L68.8246 83.5938L68.6769 83.4462L67.84 84.48L67.1015 84.7262L66.8554 85.3662L67.3477 85.8092L71.0892 85.4646L71.5323 84.9723L71.4831 84.9231ZM74.8308 83.6923L74.6831 82.1169L74.3877 82.1169L73.6492 82.6585L73.5508 83.4462L73.2554 83.7908L73.2554 84.0862L72.3692 84.48L72.4677 85.4154L73.2554 85.5138L73.6492 84.6769L73.9446 84.6769L74.7815 83.6431L74.8308 83.6923ZM82.8554 77.1938L82.6092 76.1108L81.9692 75.8646L81.8708 76.3569L82.0677 76.8L82.9046 77.1938L82.8554 77.1938ZM76.5046 84.7754L76.4062 85.2677L76.7508 85.8585L77.2431 85.9569L77.9323 85.12L77.7354 84.6769L77.0954 84.4308C77.0954 84.4308 76.5046 84.7754 76.5046 84.7754ZM78.6215 91.1754L78.8677 90.5354L78.1785 89.6492L79.6554 86.8431L76.2585 87.1385L75.9139 86.5477L75.2739 86.5477L75.0277 87.2369L75.8646 87.6308L76.1108 88.3692L76.8 88.96L76.2585 89.9446L76.8 90.6831L78.72 91.1262L78.6215 91.1754ZM82.0677 78.8185L82.2646 79.2615L82.9046 79.5077L83.6431 79.2615L84.0862 78.7692L82.9539 78.08L82.0677 78.7692L82.0677 78.8185ZM82.0677 89.7477L82.1662 89.2554L81.9692 88.8123L81.3292 88.5662L80.4431 89.2554L80.64 89.6985L81.28 89.9446L82.0185 89.6985L82.0677 89.7477ZM88.6646 88.0738L87.6308 86.8923L86.4 87.3354L82.8554 91.2246L82.9539 92.16L83.4462 92.6031L86.7939 88.2215L87.7292 88.4677L88.6154 88.0738L88.6646 88.0738ZM91.3723 85.1692L91.4708 84.3815L90.4369 83.5446L89.6985 83.7908L89.6 84.5785L90.1415 85.3169L90.7815 85.5631L91.3723 85.2185L91.3723 85.1692ZM90.24 93.7354L89.1569 91.9631L89.0092 90.0923L87.7785 92.2092L89.6492 94.08C89.6492 94.08 90.24 93.7354 90.24 93.7354ZM86.2523 96.4431L86.2523 96.1477L85.9077 95.8523L85.1692 96.3938L85.3662 96.8369L85.8585 96.9354L86.3015 96.4431L86.2523 96.4431ZM93.5385 90.1908L93.9815 89.9938L93.9815 89.6985L93.7846 89.5508L93.2923 89.4523L92.7015 89.7969C92.7015 89.7969 93.5385 90.1908 93.5385 90.1908ZM88.1231 100.037L87.7292 99.1508L86.5969 98.7569L87.68 100.234L87.9754 100.234C87.9754 100.234 88.1231 100.037 88.1231 100.037ZM98.2154 86.6462L97.9692 87.2862L98.3631 88.1723L98.8062 87.9754L98.9046 87.4831L98.9046 86.8431L98.5108 86.5477L98.2154 86.5477L98.2154 86.6462ZM91.8154 97.3785L92.2092 96.5415L92.0123 96.0985L91.7169 96.0985L91.3231 96.9354L91.52 97.3785L91.8154 97.3785Z" fill="#ff0000" fill-rule="evenodd" opacity="1" stroke="none"/>
</g>
</g>
</svg>
