<?xml version="1.0" encoding="UTF-8" standalone="no"?>
<!DOCTYPE svg PUBLIC "-//W3C//DTD SVG 1.1//EN" "http://www.w3.org/Graphics/SVG/1.1/DTD/svg11.dtd">

<!-- Created with Vectornator (http://vectornator.io/) -->
<svg height="100%" stroke-miterlimit="10" style="fill-rule:nonzero;clip-rule:evenodd;stroke-linecap:round;stroke-linejoin:round;" version="1.1" viewBox="0 0 501.427 288.614" width="100%" xml:space="preserve" xmlns="http://www.w3.org/2000/svg" xmlns:vectornator="http://vectornator.io" xmlns:xlink="http://www.w3.org/1999/xlink">
<metadata>
<vectornator:setting key="IsTimeLapseWatermarkDisabled" value="false"/>
<vectornator:setting key="UndoHistoryDisabled" value="true"/>
<vectornator:setting key="VNDimensionsVisible" value="true"/>
<vectornator:setting key="VNSnapToGuides" value="true"/>
<vectornator:setting key="WDCMYKEnabledKey" value="false"/>
<vectornator:setting key="WDDisplayWhiteBackground" value="false"/>
<vectornator:setting key="WDDynamicGuides" value="false"/>
<vectornator:setting key="WDGuidesVisible" value="true"/>
<vectornator:setting key="WDIsolateActiveLayer" value="false"/>
<vectornator:setting key="WDOutlineMode" value="false"/>
<vectornator:setting key="WDRulersVisible" value="true"/>
<vectornator:setting key="WDSnapToEdges" value="false"/>
<vectornator:setting key="WDSnapToGrid" value="false"/>
<vectornator:setting key="WDSnapToPoints" value="false"/>
<vectornator:setting key="WDUnits" value="Pixels"/>
</metadata>
<defs/>
<g id="Layer-1" vectornator:layerName="Layer 1">
<path d="M0 142.062C0 189.417 0 236.771 0 284.125C3.97437 284.125 7.94873 284.125 11.9231 284.125C15.8975 284.125 19.8718 284.125 23.8462 284.125C23.8462 280.235 23.8462 276.345 23.8462 272.455C23.8462 268.566 23.8462 264.676 23.8462 260.786C27.8206 260.786 31.7949 260.786 35.7693 260.786C39.7437 260.786 43.718 260.786 47.6924 260.786C47.6924 256.812 47.6924 252.837 47.6924 248.863C47.6924 244.889 47.6924 240.914 47.6924 236.94C51.5822 236.94 55.472 236.94 59.3618 236.94C63.2516 236.94 67.1414 236.94 71.0312 236.94C71.0312 233.05 71.0312 229.16 71.0312 225.27C71.0312 221.381 71.0312 217.491 71.0312 213.601C142.062 213.601 213.094 213.601 284.125 213.601C355.156 213.601 426.187 213.601 497.219 213.601C497.219 178.001 497.219 142.401 497.219 106.801C497.219 71.2003 497.219 35.6002 497.219 0C414.349 0 331.479 0 248.609 0C165.74 0 82.8698 0 0 0C0 47.3541 0 94.7083 0 142.062Z" fill="#d25a1e" fill-rule="evenodd" opacity="1" stroke="none"/>
<path d="M47.6924 106.547C47.6924 126.165 47.6924 145.783 47.6924 165.401C59.4464 165.401 71.2003 165.401 82.9543 165.401C94.7083 165.401 106.462 165.401 118.216 165.401C118.216 161.511 118.216 157.622 118.216 153.732C118.216 149.842 118.216 145.952 118.216 142.062C110.352 142.062 102.488 142.062 94.6237 142.062C86.7596 142.062 78.8954 142.062 71.0312 142.062C71.0312 138.088 71.0312 134.114 71.0312 130.139C71.0312 126.165 71.0312 122.191 71.0312 118.216C78.8954 118.216 86.7596 118.216 94.6237 118.216C102.488 118.216 110.352 118.216 118.216 118.216C118.216 114.326 118.216 110.437 118.216 106.547C118.216 102.657 118.216 98.7672 118.216 94.8774C110.352 94.8774 102.488 94.8774 94.6237 94.8774C86.7596 94.8774 78.8954 94.8774 71.0312 94.8774C71.0312 90.903 71.0312 86.9287 71.0312 82.9543C71.0312 78.9799 71.0312 75.0056 71.0312 71.0312C78.8954 71.0312 86.7596 71.0312 94.6237 71.0312C102.488 71.0312 110.352 71.0312 118.216 71.0312C118.216 67.1414 118.216 63.2516 118.216 59.3618C118.216 55.472 118.216 51.5822 118.216 47.6924C106.462 47.6924 94.7083 47.6924 82.9543 47.6924C71.2003 47.6924 59.4464 47.6924 47.6924 47.6924C47.6924 67.3105 47.6924 86.9287 47.6924 106.547Z" fill="#ffffff" fill-rule="evenodd" opacity="1" stroke="none"/>
<path d="M165.909 106.547C165.909 126.165 165.909 145.783 165.909 165.401C177.663 165.401 189.417 165.401 201.171 165.401C212.925 165.401 224.679 165.401 236.432 165.401C236.432 161.511 236.432 157.622 236.432 153.732C236.432 149.842 236.432 145.952 236.432 142.062C228.568 142.062 220.704 142.062 212.84 142.062C204.976 142.062 197.112 142.062 189.247 142.062C189.247 138.088 189.247 134.114 189.247 130.139C189.247 126.165 189.247 122.191 189.247 118.216C197.112 118.216 204.976 118.216 212.84 118.216C220.704 118.216 228.568 118.216 236.432 118.216C236.432 114.326 236.432 110.437 236.432 106.547C236.432 102.657 236.432 98.7672 236.432 94.8774C228.568 94.8774 220.704 94.8774 212.84 94.8774C204.976 94.8774 197.112 94.8774 189.247 94.8774C189.247 90.903 189.247 86.9287 189.247 82.9543C189.247 78.9799 189.247 75.0056 189.247 71.0312C197.112 71.0312 204.976 71.0312 212.84 71.0312C220.704 71.0312 228.568 71.0312 236.432 71.0312C236.432 67.1414 236.432 63.2516 236.432 59.3618C236.432 55.472 236.432 51.5822 236.432 47.6924C224.679 47.6924 212.925 47.6924 201.171 47.6924C189.417 47.6924 177.663 47.6924 165.909 47.6924C165.909 67.3105 165.909 86.9287 165.909 106.547Z" fill="#ffffff" fill-rule="evenodd" opacity="1" stroke="none"/>
<path d="M260.786 59.3618C260.786 63.2516 260.786 67.1414 260.786 71.0312C264.676 71.0312 268.566 71.0312 272.455 71.0312C276.345 71.0312 280.235 71.0312 284.125 71.0312C284.125 86.7596 284.125 102.488 284.125 118.216C284.125 133.945 284.125 149.673 284.125 165.401C288.015 165.401 291.904 165.401 295.794 165.401C299.684 165.401 303.574 165.401 307.464 165.401C307.464 149.673 307.464 133.945 307.464 118.216C307.464 102.488 307.464 86.7596 307.464 71.0312C311.438 71.0312 315.412 71.0312 319.387 71.0312C323.361 71.0312 327.336 71.0312 331.31 71.0312C331.31 67.1414 331.31 63.2516 331.31 59.3618C331.31 55.472 331.31 51.5822 331.31 47.6924C319.556 47.6924 307.802 47.6924 296.048 47.6924C284.294 47.6924 272.54 47.6924 260.786 47.6924C260.786 51.5822 260.786 55.472 260.786 59.3618Z" fill="#ffffff" fill-rule="evenodd" opacity="1" stroke="none"/>
<path d="M379.002 59.3618C379.002 63.2516 379.002 67.1414 379.002 71.0312C386.866 71.0312 394.731 71.0312 402.595 71.0312C410.459 71.0312 418.323 71.0312 426.187 71.0312C426.187 67.1414 426.187 63.2516 426.187 59.3618C426.187 55.472 426.187 51.5822 426.187 47.6924C418.323 47.6924 410.459 47.6924 402.595 47.6924C394.731 47.6924 386.866 47.6924 379.002 47.6924C379.002 51.5822 379.002 55.472 379.002 59.3618Z" fill="#ffffff" fill-rule="evenodd" opacity="1" stroke="none"/>
<path d="M118.724 82.7006C118.724 86.5904 118.724 90.4802 118.724 94.37C122.613 94.37 126.503 94.37 130.393 94.37C134.283 94.37 138.173 94.37 142.062 94.37C142.062 90.4802 142.062 86.5904 142.062 82.7006C142.062 78.8108 142.062 74.921 142.062 71.0312C138.173 71.0312 134.283 71.0312 130.393 71.0312C126.503 71.0312 122.613 71.0312 118.724 71.0312C118.724 74.921 118.724 78.8108 118.724 82.7006Z" fill="#ffffff" fill-rule="evenodd" opacity="1" stroke="none"/>
<path d="M355.663 118.216C355.663 133.945 355.663 149.673 355.663 165.401C359.469 165.401 363.274 165.401 367.079 165.401C370.884 165.401 374.69 165.401 378.495 165.401C378.495 157.537 378.495 149.673 378.495 141.809C378.495 133.945 378.495 126.08 378.495 118.216C386.444 118.216 394.392 118.216 402.341 118.216C410.29 118.216 418.239 118.216 426.187 118.216C426.272 126.08 426.356 133.945 426.441 141.809C426.526 149.673 426.61 157.537 426.695 165.401C430.5 165.401 434.305 165.401 438.11 165.401C441.916 165.401 445.721 165.401 449.526 165.401C449.526 149.673 449.526 133.945 449.526 118.216C449.526 102.488 449.526 86.7596 449.526 71.0312C445.721 71.0312 425.734 71.0312 425.734 71.0312L425.762 94.8774C425.762 94.8774 386.444 94.8774 378.495 94.8774C378.495 90.903 378.495 86.9287 378.495 82.9543C378.495 78.9799 378.495 75.0056 378.495 71.0312C374.69 71.0312 370.884 71.0312 367.079 71.0312C363.274 71.0312 359.469 71.0312 355.663 71.0312C355.663 86.7596 355.663 102.488 355.663 118.216Z" fill="#ffffff" fill-rule="evenodd" opacity="1" stroke="none"/>
<path d="M118.724 130.393C118.724 134.283 118.724 138.173 118.724 142.062C122.613 142.062 126.503 142.062 130.393 142.062C134.283 142.062 138.173 142.062 142.062 142.062C142.062 138.173 142.062 134.283 142.062 130.393C142.062 126.503 142.062 122.613 142.062 118.724C138.173 118.724 134.283 118.724 130.393 118.724C126.503 118.724 122.613 118.724 118.724 118.724C118.724 122.613 118.724 126.503 118.724 130.393Z" fill="#ffffff" fill-rule="evenodd" opacity="1" stroke="none"/>
</g>
</svg>
