<svg width="14" height="8" viewBox="0 0 14 8" fill="none" xmlns="http://www.w3.org/2000/svg">
    <path fill-rule="evenodd" clip-rule="evenodd" d="M0.682095 0.681812C0.857831 0.506076 1.14276 0.506076 1.31849 0.681812L7.0003 6.36362L12.6821 0.681812C12.8578 0.506077 13.1428 0.506077 13.3185 0.681813C13.4942 0.857549 13.4942 1.14247 13.3185 1.31821L7.31849 7.31821C7.14276 7.49395 6.85783 7.49395 6.6821 7.31821L0.682095 1.31821C0.506359 1.14247 0.506359 0.857548 0.682095 0.681812Z" fill="#F5F5F5"/>
    <path d="M1.31849 0.681812L0.964938 1.03537L1.31849 0.681812ZM0.682095 0.681812L0.328541 0.328259H0.328541L0.682095 0.681812ZM7.0003 6.36362L7.35385 6.71717C7.15859 6.91243 6.842 6.91243 6.64674 6.71717L7.0003 6.36362ZM12.6821 0.681812L12.3285 0.328259V0.328259L12.6821 0.681812ZM13.3185 0.681813L13.672 0.328259L13.6721 0.328259L13.3185 0.681813ZM13.3185 1.31821L13.6721 1.67176V1.67176L13.3185 1.31821ZM7.31849 7.31821L6.96494 6.96466V6.96466L7.31849 7.31821ZM6.6821 7.31821L7.03565 6.96466V6.96466L6.6821 7.31821ZM0.682095 1.31821L0.328542 1.67176L0.682095 1.31821ZM0.964938 1.03537C0.984464 1.05489 1.01612 1.05489 1.03565 1.03537L0.328541 0.328259C0.69954 -0.0427394 1.30105 -0.0427394 1.67204 0.328259L0.964938 1.03537ZM6.64674 6.71717L0.964938 1.03537L1.67204 0.328259L7.35385 6.01006L6.64674 6.71717ZM13.0357 1.03537L7.35385 6.71717L6.64674 6.01006L12.3285 0.328259L13.0357 1.03537ZM12.9649 1.03537C12.9845 1.05489 13.0161 1.05489 13.0357 1.03537L12.3285 0.328259C12.6995 -0.0427389 13.3011 -0.0427384 13.672 0.328259L12.9649 1.03537ZM12.9649 0.964656C12.9454 0.984182 12.9454 1.01584 12.9649 1.03537L13.6721 0.328259C14.043 0.699258 14.043 1.30076 13.6721 1.67176L12.9649 0.964656ZM6.96494 6.96466L12.9649 0.964655L13.6721 1.67176L7.67205 7.67176L6.96494 6.96466ZM7.03565 6.96466C7.01612 6.94513 6.98447 6.94513 6.96494 6.96466L7.67205 7.67176C7.30105 8.04276 6.69954 8.04276 6.32854 7.67176L7.03565 6.96466ZM1.03565 0.964655L7.03565 6.96466L6.32854 7.67176L0.328542 1.67176L1.03565 0.964655ZM1.03565 1.03537C1.05517 1.01584 1.05517 0.984181 1.03565 0.964655L0.328542 1.67176C-0.0424565 1.30076 -0.0424566 0.699257 0.328541 0.328259L1.03565 1.03537Z" fill="#F5F5F5"/>
</svg>
