<svg width="9" height="9" viewBox="0 0 9 9" fill="none" xmlns="http://www.w3.org/2000/svg">
    <path d="M0.283852 1.5235C-0.0506987 1.17281 -0.0376151 0.61731 0.313075 0.282759C0.663765 -0.0517909 1.21926 -0.0387072 1.55381 0.311983L8.28283 7.36563C8.61738 7.71632 8.6043 8.27181 8.25361 8.60636C7.90292 8.94091 7.34742 8.92783 7.01287 8.57714L0.283852 1.5235Z" fill="#F9FAFF"/>
    <path d="M8.28113 1.5235C8.61568 1.17281 8.60259 0.61731 8.2519 0.282759C7.90121 -0.0517909 7.34572 -0.0387072 7.01117 0.311983L0.282149 7.36563C-0.0524012 7.71632 -0.0393176 8.27181 0.311372 8.60636C0.662062 8.94091 1.21756 8.92783 1.55211 8.57714L8.28113 1.5235Z" fill="#F9FAFF"/>
    <path d="M3.06955 4.43836L4.29791 3.15831L5.49697 4.44815L4.27646 5.71989L3.06955 4.43836Z" fill="#F9FAFF"/>
</svg>
