<?xml version="1.0" encoding="UTF-8" standalone="no"?>
<!DOCTYPE svg PUBLIC "-//W3C//DTD SVG 1.1//EN" "http://www.w3.org/Graphics/SVG/1.1/DTD/svg11.dtd">

<!-- Created with Vectornator (http://vectornator.io/) -->
<svg height="100%" stroke-miterlimit="10" style="fill-rule:nonzero;clip-rule:evenodd;stroke-linecap:round;stroke-linejoin:round;" version="1.1" viewBox="0 0 320 320" width="100%" xml:space="preserve" xmlns="http://www.w3.org/2000/svg" xmlns:vectornator="http://vectornator.io" xmlns:xlink="http://www.w3.org/1999/xlink">
<metadata>
<vectornator:setting key="IsTimeLapseWatermarkDisabled" value="false"/>
<vectornator:setting key="UndoHistoryDisabled" value="true"/>
<vectornator:setting key="VNDimensionsVisible" value="true"/>
<vectornator:setting key="VNSnapToGuides" value="true"/>
<vectornator:setting key="WDCMYKEnabledKey" value="false"/>
<vectornator:setting key="WDDisplayWhiteBackground" value="false"/>
<vectornator:setting key="WDDynamicGuides" value="false"/>
<vectornator:setting key="WDGuidesVisible" value="true"/>
<vectornator:setting key="WDIsolateActiveLayer" value="false"/>
<vectornator:setting key="WDOutlineMode" value="false"/>
<vectornator:setting key="WDRulersVisible" value="true"/>
<vectornator:setting key="WDSnapToEdges" value="false"/>
<vectornator:setting key="WDSnapToGrid" value="false"/>
<vectornator:setting key="WDSnapToPoints" value="false"/>
<vectornator:setting key="WDUnits" value="Points"/>
</metadata>
<defs/>
<g id="Untitled" vectornator:layerName="Untitled">
<path d="M11.8 159.7C11.8 77.8514 78.1514 11.5 160 11.5C241.849 11.5 308.2 77.8514 308.2 159.7C308.2 241.549 241.849 307.9 160 307.9C78.1514 307.9 11.8 241.549 11.8 159.7Z" fill="#10151b" fill-rule="evenodd" opacity="1" stroke="#f5c09a" stroke-linecap="round" stroke-linejoin="round" stroke-width="11.66"/>
<g opacity="1">
<path d="M86.0467 69.958C84.7632 70.8748 83.9381 72.4333 83.5714 74.6335C83.2047 76.8338 83.5714 80.2259 84.6715 84.8097C85.7717 89.3936 87.5135 94.3442 89.8971 99.6614C92.2808 104.979 94.2977 108.829 95.9478 111.213C97.598 113.596 99.6149 115.98 101.999 118.364C104.382 120.747 107.683 123.039 111.9 125.239C116.117 127.44 118.867 128.54 120.151 128.54C121.434 128.54 124.093 127.806 128.127 126.34C132.16 124.873 136.561 123.773 141.328 123.039C146.095 122.306 152.513 121.939 160.58 121.939C168.648 121.939 175.065 122.306 179.833 123.039C184.6 123.773 189 124.873 193.034 126.34C197.068 127.806 200.277 128.356 202.66 127.99C205.044 127.623 207.794 126.523 210.911 124.689C214.028 122.856 216.779 120.747 219.162 118.364C221.546 115.98 223.563 113.596 225.213 111.213C226.863 108.829 228.88 104.979 231.264 99.6614C233.647 94.3442 235.389 89.3936 236.489 84.8097C237.589 80.2259 238.139 77.2005 238.139 75.7337C238.139 74.2668 237.681 72.8917 236.764 71.6082C235.847 70.3247 235.022 69.4996 234.289 69.1329C233.556 68.7662 232.18 68.7662 230.163 69.1329C228.147 69.4996 226.68 70.3247 225.763 71.6082C224.846 72.8917 224.113 75.2753 223.563 78.759C223.013 82.2428 221.821 86.3682 219.987 91.1355C218.154 95.9027 216.412 99.5698 214.762 102.137C213.111 104.704 210.544 107.362 207.061 110.113C203.577 112.863 200.002 113.688 196.335 112.588C192.667 111.488 187.9 110.479 182.033 109.563C176.166 108.646 168.19 108.279 158.105 108.462C148.021 108.646 139.036 109.654 131.152 111.488C123.268 113.321 118.409 113.688 116.575 112.588C114.742 111.488 112.266 109.013 109.149 105.162C106.032 101.312 103.74 97.7362 102.274 94.4358C100.807 91.1355 99.3399 86.4599 97.8731 80.4092C96.4062 74.3585 95.0311 70.8748 93.7476 69.958C92.4641 69.0412 91.1806 68.5828 89.8971 68.5828C88.6137 68.5828 87.3302 69.0412 86.0467 69.958Z" fill="#f5c09a" fill-rule="evenodd" opacity="1" stroke="none"/>
<path d="M59.6364 120.834C43.6845 120.834 35.0668 121.293 33.7834 122.21C32.4999 123.126 31.6748 124.501 31.3081 126.335C30.9414 128.169 32.1332 132.569 34.8835 139.537C37.6338 146.504 41.1175 152.646 45.3347 157.964C49.5519 163.281 53.6773 167.223 57.7111 169.79C61.7449 172.357 65.7787 174.191 69.8125 175.291C73.8463 176.391 79.347 176.941 86.3145 176.941C93.2819 176.941 97.3157 176.574 98.4159 175.841C99.516 175.107 100.249 173.64 100.616 171.44C100.983 169.24 100.708 167.498 99.791 166.215C98.8742 164.931 97.9575 164.106 97.0407 163.739C96.1239 163.373 92.5485 163.189 86.3145 163.189C80.0804 163.189 75.1298 162.548 71.4627 161.264C67.7956 159.981 64.1285 157.689 60.4615 154.388C56.7944 151.088 53.6773 146.962 51.1104 142.012C49.8269 139.537 48.5434 137.061 47.2599 134.586C53.1273 134.586 58.9946 134.586 64.862 134.586C76.5967 134.586 83.8392 135.319 86.5895 136.786C89.3398 138.253 92.5485 141.278 96.2156 145.862C99.8827 150.446 102.358 154.022 103.641 156.589C104.925 159.155 109.05 170.523 116.018 190.692C122.985 210.861 123.719 225.071 118.218 233.322C112.718 241.573 109.784 247.532 109.417 251.2C109.05 254.867 109.325 257.892 110.242 260.276C111.159 262.659 112.442 264.768 114.093 266.601C115.743 268.435 118.126 269.993 121.244 271.277C124.361 272.56 137.47 273.202 160.573 273.202C183.676 273.202 196.786 272.56 199.903 271.277C203.02 269.993 205.678 267.885 207.879 264.951C210.079 262.017 211.362 258.717 211.729 255.05C212.096 251.383 211.821 248.358 210.904 245.974C209.987 243.59 207.053 238.823 202.103 231.672C197.152 224.521 197.794 211.87 204.028 193.718C210.262 175.566 214.388 164.198 216.405 159.614C218.421 155.03 220.53 151.18 222.73 148.063C224.931 144.945 226.764 142.654 228.231 141.187C229.698 139.72 231.531 138.345 233.732 137.061C235.932 135.778 243.174 135.044 255.459 134.861C261.601 134.769 267.744 134.678 273.886 134.586C273.52 135.594 273.153 136.603 272.786 137.611C272.053 139.628 270.769 142.103 268.936 145.037C267.102 147.971 264.352 151.088 260.685 154.388C257.018 157.689 253.351 159.981 249.683 161.264C246.016 162.548 241.066 163.189 234.832 163.189C228.598 163.189 224.747 163.648 223.28 164.564C221.814 165.481 220.897 167.04 220.53 169.24C220.163 171.44 220.713 173.274 222.18 174.741C223.647 176.207 227.864 176.941 234.832 176.941C241.799 176.941 246.566 176.666 249.133 176.116C251.7 175.566 254.451 174.649 257.384 173.365C260.318 172.082 263.893 169.698 268.111 166.215C272.328 162.731 275.628 159.339 278.012 156.038C280.395 152.738 283.054 147.421 285.988 140.087C288.921 132.752 290.205 128.169 289.838 126.335C289.471 124.501 288.646 123.126 287.363 122.21C286.079 121.293 277.462 120.834 261.51 120.834C245.558 120.834 235.657 121.568 231.806 123.035C227.956 124.501 223.922 127.252 219.705 131.286C215.488 135.319 211.637 140.27 208.154 146.137C204.67 152.005 199.353 165.481 192.202 186.567C185.051 207.653 174.508 218.196 160.573 218.196C146.638 218.196 136.095 207.653 128.944 186.567C121.794 165.481 116.751 152.371 113.818 147.237C110.884 142.103 107.767 137.703 104.467 134.036C101.166 130.369 97.8658 127.527 94.5654 125.51C91.265 123.493 88.6064 122.21 86.5895 121.659C84.5726 121.109 75.5882 120.834 59.6364 120.834ZM145.412 231.947C150.729 231.947 156.047 231.947 161.364 231.947C166.681 231.947 171.998 231.947 177.316 231.947C175.757 236.531 174.199 241.115 172.64 245.699C169.523 254.867 165.673 259.359 161.089 259.175C156.505 258.992 152.746 254.408 149.812 245.424C148.346 240.932 146.879 236.439 145.412 231.947ZM189.176 237.998C190.552 239.832 191.927 241.665 193.302 243.499C196.052 247.166 197.611 250.008 197.977 252.025C198.344 254.042 197.794 255.783 196.327 257.25C194.86 258.717 192.11 259.45 188.076 259.45C186.059 259.45 184.042 259.45 182.026 259.45C183.217 255.875 184.409 252.3 185.601 248.724C186.793 245.149 187.985 241.573 189.176 237.998ZM131.97 238.273C132.336 238.456 133.62 242.032 135.82 248.999C136.92 252.483 138.02 255.967 139.121 259.45C137.104 259.45 135.087 259.45 133.07 259.45C129.036 259.45 126.286 258.717 124.819 257.25C123.352 255.783 122.802 254.042 123.169 252.025C123.535 250.008 125.002 247.166 127.569 243.499C130.136 239.832 131.603 238.09 131.97 238.273Z" fill="#f5c09a" fill-rule="evenodd" opacity="1" stroke="none"/>
</g>
</g>
</svg>
