<?xml version="1.0" encoding="UTF-8" standalone="no"?>
<!DOCTYPE svg PUBLIC "-//W3C//DTD SVG 1.1//EN" "http://www.w3.org/Graphics/SVG/1.1/DTD/svg11.dtd">

<!-- Created with Vectornator (http://vectornator.io/) -->
<svg height="100%" stroke-miterlimit="10"
     style="fill-rule:nonzero;clip-rule:evenodd;stroke-linecap:round;stroke-linejoin:round;" version="1.1"
     viewBox="0 0 128 128" width="100%" xml:space="preserve" xmlns="http://www.w3.org/2000/svg"
     xmlns:vectornator="http://vectornator.io" xmlns:xlink="http://www.w3.org/1999/xlink">
<metadata>
<vectornator:setting key="IsTimeLapseWatermarkDisabled" value="false"/>
    <vectornator:setting key="UndoHistoryDisabled" value="true"/>
    <vectornator:setting key="VNDimensionsVisible" value="true"/>
    <vectornator:setting key="VNSnapToGuides" value="true"/>
    <vectornator:setting key="WDCMYKEnabledKey" value="false"/>
    <vectornator:setting key="WDDisplayWhiteBackground" value="false"/>
    <vectornator:setting key="WDDynamicGuides" value="false"/>
    <vectornator:setting key="WDGuidesVisible" value="true"/>
    <vectornator:setting key="WDIsolateActiveLayer" value="false"/>
    <vectornator:setting key="WDOutlineMode" value="false"/>
    <vectornator:setting key="WDRulersVisible" value="true"/>
    <vectornator:setting key="WDSnapToEdges" value="false"/>
    <vectornator:setting key="WDSnapToGrid" value="false"/>
    <vectornator:setting key="WDSnapToPoints" value="false"/>
    <vectornator:setting key="WDUnits" value="Points"/>
</metadata>
    <defs/>
    <clipPath id="ArtboardFrame">
<rect height="128" width="128" x="0" y="0"/>
</clipPath>
    <g clip-path="url(#ArtboardFrame)" id="Untitled" vectornator:layerName="Untitled" visibility="hidden">
<path d="M56.5803 1.22614C59.6913-0.408713 64.425-0.408713 67.536 1.22614L99.281 17.9083C101.155 18.8929 102.184 20.3601 102.368 21.8747L102.398 21.8747L102.398 105.728C102.357 107.38 101.318 109.021 99.281 110.092L67.536 126.774C64.425 128.409 59.6913 128.409 56.5803 126.774L24.8354 110.092C22.8066 109.026 21.833 107.373 21.7848 105.728C21.78 105.566 21.7794 105.431 21.784 105.319L21.7838 22.4133C21.7806 22.3225 21.7803 22.2318 21.7829 22.1415L21.7848 21.8747L21.799 21.8746C21.94 20.3434 22.9223 18.9137 24.8354 17.9083L56.5803 1.22614ZM97.4008 68.656L67.536 84.3502C64.425 85.9851 59.6913 85.9851 56.5803 84.3502L26.7808 68.691L26.7808 105.562L56.5803 121.139C58.263 122.034 60.0095 122.906 61.7172 123.017L62.0582 123.028C63.8377 123.034 65.5653 122.135 67.3172 121.284L97.4008 105.428L97.4008 68.656ZM16.6215 103.905C16.6215 107.117 16.9968 109.229 17.742 110.717C18.3596 111.95 19.2862 112.892 20.9782 114.039L21.0748 114.104C21.4462 114.353 21.8552 114.614 22.3531 114.92L22.9403 115.278L24.7434 116.361L22.1573 120.615L20.1392 119.402L19.8 119.195C19.2164 118.836 18.7328 118.529 18.2817 118.226C13.4593 114.991 11.6609 111.465 11.6254 104.128L11.6248 103.905L16.6215 103.905ZM59.5591 46.1808C59.328 46.2598 59.1114 46.3511 58.9139 46.4549L27.169 63.1371C27.1357 63.1546 27.1039 63.1719 27.0737 63.189L27.0468 63.2046L27.0966 63.2329L27.169 63.272L58.9139 79.9542C59.1114 80.058 59.328 80.1493 59.5591 80.2283L59.5591 46.1808ZM64.5573 46.1808L64.5573 80.2283C64.7884 80.1493 65.005 80.058 65.2024 79.9542L96.9474 63.272C96.9807 63.2545 97.0125 63.2372 97.0427 63.2201L97.0696 63.2046L97.0197 63.1762L96.9474 63.1371L65.2024 46.4549C65.005 46.3511 64.7884 46.2598 64.5573 46.1808ZM97.4008 27.823L68.9238 42.788L97.4008 57.753L97.4008 27.823ZM26.7808 27.858L26.7808 57.718L55.1918 42.788L26.7808 27.858ZM65.2024 5.62216C63.5516 4.75463 60.5648 4.75463 58.9139 5.62216L27.169 22.3044C27.1357 22.3219 27.1039 22.3392 27.0737 22.3563L27.0468 22.3718L27.0966 22.4002L27.169 22.4393L58.9139 39.1215C60.5648 39.989 63.5516 39.989 65.2024 39.1215L96.9474 22.4393C96.9807 22.4218 97.0125 22.4045 97.0427 22.3873L97.0696 22.3718L97.0197 22.3434L96.9474 22.3044L65.2024 5.62216ZM102.092 7.45154L104.111 8.66424L104.45 8.87145C105.033 9.22982 105.517 9.5377 105.968 9.84031C110.79 13.075 112.589 16.6017 112.624 23.9381L112.625 24.1616L107.628 24.1616C107.628 20.9488 107.253 18.8372 106.508 17.3495C105.89 16.1165 104.963 15.1742 103.271 14.0276L103.175 13.9625C102.804 13.7134 102.394 13.4525 101.897 13.1458L101.309 12.788L99.5062 11.7054L102.092 7.45154Z"
      fill="#ffffff" fill-rule="evenodd" opacity="0" stroke="none"/>
</g>
    <g clip-path="url(#ArtboardFrame)" id="Layer-2" vectornator:layerName="Layer 2" visibility="hidden">
<path d="M26.0008 65.6141L63.853-0.0675412L102.194 65.3979L63.9912 89.2987L26.0008 65.6141Z" fill="#ffffff"
      fill-rule="evenodd" opacity="1" stroke="none"/>
        <path d="M25.9013 73.1686L63.7492 96.9752L102.176 73.0417L64.0111 127.761L25.9013 73.1686Z" fill="#ffffff"
              fill-rule="evenodd" opacity="1" stroke="none"/>
</g>
    <g id="Layer-1" vectornator:layerName="Layer 1">
<path d="M58.5501 5.6347C61.4352 4.11508 65.8399 4.11508 68.725 5.6347L98.2144 21.1392C99.9543 22.0532 100.912 23.4187 101.077 24.8282L101.111 24.8282L101.111 102.736C101.077 104.267 100.108 105.798 98.2144 106.789L68.725 122.293C65.8399 123.813 61.4352 123.813 58.5501 122.293L29.0607 106.789C27.1777 105.798 26.2747 104.267 26.2306 102.736C26.2306 102.582 26.2306 102.461 26.2306 102.351L26.2306 25.3237C26.2306 25.2356 26.2306 25.1585 26.2306 25.0704L26.2306 24.8172L26.2417 24.8172C26.3738 23.3966 27.2878 22.0642 29.0607 21.1282L58.5501 5.6347ZM96.4746 68.2915L68.725 82.8711C65.8399 84.3907 61.4352 84.3907 58.5501 82.8711L30.8666 68.3246L30.8666 102.582L58.5501 117.052C60.1138 117.888 61.7325 118.692 63.3182 118.791L63.6376 118.802C65.2893 118.813 66.897 117.977 68.5268 117.184L96.4746 102.45C96.4746 102.45 96.4746 68.2915 96.4746 68.2915ZM21.4185 101.04C21.4185 104.025 21.7709 105.985 22.4646 107.372C23.0372 108.517 23.8962 109.398 25.4708 110.456L25.5589 110.511C25.9003 110.742 26.2857 110.984 26.7482 111.27L27.2988 111.601L28.9726 112.603L26.572 116.556L24.7 115.433L24.3807 115.246C23.8411 114.915 23.3896 114.629 22.9712 114.343C18.4894 111.336 16.8156 108.066 16.7826 101.239L16.7826 101.029L21.4185 101.029L21.4185 101.04ZM61.3141 47.4133C61.1048 47.4904 60.8956 47.5674 60.7194 47.6665L31.219 63.1601C31.1859 63.1711 31.1639 63.1931 31.1309 63.2041L31.1088 63.2151L31.1529 63.2372L31.219 63.2702L60.7084 78.7747C60.8956 78.8738 61.0938 78.9509 61.3031 79.028L61.3031 47.4133L61.3141 47.4133ZM65.961 47.4133L65.961 79.05C66.1703 78.9729 66.3795 78.8959 66.5557 78.7968L96.0561 63.2922C96.0892 63.2812 96.1112 63.2592 96.1442 63.2482L96.1663 63.2372L96.1222 63.2151L96.0561 63.1821L66.5557 47.6665C66.3795 47.5674 66.1813 47.4793 65.961 47.4133ZM96.4746 30.3561L70.0134 44.2529L96.4746 58.1607C96.4746 58.1607 96.4746 30.3561 96.4746 30.3561ZM30.8666 30.3891L30.8666 58.1277L57.2617 44.2529L30.8666 30.3891ZM66.5557 9.72006C65.025 8.9162 62.2501 8.9162 60.7084 9.72006L31.219 25.2246C31.1859 25.2356 31.1639 25.2576 31.1309 25.2686L31.1088 25.2797L31.1529 25.3017L31.219 25.3347L60.7084 40.8393C62.2391 41.6431 65.014 41.6431 66.5557 40.8393L96.0561 25.3457C96.0892 25.3347 96.1112 25.3127 96.1442 25.3017L96.1663 25.2907L96.1222 25.2686L96.0561 25.2356L66.5557 9.72006ZM100.835 11.4269L102.707 12.5501L103.027 12.7373C103.566 13.0676 104.018 13.3539 104.436 13.6402C108.918 16.6464 110.592 19.9169 110.625 26.7442L110.625 26.9534L105.978 26.9534C105.978 23.9693 105.625 22.0092 104.943 20.6217C104.37 19.4765 103.511 18.5955 101.936 17.5384L101.848 17.4833C101.507 17.2521 101.122 17.0098 100.659 16.7235L100.108 16.3932L98.4347 15.3911L100.835 11.4269Z"
      fill="#ffffff" fill-rule="evenodd" opacity="1" stroke="#ffffff" stroke-linecap="butt" stroke-linejoin="miter"
      stroke-width="4"/>
</g>
</svg>
