<svg xmlns="http://www.w3.org/2000/svg" viewBox="0 0 320 320"><defs><style>.cls-1{fill:none;stroke:#f5c09a;stroke-linecap:round;stroke-linejoin:round;stroke-width:7px;}</style></defs><g id="Layer_2" data-name="Layer 2"><circle class="cls-1" cx="160" cy="160" r="147.85"/><polygon class="cls-1" points="120.17 49.47 159.85 72.38 159.85 26.56 120.17 49.47"/><polygon class="cls-1" points="229.59 157.69 245.13 130.78 214.06 130.78 229.59 157.69"/><path class="cls-1" d="M159.85,29.49V284.38c70.44,0,98.72-42.22,98.72-42.22-29.63,13.66-54,23.78-98.72,22.19"/><line class="cls-1" x1="115.73" y1="131.02" x2="245.13" y2="131.02"/><polygon class="cls-1" points="97.86 215.88 221.04 215.88 159.99 131.37 97.86 215.88"/><path class="cls-1" d="M72.2,97.85S89.23,131,115.73,131c-26.5,0-46.22,35.38-46.22,35.38"/><path class="cls-1" d="M79.21,239.08a8.89,8.89,0,0,1-17.78,0c0-4.91,8.08-10,8.89-24.51C70.32,227.5,79.21,234.17,79.21,239.08Z"/></g></svg>