<?xml version="1.0" encoding="utf-8"?>
<!-- Generator: Adobe Illustrator 26.1.0, SVG Export Plug-In . SVG Version: 6.00 Build 0)  -->
<svg version="1.1"
	 id="Layer_1" image-rendering="optimizeQuality" shape-rendering="geometricPrecision" text-rendering="geometricPrecision" xmlns:xodm="http://www.corel.com/coreldraw/odm/2003"
	 xmlns="http://www.w3.org/2000/svg" xmlns:xlink="http://www.w3.org/1999/xlink" x="0px" y="0px" viewBox="0 0 1080 1080"
	 style="enable-background:new 0 0 1080 1080;" xml:space="preserve">
<style type="text/css">
	
		.st0{fill-rule:evenodd;clip-rule:evenodd;fill:#10151B;stroke:#F5C09A;stroke-width:47.25;stroke-linecap:round;stroke-linejoin:round;stroke-miterlimit:33.75;}
	.st1{fill:#F5C09A;}
</style>
<g id="Untitled">
	<g>
		<path class="st0" d="M543.1,30.9"/>
		<path class="st0" d="M34.1,540C34.1,258.8,262,30.9,543.1,30.9c281.2,0,509.1,227.9,509.1,509.1c0,281.2-227.9,509.1-509.1,509.1
			C262,1049.1,34.1,821.2,34.1,540z"/>
	</g>
</g>
<path class="st1" d="M1061.2,203.9c-50.3-77.8-210.6-69.7-402,7.6l-108.9-86.2c-5.8-4.6-13.9-4.6-19.7,0L186.7,397.4
	c-0.2,0.2-0.3,0.4-0.5,0.5c-0.5,0.5-1,1-1.5,1.5c-0.3,0.3-0.6,0.6-0.8,1c-0.4,0.6-0.8,1.2-1.1,1.8c-0.2,0.3-0.4,0.7-0.6,1
	c-0.3,0.7-0.6,1.5-0.8,2.3c-0.1,0.3-0.2,0.6-0.3,0.9c-0.2,1.1-0.4,2.2-0.4,3.4v114.4C39.2,663.4-29.2,801,19.8,876.8
	c50.8,78.6,213.7,69.5,407.6-9.8l103.3,81.8c2.9,2.3,6.4,3.4,9.8,3.4c3.5,0,7-1.1,9.8-3.4l150.8-119.4h181.6c5.7,0,10.9-3,13.7-7.9
	c2.8-4.9,2.8-11,0-15.9l-51.8-89.8l49.6-39.2c3.8-3,6-7.6,6-12.4V556.4c35.3-34.6,66-69.2,91.5-102.7c19.8,3.7,41.1-2.9,55.1-19
	c17.8-20.5,17.7-49.7,1.1-69.6C1080.4,300.2,1086.9,243.6,1061.2,203.9z M540.5,157.9l318.4,252l-131,103.7L554.2,212.7
	c-2.8-4.9-8.1-7.9-13.7-7.9c-5.7,0-10.9,3-13.7,7.9L353.1,513.5l-131-103.7L540.5,157.9z M868.6,544.3c-24.1,24.7-51,49.6-80.2,74.1
	l-44.5-77l124.6-98.7V544.3z M75,840c-37.9-58.6,13.1-164.1,105.7-269.4v93.5c0,4.8,2.2,9.4,6,12.4l49.6,39.2l-51.8,89.8
	c-2.8,4.9-2.8,11,0,15.9c2.8,4.9,8.1,7.9,13.7,7.9h181.6l19.3,15.3C249.4,897.4,116,903.5,75,840z M261.5,735.7l78.3,62H225.7
	L261.5,735.7z M524.6,903.6L212.4,656.5V442.6l312.2,247.1V903.6z M556.4,903.6v-74.2h93.7L556.4,903.6z M855.3,797.7h-299V682.1
	c0-0.3-0.1-0.6-0.1-0.8c0-0.6-0.1-1.1-0.2-1.7c-0.1-0.5-0.2-1-0.3-1.5c-0.1-0.5-0.3-1-0.5-1.5c-0.2-0.5-0.4-0.9-0.6-1.4
	c-0.2-0.5-0.5-0.9-0.7-1.4c-0.3-0.4-0.6-0.9-0.9-1.3c-0.3-0.4-0.6-0.8-1-1.2c-0.4-0.4-0.8-0.8-1.2-1.2c-0.2-0.2-0.4-0.4-0.6-0.6
	L378.2,533.4l162.3-281.1L855.3,797.7z M868.6,656.5L828.7,688l-26-45c23.2-18.7,45.2-37.6,65.9-56.5V656.5z M1001.9,344.9
	c-15.7,0.6-31.2,7.3-42.1,20c-17.8,20.5-17.7,49.5-1.3,69.4c-16,24.6-35.6,50.1-58.2,75.9V409.9c0-1.2-0.1-2.3-0.4-3.4
	c-0.1-0.3-0.2-0.6-0.3-0.9c-0.2-0.8-0.5-1.5-0.8-2.3c-0.2-0.4-0.4-0.7-0.6-1c-0.3-0.6-0.7-1.2-1.1-1.8c-0.3-0.3-0.5-0.7-0.8-1
	c-0.5-0.5-1-1-1.5-1.5c-0.2-0.2-0.3-0.4-0.5-0.5L687.7,234c147.1-50.7,275.8-57.6,316.3,5C1020.7,264.8,1013.3,306.2,1001.9,344.9z"
	/>
</svg>
