<?xml version="1.0" encoding="UTF-8"?><svg xmlns="http://www.w3.org/2000/svg" viewBox="0 0 320 320"><defs><style>.c,.d{fill:#fff;}.d{opacity:.5;}</style></defs><g id="a"><path class="c" d="M104.45,68.55h0c-.21-.22-.45-.33-.63-.4-.79-.58-1.7-.94-2.66-1.06-.93-.16-1.68-.02-2.35,.14-.56,.15-1.05,.35-1.43,.58-.05,.02-.09,.03-.14,.04-.32,.08-.85,.21-1.32,.68l-41.2,40.88c-1.14,1.13-1.77,2.64-1.78,4.25,0,1.61,.61,3.12,1.75,4.26,1.13,1.14,2.64,1.78,4.25,1.78h.02c1.6,0,3.11-.62,4.25-1.75l31.08-30.84V247.21c0,3.32,2.7,6.02,6.02,6.02s6.02-2.7,6.02-6.02V87.56l31.04,31.28c1.14,1.15,2.66,1.78,4.28,1.78s3.11-.62,4.25-1.75c1.14-1.13,1.77-2.64,1.78-4.25,0-1.61-.61-3.12-1.75-4.26l-41.49-41.81Z"/><path class="d" d="M267.06,200.31h-.02c-1.6,0-3.11,.62-4.25,1.75l-31.07,30.83V72.79c0-3.32-2.7-6.03-6.02-6.03s-6.02,2.7-6.02,6.03V232.44l-31.04-31.28c-2.33-2.35-6.15-2.37-8.53-.04-2.35,2.35-2.37,6.17-.03,8.52l41.5,41.82c.21,.21,.44,.33,.63,.39,.76,.55,1.64,.91,2.54,1.05,.21,.12,.59,.33,1.11,.33,.61,0,1.06-.26,1.33-.42,.04-.02,.08-.05,.06-.05h0c.54-.14,1.02-.34,1.39-.57,.05-.02,.1-.03,.15-.04,.32-.08,.85-.21,1.32-.68l41.19-40.87c1.14-1.13,1.77-2.64,1.78-4.25,0-1.61-.61-3.12-1.75-4.26-1.13-1.14-2.64-1.78-4.25-1.78Z"/></g><g id="b"/></svg>