<?xml version="1.0" encoding="UTF-8"?><svg xmlns="http://www.w3.org/2000/svg" viewBox="0 0 320 320"><defs><style>.c,.d{fill:#fff;}.d{opacity:.5;}</style></defs><g id="a"><path class="d" d="M309.08,125.71h0c-1.13-1.14-2.64-1.77-4.23-1.78h-.03c-1.59,0-3.09,.62-4.21,1.74l-33.19,32.94c-.59-23.26-8.5-45.19-22.99-63.61-17.81-22.63-43.36-36.97-71.95-40.38-44.44-5.33-88.08,17.82-108.61,57.62-1.51,2.94-.35,6.56,2.58,8.07,1.39,.74,3,.88,4.53,.41,1.55-.48,2.81-1.54,3.57-2.98,18.22-35.34,57-55.92,96.51-51.21,25.42,3.04,48.13,15.78,63.94,35.88,13.15,16.71,20.2,36.53,20.51,57.53l-34.96-35.24c-1.12-1.14-2.63-1.77-4.24-1.78-1.63-.01-3.12,.61-4.25,1.74-2.34,2.33-2.35,6.13-.03,8.48l44.42,44.76c.22,.22,.45,.34,.64,.41,.93,.76,1.93,1.21,2.97,1.33,.22,.03,.42,.04,.59,.04h.14c1.41,0,2.78-.53,3.91-1.53l.13-.1,44.23-43.89c2.34-2.33,2.35-6.13,.03-8.48Z"/><path class="c" d="M252.28,204.33c-2.35-1.24-5.28-.32-6.54,2.06-18.5,35.59-57.75,56.26-97.53,51.54-25.71-3.07-48.69-15.96-64.71-36.32-13.86-17.61-21.03-38.99-20.73-61.09l36.95,37.24c.95,.95,2.2,1.43,3.44,1.43s2.47-.47,3.42-1.41c1.9-1.88,1.91-4.95,.02-6.85l-44.44-44.78c-.75-.76-1.75-1.16-2.8-1.31-.07-.01-.12-.05-.19-.06-.03,0-.05,.01-.08,0-.12-.01-.23-.07-.36-.07h-.01c-.3,0-.58,.12-.88,.17-.28,.05-.56,.07-.83,.16-.15,.06-.28,.15-.43,.22-.49,.23-.93,.51-1.31,.88L11.21,189.92c-1.9,1.88-1.91,4.95-.02,6.85,1.88,1.9,4.95,1.91,6.86,.03l35.09-34.82c.02,23.75,7.84,46.68,22.75,65.64,17.61,22.39,42.9,36.57,71.18,39.94,4.17,.5,8.33,.74,12.46,.74,39.35,0,76.4-22.02,94.82-57.42,1.24-2.38,.31-5.3-2.07-6.54Z"/></g><g id="b"/></svg>