<?xml version="1.0" encoding="utf-8"?>
<!-- Generator: Adobe Illustrator 26.0.3, SVG Export Plug-In . SVG Version: 6.00 Build 0)  -->
<svg version="1.1" id="Layer_1" xmlns="http://www.w3.org/2000/svg" xmlns:xlink="http://www.w3.org/1999/xlink" x="0px" y="0px"
	 viewBox="0 0 1080 1080" style="enable-background:new 0 0 1080 1080;" xml:space="preserve">
<style type="text/css">
	.st0{fill-rule:evenodd;clip-rule:evenodd;fill:#7497A1;}
	.st1{fill:#FFFFFF;}
</style>
<circle class="st0" cx="540" cy="540" r="540"/>
<path class="st1" d="M776.2,534c0-130.4-105.7-236.2-236.2-236.2S303.8,403.6,303.8,534c0,69.4,29.9,131.8,77.6,175h-77.6v71h185.1
	v-87.9c-66.7-21.6-115.1-84.3-115.1-158.1c0-91.6,74.5-166.2,166.2-166.2c91.6,0,166.2,74.5,166.2,166.2
	c0,73.8-48.4,136.5-115.1,158.1V780h185.1v-71h-77.6C746.2,665.8,776.2,603.4,776.2,534z"/>
</svg>
