<svg width="11" height="11" viewBox="0 0 11 11" fill="none" xmlns="http://www.w3.org/2000/svg">
    <path fill-rule="evenodd" clip-rule="evenodd" d="M1.37402 9.54154V1.37488H4.54069C4.81683 1.37488 5.04069 1.15102 5.04069 0.874878C5.04069 0.598736 4.81683 0.374878 4.54069 0.374878H1.37402C0.821738 0.374878 0.374023 0.822594 0.374023 1.37488V9.54154C0.374023 10.0938 0.82174 10.5415 1.37402 10.5415H9.54069C10.093 10.5415 10.5407 10.0938 10.5407 9.54154V6.37488C10.5407 6.09873 10.3168 5.87488 10.0407 5.87488C9.76455 5.87488 9.54069 6.09873 9.54069 6.37488V9.54154H1.37402ZM10.3963 0.523452C10.4432 0.570895 10.4787 0.625384 10.5027 0.683487C10.5272 0.74244 10.5407 0.807083 10.5407 0.874878V3.62488C10.5407 3.90102 10.3168 4.12488 10.0407 4.12488C9.76452 4.12488 9.54066 3.90102 9.54066 3.62488V2.08198L4.89421 6.72843C4.69895 6.92369 4.38237 6.92369 4.18711 6.72843C3.99185 6.53317 3.99185 6.21659 4.18711 6.02132L8.83355 1.37488H7.29066C7.01452 1.37488 6.79066 1.15102 6.79066 0.874878C6.79066 0.598736 7.01452 0.374878 7.29066 0.374878H10.0407C10.1777 0.374878 10.3018 0.429971 10.3921 0.51921L10.3963 0.523452Z" fill="white"/>
</svg>
