<?xml version="1.0" encoding="UTF-8" standalone="no"?>
<!DOCTYPE svg PUBLIC "-//W3C//DTD SVG 1.1//EN" "http://www.w3.org/Graphics/SVG/1.1/DTD/svg11.dtd">

<!-- Created with Vectornator (http://vectornator.io/) -->
<svg height="100%" stroke-miterlimit="10" style="fill-rule:nonzero;clip-rule:evenodd;stroke-linecap:round;stroke-linejoin:round;" version="1.1" viewBox="0 0 320 320" width="100%" xml:space="preserve" xmlns="http://www.w3.org/2000/svg" xmlns:vectornator="http://vectornator.io" xmlns:xlink="http://www.w3.org/1999/xlink">
<metadata>
<vectornator:setting key="IsTimeLapseWatermarkDisabled" value="false"/>
<vectornator:setting key="UndoHistoryDisabled" value="true"/>
<vectornator:setting key="VNDimensionsVisible" value="true"/>
<vectornator:setting key="VNSnapToGuides" value="true"/>
<vectornator:setting key="WDCMYKEnabledKey" value="false"/>
<vectornator:setting key="WDDisplayWhiteBackground" value="false"/>
<vectornator:setting key="WDDynamicGuides" value="false"/>
<vectornator:setting key="WDGuidesVisible" value="true"/>
<vectornator:setting key="WDIsolateActiveLayer" value="false"/>
<vectornator:setting key="WDOutlineMode" value="false"/>
<vectornator:setting key="WDRulersVisible" value="true"/>
<vectornator:setting key="WDSnapToEdges" value="false"/>
<vectornator:setting key="WDSnapToGrid" value="false"/>
<vectornator:setting key="WDSnapToPoints" value="false"/>
<vectornator:setting key="WDUnits" value="Points"/>
</metadata>
<defs/>
<g id="Untitled" vectornator:layerName="Untitled">
<path d="M11.8 159.7C11.8 77.8514 78.1514 11.5 160 11.5C241.849 11.5 308.2 77.8514 308.2 159.7C308.2 241.549 241.849 307.9 160 307.9C78.1514 307.9 11.8 241.549 11.8 159.7Z" fill="#10151b" fill-rule="evenodd" opacity="1" stroke="#f5c09a" stroke-linecap="round" stroke-linejoin="round" stroke-width="11.66"/>
<path d="M143.324 58.0689C146.347 57.4931 148.506 57.2052 149.802 57.2052C182.909 57.2052 199.462 71.9595 199.462 101.468C199.462 112.264 194.64 122.52 184.996 132.236C175.352 141.952 170.529 148.897 170.529 153.072C170.529 163.148 173.264 172.072 178.734 179.845L157.79 200.789C151.025 194.024 147.642 183.516 147.642 169.266C147.642 160.773 151.241 151.021 158.438 140.009C165.635 128.997 169.234 121.692 169.234 118.093C169.234 111.04 166.571 104.815 161.245 99.4168C155.919 94.0189 147.858 91.3199 137.063 91.3199C130.873 91.3199 125.475 91.7518 120.869 92.6154L143.324 58.0689ZM184.564 248.938L160.813 272.689L137.063 248.938L160.813 225.188L184.564 248.938Z" fill="#f5c09a" fill-rule="evenodd" opacity="1" stroke="none"/>
</g>
</svg>
