<?xml version="1.0" encoding="UTF-8" standalone="no"?>
<!DOCTYPE svg PUBLIC "-//W3C//DTD SVG 1.1//EN" "http://www.w3.org/Graphics/SVG/1.1/DTD/svg11.dtd">

<!-- Created with Vectornator (http://vectornator.io/) -->
<svg height="100%" stroke-miterlimit="10" style="fill-rule:nonzero;clip-rule:evenodd;stroke-linecap:round;stroke-linejoin:round;" version="1.1" viewBox="0 0 320 320" width="100%" xml:space="preserve" xmlns="http://www.w3.org/2000/svg" xmlns:vectornator="http://vectornator.io" xmlns:xlink="http://www.w3.org/1999/xlink">
<metadata>
<vectornator:setting key="IsTimeLapseWatermarkDisabled" value="false"/>
<vectornator:setting key="UndoHistoryDisabled" value="true"/>
<vectornator:setting key="VNDimensionsVisible" value="true"/>
<vectornator:setting key="VNSnapToGuides" value="true"/>
<vectornator:setting key="WDCMYKEnabledKey" value="false"/>
<vectornator:setting key="WDDisplayWhiteBackground" value="false"/>
<vectornator:setting key="WDDynamicGuides" value="false"/>
<vectornator:setting key="WDGuidesVisible" value="true"/>
<vectornator:setting key="WDIsolateActiveLayer" value="false"/>
<vectornator:setting key="WDOutlineMode" value="false"/>
<vectornator:setting key="WDRulersVisible" value="true"/>
<vectornator:setting key="WDSnapToEdges" value="false"/>
<vectornator:setting key="WDSnapToGrid" value="false"/>
<vectornator:setting key="WDSnapToPoints" value="false"/>
<vectornator:setting key="WDUnits" value="Points"/>
</metadata>
<defs/>
<g id="Untitled" vectornator:layerName="Untitled">
<g opacity="1">
<path d="M110.5 160C110.5 132.662 132.662 110.5 160 110.5C187.338 110.5 209.5 132.662 209.5 160C209.5 187.338 187.338 209.5 160 209.5C132.662 209.5 110.5 187.338 110.5 160Z" fill="#f5c09a" fill-rule="evenodd" opacity="1" stroke="#f5c09a" stroke-linecap="round" stroke-linejoin="round" stroke-width="7.98"/>
<path d="M228.5 231.1C216.8 242.3 202.4 250.8 186.2 255.2" fill="none" fill-rule="evenodd" opacity="1" stroke="#f5c09a" stroke-linecap="round" stroke-linejoin="round" stroke-width="7.98"/>
<path d="M229.3 89.7C247.4 107.6 258.7 132.5 258.7 160C258.7 169.2 257.4 178 255.1 186.5" fill="none" fill-rule="evenodd" opacity="1" stroke="#f5c09a" stroke-linecap="round" stroke-linejoin="round" stroke-width="7.98"/>
<path d="M132.7 254.9C91.5 243.1 61.3 205 61.3 160C61.3 105.5 105.5 61.3 160 61.3C168.3 61.3 176.3 62.3 183.9 64.2" fill="none" fill-rule="evenodd" opacity="1" stroke="#f5c09a" stroke-linecap="round" stroke-linejoin="round" stroke-width="7.98"/>
<path d="M194.8 74.7C194.8 67.2442 200.844 61.2 208.3 61.2C215.756 61.2 221.8 67.2442 221.8 74.7C221.8 82.1558 215.756 88.2 208.3 88.2C200.844 88.2 194.8 82.1558 194.8 74.7Z" fill="#f5c09a" fill-rule="evenodd" opacity="1" stroke="#f5c09a" stroke-linecap="round" stroke-linejoin="round" stroke-width="7.98"/>
<path d="M146.5 258.8C146.5 251.344 152.544 245.3 160 245.3C167.456 245.3 173.5 251.344 173.5 258.8C173.5 266.256 167.456 272.3 160 272.3C152.544 272.3 146.5 266.256 146.5 258.8Z" fill="#f5c09a" fill-rule="evenodd" opacity="1" stroke="#f5c09a" stroke-linecap="round" stroke-linejoin="round" stroke-width="7.98"/>
<path d="M231.8 210.5C231.8 203.044 237.844 197 245.3 197C252.756 197 258.8 203.044 258.8 210.5C258.8 217.956 252.756 224 245.3 224C237.844 224 231.8 217.956 231.8 210.5Z" fill="#f5c09a" fill-rule="evenodd" opacity="1" stroke="#f5c09a" stroke-linecap="round" stroke-linejoin="round" stroke-width="7.98"/>
<path d="M12.6 160.5C12.6 78.8171 78.8171 12.6 160.5 12.6C242.183 12.6 308.4 78.8171 308.4 160.5C308.4 242.183 242.183 308.4 160.5 308.4C78.8171 308.4 12.6 242.183 12.6 160.5Z" fill="none" fill-rule="evenodd" opacity="1" stroke="#f5c09a" stroke-linecap="round" stroke-linejoin="round" stroke-width="7.98"/>
</g>
</g>
</svg>
