<?xml version="1.0" encoding="UTF-8" standalone="no"?>
<!DOCTYPE svg PUBLIC "-//W3C//DTD SVG 1.1//EN" "http://www.w3.org/Graphics/SVG/1.1/DTD/svg11.dtd">

<!-- Created with Vectornator (http://vectornator.io/) -->
<svg height="100%" stroke-miterlimit="10" style="fill-rule:nonzero;clip-rule:evenodd;stroke-linecap:round;stroke-linejoin:round;" version="1.1" viewBox="0 0 600.822 668.993" width="100%" xml:space="preserve" xmlns="http://www.w3.org/2000/svg" xmlns:vectornator="http://vectornator.io" xmlns:xlink="http://www.w3.org/1999/xlink">
<metadata>
<vectornator:setting key="IsTimeLapseWatermarkDisabled" value="false"/>
<vectornator:setting key="UndoHistoryDisabled" value="true"/>
<vectornator:setting key="VNDimensionsVisible" value="true"/>
<vectornator:setting key="VNSnapToGuides" value="true"/>
<vectornator:setting key="WDCMYKEnabledKey" value="false"/>
<vectornator:setting key="WDDisplayWhiteBackground" value="false"/>
<vectornator:setting key="WDDynamicGuides" value="false"/>
<vectornator:setting key="WDGuidesVisible" value="false"/>
<vectornator:setting key="WDIsolateActiveLayer" value="false"/>
<vectornator:setting key="WDOutlineMode" value="false"/>
<vectornator:setting key="WDRulersVisible" value="true"/>
<vectornator:setting key="WDSnapToEdges" value="false"/>
<vectornator:setting key="WDSnapToGrid" value="false"/>
<vectornator:setting key="WDSnapToPoints" value="false"/>
<vectornator:setting key="WDUnits" value="Points"/>
</metadata>
<defs/>
<g id="Untitled" vectornator:layerName="Untitled">
<g opacity="1">
<path d="M0 300C0 134.315 134.315 0 300 0C465.685 0 600 134.315 600 300C600 465.685 465.685 600 300 600C134.315 600 0 465.685 0 300Z" fill="#52d784" fill-rule="evenodd" opacity="1" stroke="none"/>
<g opacity="1">
<path d="M263.641 41.7289C263.46 41.8938 259.425 42.6002 254.676 43.291C249.928 43.9817 241.803 45.583 236.623 46.8546C231.442 48.1184 224.024 50.2691 220.139 51.6271C216.253 52.985 207.423 56.8234 200.515 60.1594C193.608 63.4955 184.424 68.5584 180.107 71.4077C175.789 74.2571 168.898 79.4063 164.8 82.8444C160.695 86.2903 151.849 94.7127 145.129 101.565C138.418 108.418 130.412 117.374 127.35 121.479C124.281 125.577 119.846 132.115 117.492 136.001C115.137 139.886 111.699 146.064 109.854 149.737C108.009 153.403 104.98 160.295 103.119 165.044C101.259 169.793 98.8334 177.03 97.7345 181.135C96.6277 185.233 95.0264 192.297 94.1787 196.834C93.3388 201.363 92.2712 208.781 91.8238 213.318C91.3293 218.302 91.0075 246.835 91.0075 285.533L91.8238 358.14C92.2712 362.889 93.3466 371.014 94.2179 376.194C95.097 381.375 96.8239 389.672 98.072 394.64C99.3122 399.601 101.628 407.372 103.213 411.909C104.799 416.438 107.648 423.683 109.54 428.001C111.432 432.318 115.129 439.736 117.758 444.484C120.388 449.233 125.129 457.004 128.308 461.753C131.487 466.502 136.864 473.739 140.263 477.845C143.669 481.942 150.491 489.501 155.428 494.635C160.365 499.768 168.113 507.217 172.65 511.189C177.179 515.161 184.243 520.883 188.349 523.913C192.446 526.935 198.631 531.174 202.085 533.332C205.539 535.483 211.716 539.047 215.822 541.237C219.919 543.427 226.811 546.724 231.128 548.553C235.445 550.381 243.036 553.254 248.004 554.942C252.965 556.63 260.564 558.882 264.881 559.934C269.198 560.994 279.088 562.917 286.859 564.212C300.109 566.418 302.276 566.559 321.789 566.536L342.59 566.504C351.107 562.423 354.459 560.217 355.542 558.969C356.617 557.721 360.15 551.763 363.391 545.727C367.638 537.807 370.479 533.544 373.596 530.412C376.005 527.987 380.338 524.808 383.408 523.215C386.43 521.637 391.547 519.455 394.789 518.364C398.651 517.061 405.394 515.828 414.413 514.784C427.231 513.301 428.573 512.987 434.429 510.114C438.15 508.293 442.789 505.137 445.811 502.382C448.613 499.831 452.051 496 453.44 493.873C454.83 491.746 457.083 487.358 458.448 484.124C460.67 478.857 460.999 477.044 461.588 466.855C462.036 459.022 462.766 453.763 463.927 449.979C464.853 446.957 466.761 442.185 468.166 439.382C469.571 436.572 472.53 432.074 474.744 429.374C477.538 425.975 480.529 423.456 484.469 421.172C487.601 419.358 492.986 416.909 496.44 415.732C500.498 414.343 506.605 413.134 513.708 412.325C519.753 411.634 526.111 410.693 527.838 410.229C529.564 409.766 532.916 408.408 535.294 407.207C537.665 406.014 541.291 403.754 543.34 402.192C545.389 400.63 548.568 397.717 550.405 395.724C552.241 393.722 554.714 390.629 555.907 388.855C557.092 387.074 558.772 383.761 559.636 381.493C560.491 379.224 561.425 374.985 561.7 372.073C561.99 369.004 561.826 365.119 561.315 362.85C560.703 360.15 559.392 357.732 557.085 355.095C555.248 352.983 552.854 350.817 551.778 350.283C550.695 349.742 546.103 347.983 541.574 346.366C537.037 344.749 531.213 342.355 528.622 341.052C526.032 339.757 521.44 337.01 518.418 334.953C515.396 332.889 511.102 329.317 508.881 327.01C506.652 324.71 503.143 320.165 501.079 316.931C499.014 313.689 496.463 309.097 495.411 306.727C494.36 304.348 492.641 299.937 491.597 296.915C490.553 293.893 489.21 289.12 488.622 286.318C487.876 282.794 487.389 271.749 487.044 250.603C486.769 233.766 486.188 216.63 485.749 212.533C485.317 208.428 484.077 200.657 483.001 195.264C481.926 189.864 480.136 182.273 479.014 178.388C477.899 174.502 475.427 167.438 473.519 162.689C471.62 157.94 468.26 150.695 466.07 146.598C463.872 142.492 460.136 136.134 457.758 132.469C455.379 128.795 451.29 122.971 448.66 119.517C446.03 116.063 437.341 106.691 429.343 98.6924C421.352 90.6938 411.273 81.4943 406.956 78.2446C402.639 74.9949 395.574 70.2538 391.257 67.7106C386.94 65.1674 379.436 61.2113 374.577 58.9192C369.718 56.635 362.128 53.5031 357.701 51.9646C353.273 50.4183 345.589 48.1733 340.628 46.9567C335.659 45.7478 328.422 44.3271 324.537 43.8012C320.651 43.2753 315.792 42.5296 313.744 42.1292C311.695 41.7368 299.654 41.4149 286.993 41.4149L263.641 41.7289Z" fill="#303344" fill-rule="evenodd" opacity="1" stroke="none"/>
<path d="M270.768 60.3792C267.094 60.7011 260.564 61.5566 256.246 62.2788C251.929 63.0009 243.719 64.9555 237.996 66.6274C232.274 68.3072 224.33 70.9524 220.335 72.5145C216.34 74.0765 209.542 77.1378 205.225 79.32C200.908 81.4943 192.956 86.1804 187.564 89.7362C182.163 93.292 174.573 98.9122 170.687 102.225C166.802 105.537 160.883 111.142 157.539 114.666C154.188 118.198 148.858 124.439 145.687 128.544C142.516 132.641 138.041 138.999 135.749 142.673C133.457 146.339 129.54 153.403 127.044 158.372C124.548 163.333 121.228 170.931 119.666 175.248C118.096 179.565 115.788 186.983 114.532 191.732C113.269 196.481 111.44 204.778 110.458 210.178C108.7 219.864 108.677 220.83 108.677 284.748C108.677 342.81 108.826 350.519 110.082 359.318C110.859 364.71 112.531 373.894 113.794 379.726C115.066 385.551 117.664 394.915 119.564 400.528C121.463 406.14 124.14 413.377 125.498 416.619C126.864 419.853 129.941 426.211 132.343 430.748C134.737 435.277 138.873 442.64 141.527 447.098C144.18 451.557 149.572 459.328 153.497 464.367C157.43 469.406 164.141 477.201 168.411 481.691C172.689 486.189 180.593 493.536 185.994 498.026C191.386 502.508 199.691 508.772 204.44 511.943C209.189 515.106 217.839 520.192 223.671 523.246C229.495 526.291 237.8 530.177 242.117 531.872C246.435 533.568 252.612 535.86 255.854 536.967C259.088 538.074 264.214 539.698 267.236 540.577C270.258 541.457 274.496 542.532 276.655 542.979L286.467 544.887C289.709 545.491 294.293 546.229 296.671 546.535C299.042 546.834 303.634 547.344 306.875 547.666C310.109 547.987 318.854 548.301 326.303 548.372L339.843 548.49C341.664 544.84 342.198 543.6 342.198 543.388C342.198 543.168 341.758 543.191 341.217 543.427C340.675 543.662 337.229 543.097 333.563 542.171C329.89 541.245 325.651 540.02 324.144 539.447L316.295 536.433C312.996 535.147 309.725 533.791 306.483 532.367C303.893 531.221 293.822 526.543 284.112 521.982C274.394 517.422 262.565 511.597 257.816 509.038C253.067 506.479 245.822 502.186 241.725 499.493C237.62 496.809 231.089 492.052 227.203 488.936C223.318 485.812 216.473 480.011 211.991 476.039C207.509 472.067 201.143 465.458 197.839 461.361C194.542 457.256 189.918 450.725 187.579 446.839C185.232 442.954 181.315 435.536 178.866 430.355C176.417 425.175 172.446 415.991 170.036 409.947C167.634 403.903 164.8 395.951 163.748 392.286C162.697 388.612 161.268 382.254 160.577 378.157C159.886 374.051 158.74 365.927 158.026 360.103C157.006 351.665 156.676 339.372 156.401 299.662L156.755 246.678C157.382 243.797 157.202 243.185 154.502 239.221C152.885 236.843 150.342 232.251 148.866 229.017C147.382 225.775 145.522 220.477 144.729 217.243C143.756 213.263 143.301 208.553 143.332 202.721C143.355 197.211 143.874 192.093 144.753 188.592C145.514 185.57 147.437 180.272 149.031 176.818C150.624 173.364 153.018 168.945 154.345 167.006C155.671 165.06 159.007 161.221 161.762 158.474C164.51 155.727 169.408 151.747 172.65 149.628C175.884 147.516 179.596 145.42 180.892 144.973C182.666 144.361 183.764 143.065 185.358 139.69C186.52 137.225 190.35 131.33 193.882 126.582C197.407 121.833 203.561 114.062 207.564 109.313C211.559 104.564 217.266 98.3784 220.241 95.5762C223.216 92.7661 229.527 87.4363 234.276 83.7235C239.017 80.0186 244.841 75.7171 247.219 74.1629C249.59 72.6165 257.361 68.9979 264.488 66.1172L277.832 60.5676C278.044 60.3949 278.044 60.1516 277.832 60.026C277.613 59.9004 274.434 60.0574 270.768 60.3792Z" fill="#a6b6b7" fill-rule="evenodd" opacity="1" stroke="none"/>
<path d="M265.666 65.6227C257.463 68.9744 248.986 72.907 246.827 74.367C244.668 75.827 239.017 80.0421 234.276 83.7471C229.527 87.4441 223.208 92.7661 220.233 95.5762C217.258 98.3784 211.269 104.917 206.936 110.098C202.595 115.278 196.638 122.782 193.694 126.778C190.758 130.773 187.297 135.891 186.009 138.159C184.722 140.428 183.67 142.634 183.678 143.065C183.678 143.521 185.499 143.269 187.98 142.477C190.342 141.723 195.539 140.695 199.534 140.192C205.139 139.494 208.404 139.502 213.859 140.247C217.745 140.773 223.569 142.084 226.811 143.16C230.045 144.235 234.99 146.472 237.8 148.128C240.602 149.785 244.99 152.854 247.541 154.949C250.085 157.045 253.915 161.056 256.042 163.866C258.177 166.669 261.466 172.148 263.358 176.033C265.242 179.919 267.314 185.39 267.958 188.2C268.601 191.002 269.363 195.594 269.645 198.404C269.936 201.206 269.779 206.505 269.3 210.178C268.821 213.844 267.691 219.142 266.788 221.952C265.878 224.755 264.08 229.174 262.785 231.764C261.49 234.355 258.554 238.946 256.27 241.969C253.986 244.991 249.865 249.339 247.117 251.631C244.362 253.923 238.585 257.518 234.268 259.622C229.825 261.781 223.687 264.041 220.139 264.818C216.348 265.65 210.751 266.176 206.01 266.153C201.693 266.129 195.601 265.533 192.47 264.834C189.338 264.128 184.22 262.385 181.088 260.964C177.956 259.536 173.45 257.087 171.08 255.517C168.701 253.947 164.73 250.697 162.249 248.295C159.769 245.893 157.469 244.135 157.147 244.386C156.825 244.645 156.574 268.044 156.582 296.389C156.605 340.087 156.817 349.671 157.963 359.318C158.709 365.574 159.879 374.051 160.569 378.157C161.268 382.254 162.697 388.612 163.748 392.286C164.8 395.951 167.634 403.903 170.036 409.947C172.446 415.991 176.417 425.175 178.866 430.355C181.315 435.536 185.232 442.954 187.579 446.839C189.918 450.725 194.542 457.256 197.839 461.361C201.143 465.458 207.509 472.067 211.991 476.039C216.473 480.011 223.318 485.812 227.203 488.936C231.089 492.052 237.62 496.809 241.725 499.493C245.822 502.186 253.067 506.479 257.816 509.038C262.565 511.597 274.394 517.422 284.112 521.982L306.483 532.367C309.725 533.791 312.996 535.147 316.295 536.433L324.144 539.447C325.651 540.02 329.89 541.245 333.563 542.163C337.229 543.081 340.856 543.647 341.609 543.419C342.363 543.184 342.928 542.728 342.857 542.406C342.787 542.085 343.006 541.111 343.336 540.248C343.658 539.384 344.686 537.1 345.612 535.177C346.539 533.254 349.278 528.843 351.704 525.365C354.121 521.896 358.187 517.155 360.73 514.823C363.274 512.5 366.767 509.627 368.494 508.45C370.22 507.264 374.106 505.019 377.128 503.457C380.15 501.895 385.621 499.917 389.295 499.062C392.96 498.206 399.146 497.351 403.031 497.154C406.917 496.966 411.862 496.401 414.02 495.906C416.179 495.404 419.884 494.069 422.262 492.939C424.664 491.793 428.495 488.92 430.897 486.463C433.267 484.03 435.654 481.455 436.195 480.733C436.737 480.003 437.844 477.915 438.652 476.079C439.468 474.242 440.716 469.917 441.423 466.463C442.129 463.009 442.514 459.65 442.263 459.006C442.019 458.354 442.169 455.709 442.6 453.119L443.746 446.054C443.95 444.759 444.869 441.58 445.787 438.99C446.706 436.4 448.511 432.334 449.79 429.963C451.07 427.585 453.613 423.652 455.442 421.211C457.263 418.77 460.018 415.418 461.565 413.754C463.103 412.09 465.513 409.845 466.926 408.769C468.339 407.686 469.971 406.368 470.544 405.826C471.125 405.284 471.981 404.845 472.444 404.845C472.907 404.845 473.284 404.491 473.284 404.06C473.284 403.628 473.786 403.275 474.406 403.275C475.019 403.275 475.992 402.82 476.565 402.27C477.138 401.713 480.599 400.08 484.273 398.636C487.939 397.184 492.177 395.834 493.692 395.622C495.199 395.41 497.232 394.931 498.206 394.546C499.179 394.169 499.972 393.502 499.972 393.071C499.972 392.639 499.705 392.341 499.383 392.411C499.061 392.482 497.821 392.129 496.636 391.626C495.451 391.124 494.21 390.724 493.889 390.731C493.567 390.739 489.768 389.216 485.45 387.34C481.133 385.472 475.395 382.639 472.695 381.045C469.995 379.46 467.609 378.157 467.397 378.157C467.177 378.157 465.858 377.356 464.453 376.383C463.048 375.409 459.783 373.023 457.2 371.084C454.61 369.145 451.172 366.233 449.547 364.616C447.922 362.999 446.242 361.673 445.811 361.673C445.379 361.673 442.859 358.933 440.214 355.589C437.569 352.246 434.437 347.559 433.259 345.189C432.082 342.81 430.371 338.572 429.46 335.77C428.55 332.959 427.467 329.074 427.051 327.135C426.627 325.188 426.093 321.484 425.85 318.893C425.606 316.303 425.229 311.004 425.01 307.119L424.248 292.99L423.401 274.151L422.655 258.452L421.862 244.716L421.203 234.7C421.14 234.582 419.272 236.882 417.05 239.802C414.829 242.722 410.771 247.173 408.023 249.692C405.276 252.212 400.559 255.736 397.537 257.526C394.515 259.316 389.216 261.733 385.762 262.911C382.309 264.08 376.476 265.438 372.811 265.933C367.826 266.6 364.255 266.6 358.682 265.933C354.576 265.438 348.579 264.151 345.338 263.06C342.096 261.977 337.504 259.991 335.133 258.656C332.755 257.314 329.403 255.148 327.676 253.845C325.95 252.534 322.802 249.677 320.675 247.502C318.555 245.32 315.502 241.772 313.893 239.614C312.284 237.455 309.874 233.483 308.532 230.783C307.189 228.083 305.321 223.138 304.379 219.794C303.021 214.935 302.668 211.575 302.652 203.114C302.644 194.526 302.966 191.363 304.364 186.434C305.313 183.09 307.197 178.145 308.547 175.444C309.905 172.744 312.111 168.945 313.453 167.006C314.795 165.06 318.194 161.151 320.997 158.301C323.807 155.46 327.873 151.943 330.031 150.491C332.19 149.047 336.429 146.739 339.451 145.365C342.473 143.999 347.59 142.218 350.832 141.417C354.93 140.404 359.467 139.973 365.746 139.996C371.704 140.028 376.508 140.499 379.875 141.393C382.678 142.147 387.097 143.646 389.687 144.737L395.818 147.249C397.152 147.744 397.168 147.563 396.163 144.243C395.566 142.296 393.212 137.178 390.927 132.861C388.643 128.544 384.083 120.946 380.794 115.985C376.822 109.996 372.167 104.313 366.939 99.1006C362.614 94.7755 358.101 90.4426 356.916 89.485C355.73 88.5195 352.551 86.1882 349.851 84.3122C347.151 82.4362 342.645 79.5868 339.843 77.9934C337.033 76.4 331.562 73.5663 327.676 71.706L316.098 66.2506C313.618 65.1124 311.318 64.1705 310.996 64.1548C310.674 64.147 309.874 63.6289 309.23 63.0009C308.579 62.373 305.313 61.3212 301.969 60.6697C298.626 60.0103 292.44 59.4844 288.233 59.5001L280.58 59.5236C280.58 59.5236 265.666 65.6227 265.666 65.6227Z" fill="#bfd2d3" fill-rule="evenodd" opacity="1" stroke="none"/>
<path d="M308.838 62.4358C309.269 62.8832 313.328 64.9398 317.865 67.0042C322.394 69.0764 329.458 72.4988 333.563 74.626C337.661 76.7532 343.846 80.3404 347.3 82.5932C350.754 84.846 355.165 88.025 357.112 89.6498C359.051 91.2825 363.203 95.0503 366.335 98.0174C369.467 100.992 372.018 103.693 372.002 104.014C371.987 104.336 372.732 105.31 373.666 106.173C374.6 107.036 378.054 111.801 381.351 116.77C384.648 121.731 389.365 129.855 391.838 134.823C394.303 139.784 396.422 144.729 396.54 145.813C396.681 147.139 397.89 148.544 400.26 150.13C402.191 151.425 405.865 154.424 408.416 156.802C410.967 159.172 414.562 163.238 416.391 165.829C418.22 168.419 420.787 172.658 422.082 175.248C423.377 177.838 425.214 182.43 426.171 185.452C427.302 189.063 428.047 193.914 428.33 199.581C428.597 205.045 428.385 210.233 427.749 213.71C427.2 216.733 425.904 221.678 424.868 224.7C423.84 227.722 422.537 230.901 421.972 231.764C421.203 232.957 421.116 235.022 421.611 240.399C422.014 244.841 422.352 249.29 422.623 253.743C422.812 257.196 423.173 266.38 423.416 274.151C423.652 281.922 424.083 289.513 424.366 291.028C424.649 292.535 424.994 296.773 425.127 300.447L425.386 310.651C425.386 312.59 425.763 317.363 426.218 321.248C426.674 325.134 428.118 331.492 429.421 335.377C430.724 339.263 432.914 344.553 434.288 347.136C435.826 350.032 439.633 354.702 444.241 359.349C448.338 363.494 454.696 369.098 458.37 371.814C462.035 374.522 468.394 378.628 472.499 380.927C476.596 383.227 482.954 386.336 486.628 387.835C490.294 389.334 494.854 391.038 496.746 391.618C498.645 392.199 500.325 393.118 500.474 393.659C500.647 394.256 502.138 394.64 504.289 394.64C506.228 394.64 510.561 394.083 513.905 393.4C517.249 392.717 522.194 391.124 524.894 389.868C527.68 388.565 531.613 385.794 533.999 383.455C536.307 381.186 539.133 377.482 540.279 375.213C541.425 372.945 542.273 370.299 542.163 369.326C542.006 367.905 541.048 367.285 537.257 366.131C534.667 365.346 530.075 363.8 527.053 362.709C524.03 361.61 518.198 358.729 514.101 356.312C509.996 353.886 503.818 349.537 500.364 346.649C496.911 343.752 492.138 339.058 489.768 336.201C487.389 333.352 483.676 328.116 481.502 324.568C479.328 321.013 476.369 315.282 474.924 311.829C473.48 308.375 471.408 302.19 470.317 298.092C468.394 290.847 468.323 289.638 467.766 255.313C467.263 224.346 466.981 218.781 465.489 210.178C464.555 204.778 462.899 196.834 461.8 192.517C460.701 188.2 458.378 180.782 456.635 176.033C454.885 171.284 451.564 163.6 449.241 158.961C446.925 154.322 443.213 147.61 440.991 144.047C438.77 140.483 434.445 134.219 431.376 130.122C428.306 126.032 422.435 119.179 418.338 114.909C414.232 110.639 407.702 104.477 403.816 101.22C399.931 97.9546 393.039 92.8289 388.51 89.8225C383.973 86.8162 374.969 81.7768 368.494 78.6214C362.018 75.4659 351.947 71.2821 346.123 69.3355C340.29 67.3809 332.347 65.0732 328.461 64.2098C324.576 63.3385 318.39 62.4044 314.725 62.1297C310.125 61.7764 308.296 61.8785 308.838 62.4358Z" fill="#768182" fill-rule="evenodd" opacity="1" stroke="none"/>
<path d="M200.123 140.043L193.451 141.197C190.86 141.676 186.268 143.01 183.246 144.164C180.224 145.318 175.279 147.893 172.257 149.879C169.235 151.865 164.51 155.734 161.762 158.482C159.007 161.229 155.671 165.06 154.345 167.006C153.018 168.945 150.624 173.364 149.031 176.818C147.437 180.272 145.514 185.57 144.753 188.592C143.874 192.093 143.355 197.211 143.332 202.721C143.301 208.475 143.764 213.318 144.706 217.243C145.483 220.477 147.641 226.309 149.494 230.194C151.354 234.08 154.51 239.378 156.511 241.969C158.513 244.559 162.516 248.711 165.42 251.199C168.458 253.806 174.015 257.369 178.537 259.622C182.964 261.82 188.953 264.088 192.273 264.818C195.507 265.525 201.693 266.129 206.01 266.153C210.751 266.176 216.348 265.65 220.139 264.818C223.687 264.041 229.825 261.781 234.268 259.622C238.585 257.518 244.362 253.923 247.117 251.631C249.865 249.339 253.986 244.991 256.27 241.969C258.554 238.946 261.49 234.355 262.785 231.764C264.08 229.174 265.878 224.755 266.788 221.952C267.691 219.142 268.821 213.844 269.3 210.178C269.779 206.505 269.936 201.206 269.645 198.404C269.363 195.594 268.601 191.002 267.958 188.2C267.314 185.39 265.242 179.919 263.358 176.033C261.466 172.148 258.169 166.669 256.034 163.866C253.892 161.056 250.422 157.312 248.311 155.53C246.199 153.756 242.172 150.86 239.37 149.094C236.56 147.328 231.882 144.989 228.969 143.89C226.057 142.791 220.578 141.354 216.803 140.703C213.027 140.051 208.168 139.572 206.01 139.635C203.851 139.698 201.198 139.879 200.123 140.043ZM358.289 140.059C356.994 140.224 353.462 140.922 350.44 141.613C347.418 142.312 342.473 143.999 339.451 145.365C336.429 146.739 332.19 149.047 330.031 150.491C327.873 151.943 323.807 155.46 320.997 158.301C318.194 161.151 314.795 165.06 313.453 167.006C312.111 168.945 309.905 172.744 308.547 175.444C307.197 178.145 305.313 183.09 304.364 186.434C302.966 191.363 302.644 194.526 302.652 203.114C302.668 211.575 303.021 214.935 304.379 219.794C305.321 223.138 307.189 228.083 308.532 230.783C309.874 233.483 312.284 237.455 313.893 239.614C315.502 241.772 318.555 245.32 320.675 247.502C322.802 249.677 325.95 252.534 327.676 253.845C329.403 255.148 332.755 257.314 335.133 258.656C337.504 259.991 342.096 261.977 345.338 263.06C348.579 264.151 354.576 265.438 358.682 265.933C364.255 266.6 367.826 266.6 372.811 265.933C376.476 265.438 382.309 264.08 385.762 262.911C389.216 261.733 394.515 259.316 397.537 257.526C400.559 255.736 405.268 252.212 408 249.692C410.739 247.173 414.327 243.342 415.975 241.184C417.623 239.025 419.939 235.493 421.132 233.334C422.317 231.176 424.076 227.11 425.025 224.307C425.975 221.497 427.2 216.733 427.749 213.71C428.385 210.233 428.597 205.045 428.33 199.581C428.047 193.914 427.302 189.063 426.171 185.452C425.214 182.43 423.369 177.838 422.066 175.248C420.763 172.658 418.612 168.945 417.286 167.006C415.959 165.06 413.267 161.747 411.304 159.643C409.342 157.54 405.794 154.322 403.424 152.493C401.045 150.664 396.987 148.113 394.397 146.817C391.806 145.522 387.387 143.709 384.585 142.799C381.775 141.88 377.01 140.781 373.988 140.349C370.966 139.918 366.727 139.612 364.569 139.667C362.41 139.722 359.584 139.902 358.289 140.059Z" fill="#303344" fill-rule="evenodd" opacity="1" stroke="none"/>
<path d="M197.375 171.826C194.785 172.721 190.743 174.738 188.388 176.308C185.994 177.917 182.603 181.245 180.688 183.883C178.702 186.606 176.614 190.743 175.719 193.694C174.879 196.497 174.188 200.916 174.188 203.506C174.188 206.097 174.895 210.508 175.758 213.318C176.629 216.12 178.05 219.48 178.914 220.775C179.785 222.07 182.179 224.841 184.228 226.929C186.276 229.017 190.075 231.764 192.666 233.044C195.452 234.417 199.385 235.595 202.289 235.924L207.203 236.474L207.187 170.146C203.231 170.185 199.966 170.931 197.375 171.826Z" fill="#52d784" fill-rule="evenodd" opacity="1" stroke="none"/>
<path d="M354.294 171.543C352.096 172.289 348.391 174.196 346.052 175.782C343.713 177.368 340.589 180.193 339.097 182.061C337.606 183.93 335.581 187.219 334.592 189.377C333.611 191.536 332.41 195.421 331.923 198.012C331.271 201.497 331.271 204.048 331.923 207.823C332.41 210.626 333.713 214.864 334.819 217.243C335.926 219.613 337.92 222.792 339.246 224.307C340.573 225.814 343.462 228.405 345.66 230.053C347.873 231.717 351.923 233.734 354.757 234.582C357.559 235.422 360.833 236.105 362.018 236.097L364.176 236.081L364.176 170.146C359.616 170.185 356.492 170.805 354.294 171.543Z" fill="#60d5dc" fill-rule="evenodd" opacity="1" stroke="none"/>
</g>
</g>
</g>
</svg>
