<?xml version="1.0" encoding="UTF-8"?>
<svg width="48px" height="45px" viewBox="0 0 48 45" xmlns="http://www.w3.org/2000/svg" xmlns:xlink="http://www.w3.org/1999/xlink" version="1.1">
 <!-- Generated by Pixelmator Pro 2.3 -->
 <g id="group">
  <defs>
   <linearGradient id="linear-gradient" gradientUnits="userSpaceOnUse" x1="17.585" y1="-0.745" x2="24.995" y2="24.396">
    <stop offset="0" stop-color="#03b8ff" stop-opacity="1"/>
    <stop offset="1" stop-color="#fa52a0" stop-opacity="1"/>
   </linearGradient>
  </defs>
  <path id="Path" d="M10.424 2.846 L46.973 28.102 37.934 41.625 1.385 16.17 Z" fill-opacity="1" fill="url(#linear-gradient)" stroke="none"/>
  <defs>
   <linearGradient id="linear-gradient-1" gradientUnits="userSpaceOnUse" x1="23.557" y1="-2.505" x2="30.967" y2="22.637">
    <stop offset="0" stop-color="#03b8ff" stop-opacity="1"/>
    <stop offset="1" stop-color="#fa52a0" stop-opacity="1"/>
   </linearGradient>
  </defs>
  <path id="Path-1" d="M46.976 28.102 C43.832 32.676 33.221 30.886 23.2 23.727 12.982 16.767 7.479 7.42 10.427 2.846 13.571 -1.728 24.182 0.062 34.204 7.221 44.422 13.983 49.924 23.528 46.976 28.102 Z" fill-opacity="1" fill="url(#linear-gradient-1)" stroke="none"/>
  <defs>
   <linearGradient id="linear-gradient-2" gradientUnits="userSpaceOnUse" x1="11.635" y1="1.009" x2="19.045" y2="26.15">
    <stop offset="0" stop-color="#03b8ff" stop-opacity="1"/>
    <stop offset="1" stop-color="#fa52a0" stop-opacity="1"/>
   </linearGradient>
  </defs>
  <path id="Path-2" d="M37.935 41.427 C34.791 46.001 24.18 44.211 14.159 37.052 4.137 29.892 -1.562 20.744 1.583 15.971 4.726 11.397 15.338 13.187 25.359 20.347 35.381 27.506 40.883 36.853 37.935 41.427 Z" fill-opacity="1" fill="url(#linear-gradient-2)" stroke="none"/>
  <path id="Path-3" d="M46.974 28.103 L37.935 41.626 C34.791 46.2 24.18 44.211 14.158 37.25 12.193 35.858 10.425 34.466 8.656 32.875 10.032 32.677 11.8 31.881 13.569 29.892 16.713 26.512 18.285 25.716 19.66 25.915 21.036 25.915 22.608 27.307 25.162 30.688 27.717 34.069 31.254 35.063 33.415 33.273 33.612 33.074 33.808 33.074 34.005 32.875 35.774 31.483 36.363 30.887 39.703 24.523 40.49 22.932 43.241 20.347 46.974 21.54 47.957 24.125 47.957 26.313 46.974 28.103 Z" fill="#0e0f23" fill-opacity="1" stroke="none"/>
  <path id="Path-4" d="M45.599 27.307 C42.848 31.284 33.22 29.296 23.984 22.733 14.552 16.17 9.05 7.818 11.801 3.84 14.552 -0.137 24.181 1.852 33.416 8.414 42.652 14.977 48.154 23.33 45.599 27.307 Z M36.953 21.341 C35.578 23.33 30.862 22.335 26.146 19.153 21.626 15.971 18.875 11.795 20.251 9.806 21.626 7.818 26.342 8.812 31.058 11.994 35.578 15.176 38.329 19.352 36.953 21.341 Z" fill="#ffffff" fill-opacity="1" stroke="none"/>
  <path id="Path-5" d="M9.639 7.42 C9.639 7.221 9.443 7.022 9.246 7.221 9.05 7.42 8.854 7.42 8.854 7.619 9.05 8.215 9.246 8.613 9.246 9.011 9.246 9.21 9.443 9.409 9.639 9.21 9.836 9.21 10.033 9.011 9.836 8.812 9.836 8.414 9.836 8.017 9.639 7.42 Z" fill="#ffffff" fill-opacity="1" stroke="none"/>
  <path id="Path-6" d="M10.621 10.602 C10.621 10.403 10.424 10.204 10.228 10.403 10.031 10.602 10.031 10.602 10.031 10.8 12.193 15.772 16.712 21.142 22.607 25.119 22.804 25.318 23 25.119 23.197 25.119 23.393 24.92 23.197 24.721 23.197 24.522 17.105 20.545 12.782 15.374 10.621 10.602 Z" fill="#ffffff" fill-opacity="1" stroke="none"/>
  <path id="Path-7" d="M34.397 30.091 C34.2 30.091 34.004 30.091 34.004 30.29 34.004 30.489 34.004 30.687 34.2 30.687 34.79 30.886 35.576 31.085 36.165 31.284 36.362 31.284 36.558 31.284 36.558 31.085 36.558 30.886 36.558 30.687 36.362 30.687 35.772 30.489 34.986 30.29 34.397 30.091 Z" fill="#ffffff" fill-opacity="1" stroke="none"/>
  <path id="Path-8" d="M37.935 30.886 C37.739 30.886 37.542 31.085 37.542 31.284 37.542 31.483 37.739 31.682 37.935 31.682 39.507 31.881 41.276 32.079 42.651 31.881 42.848 31.881 43.044 31.682 43.044 31.483 43.044 31.284 42.848 31.085 42.651 31.085 41.079 31.284 39.507 31.085 37.935 30.886 Z" fill="#ffffff" fill-opacity="1" stroke="none"/>
 </g>
</svg>
