<?xml version="1.0" encoding="utf-8"?>
<!-- Generator: Adobe Illustrator 26.2.1, SVG Export Plug-In . SVG Version: 6.00 Build 0)  -->
<svg version="1.1" id="Layer_1" xmlns="http://www.w3.org/2000/svg" xmlns:xlink="http://www.w3.org/1999/xlink" x="0px"
     y="0px"
     viewBox="0 0 320 320" style="enable-background:new 0 0 320 320;" xml:space="preserve">
<style type="text/css">
	.st0{fill:#10151B;stroke:#F5C09A;stroke-width:7px;stroke-linecap:round;stroke-linejoin:round;stroke-miterlimit:10;}
	.st1{fill:none;stroke:#F5C09A;stroke-width:7px;stroke-linecap:round;stroke-linejoin:round;stroke-miterlimit:10;}
</style>
    <g>
	<circle class="st0" cx="159.9" cy="160.5" r="150.8"/>
</g>
    <path class="st1" d="M154.2,210.4h55c2.2,0,4.1,1.8,4.1,4.1v18.4c0,3.6,4.4,5.4,6.9,2.9l46.4-46.4c1.6-1.6,1.6-4.2,0-5.7l-46.4-46.4
	c-2.6-2.6-6.9-0.7-6.9,2.9v18c0,2.2-1.8,4.1-4,4.1l-98.8,0.3c-2.2,0-4,1.8-4,4.1v18.4c0,3.6-4.4,5.4-6.9,2.9l-46.4-46.4
	c-1.6-1.6-1.6-4.2,0-5.7l46.4-46.4c2.6-2.6,6.9-0.7,6.9,2.9v18.4c0,2.2,1.8,4.1,4.1,4.1h55"/>
</svg>
