<?xml version="1.0" encoding="utf-8"?>
<!-- Generator: Adobe Illustrator 26.0.3, SVG Export Plug-In . SVG Version: 6.00 Build 0)  -->
<svg version="1.1" id="Layer_1" xmlns="http://www.w3.org/2000/svg" xmlns:xlink="http://www.w3.org/1999/xlink" x="0px" y="0px"
	 viewBox="0 0 1080 1080" style="enable-background:new 0 0 1080 1080;" xml:space="preserve">
<style type="text/css">
	.st0{fill:#2775CA;}
	.st1{fill:#FFFFFF;}
</style>
<g>
	<path class="st0" d="M540,1080c299.3,0,540-240.7,540-540S839.3,0,540,0S0,240.7,0,540S240.7,1080,540,1080z"/>
	<path class="st1" d="M688.5,625.5c0-78.7-47.2-105.7-141.8-117c-67.5-9-81-27-81-58.5s22.5-51.7,67.5-51.7
		c40.5,0,63,13.5,74.2,47.2c2.3,6.8,9,11.2,15.8,11.2h36c9,0,15.8-6.8,15.8-15.7v-2.3c-9-49.5-49.5-87.8-101.2-92.2v-54
		c0-9-6.8-15.8-18-18H522c-9,0-15.8,6.7-18,18v51.7c-67.5,9-110.2,54-110.2,110.3c0,74.2,45,103.5,139.5,114.7
		c63,11.2,83.3,24.7,83.3,60.8s-31.5,60.8-74.2,60.8c-58.5,0-78.8-24.8-85.5-58.5c-2.2-9-9-13.5-15.7-13.5h-38.3
		c-9,0-15.7,6.8-15.7,15.8v2.3c9,56.2,45,96.7,119.2,108v54c0,9,6.8,15.7,18,18H558c9,0,15.8-6.8,18-18v-54
		C643.5,733.5,688.5,686.2,688.5,625.5L688.5,625.5z"/>
	<path class="st1" d="M425.2,861.7c-175.5-63-265.5-258.7-200.2-432c33.8-94.5,108-166.5,200.2-200.2c9-4.5,13.5-11.2,13.5-22.5
		v-31.5c0-9-4.5-15.8-13.5-18c-2.3,0-6.8,0-9,2.2C202.5,227.2,85.5,454.5,153,668.2c40.5,126,137.3,222.8,263.2,263.2
		c9,4.5,18,0,20.2-9c2.3-2.2,2.3-4.5,2.3-9V882C438.8,875.2,432,866.3,425.2,861.7z M663.8,159.7c-9-4.5-18,0-20.2,9
		c-2.3,2.3-2.3,4.5-2.3,9v31.5c0,9,6.8,18,13.5,22.5c175.5,63,265.5,258.7,200.2,432C821.2,758.3,747,830.2,654.8,864
		c-9,4.5-13.5,11.2-13.5,22.5V918c0,9,4.5,15.8,13.5,18c2.3,0,6.8,0,9-2.2C877.5,866.3,994.5,639,927,425.2
		C886.5,297,787.5,200.2,663.8,159.7L663.8,159.7z"/>
</g>
</svg>
