<?xml version="1.0" encoding="utf-8"?>
<!-- Generator: Adobe Illustrator 26.5.0, SVG Export Plug-In . SVG Version: 6.00 Build 0)  -->
<svg version="1.1" id="Layer_1" xmlns="http://www.w3.org/2000/svg" xmlns:xlink="http://www.w3.org/1999/xlink" x="0px" y="0px"
	 viewBox="0 0 320 320" style="enable-background:new 0 0 320 320;" xml:space="preserve">
<style type="text/css">
	.st0{fill:none;stroke:#F5C09A;stroke-width:6.9229;stroke-linecap:round;stroke-linejoin:round;stroke-miterlimit:10;}
	.st1{fill:none;stroke:#F5C09A;stroke-width:6.079;stroke-linecap:round;stroke-linejoin:round;stroke-miterlimit:10;}
</style>
<circle class="st0" cx="160" cy="159.7" r="148.2"/>
<path class="st1" d="M156.2,78.8l1.1-4.5c1.8-6.4,8.5-10.2,14.9-8.5l74.1,20.4c6.4,1.8,10.2,8.5,8.5,14.9l-33,119.7
	c-1.8,6.4-8.5,10.2-14.9,8.5l-18.5-5.1c-2.5-0.7-4.4-2.7-4.9-5.2l-24.4-112.9c-1.9-8.6-10.4-14.1-19-12.3l-67.6,14.6
	c-8.6,1.9-14.1,10.4-12.3,19l24.6,113.8c1.9,8.6,10.4,14.1,19,12.3l68.7-14.6"/>
<circle class="st1" cx="122" cy="173.7" r="26.1"/>
<path class="st1" d="M196.5,122.4c-12.6-3.5-25.6,2.9-30.8,14.4l6.6,30.4c2.9,2.5,6.4,4.5,10.3,5.6c13.9,3.8,28.3-4.3,32.1-18.3
	C218.6,140.6,210.4,126.2,196.5,122.4z"/>
</svg>
