<?xml version="1.0" encoding="utf-8"?>
<!-- Generator: Adobe Illustrator 26.5.2, SVG Export Plug-In . SVG Version: 6.00 Build 0)  -->
<svg version="1.1" id="Layer_1" xmlns="http://www.w3.org/2000/svg" xmlns:xlink="http://www.w3.org/1999/xlink" x="0px"
     y="0px"
     viewBox="0 0 1080 1080" style="enable-background:new 0 0 1080 1080;" xml:space="preserve">
<style type="text/css">
	.st0{fill:#596AEC;}
	.st1{fill-rule:evenodd;clip-rule:evenodd;stroke:#000000;stroke-width:1.8581;stroke-miterlimit:11.3386;}
	.st2{fill:#FFFFFF;}
</style>
    <g>
	<path class="st0" d="M814.7,939c-53.9,37.1-113.4,62.5-176.9,75.6c-61.3,12.6-123.8,13.2-185.7,1.8c-61.9-11.4-120-34.3-172.8-68
		c-54.6-34.9-101.1-79.8-138.2-133.7S78.5,701.3,65.4,637.8C52.8,576.4,52.2,514,63.6,452.1s34.3-120,68-172.8
		c34.9-54.6,79.8-101.1,133.7-138.2s113.4-62.5,176.9-75.6c61.3-12.6,123.8-13.2,185.7-1.8s120,34.3,172.8,68
		c54.6,34.9,101.1,79.8,138.2,133.7s62.5,113.4,75.6,176.9c12.6,61.3,13.2,123.8,1.8,185.7s-34.3,120-68,172.8
		C913.5,855.4,868.5,901.9,814.7,939 M844.4,982.2c244.2-168.1,306-502.4,137.8-746.7S479.8-70.4,235.6,97.8s-306,502.4-137.8,746.7
		S600.2,1150.4,844.4,982.2L844.4,982.2z"/>
</g>

    <g id="layer1" transform="translate(295.65791,-75.71863)">
	<circle id="path854" class="st1" cx="244.3" cy="615.7" r="427.4"/>
        <path id="path862" class="st2" d="M8.6,378c-18,18.9-32.9,34.8-33,35.1c-0.2,0.5,16.1,16.4,36,35.3c20,19.1,37.4,35.7,38.6,36.8
		l2.3,2.1l-4.1,6.8C12.8,552.9,5.4,623.8,27.8,689c4.2,12.3,11.4,28.1,17.6,38.4c3,5.1,4.4,8.4,4.1,9S30.9,756.3,9,779.3
		c-21.9,22.8-39.8,41.9-40.1,42.2c-0.2,0.5,61.3,59.8,67.1,64.6l2.3,2L73,851.8c19.1-20,36.9-38.7,39.6-41.6l5.1-5.1l4.8,3
		c24.5,15.6,53.2,26.4,84.8,32.1c15.9,2.9,46.3,3.6,63.2,1.5c32.7-3.8,65.2-14.7,91.8-30.8l6.9-4.2l7.4,7.2
		c16.1,15.6,76.1,72.7,76.7,73c0.6,0.3,66.5-68.6,66.4-69.5c-0.2-0.5-45.4-43.9-73-69.8l-9.2-8.7l4.2-6.9
		c35.3-58.7,42.6-129.9,19.8-195.5c-3.3-9.6-13.4-31.2-19.2-41.1l-2.9-5l38.6-40.4c21.2-22.1,38.4-40.5,38.3-41
		c-0.6-1.5-68.2-65.3-69.1-65.3c-0.6,0-17.6,17.3-37.8,38.6c-20.3,21.2-37.1,38.6-37.5,38.7c-0.3,0.2-2.3-0.8-4.1-2.1
		c-5.1-3.5-18-10.5-25.2-13.8c-21.9-10.1-42.3-16.2-66.1-19.7c-12.3-1.8-49.3-2.1-60.7-0.5c-27.3,3.9-49.7,10.7-72.5,22.1
		c-6.6,3.2-14.3,7.4-17.3,9.2l-5.4,3.3l-6.2-6c-3.3-3.3-18.3-17.4-33.2-31.7c-14.9-14.1-30-28.5-33.6-32.1l-6.6-6.5L8.6,378z
		 M260.7,475.9c23.9,2.9,45.2,11,64.9,24.8c10.1,7.1,25.1,22.1,32.1,32.1c40.1,56.8,32.4,134-18,181.3
		c-43.1,40.2-105.4,49.3-157.8,22.5c-37.8-19.4-64.6-54.8-73.1-97.3c-2.7-13.5-2.7-38.7,0-52.1c2.6-13.2,6-22.7,12.5-35.9
		C147,499.3,203,469,260.7,475.9L260.7,475.9z"/>
</g>
</svg>
