<?xml version="1.0" encoding="UTF-8" standalone="no"?>
<!DOCTYPE svg PUBLIC "-//W3C//DTD SVG 1.1//EN" "http://www.w3.org/Graphics/SVG/1.1/DTD/svg11.dtd"
[
<!ATTLIST g
  xmlns:vectornator CDATA #FIXED "http://vectornator.io"
  vectornator:layerName CDATA #IMPLIED >
<!ATTLIST g
  xmlns:vectornator CDATA #FIXED "http://vectornator.io"
  vectornator:mask CDATA #IMPLIED >
<!ATTLIST text
  xmlns:vectornator CDATA #FIXED "http://vectornator.io"
  vectornator:width CDATA #IMPLIED >

<!ATTLIST path
  xmlns:vectornator CDATA #FIXED "http://vectornator.io"
  vectornator:blendMode CDATA #IMPLIED >
<!ATTLIST path
  xmlns:vectornator CDATA #FIXED "http://vectornator.io"
  vectornator:shadowColor CDATA #IMPLIED >
<!ATTLIST path
  xmlns:vectornator CDATA #FIXED "http://vectornator.io"
  vectornator:shadowOpacity CDATA #IMPLIED >
<!ATTLIST path
  xmlns:vectornator CDATA #FIXED "http://vectornator.io"
  vectornator:shadowRadius CDATA #IMPLIED >
<!ATTLIST path
  xmlns:vectornator CDATA #FIXED "http://vectornator.io"
  vectornator:shadowOffset CDATA #IMPLIED >
<!ATTLIST path
  xmlns:vectornator CDATA #FIXED "http://vectornator.io"
  vectornator:shadowAngle CDATA #IMPLIED >

<!ATTLIST image
  xmlns:vectornator CDATA #FIXED "http://vectornator.io"
  vectornator:blendMode CDATA #IMPLIED >
<!ATTLIST image
  xmlns:vectornator CDATA #FIXED "http://vectornator.io"
  vectornator:shadowColor CDATA #IMPLIED >
<!ATTLIST image
  xmlns:vectornator CDATA #FIXED "http://vectornator.io"
  vectornator:shadowOpacity CDATA #IMPLIED >
<!ATTLIST image
  xmlns:vectornator CDATA #FIXED "http://vectornator.io"
  vectornator:shadowRadius CDATA #IMPLIED >
<!ATTLIST image
  xmlns:vectornator CDATA #FIXED "http://vectornator.io"
  vectornator:shadowOffset CDATA #IMPLIED >
<!ATTLIST image
  xmlns:vectornator CDATA #FIXED "http://vectornator.io"
  vectornator:shadowAngle CDATA #IMPLIED >

<!ATTLIST g
  xmlns:vectornator CDATA #FIXED "http://vectornator.io"
  vectornator:blendMode CDATA #IMPLIED >
<!ATTLIST g
  xmlns:vectornator CDATA #FIXED "http://vectornator.io"
  vectornator:shadowColor CDATA #IMPLIED >
<!ATTLIST g
  xmlns:vectornator CDATA #FIXED "http://vectornator.io"
  vectornator:shadowOpacity CDATA #IMPLIED >
<!ATTLIST g
  xmlns:vectornator CDATA #FIXED "http://vectornator.io"
  vectornator:shadowRadius CDATA #IMPLIED >
<!ATTLIST g
  xmlns:vectornator CDATA #FIXED "http://vectornator.io"
  vectornator:shadowOffset CDATA #IMPLIED >
<!ATTLIST g
  xmlns:vectornator CDATA #FIXED "http://vectornator.io"
  vectornator:shadowAngle CDATA #IMPLIED >

<!ENTITY % SVG.filter.extra.content  "| feDropShadow" >
<!ELEMENT feDropShadow EMPTY>
<!ATTLIST feDropShadow
  xmlns:svg CDATA #FIXED "http://www.w3.org/Graphics/SVG/1.1/DTD/svg11.dtd"
  dx CDATA #IMPLIED>
<!ATTLIST feDropShadow
  xmlns:svg CDATA #FIXED "http://www.w3.org/Graphics/SVG/1.1/DTD/svg11.dtd"
  dy CDATA #IMPLIED>
<!ATTLIST feDropShadow
  xmlns:svg CDATA #FIXED "http://www.w3.org/Graphics/SVG/1.1/DTD/svg11.dtd"
  stdDeviation CDATA #IMPLIED>
<!ATTLIST feDropShadow
  xmlns:svg CDATA #FIXED "http://www.w3.org/Graphics/SVG/1.1/DTD/svg11.dtd"
  flood-opacity CDATA #IMPLIED>
<!ATTLIST feDropShadow
  xmlns:svg CDATA #FIXED "http://www.w3.org/Graphics/SVG/1.1/DTD/svg11.dtd"
  in CDATA #IMPLIED>
<!ATTLIST feDropShadow
  xmlns:svg CDATA #FIXED "http://www.w3.org/Graphics/SVG/1.1/DTD/svg11.dtd"
  result CDATA #IMPLIED>
<!ATTLIST feDropShadow
  xmlns:svg CDATA #FIXED "http://www.w3.org/Graphics/SVG/1.1/DTD/svg11.dtd"
  flood-color CDATA #IMPLIED>
]
>
<!-- Created with Vectornator (http://vectornator.io/) -->
<svg height="100%" stroke-miterlimit="10" style="fill-rule:nonzero;clip-rule:evenodd;stroke-linecap:round;stroke-linejoin:round;" version="1.1" viewBox="0 0 174.14 170" width="100%" xml:space="preserve" xmlns="http://www.w3.org/2000/svg" xmlns:vectornator="http://vectornator.io" xmlns:xlink="http://www.w3.org/1999/xlink">
<defs>
<linearGradient gradientTransform="matrix(0.584678 0.811268 -0.811273 0.584675 1812.47 4329.63)" gradientUnits="userSpaceOnUse" id="LinearGradient" x1="-4414.52" x2="-4399.63" y1="-1072.19" y2="-1060.55">
<stop offset="0.16" stop-color="#191919"/>
<stop offset="0.97" stop-color="#191919" stop-opacity="0"/>
</linearGradient>
</defs>
<clipPath id="ArtboardFrame">
<rect height="170" width="174.14" x="0" y="0"/>
</clipPath>
<g clip-path="url(#ArtboardFrame)" id="Untitled" vectornator:layerName="Untitled">
<path d="M159.401 131.45C159.291 131.54 159.181 131.62 159.071 131.7C158.961 131.78 158.841 131.86 158.731 131.94C158.511 132.09 158.291 132.24 158.071 132.38L157.991 132.43C157.811 132.55 157.621 132.66 157.431 132.77C157.151 132.94 156.881 133.1 156.591 133.25C154.661 134.32 152.641 135.19 150.571 135.95C148.621 136.67 146.641 137.29 144.651 137.85C141.791 138.65 138.891 139.31 135.981 139.89C133.141 140.46 130.301 140.94 127.441 141.36C124.581 141.78 121.711 142.12 118.841 142.42C117.901 142.52 116.961 142.61 116.011 142.7C114.121 142.87 112.231 143.02 110.341 143.15C109.391 143.21 108.451 143.27 107.501 143.33C105.381 143.45 103.261 143.54 101.141 143.61C100.761 143.62 100.371 143.64 99.9806 143.65C99.6306 143.66 99.2706 143.67 98.9206 143.68C99.7906 142.61 100.661 141.54 101.451 140.41C101.561 140.27 101.681 140.13 101.791 139.98C103.581 137.57 105.301 135.11 106.941 132.6C107.111 132.6 107.271 132.58 107.441 132.57C108.481 132.51 109.521 132.45 110.571 132.37C111.361 132.32 112.151 132.26 112.941 132.2C118.461 131.77 123.961 131.16 129.441 130.3C131.031 130.05 132.621 129.78 134.201 129.49C137.891 128.8 141.561 127.99 145.171 126.95C145.961 126.72 146.751 126.48 147.541 126.24C147.941 126.12 148.331 125.99 148.721 125.86C149.311 125.96 149.861 126.21 150.411 126.42C150.901 126.6 151.391 126.79 151.881 126.98C153.261 127.53 154.621 128.14 155.941 128.83C156.461 129.1 156.971 129.39 157.471 129.7C158.141 130.11 158.791 130.53 159.401 131.02C159.581 131.16 159.631 131.22 159.561 131.3C159.531 131.34 159.481 131.38 159.391 131.45L159.401 131.45Z" fill="#f1ece2" fill-rule="evenodd" opacity="1" stroke="none"/>
<g opacity="1">
<path d="M108.231 156.88C108.121 156.95 108.001 156.95 107.881 156.91C107.911 156.89 107.941 156.88 107.961 156.87C108.011 156.85 108.051 156.85 108.101 156.85C108.141 156.85 108.191 156.86 108.231 156.88Z" fill="#5e93ff" fill-rule="evenodd" opacity="1" stroke="none"/>
<path d="M107.761 156.91C107.621 156.97 107.471 156.98 107.321 156.93C107.461 156.84 107.611 156.85 107.761 156.91Z" fill="#5e93ff" fill-rule="evenodd" opacity="1" stroke="none"/>
<path d="M107.201 156.93C107.061 156.99 106.911 157 106.771 156.96C106.911 156.87 107.061 156.88 107.201 156.93Z" fill="#5e93ff" fill-rule="evenodd" opacity="1" stroke="none"/>
<path d="M106.651 156.96C106.511 157.03 106.361 157.03 106.221 156.98L106.241 156.98C106.381 156.91 106.521 156.91 106.661 156.96L106.651 156.96Z" fill="#5e93ff" fill-rule="evenodd" opacity="1" stroke="none"/>
<path d="M105.801 156.95C105.891 156.93 105.991 156.95 106.091 156.98C105.951 157.05 105.801 157.05 105.651 157C105.701 156.97 105.741 156.96 105.791 156.95L105.801 156.95Z" fill="#5e93ff" fill-rule="evenodd" opacity="1" stroke="none"/>
<path d="M105.311 156.97C105.381 156.97 105.461 156.98 105.531 157.01C105.391 157.07 105.251 157.08 105.101 157.03C105.171 156.99 105.241 156.97 105.311 156.97Z" fill="#5e93ff" fill-rule="evenodd" opacity="1" stroke="none"/>
<path d="M104.871 157C104.871 157 104.941 157.02 104.971 157.03C104.831 157.1 104.691 157.1 104.541 157.05C104.641 156.99 104.751 156.98 104.851 157L104.871 157Z" fill="#5e93ff" fill-rule="evenodd" opacity="1" stroke="none"/>
<path d="M104.411 157.05C104.241 157.12 104.071 157.12 103.891 157.07C104.061 156.99 104.231 157 104.411 157.05Z" fill="#5e93ff" fill-rule="evenodd" opacity="1" stroke="none"/>
<path d="M103.771 157.07C103.631 157.14 103.491 157.13 103.341 157.09C103.481 157.01 103.621 157.01 103.771 157.07Z" fill="#5e93ff" fill-rule="evenodd" opacity="1" stroke="none"/>
<path d="M140.701 123.48C140.771 123.49 140.851 123.49 140.921 123.5C141.021 123.5 141.111 123.53 141.181 123.62C140.991 123.6 140.801 123.56 140.631 123.47L140.671 123.47L140.701 123.47L140.701 123.48Z" fill="#5e93ff" fill-rule="evenodd" opacity="1" stroke="none"/>
</g>
<path d="M60.5304 169.9C60.5304 169.9 60.5604 169.96 60.5704 169.99L57.6304 169.99C57.6304 169.99 57.6604 169.94 57.6804 169.9L58.3904 169.9L60.5204 169.9L60.5304 169.9Z" fill="#3180f4" fill-rule="evenodd" opacity="1" stroke="none"/>
<path d="M148.721 125.86C148.331 125.99 147.931 126.12 147.541 126.24C146.751 126.49 145.961 126.73 145.171 126.95C141.561 127.98 137.891 128.8 134.201 129.49C132.621 129.78 131.031 130.05 129.441 130.3C123.971 131.16 118.471 131.77 112.941 132.2C112.151 132.26 111.361 132.32 110.571 132.37C109.531 132.44 108.491 132.51 107.441 132.57C107.271 132.57 107.111 132.59 106.941 132.6C108.071 130.87 109.171 129.12 110.241 127.34C111.781 124.77 113.241 122.16 114.641 119.52C117.301 119.75 119.961 120.02 122.621 120.35C122.821 120.37 123.011 120.41 123.211 120.44C124.401 120.53 125.581 120.71 126.751 120.88C128.261 121.1 129.771 121.34 131.281 121.6C133.311 121.94 135.341 122.32 137.361 122.76L140.631 123.48C140.801 123.57 140.991 123.61 141.181 123.63C143.511 124.23 145.831 124.85 148.111 125.61C148.321 125.68 148.561 125.7 148.721 125.88L148.721 125.86Z" fill="#fdbf41" fill-rule="evenodd" opacity="1" stroke="none"/>
<path d="M71.3305 143C72.2705 143.07 73.2105 143.15 74.1505 143.21C73.2105 143.15 72.2705 143.07 71.3305 143Z" fill="#f1ece2" fill-rule="evenodd" opacity="1" stroke="none"/>
<path d="M41.2803 163.98C41.2103 163.98 41.1503 163.96 41.1003 163.9C41.0503 163.84 41.1103 163.9 41.1203 163.9L41.1503 163.9L41.1803 163.9L41.2003 163.9C41.2003 163.9 41.2203 163.91 41.2303 163.92L41.2403 163.92C41.2403 163.92 41.2603 163.95 41.2703 163.96L41.2803 163.98Z" fill="#404a5a" fill-rule="evenodd" opacity="1" stroke="none"/>
<path d="M41.1003 163.9C41.0303 163.9 40.9603 163.89 40.9203 163.82C40.8803 163.75 40.9603 163.82 40.9703 163.82C40.9803 163.82 41.0603 163.85 41.0903 163.9L41.1003 163.9Z" fill="#404a5a" fill-rule="evenodd" opacity="1" stroke="none"/>
<path d="M40.9103 163.81L40.9003 163.8L40.9103 163.81Z" fill="#404a5a" fill-rule="evenodd" opacity="1" stroke="none"/>
<path d="M40.7303 163.72L40.7203 163.72L40.7303 163.72Z" fill="#404a5a" fill-rule="evenodd" opacity="1" stroke="none"/>
<path d="M40.9103 163.81C40.8303 163.81 40.7603 163.81 40.7203 163.72C40.8003 163.72 40.8603 163.73 40.9003 163.8L40.9103 163.81Z" fill="#404a5a" fill-rule="evenodd" opacity="1" stroke="none"/>
<path d="M40.7303 163.72L40.7203 163.72L40.7203 163.71L40.7303 163.72Z" fill="#404a5a" fill-rule="evenodd" opacity="1" stroke="none"/>
<path d="M40.7303 163.72L40.7203 163.71L40.7303 163.71L40.7303 163.72Z" fill="#404a5a" fill-rule="evenodd" opacity="1" stroke="none"/>
<path d="M40.7203 163.71L40.7203 163.72L40.7203 163.71Z" fill="#404a5a" fill-rule="evenodd" opacity="1" stroke="none"/>
<path d="M40.7303 163.71C40.6503 163.71 40.5703 163.73 40.5503 163.63C40.6303 163.61 40.7003 163.63 40.7403 163.71L40.7303 163.71Z" fill="#404a5a" fill-rule="evenodd" opacity="1" stroke="none"/>
<path d="M40.0003 163.25C40.0503 163.28 40.1103 163.31 40.1703 163.34C40.2103 163.36 40.2603 163.38 40.3003 163.4C40.3703 163.44 40.4403 163.48 40.4903 163.55C40.5103 163.57 40.5203 163.6 40.5403 163.63C40.2903 163.61 40.0803 163.51 39.8903 163.35L40.0103 163.25L40.0003 163.25Z" fill="#404a5a" fill-rule="evenodd" opacity="1" stroke="none"/>
<path d="M56.8804 155.32C56.6804 155.35 56.4704 155.39 56.2704 155.41C55.4804 155.52 54.6904 155.58 53.9003 155.6C53.6303 155.6 53.3703 155.6 53.1003 155.6C52.8303 155.6 52.5703 155.59 52.3003 155.58C52.1803 155.58 52.0703 155.56 51.9603 155.55C51.8503 155.54 51.7303 155.52 51.6203 155.51C51.4803 155.5 51.3603 155.44 51.2503 155.34C50.9403 155.05 50.6303 154.76 50.3403 154.46C52.5203 154.78 54.7004 155.06 56.8804 155.32Z" fill="#f1ece2" fill-rule="evenodd" opacity="1" stroke="none"/>
<path d="M91.1706 118.52C89.6006 118.52 88.0306 118.54 86.4706 118.57C83.8605 122.62 81.0405 126.52 77.9705 130.24C77.3205 131.02 76.6705 131.79 76.0005 132.55C74.3105 134.47 72.5605 136.32 70.7105 138.09C69.1004 139.64 67.4304 141.12 65.6804 142.51C64.3204 143.6 62.9204 144.64 61.4604 145.6C58.7704 147.38 55.9604 148.91 52.9303 150.03C51.3903 150.59 49.8203 151.05 48.2103 151.32C48.1203 151.34 48.0303 151.37 47.9503 151.4C47.9503 151.43 47.9603 151.46 47.9703 151.48C47.9703 151.5 47.9703 151.51 47.9903 151.53C48.1103 151.71 48.2203 151.88 48.3403 152.05C48.5803 152.39 48.8303 152.73 49.0903 153.06C49.4803 153.55 49.9003 154.02 50.3303 154.48C52.5103 154.8 54.6903 155.08 56.8704 155.34C57.4504 155.25 58.0304 155.14 58.6104 155C59.9404 154.68 61.2404 154.27 62.5004 153.78C63.1304 153.53 63.7604 153.27 64.3804 152.99C65.0004 152.71 65.6104 152.4 66.2104 152.09C66.4704 151.95 66.7304 151.81 66.9904 151.67C68.8004 150.67 70.5404 149.56 72.2005 148.36C73.8705 147.16 75.4705 145.86 77.0205 144.5C77.2405 144.3 77.4605 144.11 77.6805 143.91C77.8405 143.76 78.0005 143.61 78.1705 143.46C79.1705 142.55 80.1405 141.61 81.0905 140.65C81.4605 140.28 81.8205 139.9 82.1905 139.52C83.3805 138.27 84.5505 136.99 85.6805 135.68C86.3606 134.89 87.0206 134.1 87.6806 133.29C87.7606 133.19 87.8406 133.09 87.9206 133C88.3706 132.44 88.8106 131.88 89.2506 131.31C90.6306 129.52 91.9706 127.69 93.2506 125.83C93.9406 124.82 94.6206 123.81 95.2906 122.78C95.6606 122.2 96.0306 121.62 96.3906 121.04C96.8906 120.24 97.3806 119.44 97.8706 118.63C95.6306 118.58 93.4006 118.55 91.1606 118.55L91.1706 118.52Z" fill="#f1ece2" fill-rule="evenodd" opacity="1" stroke="none"/>
<path d="M31.4602 159.6C31.3902 159.61 31.3302 159.6 31.3002 159.52C31.3802 159.5 31.4402 159.52 31.4602 159.6Z" fill="#c18b00" fill-rule="evenodd" opacity="1" stroke="none"/>
<path d="M77.8805 118.85C76.7605 118.9 75.6405 118.96 74.5205 119.03C73.2905 120.77 72.0205 122.48 70.7004 124.15C69.4004 125.79 68.0704 127.4 66.6704 128.96C65.8804 129.85 65.0704 130.72 64.2604 131.59C63.6804 132.2 63.0904 132.81 62.4904 133.4C60.0804 135.75 57.5604 137.98 54.8503 139.98C54.4003 140.31 53.9503 140.64 53.4803 140.96C51.9603 142.02 50.3803 143 48.7503 143.88C47.5703 144.52 46.3503 145.09 45.1103 145.61C45.1103 145.67 45.1103 145.73 45.1303 145.79C45.3003 146.27 45.4903 146.74 45.6903 147.2C45.8903 147.67 46.1003 148.12 46.3203 148.58C46.7603 149.49 47.2503 150.37 47.8003 151.23C47.8403 151.3 47.9003 151.34 47.9503 151.39C48.0403 151.36 48.1203 151.33 48.2103 151.31C49.8303 151.04 51.4003 150.58 52.9303 150.02C55.9604 148.91 58.7804 147.37 61.4604 145.59C62.9204 144.62 64.3204 143.59 65.6804 142.5C67.4204 141.11 69.0904 139.63 70.7104 138.08C72.5605 136.31 74.3105 134.46 76.0005 132.54C76.6705 131.78 77.3205 131.01 77.9705 130.23C81.0405 126.52 83.8605 122.61 86.4705 118.56C83.6105 118.61 80.7405 118.7 77.8805 118.84L77.8805 118.85Z" fill="#fdbf41" fill-rule="evenodd" opacity="1" stroke="none"/>
<path d="M134.491 75.64C134.491 75.64 134.461 75.64 134.441 75.64L134.491 75.64Z" fill="#e7aa24" fill-rule="evenodd" opacity="1" stroke="none"/>
<path d="M134.181 75.76C134.271 75.76 134.371 75.76 134.311 75.62C134.351 75.62 134.401 75.63 134.441 75.64C134.411 75.64 134.391 75.64 134.381 75.66C134.341 75.69 134.341 75.75 134.351 75.81C134.291 75.81 134.241 75.81 134.181 75.8C134.151 75.8 134.111 75.8 134.081 75.8C134.011 75.8 133.941 75.79 133.871 75.78C133.711 75.76 133.551 75.73 133.391 75.69C133.661 75.67 133.921 75.77 134.181 75.78L134.181 75.76Z" fill="#e7aa24" fill-rule="evenodd" opacity="1" stroke="none"/>
<path d="M52.5103 130.02C52.6203 130.04 52.7403 130.06 52.8503 130.08C50.6503 132.2 48.3503 134.19 45.8903 136.01C44.9903 136.67 44.1003 137.34 43.1303 137.9C42.9503 137.12 42.8703 136.33 42.7803 135.55C42.4703 133.03 42.3603 130.51 42.3503 127.98C42.9603 128.13 43.5703 128.27 44.1903 128.41C45.9803 128.82 47.7803 129.18 49.5903 129.52C50.5603 129.7 51.5403 129.87 52.5103 130.03L52.5103 130.02Z" fill="#f1ece2" fill-rule="evenodd" opacity="1" stroke="none"/>
<path d="M62.5604 120.06C62.3004 120.09 62.0404 120.12 61.7804 120.14C59.1904 123.43 56.4204 126.57 53.4303 129.52C53.2403 129.71 53.0503 129.89 52.8503 130.08C52.9403 130.09 53.0303 130.11 53.1103 130.13C53.0203 130.12 52.9303 130.1 52.8403 130.09C50.6403 132.21 48.3403 134.2 45.8803 136.02C44.9803 136.68 44.0903 137.35 43.1203 137.91C43.1203 138.02 43.1303 138.12 43.1503 138.23L43.1503 138.32C43.1703 138.44 43.2003 138.56 43.2203 138.68C43.2403 138.78 43.2503 138.87 43.2703 138.97C43.3203 139.21 43.3603 139.46 43.4103 139.7C43.6903 141.09 44.0203 142.46 44.4403 143.81C44.6303 144.42 44.7803 145.04 45.0803 145.6C46.3203 145.08 47.5403 144.51 48.7203 143.87C50.3603 142.99 51.9303 142.01 53.4503 140.95C53.9103 140.63 54.3703 140.31 54.8204 139.97C57.5304 137.97 60.0504 135.75 62.4604 133.39C63.0604 132.8 63.6504 132.19 64.2304 131.58C65.0504 130.72 65.8504 129.84 66.6404 128.95C68.0404 127.39 69.3704 125.78 70.6705 124.14C71.9905 122.47 73.2605 120.76 74.4905 119.02C70.5005 119.26 66.5104 119.6 62.5404 120.04L62.5604 120.06Z" fill="#ff1100" fill-rule="evenodd" opacity="1" stroke="none"/>
<path d="M53.1103 130.12C53.0203 130.11 52.9303 130.09 52.8403 130.08C52.9303 130.09 53.0203 130.11 53.1003 130.12L53.1103 130.12Z" fill="#f1ece2" fill-rule="evenodd" opacity="1" stroke="none"/>
<path d="M52.8503 130.07C52.7403 130.05 52.6303 130.03 52.5103 130.01L52.8503 130.07Z" fill="#ff1100" fill-rule="evenodd" opacity="1" stroke="none"/>
<path d="M49.5903 129.51C50.5603 129.69 51.5403 129.86 52.5103 130.02C51.5403 129.86 50.5603 129.69 49.5903 129.51Z" fill="#ff1100" fill-rule="evenodd" opacity="1" stroke="none"/>
<path d="M60.0704 120.38C60.6404 120.26 61.2104 120.2 61.7804 120.14C59.1904 123.43 56.4204 126.57 53.4303 129.52C53.2403 129.71 53.0503 129.89 52.8503 130.08L52.5103 130.02C51.5403 129.86 50.5603 129.69 49.5903 129.51C47.7803 129.18 45.9803 128.81 44.1903 128.4C43.5803 128.26 42.9703 128.11 42.3503 127.97C42.3503 127.02 42.3603 126.06 42.3903 125.1C42.4103 124.53 42.4303 123.97 42.4603 123.4C44.5403 122.9 46.6303 122.47 48.7403 122.07C52.3303 121.39 55.9404 120.84 59.5604 120.39C59.6204 120.39 59.6804 120.37 59.7304 120.37C59.8004 120.37 59.8604 120.35 59.9304 120.36C59.9704 120.36 60.0104 120.36 60.0504 120.38L60.0704 120.38Z" fill="#fdbf41" fill-rule="evenodd" opacity="1" stroke="none"/>
<path d="M124.101 74.38C126.201 74.64 128.291 74.89 130.391 75.15C130.381 75.17 130.361 75.19 130.341 75.21C129.041 75.05 127.731 74.9 126.431 74.73C126.051 74.68 125.671 74.65 125.291 74.61C124.911 74.57 124.531 74.53 124.161 74.45C124.141 74.43 124.121 74.4 124.091 74.38L124.101 74.38Z" fill="#007fff" fill-rule="evenodd" opacity="1" stroke="none"/>
<path d="M113.831 80.89C113.911 80.59 113.981 80.29 114.061 79.99C113.981 80.29 113.911 80.59 113.831 80.89Z" fill="#f1ece2" fill-rule="evenodd" opacity="1" stroke="none"/>
<path d="M174.051 122.99C174.051 120.11 174.051 117.23 174.051 114.34C173.861 113.54 173.621 112.75 173.171 112.05C172.451 110.91 171.591 109.9 170.521 109.07C169.401 108.2 168.251 107.38 167.011 106.69C165.311 105.74 163.541 104.93 161.771 104.13C161.451 103.99 161.131 103.92 160.811 103.79C156.801 102.22 152.671 101.04 148.491 100.03C145.811 99.38 143.121 98.82 140.411 98.31C137.371 97.74 134.321 97.25 131.261 96.83C129.151 96.54 127.041 96.28 124.921 96.04C123.981 95.94 123.041 95.83 122.091 95.74C119.421 95.48 116.761 95.24 114.091 95.05C112.511 94.93 110.941 94.83 109.361 94.75C108.021 94.68 106.681 94.61 105.341 94.55C103.231 94.45 101.121 94.38 99.0106 94.33C98.8606 94.33 98.7006 94.33 98.5506 94.32C95.2206 94.25 91.8806 94.23 88.5506 94.25C88.5006 94.25 88.4406 94.25 88.3906 94.25C84.9605 94.28 81.5305 94.36 78.1005 94.5C77.8905 94.5 77.6905 94.52 77.4905 94.53C73.4305 94.7 69.3804 94.96 65.3404 95.3C59.4004 95.8 53.4803 96.48 47.5803 97.41C47.4403 97.43 47.3003 97.45 47.1603 97.48C46.9303 98.28 46.7303 99.09 46.4403 99.87C46.2403 100.67 46.0403 101.47 45.8403 102.27C45.3003 104.39 44.8103 106.53 44.3803 108.67L45.2803 108.52C45.6703 108.45 46.0703 108.39 46.4603 108.32C47.0403 108.22 47.6303 108.13 48.2103 108.04C50.3203 107.71 52.4403 107.42 54.5604 107.15C56.6804 106.88 58.8004 106.65 60.9304 106.43C62.3504 106.29 63.7704 106.16 65.1904 106.04C67.3404 105.86 69.4904 105.71 71.6505 105.57C73.6805 105.45 75.7005 105.34 77.7305 105.26C78.2505 105.24 78.7705 105.21 79.2905 105.19C80.0605 105.16 80.8405 105.14 81.6205 105.11C82.1205 105.1 82.6205 105.08 83.1205 105.07C84.9505 105.03 86.7706 105 88.6006 104.98C89.2906 104.98 89.9706 104.98 90.6606 104.97C91.8406 104.97 93.0206 104.97 94.1906 104.98C94.6206 104.98 95.0406 104.98 95.4706 104.99C95.9306 104.99 96.3906 105 96.8506 105.01C98.1006 105.03 99.3406 105.06 100.591 105.1C101.841 105.14 103.081 105.18 104.331 105.23C104.541 105.23 104.741 105.25 104.951 105.26C106.291 105.32 107.621 105.38 108.961 105.46C109.991 105.52 111.011 105.58 112.041 105.65C113.581 105.75 115.121 105.86 116.661 105.99C118.081 106.11 119.491 106.24 120.911 106.38C120.961 106.38 121.011 106.38 121.061 106.39C122.081 106.49 123.091 106.59 124.111 106.69C125.741 106.85 127.361 107.05 128.991 107.26C130.611 107.47 132.231 107.71 133.851 107.95C134.521 108.05 135.201 108.15 135.871 108.26C137.881 108.58 139.901 108.95 141.901 109.34C143.081 109.57 144.251 109.81 145.431 110.07C146.601 110.33 147.771 110.59 148.941 110.88C150.711 111.32 152.481 111.78 154.221 112.3C156.551 112.99 158.851 113.75 161.111 114.65C161.681 114.87 162.241 115.11 162.801 115.35C163.651 115.72 164.491 116.12 165.321 116.53C165.521 116.63 165.731 116.73 165.931 116.84L166.411 117.08C166.621 117.18 166.831 117.29 167.041 117.41C167.301 117.55 167.561 117.7 167.811 117.87C168.751 118.52 169.711 119.13 170.581 119.87C170.781 120.04 170.981 120.22 171.171 120.4C171.401 120.59 171.611 120.79 171.821 121C172.161 121.34 172.481 121.71 172.761 122.1C172.901 122.29 173.031 122.48 173.141 122.69C173.241 122.86 173.341 123.04 173.431 123.22C173.521 123.4 173.601 123.59 173.681 123.78C173.761 123.97 173.831 124.16 173.891 124.36C173.931 124.5 173.981 124.64 174.021 124.78C174.061 124.92 174.021 124.78 174.021 124.8L174.021 124.78C174.131 124.2 174.061 123.61 174.071 123.02L174.051 122.99Z" fill="#f1ece2" fill-rule="evenodd" opacity="1" stroke="none"/>
<path d="M174.081 113.2C174.081 111.02 174.081 108.83 174.081 106.65C174.081 105.64 174.071 104.63 174.061 103.63C173.891 103.06 173.771 102.48 173.501 101.93C172.841 100.57 171.861 99.47 170.721 98.5C169.481 97.43 168.101 96.54 166.661 95.75C164.571 94.6 162.401 93.62 160.171 92.79C157.581 91.83 154.951 90.98 152.291 90.26C150.251 89.71 148.211 89.2 146.151 88.73C143.811 88.2 141.451 87.73 139.091 87.32C136.631 86.89 134.181 86.48 131.701 86.14C130.531 85.98 129.361 85.82 128.191 85.68C125.571 85.34 122.941 85.05 120.311 84.82C119.821 84.78 119.341 84.7 118.851 84.67C116.861 84.52 114.871 84.37 112.891 84.23C112.611 84.21 112.321 84.19 112.041 84.17C110.711 84.07 109.391 83.98 108.061 83.91C106.331 83.82 104.611 83.76 102.881 83.7C102.861 83.7 102.851 83.7 102.831 83.7C101.031 83.64 99.2206 83.57 97.4206 83.54C95.8306 83.51 94.2406 83.5 92.6506 83.49C91.9506 83.49 91.2506 83.49 90.5506 83.49C87.7606 83.49 84.9805 83.53 82.1905 83.61C82.1505 83.61 82.1105 83.61 82.0705 83.61C78.8005 83.71 75.5305 83.84 72.2705 84.05C69.7604 84.21 67.2504 84.35 64.7404 84.56C63.7304 84.65 62.7104 84.77 61.7004 84.87C58.1704 85.22 54.6504 85.63 51.1303 86.13C51.0903 86.13 51.0503 86.14 51.0103 86.15C49.6103 89.78 48.3403 93.47 47.2303 97.22C47.2003 97.31 47.1803 97.41 47.1503 97.5C47.2903 97.48 47.4303 97.45 47.5703 97.43C53.4603 96.5 59.3804 95.82 65.3304 95.32C69.3804 94.98 73.4305 94.73 77.4805 94.55C77.6805 94.55 77.8905 94.53 78.0905 94.52C81.5205 94.38 84.9505 94.3 88.3806 94.27L88.5406 94.27C91.8806 94.24 95.2106 94.27 98.5406 94.34C98.6906 94.34 98.8406 94.34 99.0006 94.35C101.111 94.4 103.221 94.47 105.331 94.57C106.671 94.63 108.011 94.7 109.351 94.77C110.931 94.86 112.501 94.96 114.081 95.07C116.751 95.26 119.421 95.5 122.081 95.76C123.021 95.85 123.961 95.95 124.911 96.06C127.031 96.3 129.141 96.56 131.251 96.85C134.311 97.27 137.361 97.76 140.401 98.33C143.111 98.84 145.801 99.39 148.481 100.05C152.661 101.07 156.791 102.25 160.801 103.81C161.121 103.93 161.441 104.01 161.761 104.15C163.531 104.95 165.301 105.75 167.001 106.71C168.241 107.4 169.381 108.22 170.511 109.09C171.581 109.92 172.441 110.94 173.161 112.07C173.611 112.78 173.861 113.56 174.041 114.36C174.111 113.98 174.071 113.6 174.071 113.22L174.081 113.2Z" fill="#fdbf41" fill-rule="evenodd" opacity="1" stroke="none"/>
<path d="M112.201 30.68C113.651 32.95 114.701 35.4 115.501 37.97C115.751 38.77 115.971 39.57 116.171 40.37C116.501 41.71 116.761 43.07 116.971 44.44C117.031 44.84 117.091 45.24 117.141 45.64C117.241 46.44 117.331 47.25 117.401 48.06C117.431 48.46 117.471 48.87 117.491 49.27C117.641 51.47 117.701 53.67 117.641 55.87C117.581 58.18 117.441 60.48 117.211 62.78C116.981 65.07 116.661 67.34 116.281 69.6C116.051 70.96 115.801 72.31 115.531 73.66C113.351 73.49 111.171 73.34 108.991 73.23C107.941 73.18 106.891 73.13 105.841 73.07C106.551 70.02 107.151 66.94 107.621 63.84C108.141 60.4 108.501 56.95 108.641 53.49C108.751 50.54 108.741 47.59 108.501 44.64C108.301 42.18 107.971 39.75 107.441 37.34C106.851 34.63 106.011 32 104.811 29.49C104.341 28.49 103.781 27.54 103.221 26.6C103.681 26.45 104.161 26.44 104.621 26.39C104.871 26.36 105.111 26.34 105.361 26.33C105.571 26.32 105.781 26.31 105.991 26.3L107.011 26.3C107.251 26.3 107.491 26.32 107.731 26.33C107.911 26.33 108.101 26.35 108.281 26.36C108.311 26.36 108.341 26.36 108.371 26.37C108.431 26.38 108.481 26.4 108.531 26.42C108.581 26.44 108.631 26.47 108.681 26.5C108.751 26.54 108.821 26.6 108.881 26.66C109.041 26.81 109.201 26.96 109.351 27.11C109.661 27.42 109.961 27.73 110.251 28.06C110.971 28.88 111.621 29.75 112.211 30.67L112.201 30.68Z" fill="#f1ece2" fill-rule="evenodd" opacity="1" stroke="none"/>
<path d="M107.421 37.35C107.951 39.76 108.281 42.19 108.481 44.65C108.721 47.6 108.741 50.55 108.621 53.5C108.491 56.97 108.121 60.42 107.601 63.85C107.131 66.96 106.531 70.03 105.821 73.08C105.021 73.04 104.231 73 103.431 72.97C101.611 72.9 99.7906 72.86 97.9706 72.82C97.2906 72.81 96.6106 72.79 95.9406 72.78C96.6006 70.28 97.1906 67.76 97.6906 65.22C98.0706 63.32 98.4006 61.41 98.6906 59.49C98.8806 58.21 99.0506 56.92 99.1906 55.63C99.3406 54.28 99.4606 52.93 99.5506 51.57C99.6406 50.12 99.7006 48.67 99.7306 47.22C99.7606 45.28 99.7006 43.34 99.5606 41.4C99.4706 40.12 99.3406 38.85 99.1806 37.57C98.9606 35.83 98.6406 34.1 98.2306 32.4C97.9006 31.03 97.5206 29.68 97.0206 28.36C97.3706 28.14 97.7706 28.03 98.1506 27.89C98.9306 27.6 99.7206 27.35 100.511 27.13C101.311 26.91 102.121 26.73 102.941 26.59C103.001 26.58 103.051 26.57 103.111 26.56C103.141 26.56 103.181 26.56 103.211 26.57C103.771 27.52 104.331 28.47 104.801 29.46C106.001 31.97 106.841 34.6 107.431 37.31L107.421 37.35Z" fill="#fdbf41" fill-rule="evenodd" opacity="1" stroke="none"/>
<path d="M130.301 32.89C130.301 32.89 130.281 32.87 130.281 32.86C130.281 32.86 130.281 32.85 130.281 32.84L130.311 32.86L130.311 32.89L130.301 32.89Z" fill="#3180f4" fill-rule="evenodd" opacity="1" stroke="none"/>
<path d="M174.041 135.13C174.041 134.99 174.061 134.86 174.061 134.72C174.061 132.47 174.061 130.21 174.061 127.96C174.061 126.99 174.041 126.01 174.041 125.04C174.041 124.98 174.071 124.92 174.061 124.86C174.051 124.8 174.021 124.79 174.011 124.76C174.001 124.73 174.011 124.76 174.011 124.76C173.971 124.62 173.921 124.48 173.881 124.34C173.821 124.14 173.751 123.95 173.671 123.76C173.591 123.57 173.511 123.38 173.421 123.2C173.331 123.02 173.231 122.84 173.131 122.67C173.011 122.47 172.881 122.27 172.751 122.08C172.471 121.69 172.161 121.33 171.811 120.98C171.601 120.77 171.391 120.57 171.161 120.38C170.971 120.19 170.781 120.02 170.571 119.85C169.701 119.11 168.741 118.5 167.801 117.85C167.551 117.68 167.301 117.53 167.031 117.39C166.821 117.28 166.621 117.17 166.401 117.06C166.241 116.98 166.081 116.9 165.921 116.82C165.721 116.72 165.511 116.62 165.311 116.51C164.481 116.1 163.641 115.7 162.791 115.33C162.231 115.09 161.671 114.86 161.101 114.63C158.841 113.73 156.541 112.96 154.211 112.28C152.461 111.76 150.701 111.3 148.931 110.86C147.761 110.57 146.601 110.3 145.421 110.05C144.251 109.8 143.071 109.55 141.891 109.32C139.891 108.92 137.871 108.56 135.861 108.24C135.191 108.13 134.521 108.03 133.841 107.93C132.221 107.69 130.601 107.45 128.981 107.24C127.361 107.02 125.731 106.83 124.101 106.67C123.081 106.57 122.071 106.47 121.051 106.37C121.001 106.37 120.951 106.37 120.901 106.36C119.481 106.22 118.071 106.09 116.651 105.97C115.111 105.85 113.571 105.74 112.031 105.63C111.001 105.56 109.981 105.5 108.951 105.44C107.611 105.37 106.281 105.3 104.941 105.24C104.731 105.24 104.531 105.22 104.321 105.21C103.071 105.16 101.831 105.11 100.581 105.08C99.3306 105.04 98.0906 105.01 96.8406 104.99C96.3806 104.99 95.9206 104.98 95.4606 104.97C95.0306 104.97 94.6106 104.97 94.1806 104.96C93.0006 104.96 91.8206 104.95 90.6506 104.95C89.9606 104.95 89.2706 104.95 88.5906 104.96C86.7605 104.97 84.9405 105 83.1105 105.05C82.6105 105.06 82.1105 105.07 81.6105 105.09C80.8305 105.11 80.0605 105.14 79.2805 105.17C78.7605 105.19 78.2405 105.21 77.7205 105.24C75.6905 105.33 73.6705 105.43 71.6405 105.55C69.4904 105.68 67.3304 105.84 65.1804 106.02C63.7604 106.14 62.3404 106.27 60.9204 106.41C58.7904 106.62 56.6704 106.86 54.5503 107.13C52.4303 107.4 50.3103 107.69 48.2003 108.02C47.6103 108.11 47.0303 108.21 46.4503 108.3C46.0603 108.36 45.6603 108.43 45.2703 108.5L44.3703 108.65C44.8003 106.5 45.2903 104.37 45.8303 102.25C46.0303 101.45 46.2303 100.65 46.4303 99.85C46.7203 99.07 46.9203 98.26 47.1503 97.46C47.1803 97.37 47.2003 97.27 47.2303 97.18C48.3403 93.44 49.6103 89.75 51.0103 86.11C51.9003 83.8 52.8503 81.52 53.8503 79.26C54.5203 77.74 55.2203 76.24 55.9404 74.74C58.3304 69.81 60.9704 65.02 63.9104 60.37C66.6504 56.02 69.6404 51.85 72.9105 47.88C72.9805 47.8 73.0305 47.71 73.0905 47.62C74.0705 46.49 75.0405 45.35 76.0505 44.25C79.3305 40.62 82.8505 37.27 86.7605 34.32C87.7206 33.6 88.7206 32.91 89.7006 32.21C89.7906 32.15 89.9006 32.14 90.0106 32.13C90.0606 31.99 90.1906 31.93 90.3006 31.85C92.3206 30.56 94.4106 29.41 96.6206 28.49C96.7006 28.46 96.7706 28.42 96.8606 28.39C96.8806 28.39 96.9106 28.38 96.9406 28.37L97.0206 28.37C97.3706 28.15 97.7706 28.04 98.1506 27.9C98.9306 27.61 99.7206 27.36 100.511 27.14C101.311 26.92 102.121 26.74 102.941 26.6C103.001 26.59 103.051 26.58 103.111 26.57C103.141 26.57 103.181 26.57 103.211 26.58C103.671 26.43 104.151 26.42 104.611 26.37C104.861 26.34 105.101 26.32 105.351 26.31C105.561 26.3 105.771 26.29 105.981 26.28L107.001 26.28C107.241 26.28 107.481 26.3 107.721 26.31C107.901 26.31 108.091 26.33 108.271 26.34C108.301 26.34 108.331 26.34 108.361 26.35C108.421 26.36 108.471 26.38 108.521 26.4C108.571 26.42 108.621 26.45 108.671 26.48C108.741 26.52 108.811 26.58 108.871 26.64C109.031 26.79 109.191 26.94 109.341 27.09C109.651 27.4 109.951 27.71 110.241 28.04C110.961 28.86 111.611 29.73 112.201 30.65C113.651 32.92 114.701 35.37 115.501 37.94C115.751 38.74 115.971 39.54 116.171 40.34C116.501 41.68 116.761 43.04 116.971 44.41C117.031 44.81 117.091 45.21 117.141 45.61C117.241 46.41 117.331 47.22 117.401 48.03C117.431 48.43 117.471 48.84 117.491 49.24C117.641 51.44 117.701 53.64 117.641 55.84C117.581 58.15 117.441 60.45 117.211 62.75C116.981 65.04 116.661 67.31 116.281 69.57C116.051 70.93 115.801 72.28 115.531 73.63C115.881 73.66 116.231 73.68 116.591 73.71C119.121 73.92 121.651 74.17 124.171 74.41C124.151 74.39 124.131 74.36 124.101 74.34C126.201 74.6 128.291 74.85 130.391 75.11C130.381 75.13 130.361 75.15 130.341 75.17C130.471 75.19 130.591 75.21 130.721 75.22C131.141 73.15 131.521 71.07 131.841 68.98C132.131 67.11 132.371 65.23 132.571 63.34C132.761 61.58 132.921 59.81 133.001 58.04C133.041 57.19 133.091 56.33 133.141 55.48C133.141 55.37 133.091 55.22 133.261 55.17C133.261 53.58 133.261 51.99 133.251 50.4C133.161 50.37 133.161 50.29 133.151 50.21C133.131 49.89 133.091 49.57 133.081 49.25C133.021 46.94 132.801 44.65 132.491 42.36C132.151 39.83 131.641 37.33 130.941 34.88C130.771 34.27 130.621 33.64 130.351 33.06L130.291 32.85C130.291 32.85 130.271 32.83 130.271 32.82C130.271 32.82 130.271 32.81 130.271 32.8C130.251 32.73 130.241 32.65 130.221 32.58C129.201 29.65 127.881 26.87 126.051 24.34C124.291 21.91 122.171 19.86 119.561 18.35C118.581 17.78 117.521 17.38 116.511 16.87C116.421 16.83 116.301 16.83 116.201 16.81C116.111 16.69 115.971 16.66 115.851 16.61C113.481 15.56 111.111 14.51 108.731 13.46C108.421 13.33 108.151 13.12 107.801 13.08C107.741 13.06 107.691 13.04 107.631 13.02C107.231 12.89 106.811 12.8 106.421 12.61C106.391 12.6 106.351 12.59 106.321 12.57C106.301 12.57 106.281 12.56 106.271 12.55L106.261 12.55C106.261 12.55 106.191 12.56 106.161 12.52C105.401 12.33 104.631 12.18 103.861 12.07C103.301 11.99 102.741 11.93 102.181 11.9C101.991 11.89 101.801 11.88 101.621 11.88C101.061 11.87 100.501 11.88 99.9406 11.9C99.2006 11.93 98.4606 12 97.7306 12.1C96.4406 12.28 95.1706 12.55 93.9106 12.9C93.7306 12.95 93.5506 13 93.3706 13.06C91.0006 13.76 88.7306 14.72 86.5505 15.84C85.8205 16.22 85.1005 16.61 84.3905 17.02C83.7405 17.39 83.1005 17.78 82.4605 18.18C82.2505 18.31 82.0405 18.45 81.8305 18.58C81.6205 18.72 81.4105 18.85 81.2105 18.99C80.7905 19.27 80.3805 19.55 79.9805 19.85C79.7805 20 79.5805 20.14 79.3705 20.29L79.3705 20.33C79.3705 20.34 79.3605 20.35 79.3505 20.36C79.3405 20.37 79.3105 20.38 79.2805 20.38L79.2805 20.41C79.2805 20.41 79.2705 20.44 79.2605 20.45C79.2605 20.45 79.2405 20.45 79.2205 20.45C79.2205 20.45 79.2105 20.45 79.2005 20.45C78.3105 21.07 77.4405 21.73 76.5905 22.41C76.2105 22.71 75.8405 23.02 75.4705 23.33C75.4105 23.38 75.3505 23.43 75.3005 23.48C74.9205 23.8 74.5405 24.13 74.1705 24.46L74.1705 24.49C74.1705 24.51 74.1605 24.53 74.1405 24.55C74.1405 24.55 74.1405 24.55 74.1205 24.55C74.1105 24.55 74.1005 24.55 74.0805 24.55C74.0705 24.57 74.0505 24.59 74.0405 24.61C74.0205 24.63 74.0005 24.65 73.9805 24.67C73.9505 24.69 73.9105 24.71 73.8705 24.72C73.8705 24.77 73.8605 24.79 73.8405 24.81C73.8105 24.83 73.7505 24.81 73.7105 24.82C73.5705 24.97 73.4205 25.11 73.2805 25.26C73.2805 25.27 73.2605 25.28 73.2505 25.29L73.2505 25.31C73.2505 25.33 73.2405 25.34 73.2305 25.36C73.2205 25.38 73.2005 25.38 73.1705 25.37C73.0405 25.47 72.9105 25.57 72.7805 25.68C72.7705 25.68 72.7605 25.7 72.7505 25.71C72.2805 26.15 71.8205 26.59 71.3604 27.03C71.3304 27.06 71.3004 27.09 71.2704 27.12C71.1304 27.26 70.9804 27.4 70.8304 27.53C70.4604 27.87 70.0804 28.2 69.7304 28.56C69.5404 28.75 69.3504 28.95 69.1604 29.14C68.0604 30.25 66.9804 31.37 65.9304 32.53C64.5904 34.01 63.2904 35.51 62.0304 37.05C61.8504 37.27 61.6704 37.49 61.4904 37.71C61.4604 37.74 61.4304 37.78 61.4104 37.82C61.3704 37.87 61.3404 37.93 61.3004 37.98C61.2504 38.05 61.2104 38.13 61.1604 38.19C61.1204 38.24 61.0904 38.29 61.0504 38.34C61.0404 38.35 61.0304 38.37 61.0104 38.38C60.9504 38.44 60.8904 38.5 60.8204 38.55C60.8204 38.56 60.8204 38.57 60.8104 38.58C60.8104 38.59 60.8104 38.6 60.8004 38.61C60.8004 38.61 60.7904 38.62 60.7804 38.63C60.7804 38.63 60.7604 38.64 60.7404 38.65C60.7104 38.8 60.5904 38.87 60.4904 38.97C60.4904 38.97 60.4804 38.98 60.4704 38.99C60.4404 39.02 60.4204 39.05 60.3904 39.08C60.3904 39.1 60.3704 39.11 60.3704 39.13C60.3704 39.15 60.3504 39.17 60.3504 39.19L60.3504 39.22C60.3504 39.25 60.3404 39.26 60.3204 39.28L60.2904 39.28L60.2704 39.3C60.0404 39.59 59.8004 39.88 59.5704 40.17C59.5604 40.19 59.5504 40.2 59.5304 40.22L59.5304 40.32C59.5304 40.34 59.5204 40.36 59.5004 40.38L59.5004 40.4C59.5004 40.4 59.4504 40.44 59.4304 40.45C59.4104 40.47 59.3704 40.48 59.3404 40.49C59.3004 40.53 59.2704 40.57 59.2304 40.61C59.2204 40.62 59.2004 40.64 59.1904 40.65C59.1604 40.68 59.1304 40.72 59.1004 40.75C58.5004 41.55 57.9104 42.35 57.3104 43.15C57.3104 43.17 57.3004 43.19 57.2804 43.21L57.2704 43.21C57.2704 43.21 57.2404 43.24 57.2304 43.24C56.8204 43.82 56.4004 44.39 55.9904 44.98C55.9104 45.1 55.8304 45.21 55.7503 45.33C55.1403 46.22 54.5803 47.13 53.9603 48.02C53.6603 48.46 53.3703 48.91 53.0703 49.36C52.7803 49.81 52.4803 50.26 52.1603 50.69C51.6503 51.39 51.2103 52.15 50.7603 52.9C50.5703 53.22 50.3703 53.54 50.1803 53.86C48.0203 57.45 45.9203 61.08 44.1303 64.87C44.0303 65.09 43.9103 65.3 43.7803 65.5C43.6603 65.71 43.5303 65.91 43.4303 66.13C42.8203 67.36 42.2203 68.59 41.6503 69.83C41.4303 70.29 41.2203 70.76 41.0103 71.22C40.7303 71.83 40.4603 72.44 40.1903 73.05C39.8502 73.83 39.5102 74.6 39.1702 75.39C39.0302 75.72 38.8902 76.05 38.7502 76.38C38.5702 76.79 38.4002 77.2 38.2302 77.62C37.6302 79.08 37.0502 80.55 36.4902 82.03C36.3302 82.46 36.1602 82.9 36.0002 83.33C35.6102 84.38 35.2402 85.44 34.8702 86.49C34.7802 86.74 34.6902 86.99 34.6002 87.25C34.5302 87.45 34.4702 87.65 34.4002 87.84C34.2302 88.34 34.0602 88.85 33.9102 89.35C33.7202 89.97 33.5302 90.58 33.3402 91.2C33.2002 91.64 33.0702 92.08 32.9202 92.52C32.6002 93.5 32.2202 94.48 32.1002 95.52C32.1002 95.57 32.0302 95.62 32.0002 95.67C31.8402 96.1 31.7502 96.54 31.6402 96.99C31.5902 97.2 31.5202 97.41 31.4602 97.62C31.4002 97.83 31.3302 98.04 31.2702 98.25C31.0302 99.16 30.7902 100.07 30.5702 100.98C30.3702 101.8 30.1702 102.63 29.9802 103.46C29.7702 104.39 29.5702 105.32 29.3802 106.26C29.2102 107.08 29.0502 107.89 28.9002 108.72C28.7802 109.37 28.6602 110.02 28.5502 110.67C28.4502 111.24 28.3602 111.82 28.2702 112.39C28.1502 113.12 28.0402 113.85 27.9402 114.58C27.8502 115.24 27.7602 115.89 27.6802 116.55C27.4602 118.35 27.2802 120.16 27.1402 121.98C27.1002 122.5 27.0702 123.02 27.0402 123.54C27.0102 124.06 26.9802 124.58 26.9602 125.1C26.9202 126.14 26.8902 127.18 26.8602 128.22L26.8602 128.93L26.8602 129.15C26.8602 130.48 26.9102 131.81 26.9502 133.13L26.9502 133.31C26.9502 133.55 26.9702 133.78 26.9902 134.02C27.0402 134.98 27.1202 135.94 27.2202 136.89C27.2902 137.54 27.3602 138.19 27.4502 138.84C27.4602 138.93 27.4802 139.03 27.4902 139.12C27.6702 140.43 27.8702 141.74 28.1302 143.05C28.6102 145.48 29.2502 147.87 30.1202 150.19C30.1302 150.23 30.1502 150.27 30.1702 150.31C30.8202 152.03 31.5802 153.7 32.5102 155.29C34.0402 157.91 35.9102 160.22 38.2902 162.07C38.5702 162.29 38.8602 162.5 39.1602 162.71C39.4502 162.91 39.7502 163.08 40.0502 163.26C40.1002 163.29 40.1603 163.32 40.2203 163.35C40.2603 163.37 40.3103 163.39 40.3503 163.41C40.4203 163.45 40.4903 163.49 40.5403 163.56C40.5603 163.58 40.5703 163.61 40.5903 163.64C40.6703 163.62 40.7403 163.64 40.7803 163.72C40.8603 163.72 40.9203 163.74 40.9603 163.81L41.0103 163.81C41.0103 163.81 41.1003 163.84 41.1303 163.89C41.1603 163.94 41.1403 163.89 41.1503 163.89L41.1803 163.89L41.2103 163.89L41.2303 163.89C41.2303 163.89 41.2503 163.9 41.2603 163.91L41.2703 163.91C41.2703 163.91 41.2903 163.94 41.3003 163.95C41.4003 164.06 41.5403 164.09 41.6603 164.14C44.2903 165.31 46.9203 166.47 49.5503 167.63C50.8503 168.21 52.1403 168.81 53.5203 169.19C54.8903 169.57 56.2904 169.82 57.7204 169.88L58.4304 169.88L60.5604 169.88C61.2504 169.86 61.9304 169.77 62.6104 169.67C65.3704 169.26 68.0304 168.44 70.5904 167.34C75.2805 165.32 79.5205 162.57 83.5005 159.38C84.3705 158.68 85.2305 157.96 86.0705 157.23C89.0206 157.28 91.9706 157.3 94.9206 157.27C97.7306 157.24 100.551 157.19 103.361 157.08C103.501 157 103.641 157 103.791 157.06L103.921 157.06C104.091 156.98 104.261 156.99 104.441 157.04L104.571 157.04C104.671 156.98 104.781 156.97 104.881 156.99L104.901 156.99C104.901 156.99 104.971 157.01 105.001 157.02L105.131 157.02C105.201 156.98 105.271 156.96 105.341 156.96C105.411 156.96 105.491 156.97 105.561 157L105.691 157C105.741 156.97 105.781 156.96 105.831 156.95C105.921 156.93 106.021 156.95 106.121 156.98L106.241 156.98L106.261 156.98C106.401 156.91 106.541 156.91 106.681 156.96L106.801 156.96C106.941 156.87 107.091 156.88 107.231 156.93L107.351 156.93C107.491 156.84 107.641 156.85 107.791 156.91L107.911 156.91C107.941 156.89 107.971 156.88 107.991 156.87C108.041 156.85 108.081 156.85 108.131 156.85C108.171 156.85 108.221 156.86 108.261 156.88C108.901 156.85 109.541 156.83 110.181 156.79C115.091 156.5 120.001 156.11 124.891 155.57C132.321 154.75 139.711 153.63 147.001 151.97C151.971 150.84 156.871 149.48 161.611 147.57C164.151 146.54 166.621 145.37 168.901 143.83C170.281 142.9 171.551 141.86 172.571 140.53C173.211 139.68 173.731 138.77 173.941 137.71C174.021 137.63 174.051 137.52 174.061 137.42C174.111 136.66 174.141 135.9 174.061 135.14L174.041 135.13ZM108.061 119.03C106.691 118.95 105.331 118.87 103.961 118.81C105.331 118.87 106.691 118.95 108.061 119.03ZM77.7105 143.88C77.4905 144.08 77.2705 144.27 77.0505 144.47C75.5005 145.83 73.9005 147.13 72.2305 148.33C70.5604 149.53 68.8304 150.64 67.0204 151.64C66.7604 151.78 66.5004 151.92 66.2404 152.06C65.6404 152.38 65.0304 152.68 64.4104 152.96C63.7904 153.24 63.1704 153.51 62.5304 153.75C61.2604 154.24 59.9704 154.65 58.6404 154.97C58.0604 155.11 57.4804 155.22 56.9004 155.31C56.7004 155.34 56.4904 155.38 56.2903 155.4C55.5003 155.51 54.7103 155.57 53.9203 155.59C53.6503 155.59 53.3903 155.59 53.1203 155.59C52.8503 155.59 52.5903 155.58 52.3203 155.57C52.2003 155.57 52.0903 155.55 51.9803 155.54C51.8703 155.53 51.7503 155.51 51.6403 155.5C51.5003 155.49 51.3803 155.43 51.2703 155.33C50.9603 155.04 50.6503 154.75 50.3603 154.45C49.9203 154 49.5103 153.52 49.1203 153.03C48.8603 152.7 48.6103 152.36 48.3703 152.02C48.2503 151.85 48.1303 151.67 48.0203 151.5C48.0103 151.49 48.0103 151.47 48.0003 151.45C48.0003 151.42 47.9903 151.39 47.9803 151.37C47.9303 151.32 47.8703 151.28 47.8303 151.22C47.2903 150.35 46.8003 149.46 46.3503 148.56C46.1303 148.1 45.9203 147.65 45.7203 147.18C45.5203 146.71 45.3303 146.24 45.1603 145.77C45.1403 145.71 45.1403 145.65 45.1403 145.59C44.8403 145.02 44.6803 144.4 44.5003 143.8C44.0803 142.45 43.7503 141.07 43.4703 139.69C43.4203 139.44 43.3703 139.2 43.3303 138.96C43.3103 138.86 43.3003 138.77 43.2803 138.67C43.2603 138.55 43.2303 138.43 43.2103 138.31C43.2103 138.28 43.2103 138.25 43.2103 138.22C43.2003 138.11 43.1903 138.01 43.1803 137.9C43.0003 137.12 42.9203 136.33 42.8303 135.55C42.5203 133.03 42.4103 130.51 42.4003 127.98C42.4003 127.03 42.4103 126.07 42.4403 125.11C42.4603 124.54 42.4803 123.98 42.5103 123.41C44.5903 122.91 46.6803 122.48 48.7903 122.08C52.3803 121.4 55.9903 120.85 59.6104 120.4C59.6704 120.4 59.7304 120.38 59.7804 120.38C59.8504 120.38 59.9104 120.36 59.9804 120.37C60.0204 120.37 60.0604 120.37 60.1004 120.39C60.6704 120.27 61.2404 120.21 61.8104 120.15C62.0704 120.12 62.3304 120.1 62.5904 120.07C66.5704 119.63 70.5504 119.29 74.5405 119.05C75.6605 118.98 76.7805 118.92 77.9005 118.87C80.7605 118.73 83.6305 118.64 86.4905 118.59C88.0606 118.56 89.6306 118.54 91.1906 118.54C93.4306 118.54 95.6606 118.57 97.9006 118.62C97.4206 119.43 96.9206 120.23 96.4206 121.03C96.0606 121.61 95.6906 122.19 95.3206 122.77C94.6506 123.8 93.9706 124.81 93.2806 125.82C92.0006 127.68 90.6606 129.51 89.2806 131.3C88.8406 131.87 88.4006 132.43 87.9506 132.99C87.8706 133.09 87.7906 133.19 87.7105 133.28C87.0605 134.09 86.3905 134.89 85.7105 135.67C84.5805 136.98 83.4205 138.26 82.2205 139.51C81.8605 139.89 81.4905 140.27 81.1205 140.64C80.1705 141.6 79.1905 142.53 78.2005 143.45C78.5105 143.46 78.8105 143.48 79.1205 143.49C78.8105 143.48 78.5105 143.46 78.2005 143.45C78.0405 143.6 77.8805 143.75 77.7105 143.9L77.7105 143.88ZM83.0305 143.63C84.1905 143.67 85.3505 143.7 86.5105 143.72C85.3505 143.7 84.1905 143.67 83.0305 143.63ZM159.571 131.3C159.571 131.3 159.491 131.38 159.401 131.45C159.291 131.54 159.181 131.62 159.071 131.7C158.961 131.78 158.841 131.86 158.731 131.94C158.511 132.09 158.291 132.24 158.071 132.38L157.991 132.43C157.811 132.55 157.621 132.66 157.431 132.77C157.151 132.94 156.881 133.1 156.591 133.25C154.661 134.32 152.641 135.19 150.571 135.95C148.621 136.67 146.641 137.29 144.651 137.85C141.791 138.65 138.891 139.31 135.981 139.89C133.141 140.46 130.301 140.94 127.441 141.36C124.581 141.78 121.711 142.12 118.841 142.42C117.901 142.52 116.961 142.61 116.011 142.7C114.121 142.87 112.231 143.02 110.341 143.15C109.391 143.21 108.451 143.27 107.501 143.33C105.381 143.45 103.261 143.54 101.141 143.61C100.761 143.62 100.371 143.64 99.9806 143.65C99.6306 143.66 99.2706 143.67 98.9206 143.68C99.7906 142.61 100.661 141.54 101.451 140.41C101.561 140.27 101.681 140.13 101.791 139.98C103.491 137.69 105.121 135.36 106.691 132.98C106.781 132.85 107.211 132.18 107.341 131.98C108.331 130.45 109.301 128.9 110.241 127.33C111.781 124.76 113.241 122.15 114.641 119.51C117.301 119.74 119.961 120.01 122.621 120.34C122.821 120.36 123.011 120.4 123.211 120.43C124.401 120.52 125.581 120.7 126.751 120.87C128.261 121.09 129.771 121.33 131.281 121.59C133.311 121.93 135.341 122.31 137.361 122.75L140.631 123.47L140.671 123.47L140.701 123.47C140.771 123.48 140.851 123.48 140.921 123.49C141.021 123.49 141.111 123.52 141.181 123.61C143.511 124.21 145.831 124.83 148.111 125.59C148.321 125.66 148.561 125.68 148.721 125.86C149.311 125.96 149.861 126.21 150.411 126.42C150.901 126.6 151.391 126.79 151.881 126.98C153.261 127.53 154.621 128.14 155.941 128.83C156.461 129.1 156.971 129.39 157.471 129.7C158.141 130.11 158.791 130.53 159.401 131.02C159.581 131.16 159.631 131.22 159.561 131.3L159.571 131.3Z" fill="#007fff" fill-rule="evenodd" opacity="1" stroke="none"/>
<path d="M174.091 93.36C174.031 92.1 173.551 90.99 172.821 89.98C171.791 88.54 170.461 87.42 169.011 86.43C166.551 84.75 163.861 83.51 161.111 82.4C159.581 81.79 158.021 81.23 156.461 80.73C154.071 79.96 151.651 79.3 149.211 78.71C146.161 77.96 143.101 77.31 140.011 76.75C138.131 76.41 136.251 76.08 134.361 75.8C134.301 75.8 134.251 75.8 134.191 75.79C134.161 75.79 134.121 75.79 134.091 75.79C134.021 75.79 133.951 75.78 133.881 75.77C133.721 75.75 133.561 75.72 133.401 75.68C132.841 75.59 132.281 75.5 131.721 75.41C131.391 75.37 131.071 75.32 130.741 75.27C130.611 75.25 130.491 75.23 130.361 75.22C129.061 75.06 127.751 74.91 126.451 74.74C126.071 74.69 125.691 74.66 125.311 74.62C124.931 74.58 124.551 74.54 124.181 74.46C121.651 74.23 119.131 73.97 116.601 73.76C116.251 73.73 115.891 73.7 115.541 73.68C113.361 73.51 111.181 73.36 109.001 73.25C107.951 73.2 106.901 73.15 105.851 73.09C105.051 73.05 104.261 73.01 103.461 72.98C101.641 72.91 99.8206 72.87 98.0006 72.83C97.3206 72.82 96.6406 72.8 95.9706 72.79C94.8306 72.77 95.9706 72.79 95.9706 72.79C95.9706 72.79 97.2206 67.77 97.7206 65.23C98.1006 63.33 98.4306 61.42 98.7206 59.5C98.9106 58.22 99.0806 56.93 99.2206 55.64C99.3706 54.29 99.4906 52.94 99.5806 51.58C99.6706 50.13 99.7306 48.68 99.7606 47.23C99.7906 45.29 99.7306 43.35 99.5906 41.41C99.5006 40.13 99.3706 38.86 99.2106 37.58C98.9906 35.84 98.6706 34.11 98.2606 32.41C97.9306 31.04 97.5506 29.69 97.0506 28.37C97.0206 28.37 97.0006 28.37 96.9706 28.37C96.9406 28.37 96.9206 28.37 96.8906 28.39C96.8106 28.42 96.7306 28.46 96.6506 28.49C94.4406 29.42 92.3506 30.57 90.3306 31.85C90.2206 31.92 90.0906 31.98 90.0406 32.13C90.5206 35.19 90.7506 38.26 90.7806 41.36C90.8206 45.79 90.4906 50.19 89.8906 54.57C89.4306 57.87 88.8306 61.15 88.0906 64.39C87.4506 67.21 86.7106 70 85.8905 72.77C83.9005 72.79 81.9205 72.85 79.9305 72.92C77.2905 73.01 74.6505 73.13 72.0105 73.3C69.6804 73.45 67.3504 73.6 65.0304 73.8C62.0104 74.06 58.9904 74.36 55.9904 74.73C55.2703 76.22 54.5703 77.73 53.9003 79.25C52.9003 81.51 51.9503 83.8 51.0603 86.1C51.1003 86.1 51.1403 86.09 51.1803 86.08C54.6903 85.58 58.2104 85.17 61.7504 84.82C62.7604 84.72 63.7704 84.6 64.7904 84.51C67.2904 84.3 69.8104 84.16 72.3205 84C75.5805 83.79 78.8505 83.66 82.1205 83.56L82.2405 83.56C85.0305 83.48 87.8106 83.44 90.6006 83.44L92.7006 83.44C94.2906 83.44 95.8806 83.46 97.4706 83.49C99.2706 83.52 101.081 83.59 102.881 83.65L102.931 83.65C104.661 83.71 106.381 83.77 108.111 83.86C109.441 83.92 110.771 84.02 112.091 84.12C112.371 84.14 112.661 84.16 112.941 84.18C114.931 84.32 116.921 84.47 118.901 84.62C119.391 84.66 119.871 84.73 120.361 84.77C122.991 85 125.621 85.3 128.241 85.63C129.411 85.78 130.581 85.93 131.751 86.09C134.221 86.43 136.681 86.84 139.141 87.27C141.501 87.68 143.861 88.15 146.201 88.68C148.261 89.15 150.301 89.66 152.341 90.21C155.011 90.93 157.631 91.78 160.221 92.74C162.461 93.57 164.621 94.55 166.711 95.7C168.151 96.49 169.521 97.38 170.771 98.45C171.901 99.43 172.891 100.52 173.551 101.88C173.811 102.42 173.931 103.01 174.111 103.58C174.111 102.45 174.131 101.32 174.131 100.19C174.131 98.51 174.131 96.83 174.131 95.15C174.131 94.54 174.151 93.93 174.131 93.32L174.091 93.36Z" fill="#ff1100" fill-rule="evenodd" opacity="1" stroke="none"/>
<path d="M107.641 13.07C107.241 12.94 106.821 12.85 106.431 12.66C106.431 12.61 106.431 12.55 106.441 12.5C106.921 12.65 107.381 12.85 107.811 13.13C107.751 13.11 107.701 13.09 107.641 13.07Z" fill="#404a5a" fill-rule="evenodd" opacity="1" stroke="none"/>
<path d="M106.231 12.58C106.231 12.58 106.261 12.6 106.281 12.61L106.271 12.61C106.271 12.61 106.201 12.62 106.171 12.58L106.231 12.58Z" fill="#404a5a" fill-rule="evenodd" opacity="1" stroke="none"/>
<path d="M57.2904 43.19C57.2904 43.19 57.2804 43.23 57.2604 43.25L57.2504 43.25C57.2504 43.25 57.2204 43.28 57.2104 43.28L57.2104 43.26C57.2104 43.26 57.2304 43.21 57.2504 43.2C57.2504 43.2 57.2704 43.2 57.2804 43.19L57.2904 43.19Z" fill="#404a5a" fill-rule="evenodd" opacity="1" stroke="none"/>
<path d="M59.4604 40.43C59.4604 40.43 59.4204 40.47 59.4004 40.48C59.3804 40.5 59.3404 40.51 59.3104 40.52C59.3104 40.5 59.3104 40.49 59.3104 40.47C59.3104 40.46 59.3104 40.44 59.3104 40.43C59.3104 40.42 59.3304 40.38 59.3504 40.36L59.4104 40.3C59.4304 40.28 59.4604 40.27 59.4904 40.26L59.4904 40.36C59.4904 40.38 59.4804 40.4 59.4604 40.42L59.4604 40.44L59.4604 40.43Z" fill="#404a5a" fill-rule="evenodd" opacity="1" stroke="none"/>
<path d="M60.2904 39.31L60.2604 39.31L60.2404 39.33C60.2404 39.33 60.2904 39.26 60.3204 39.23L60.3204 39.26C60.3204 39.29 60.3104 39.3 60.2904 39.32L60.2904 39.31Z" fill="#215cb5" fill-rule="evenodd" opacity="1" stroke="none"/>
<path d="M60.7104 38.67C60.7104 38.67 60.7304 38.62 60.7504 38.61C60.7604 38.61 60.7704 38.61 60.7804 38.6C60.7804 38.61 60.7804 38.62 60.7704 38.63C60.7704 38.64 60.7704 38.65 60.7604 38.66C60.7604 38.66 60.7504 38.67 60.7404 38.68C60.7404 38.68 60.7204 38.69 60.7004 38.7C60.7004 38.7 60.7004 38.68 60.7004 38.67L60.7104 38.67Z" fill="#215cb5" fill-rule="evenodd" opacity="1" stroke="none"/>
<path d="M98.0806 8.85C98.1806 8.81 98.2506 8.85 98.3006 8.93C98.2106 8.95 98.1206 8.97 98.0806 8.85Z" fill="#fec35e" fill-rule="evenodd" opacity="1" stroke="none"/>
<path d="M98.0806 8.85L98.0706 8.85L98.0806 8.85Z" fill="#fdbf41" fill-rule="evenodd" opacity="1" stroke="none"/>
<path d="M73.1305 25.41C73.1305 25.41 73.1905 25.36 73.2205 25.33L73.2205 25.35C73.2205 25.37 73.2105 25.38 73.2005 25.4C73.1905 25.42 73.1705 25.42 73.1405 25.41L73.1305 25.41Z" fill="#404a5a" fill-rule="evenodd" opacity="1" stroke="none"/>
<path d="M73.7505 24.79C73.7505 24.79 73.8105 24.77 73.8505 24.76C73.8505 24.81 73.8405 24.83 73.8205 24.85C73.7905 24.87 73.7305 24.85 73.6905 24.86C73.7105 24.83 73.7305 24.81 73.7605 24.79L73.7505 24.79Z" fill="#404a5a" fill-rule="evenodd" opacity="1" stroke="none"/>
<path d="M74.1405 24.53C74.1405 24.53 74.1305 24.57 74.1105 24.59C74.1105 24.59 74.1105 24.59 74.0905 24.59C74.0805 24.59 74.0705 24.59 74.0505 24.59C74.0805 24.56 74.1105 24.52 74.1305 24.49L74.1305 24.52L74.1405 24.53Z" fill="#404a5a" fill-rule="evenodd" opacity="1" stroke="none"/>
<path d="M79.3605 20.4C79.3605 20.4 79.3505 20.42 79.3405 20.43C79.3305 20.44 79.3005 20.45 79.2705 20.45C79.3005 20.42 79.3305 20.39 79.3605 20.36L79.3605 20.4Z" fill="#404a5a" fill-rule="evenodd" opacity="1" stroke="none"/>
<path d="M79.2705 20.45L79.2705 20.47C79.2705 20.47 79.2605 20.5 79.2505 20.51C79.2405 20.52 79.2305 20.51 79.2105 20.51C79.2105 20.51 79.2005 20.51 79.1905 20.51C79.2205 20.49 79.2505 20.48 79.2805 20.46L79.2705 20.45Z" fill="#404a5a" fill-rule="evenodd" opacity="1" stroke="none"/>
<path d="M106.411 12.47C103.811 11.31 101.201 10.16 98.6006 8.99C98.5006 8.94 98.3906 8.99 98.3006 8.92C98.2106 8.94 98.1206 8.96 98.0806 8.84C97.9706 8.89 97.8706 8.84 97.7706 8.81C95.4906 8.12 93.1606 7.91 90.7906 8.04C87.6506 8.2 84.6305 8.97 81.7105 10.1C80.7905 10.45 79.8905 10.84 79.0005 11.26C78.7805 11.37 78.5605 11.47 78.3405 11.58C78.0805 11.71 77.8305 11.84 77.5705 11.97C77.2305 12.14 76.8905 12.32 76.5505 12.51C74.7705 13.48 73.0605 14.56 71.3905 15.72C71.0405 15.96 70.7005 16.21 70.3505 16.45L70.1505 16.6C69.3304 17.2 68.5304 17.81 67.7304 18.44C65.7504 20.01 63.8504 21.69 62.0204 23.44C56.9204 28.31 52.3903 33.68 48.2403 39.38C48.1303 39.53 48.0303 39.68 47.9203 39.83C47.8103 39.98 47.9203 39.87 47.9003 39.88C47.8903 39.89 47.8703 39.9 47.8503 39.9C47.4803 40.43 47.1103 40.96 46.7403 41.49C46.1203 42.37 45.5103 43.26 44.9103 44.16C44.3403 45.01 43.7803 45.88 43.2203 46.74C42.7803 47.43 42.3503 48.12 41.9203 48.81C41.5403 49.43 41.1603 50.05 40.7903 50.67C40.2603 51.55 39.7403 52.44 39.2303 53.33C38.9703 53.78 38.7203 54.22 38.4703 54.67C38.4402 54.72 38.4102 54.77 38.3702 54.82C38.3702 54.88 38.3502 54.93 38.3302 54.97C38.3102 55 38.2902 55.04 38.2702 55.07C38.0302 55.49 37.8002 55.92 37.5702 56.34C36.7002 57.94 35.8402 59.55 35.0202 61.17C34.6702 61.86 34.3302 62.54 33.9902 63.23C32.1702 66.96 30.4802 70.74 28.9302 74.58C28.1002 76.62 27.3202 78.67 26.5702 80.74C26.1802 81.84 25.7902 82.94 25.4102 84.04C24.7202 86.08 24.0902 88.14 23.4702 90.2C23.2202 91.05 22.9702 91.9 22.7301 92.75C22.7301 92.77 22.7201 92.79 22.7101 92.81C22.3401 94.15 21.9901 95.49 21.6601 96.84C21.3601 98.05 21.0701 99.27 20.8001 100.49C20.5701 101.53 20.3601 102.58 20.1501 103.63C20.1001 103.88 20.0501 104.13 20.0101 104.38C19.9901 104.48 19.9701 104.58 19.9501 104.68C19.9501 104.72 19.9401 104.76 19.9301 104.79C19.8901 104.99 19.8501 105.19 19.8101 105.39C19.5101 107.03 19.2401 108.67 19.0101 110.32C18.7801 111.91 18.5801 113.51 18.4201 115.11C18.3801 115.47 18.3501 115.83 18.3201 116.18L18.3201 116.26C18.2901 116.53 18.2801 116.73 18.2601 116.92C18.1901 117.81 18.1201 118.7 18.0701 119.59C18.0201 120.48 17.9801 121.38 17.9501 122.27C17.9501 122.39 17.9501 122.5 17.9401 122.62C17.8901 124.34 17.8801 126.06 17.9301 127.77C17.9801 129.39 18.0701 131.01 18.2201 132.62C18.3701 134.23 18.5701 135.84 18.8501 137.44C18.9801 138.22 19.1401 139 19.3001 139.77C19.8601 142.38 20.6101 144.94 21.6401 147.41C21.7101 147.58 21.7801 147.75 21.8601 147.93C21.9301 148.1 22.0101 148.27 22.0901 148.44C22.2701 148.84 22.4601 149.24 22.6501 149.63C22.9802 150.28 23.3202 150.92 23.6902 151.54C24.7002 153.24 25.8902 154.83 27.3002 156.26C27.6702 156.64 28.0502 157 28.4502 157.34C29.1902 157.99 29.9802 158.58 30.8202 159.11C30.9802 159.21 31.1602 159.27 31.2802 159.42C31.3002 159.44 31.3102 159.47 31.3202 159.49C31.4002 159.47 31.4602 159.49 31.4802 159.57C31.8102 159.65 32.0702 159.87 32.3702 160C33.9702 160.71 35.5702 161.42 37.1602 162.13C38.0702 162.53 38.9903 162.93 39.9003 163.33L40.0203 163.23C39.7203 163.05 39.4203 162.87 39.1303 162.68C38.8303 162.47 38.5403 162.26 38.2602 162.04C35.8802 160.19 34.0102 157.88 32.4802 155.26C31.5502 153.67 30.7902 152 30.1402 150.28C30.1202 150.24 30.1102 150.2 30.0902 150.16C29.2202 147.84 28.5802 145.45 28.1002 143.02C27.8402 141.72 27.6402 140.41 27.4602 139.09C27.4502 139 27.4302 138.9 27.4202 138.81C27.3302 138.16 27.2602 137.51 27.1902 136.86C27.0902 135.9 27.0102 134.95 26.9602 133.99C26.9502 133.75 26.9302 133.52 26.9202 133.28C26.9202 133.22 26.9202 133.16 26.9202 133.1C26.8702 131.77 26.8202 130.45 26.8302 129.12C26.8302 129.05 26.8302 128.97 26.8302 128.9C26.8302 128.66 26.8302 128.43 26.8302 128.19C26.8602 127.15 26.8902 126.11 26.9302 125.07C26.9502 124.55 26.9802 124.03 27.0102 123.51C27.0402 122.99 27.0702 122.47 27.1102 121.95C27.2502 120.14 27.4302 118.33 27.6502 116.52C27.7302 115.86 27.8202 115.21 27.9102 114.55C28.0102 113.82 28.1202 113.09 28.2402 112.36C28.3302 111.78 28.4302 111.21 28.5202 110.64C28.6302 109.99 28.7502 109.34 28.8702 108.69C29.0202 107.87 29.1902 107.05 29.3502 106.23C29.5402 105.3 29.7402 104.36 29.9502 103.43C30.1402 102.6 30.3402 101.78 30.5402 100.95C30.7602 100.04 31.0002 99.13 31.2402 98.22C31.3002 98.01 31.3602 97.8 31.4302 97.59C31.4902 97.38 31.5602 97.17 31.6102 96.96C31.7202 96.52 31.8102 96.07 31.9702 95.64C32.0102 95.59 32.0602 95.55 32.0702 95.49C32.2002 94.45 32.5702 93.48 32.8902 92.49L33.3102 91.17C33.5002 90.55 33.6902 89.94 33.8802 89.32C34.0402 88.81 34.2002 88.31 34.3702 87.81C34.4402 87.61 34.5002 87.41 34.5702 87.22C34.6602 86.97 34.7502 86.71 34.8402 86.46C35.2202 85.41 35.5902 84.35 35.9702 83.3C36.1302 82.87 36.2902 82.43 36.4602 82C37.0202 80.52 37.6002 79.05 38.2002 77.59C38.3702 77.17 38.5403 76.76 38.7203 76.35C38.8603 76.02 39.0003 75.69 39.1403 75.36C39.4803 74.58 39.8203 73.8 40.1603 73.02C40.4303 72.41 40.7003 71.8 40.9803 71.19C41.1903 70.72 41.4003 70.26 41.6203 69.8C42.2003 68.56 42.7903 67.32 43.4003 66.1C43.5103 65.89 43.6303 65.68 43.7503 65.47C43.8703 65.26 43.9903 65.06 44.1003 64.84C45.8903 61.05 47.9903 57.42 50.1503 53.83C50.3403 53.51 50.5403 53.19 50.7303 52.87C51.1803 52.12 51.6103 51.36 52.1303 50.66C52.4503 50.23 52.7403 49.78 53.0403 49.33C53.3303 48.88 53.6203 48.43 53.9303 47.99C54.5404 47.1 55.1104 46.19 55.7204 45.3C55.8004 45.19 55.8804 45.07 55.9604 44.95C56.3704 44.37 56.7904 43.79 57.2004 43.21L57.2004 43.19C57.2004 43.19 57.2204 43.14 57.2404 43.13C57.2404 43.13 57.2604 43.13 57.2704 43.12C57.8604 42.32 58.4604 41.52 59.0604 40.72C59.0904 40.68 59.1204 40.65 59.1504 40.62C59.1604 40.61 59.1804 40.59 59.1904 40.58C59.2304 40.54 59.2604 40.5 59.3004 40.46C59.3004 40.44 59.3004 40.43 59.3004 40.41C59.3004 40.4 59.3004 40.38 59.3004 40.37C59.3004 40.36 59.3204 40.32 59.3404 40.3C59.3604 40.28 59.3804 40.26 59.4004 40.24C59.4204 40.22 59.4504 40.21 59.4804 40.2C59.4904 40.19 59.5104 40.17 59.5204 40.15C59.7504 39.86 59.9904 39.57 60.2204 39.28C60.2504 39.25 60.2704 39.21 60.3004 39.18C60.3004 39.16 60.3104 39.14 60.3204 39.12C60.3204 39.1 60.3404 39.09 60.3404 39.07C60.3604 39.04 60.3904 39.01 60.4204 38.98C60.4204 38.98 60.4304 38.97 60.4404 38.96C60.5404 38.87 60.6704 38.79 60.6904 38.64C60.6904 38.64 60.6904 38.62 60.6904 38.61C60.6904 38.58 60.7104 38.56 60.7304 38.55C60.7404 38.55 60.7504 38.55 60.7604 38.54C60.8304 38.49 60.8904 38.43 60.9504 38.37C60.9604 38.36 60.9704 38.34 60.9904 38.33C61.0304 38.28 61.0704 38.23 61.1004 38.18C61.1504 38.11 61.2004 38.04 61.2404 37.97C61.2804 37.92 61.3104 37.86 61.3504 37.81C61.3804 37.77 61.4004 37.74 61.4304 37.7L61.9704 37.04C63.2304 35.5 64.5304 33.99 65.8704 32.52C66.9204 31.36 68.0004 30.24 69.1004 29.13C69.2904 28.94 69.4804 28.74 69.6704 28.55C70.0305 28.19 70.4005 27.86 70.7705 27.52C70.9205 27.39 71.0605 27.25 71.2105 27.11C71.2405 27.08 71.2705 27.05 71.3005 27.02C71.7605 26.58 72.2305 26.14 72.6905 25.7C72.6905 25.7 72.7105 25.68 72.7205 25.67C72.8405 25.56 72.9805 25.46 73.1105 25.36C73.1405 25.33 73.1705 25.31 73.2005 25.28C73.2005 25.28 73.2205 25.26 73.2305 25.25C73.3705 25.1 73.5205 24.96 73.6605 24.81C73.6805 24.78 73.7005 24.76 73.7305 24.74C73.7605 24.72 73.7905 24.72 73.8305 24.71C73.8705 24.71 73.9105 24.69 73.9405 24.66C73.9605 24.64 73.9805 24.62 74.0005 24.6C74.0205 24.58 74.0305 24.56 74.0405 24.54C74.0705 24.51 74.1005 24.47 74.1205 24.44C74.4905 24.11 74.8705 23.78 75.2505 23.46C75.3105 23.41 75.3605 23.36 75.4205 23.31C75.7905 23 76.1605 22.69 76.5405 22.39C77.3905 21.71 78.2605 21.05 79.1505 20.43C79.1805 20.41 79.2105 20.4 79.2405 20.38C79.2705 20.36 79.3005 20.31 79.3305 20.28C79.5305 20.13 79.7305 19.98 79.9405 19.84C80.3505 19.55 80.7605 19.26 81.1705 18.98C81.3805 18.84 81.5905 18.7 81.7905 18.57C82.0005 18.43 82.2105 18.3 82.4205 18.17C83.0605 17.77 83.7005 17.38 84.3505 17.01C85.0605 16.6 85.7806 16.2 86.5106 15.83C88.7006 14.7 90.9606 13.75 93.3306 13.05C93.5106 13 93.6906 12.95 93.8706 12.89C95.1306 12.54 96.4006 12.27 97.6906 12.09C98.4206 11.99 99.1606 11.92 99.9006 11.89C100.461 11.86 101.021 11.86 101.581 11.87C101.771 11.87 101.951 11.88 102.141 11.89C102.701 11.92 103.261 11.98 103.821 12.06C104.591 12.17 105.361 12.31 106.121 12.51L106.181 12.51C106.201 12.51 106.211 12.53 106.231 12.54C106.251 12.54 106.261 12.55 106.281 12.56C106.311 12.57 106.351 12.58 106.381 12.6C106.381 12.55 106.381 12.49 106.391 12.44C106.381 12.43 106.371 12.42 106.351 12.41L106.411 12.47Z" fill="#f1ece2" fill-rule="evenodd" opacity="1" stroke="none"/>
<path d="M98.0806 8.85C98.0406 8.69 97.8906 8.67 97.7706 8.62C95.5306 7.62 93.2806 6.63 91.0306 5.64C90.4306 5.38 89.8506 5.07 89.2306 4.86C89.1606 4.9 89.0906 4.9 89.0106 4.87C87.4706 4.36 85.8706 4.11 84.2505 4.01C82.7705 3.92 81.2905 4.01 79.8205 4.21C78.6105 4.38 77.4205 4.63 76.2405 4.94C73.9505 5.55 71.7505 6.39 69.6304 7.44C68.8104 7.84 68.0204 8.3 67.2204 8.73C66.9504 8.87 66.6704 9 66.4104 9.15C64.1004 10.52 61.8704 12 59.7504 13.65C59.2204 14.06 58.6704 14.46 58.1804 14.91C57.8604 15.2 57.5504 15.49 57.2004 15.74C57.1304 15.79 57.0704 15.83 56.9904 15.88C56.9304 15.93 56.8704 15.98 56.8204 16.03C56.8004 16.11 56.7704 16.17 56.7304 16.21C56.7104 16.23 56.6804 16.24 56.6504 16.25C56.6304 16.25 56.6204 16.25 56.6004 16.25L56.5904 16.25C56.5904 16.25 56.5604 16.25 56.5404 16.24C56.5204 16.24 56.5104 16.26 56.5004 16.27C56.3204 16.4 56.2104 16.63 56.0504 16.76C56.0204 16.78 56.0004 16.8 55.9704 16.81C55.5304 17.04 55.2604 17.46 54.8704 17.74C54.4904 18.01 54.1803 18.38 53.8303 18.7C52.1103 20.28 50.4803 21.96 48.8703 23.66C48.3803 24.18 47.9303 24.74 47.4603 25.28C47.1903 25.59 46.8803 25.86 46.6103 26.17C45.8803 27.01 45.1703 27.86 44.4503 28.71C43.9203 29.34 43.4103 29.98 42.9303 30.65C42.5503 31.18 42.1003 31.65 41.7003 32.17C40.4703 33.74 39.3103 35.36 38.1502 36.98C37.0002 38.58 35.9502 40.23 34.8602 41.87C33.8802 43.34 32.9802 44.86 32.0502 46.36C31.7102 46.92 31.4002 47.5 31.0602 48.05C30.4602 49.01 29.9102 49.99 29.3902 50.99C29.0602 51.38 28.8702 51.85 28.6202 52.29C28.1002 53.2 27.6102 54.13 27.1602 55.08C27.0202 55.38 26.8102 55.65 26.6602 55.95C26.2402 56.8 25.8202 57.65 25.3902 58.49C24.3002 60.6 23.3402 62.78 22.3501 64.94C21.2701 67.28 20.3201 69.67 19.3701 72.07C18.7301 73.69 18.0801 75.32 17.5701 76.99C17.4901 77.26 17.3301 77.51 17.2301 77.78C16.7401 79.22 16.2401 80.66 15.7701 82.11C15.3301 83.44 14.9201 84.78 14.5301 86.13C14.1501 87.42 13.7901 88.72 13.4401 90.02C12.7601 92.54 12.1401 95.08 11.6101 97.63C11.4701 98.31 11.3401 98.99 11.2001 99.67C10.7501 101.98 10.3501 104.31 10.0201 106.64C9.71006 108.86 9.46006 111.09 9.26006 113.32C9.24006 113.53 9.23006 113.73 9.21006 113.94L9.21006 114.51C9.21006 114.32 9.21006 114.13 9.21006 113.94C9.11006 115.16 9.04006 116.39 8.99006 117.62C8.93006 119.03 8.92006 120.43 8.91006 121.84C8.91006 122.51 8.98006 123.18 8.97006 123.85C8.97006 124.88 9.05006 125.9 9.11006 126.92C9.13006 127.3 9.15006 127.67 9.19006 128.05C9.19006 128.12 9.20006 128.18 9.21006 128.25C9.33006 129.23 9.41006 130.22 9.55006 131.2C9.68006 132.15 9.81006 133.1 9.99007 134.05C10.2401 135.36 10.4801 136.68 10.8901 137.96C11.0201 138.36 11.0901 138.78 11.2001 139.19C11.4401 140.09 11.7301 140.97 12.0501 141.84C12.5101 143.09 13.0301 144.31 13.6101 145.51C14.4901 147.35 15.5801 149.07 16.8601 150.66C18.0701 152.17 19.4501 153.5 21.0401 154.62C21.1101 154.66 21.1701 154.71 21.2401 154.75C21.3501 154.83 21.4701 154.9 21.5901 154.97C21.6501 155.01 21.7201 155.05 21.7901 155.09C22.0101 155.23 22.2301 155.37 22.4401 155.52C22.5001 155.58 22.5701 155.62 22.6301 155.67C22.6301 155.68 22.6401 155.69 22.6501 155.7C22.6901 155.75 22.7601 155.76 22.8201 155.78C25.5502 156.99 28.2902 158.2 31.0302 159.41C31.1402 159.46 31.2402 159.53 31.3802 159.5C31.3702 159.47 31.3502 159.45 31.3402 159.43C31.2202 159.28 31.0402 159.22 30.8802 159.12C30.0402 158.59 29.2502 157.99 28.5102 157.35C28.1102 157.01 27.7302 156.65 27.3602 156.27C25.9502 154.84 24.7602 153.25 23.7502 151.55C23.3802 150.93 23.0301 150.29 22.7101 149.64C22.5101 149.25 22.3301 148.86 22.1401 148.46C22.0601 148.29 21.9901 148.12 21.9101 147.95C21.8401 147.78 21.7601 147.61 21.6901 147.43C20.6601 144.96 19.9101 142.4 19.3501 139.79C19.1801 139.02 19.0301 138.24 18.9001 137.46C18.6201 135.86 18.4201 134.25 18.2701 132.64C18.1201 131.03 18.0301 129.41 17.9801 127.79C17.9301 126.07 17.9401 124.35 17.9901 122.64C17.9901 122.52 17.9901 122.41 18.0001 122.29C18.0301 121.4 18.0701 120.5 18.1201 119.61C18.1701 118.72 18.2401 117.83 18.3101 116.94C18.3301 116.75 18.3501 116.55 18.3701 116.28C18.3701 116.25 18.3701 116.23 18.3701 116.2C18.4001 115.84 18.4401 115.48 18.4701 115.13C18.6401 113.53 18.8401 111.94 19.0601 110.34C19.3001 108.69 19.5601 107.05 19.8601 105.41C19.9001 105.21 19.9401 105.01 19.9801 104.81C19.9801 104.77 19.9901 104.73 20.0001 104.7C20.0201 104.6 20.0401 104.5 20.0601 104.4C20.1101 104.15 20.1501 103.9 20.2001 103.65C20.4101 102.6 20.6201 101.56 20.8501 100.51C21.1201 99.29 21.4101 98.07 21.7101 96.86C22.0401 95.51 22.3901 94.17 22.7601 92.83C22.7601 92.81 22.7601 92.79 22.7801 92.77C23.0201 91.92 23.2602 91.07 23.5202 90.22C24.1402 88.15 24.7702 86.1 25.4602 84.06C25.8302 82.96 26.2202 81.86 26.6202 80.76C27.3702 78.69 28.1502 76.64 28.9802 74.6C30.5302 70.76 32.2202 66.98 34.0402 63.25C34.3802 62.56 34.7202 61.87 35.0702 61.19C35.8902 59.57 36.7402 57.96 37.6202 56.36C37.8502 55.93 38.0902 55.51 38.3202 55.09C38.3402 55.06 38.3602 55.02 38.3802 54.99C38.4102 54.94 38.4302 54.9 38.4202 54.84C38.4502 54.79 38.4902 54.74 38.5202 54.69C38.7702 54.24 39.0303 53.8 39.2803 53.35C39.7903 52.46 40.3103 51.57 40.8403 50.69C41.2103 50.07 41.5903 49.45 41.9703 48.83C42.4003 48.14 42.8303 47.45 43.2703 46.76C43.8203 45.89 44.3903 45.03 44.9603 44.18C45.5603 43.28 46.1703 42.4 46.7903 41.51C47.1603 40.98 47.5303 40.45 47.9003 39.92C47.9003 39.91 47.9003 39.9 47.9003 39.89C47.9003 39.89 47.9003 39.88 47.9103 39.87C47.9203 39.86 47.9403 39.85 47.9603 39.85C48.0703 39.7 48.1703 39.55 48.2803 39.4C52.4303 33.7 56.9604 28.33 62.0604 23.46C63.8904 21.71 65.7904 20.03 67.7704 18.46C68.5604 17.83 69.3704 17.22 70.1905 16.62L70.3905 16.47C70.7305 16.22 71.0805 15.98 71.4305 15.74C73.1005 14.58 74.8205 13.5 76.5905 12.53L77.6105 11.99C77.8705 11.86 78.1205 11.73 78.3805 11.6C78.6005 11.49 78.8205 11.39 79.0405 11.28C79.9305 10.86 80.8305 10.47 81.7505 10.12C84.6805 8.99 87.6906 8.22 90.8306 8.06C93.2006 7.93 95.5306 8.14 97.8106 8.83C97.9106 8.86 98.0106 8.91 98.1206 8.86L98.0806 8.85ZM9.15006 125.17C9.15006 125.17 9.15006 125.27 9.15006 125.32C9.15006 125.27 9.15006 125.22 9.15006 125.17Z" fill="#fdbf41" fill-rule="evenodd" opacity="1" stroke="none"/>
<path d="M47.8503 39.85C47.8503 39.85 47.8803 39.83 47.9003 39.83C47.9003 39.85 47.9003 39.87 47.8803 39.88C47.8703 39.89 47.8503 39.9 47.8303 39.9C47.8303 39.89 47.8303 39.88 47.8303 39.87C47.8303 39.87 47.8303 39.86 47.8403 39.85L47.8503 39.85Z" fill="#c18b00" fill-rule="evenodd" opacity="1" stroke="none"/>
<path d="M56.5804 16.09C56.5804 16.09 56.6504 16.03 56.7004 16.03C56.7304 16.03 56.7704 16.03 56.8104 16.04C56.7904 16.12 56.7604 16.18 56.7204 16.22C56.7004 16.24 56.6704 16.25 56.6404 16.26C56.6204 16.26 56.6104 16.26 56.5904 16.26L56.5804 16.26C56.5804 16.26 56.5504 16.26 56.5304 16.25C56.5404 16.19 56.5604 16.14 56.5904 16.1L56.5804 16.09Z" fill="#c18b00" fill-rule="evenodd" opacity="1" stroke="none"/>
<path d="M88.7406 4.65C86.7106 3.74 84.6605 2.86 82.6305 1.93C80.3105 0.87 77.9005 0.22 75.3505 0.1C74.7105 0.1 74.0605 0.1 73.4205 0.1C73.1705 0.1 72.9205 0.1 72.6705 0.1C71.3905 0.17 70.1204 0.36 68.8604 0.63C65.1504 1.42 61.7004 2.87 58.3904 4.69C55.0603 6.52 51.9603 8.71 49.0203 11.11C48.6403 11.42 48.2403 11.7 47.9203 12.06C47.8903 12.07 47.8703 12.09 47.8503 12.12L47.8503 12.15L47.8103 12.15C47.7303 12.22 47.6403 12.28 47.5603 12.35C44.3003 15.14 41.2703 18.17 38.4102 21.36C35.0102 25.16 31.8702 29.17 28.9402 33.34C24.5702 39.55 20.7001 46.07 17.2601 52.83C14.9401 57.39 12.8201 62.04 10.9101 66.8C8.92005 71.76 7.11004 76.78 5.64003 81.92C5.48003 82.49 5.28003 83.05 5.11003 83.62C3.91002 87.86 2.87002 92.13 2.06001 96.46C1.37001 100.13 0.810003 103.81 0.45 107.53C0.179999 110.23-2.5481e-06 112.93-2.5481e-06 115.64C-2.5481e-06 116.87-2.5481e-06 118.1 0.00999752 119.34C0.0299976 119.51 0.0299976 119.68 0.0399977 119.85C0.0399977 120.11 0.0399977 120.37 0.0299976 120.63C0.0399977 122.13 0.169999 123.62 0.309999 125.11C0.550001 127.54 0.920003 129.96 1.45001 132.34C2.12001 135.33 3.04002 138.23 4.36003 141.01C5.77003 143.98 7.55005 146.68 9.96006 148.94C11.3601 150.26 12.9101 151.37 14.6501 152.18C16.2001 152.91 17.7701 153.59 19.3301 154.28C20.4001 154.75 21.4601 155.26 22.5601 155.69C22.5001 155.64 22.4301 155.59 22.3701 155.54C22.1601 155.38 21.9401 155.24 21.7201 155.1C21.6501 155.06 21.5901 155.02 21.5201 154.98C21.4001 154.91 21.2901 154.84 21.1701 154.76C21.1001 154.72 21.0401 154.67 20.9701 154.63C19.3801 153.51 18.0001 152.18 16.7901 150.67C15.5101 149.08 14.4201 147.36 13.5401 145.52C12.9701 144.32 12.4401 143.1 11.9801 141.85C11.8601 141.74 11.7401 141.62 11.6301 141.51C11.7501 141.63 11.8601 141.74 11.9801 141.85C11.6601 140.98 11.3701 140.1 11.1301 139.2C11.0201 138.79 10.9501 138.37 10.8201 137.97C10.4101 136.69 10.1801 135.37 9.92006 134.06C9.74006 133.12 9.61006 132.16 9.48006 131.21C9.34006 130.23 9.26006 129.24 9.14006 128.26C9.14006 128.19 9.13006 128.13 9.12006 128.06L9.12006 131.83C9.12006 130.57 9.12006 129.31 9.12006 128.06C9.08006 127.69 9.07006 127.31 9.04006 126.93C8.99006 125.91 8.90005 124.89 8.90005 123.86C8.90005 123.19 8.83005 122.52 8.84005 121.85C8.85005 120.44 8.86005 119.04 8.92005 117.63C8.97005 116.4 9.04006 115.18 9.14006 113.95C9.16006 113.74 9.17006 113.54 9.19006 113.33C9.39006 111.1 9.64006 108.87 9.95006 106.65C10.2701 104.31 10.6801 101.99 11.1301 99.68C11.2601 99 11.4001 98.32 11.5401 97.64C12.0701 95.08 12.6901 92.55 13.3701 90.03C13.7201 88.73 14.0801 87.43 14.4601 86.14C14.8501 84.79 15.2701 83.45 15.7001 82.12C16.1701 80.67 16.6701 79.23 17.1601 77.79C17.2501 77.52 17.4101 77.27 17.5001 77C18.0201 75.33 18.6601 73.7 19.3001 72.08C20.2501 69.69 21.2001 67.29 22.2801 64.95C23.2701 62.79 24.2302 60.61 25.3202 58.5C25.7502 57.66 26.1802 56.81 26.5902 55.96C26.7402 55.66 26.9502 55.4 27.0902 55.09C27.5402 54.14 28.0302 53.21 28.5502 52.3C28.8002 51.86 28.9902 51.39 29.3202 51C29.8402 50 30.3902 49.02 30.9902 48.06C31.3402 47.51 31.6402 46.92 31.9802 46.37C32.9102 44.87 33.8102 43.35 34.7902 41.88C35.8802 40.24 36.9302 38.59 38.0802 36.99C39.2402 35.37 40.4103 33.75 41.6303 32.18C42.0303 31.67 42.4803 31.2 42.8603 30.66C43.3403 29.99 43.8403 29.34 44.3803 28.72C45.1003 27.87 45.8103 27.02 46.5403 26.18C46.8103 25.87 47.1103 25.6 47.3903 25.29C47.8603 24.75 48.3103 24.19 48.8003 23.67C50.4103 21.97 52.0403 20.29 53.7603 18.71C54.1103 18.39 54.4203 18.03 54.8003 17.75C55.1904 17.47 55.4604 17.05 55.9004 16.82C55.9304 16.8 55.9604 16.79 55.9804 16.77C56.1504 16.64 56.2504 16.41 56.4304 16.28C56.4404 16.27 56.4604 16.26 56.4704 16.25C56.4804 16.19 56.5004 16.14 56.5304 16.1C56.5604 16.06 56.6004 16.04 56.6504 16.04C56.6804 16.04 56.7204 16.04 56.7604 16.05C56.8204 16 56.8804 15.95 56.9304 15.9C57.0104 15.85 57.0704 15.8 57.1404 15.76C57.4904 15.51 57.8004 15.22 58.1204 14.93C58.6204 14.48 59.1604 14.08 59.6904 13.67C61.8104 12.02 64.0504 10.54 66.3504 9.17C66.6104 9.01 66.8904 8.89 67.1604 8.75C67.9604 8.32 68.7504 7.86 69.5704 7.46C71.6905 6.41 73.8905 5.57 76.1805 4.96C77.3605 4.65 78.5505 4.4 79.7605 4.23C81.2305 4.03 82.7105 3.95 84.1905 4.03C85.8005 4.13 87.4006 4.38 88.9506 4.89C89.0306 4.91 89.1006 4.92 89.1706 4.88C89.0406 4.74 88.8406 4.74 88.6806 4.66L88.7406 4.65Z" fill="#ff1100" fill-rule="evenodd" opacity="1" stroke="none"/>
<path d="M56.6404 15.5C56.6404 15.5 56.6104 15.48 56.6004 15.47C56.6104 15.47 56.6304 15.49 56.6404 15.5Z" fill="#ff1100" fill-rule="evenodd" opacity="1" stroke="none"/>
<path d="M56.3604 15.33C56.4204 15.36 56.4704 15.39 56.5204 15.42C56.4704 15.39 56.4104 15.36 56.3604 15.33Z" fill="#ff1100" fill-rule="evenodd" opacity="1" stroke="none"/>
<path d="M75.3505 0.1L73.4205 0.1C73.1705 0.1 72.9205 0.1 72.6705 0.1C72.6605 0.07 72.6405 0.04 72.6305 0L75.3805 0C75.3805 0.03 75.3605 0.06 75.3505 0.1Z" fill="#fec35e" fill-rule="evenodd" opacity="1" stroke="none"/>
<path d="M47.8203 12.16L47.8003 12.16L47.8003 12.12L47.8403 12.12L47.8403 12.15L47.8203 12.15L47.8203 12.16Z" fill="#c18b00" fill-rule="evenodd" opacity="1" stroke="none"/>
<path d="M159.501 131.37C159.761 131.17 159.761 131.15 159.501 130.94C158.891 130.45 158.241 130.02 157.571 129.62C155.341 128.27 152.961 127.24 150.511 126.34C149.951 126.14 149.411 125.89 148.821 125.78C148.661 125.6 148.421 125.58 148.211 125.51C145.931 124.75 143.611 124.13 141.281 123.53C141.091 123.51 140.901 123.47 140.731 123.38C139.641 123.14 138.551 122.9 137.461 122.67C135.441 122.23 133.421 121.85 131.381 121.51C129.871 121.26 128.361 121.02 126.851 120.8C125.671 120.63 124.491 120.45 123.301 120.36C123.101 120.33 122.911 120.29 122.711 120.27C118.551 119.76 114.381 119.37 110.191 119.09C107.461 118.9 104.721 118.76 101.991 118.65C98.4106 118.51 94.8406 118.45 91.2606 118.45C86.8206 118.45 82.3905 118.56 77.9605 118.77C72.8405 119.02 67.7404 119.41 62.6504 119.98C61.8204 120.07 60.9804 120.13 60.1504 120.3C59.9804 120.26 59.8204 120.3 59.6504 120.32C56.0204 120.77 52.4103 121.32 48.8203 122C46.7003 122.4 44.5903 122.84 42.4903 123.34L42.4503 123.41C42.4503 123.41 41.9103 131.21 43.1103 138.83C45.1803 139.32 47.2603 139.76 49.3403 140.15C51.2003 140.5 53.0703 140.83 54.9504 141.1C57.5804 141.48 60.2204 141.86 62.8704 142.14C65.4404 142.41 68.0104 142.69 70.5905 142.87C72.1205 142.98 73.6405 143.11 75.1705 143.2C77.4305 143.33 79.6905 143.44 81.9505 143.52C84.0105 143.59 86.0806 143.65 88.1406 143.68C91.4406 143.72 94.7406 143.71 98.0506 143.64C101.231 143.57 104.411 143.45 107.581 143.27C111.371 143.06 115.141 142.76 118.921 142.37C124.671 141.77 130.391 140.98 136.061 139.84C141.011 138.85 145.911 137.64 150.661 135.89C152.731 135.13 154.751 134.27 156.681 133.19C157.661 132.65 158.601 132.06 159.491 131.37L159.501 131.37Z" fill="url(#LinearGradient)" fill-rule="evenodd" opacity="0.48" stroke="none"/>
</g>
</svg>
