<?xml version="1.0" encoding="utf-8"?>
<!-- Generator: Adobe Illustrator 26.1.0, SVG Export Plug-In . SVG Version: 6.00 Build 0)  -->
<svg version="1.1" id="Layer_1" xmlns="http://www.w3.org/2000/svg" xmlns:xlink="http://www.w3.org/1999/xlink" x="0px"
     y="0px"
     viewBox="0 0 1080 1080" style="enable-background:new 0 0 1080 1080;" xml:space="preserve">
<style type="text/css">
	.st0{fill:#F4F6F8;}
	.st1{fill:#00A3FF;}
	.st2{fill:none;stroke:#FFFFFF;stroke-width:1.4207;stroke-miterlimit:10;}
	.st3{fill:#62C4FC;}
	.st4{fill:#C3E5F9;}
</style>
    <circle class="st0" cx="539.5" cy="540.5" r="540.5"/>
    <path class="st1" d="M300.2,495.4c-0.9,1.3-1.8,2.6-2.6,3.9c-35.6,52.7-48,111.3-48,163.2c0,155.9,126.4,269.7,282.3,269.7v-0.3
	L300.2,495.4z"/>
    <path class="st2" d="M531.9,932.2c0.1,0,0.1,0,0.2,0l-0.2-0.3V932.2z"/>
    <polygon class="st3" points="333.8,455.2 531.9,567 531.9,342.8 "/>
    <path class="st3" d="M531.9,625.7L300.4,495.1c-0.1,0.1-0.2,0.3-0.3,0.4l231.7,436.4V625.7z"/>
    <path class="st1" d="M531.9,151.1c-63.7,97.6-140.9,210.6-202.7,301.5l4.6,2.6l198.1-112.4V151.1z"/>
    <path class="st3" d="M763.8,495.4c0.9,1.3,1.8,2.6,2.6,3.9c35.6,52.7,48,111.3,48,163.2c0,155.9-126.4,269.7-282.3,269.7v-0.3
	L763.8,495.4z"/>
    <polygon class="st4" points="730.2,455.2 532,567 532,342.8 "/>
    <path class="st4" d="M532,625.7l231.5-130.7c0.1,0.1,0.2,0.3,0.3,0.4L532,931.9V625.7z"/>
    <path class="st3" d="M532,151.1c63.7,97.6,140.9,210.6,202.7,301.5l-4.6,2.6L532,342.8V151.1z"/>
</svg>
