<svg xmlns="http://www.w3.org/2000/svg" viewBox="0 0 320 320"><defs><style>.cls-1{fill:none;stroke:#f5c09a;stroke-linecap:round;stroke-linejoin:round;stroke-width:7px;}</style></defs><g id="Layer_2" data-name="Layer 2"><circle class="cls-1" cx="160" cy="160" r="148.79"/><path class="cls-1" d="M206.09,160.47a73.82,73.82,0,1,1-93.48,1"/><path class="cls-1" d="M60.58,137.45a31.55,31.55,0,1,1,51.8,24.18"/><path class="cls-1" d="M206.45,160.6a31.55,31.55,0,1,1,53-23.15"/><line class="cls-1" x1="89.29" y1="93.51" x2="230.12" y2="93.51"/><line class="cls-1" x1="192.9" y1="229.44" x2="231.81" y2="229.44"/><line class="cls-1" x1="87.98" y1="229.44" x2="179.34" y2="229.44"/><circle class="cls-1" cx="170.94" cy="255.05" r="6.81"/><circle class="cls-1" cx="128.28" cy="236.42" r="4.97"/><circle class="cls-1" cx="186.67" cy="225.45" r="7.33"/><circle class="cls-1" cx="144" cy="200.18" r="6.02"/><circle class="cls-1" cx="174.15" cy="168.91" r="4.7"/><line class="cls-1" x1="176.2" y1="128.59" x2="176.2" y2="46.39"/><line class="cls-1" x1="156.31" y1="112.88" x2="156.31" y2="66.29"/><line class="cls-1" x1="144" y1="134.87" x2="144" y2="28.07"/></g></svg>