<?xml version="1.0" encoding="utf-8"?>
<!-- Generator: Adobe Illustrator 26.0.3, SVG Export Plug-In . SVG Version: 6.00 Build 0)  -->
<svg version="1.1"
	 id="Layer_1" image-rendering="optimizeQuality" shape-rendering="geometricPrecision" text-rendering="geometricPrecision" xmlns:xodm="http://www.corel.com/coreldraw/odm/2003"
	 xmlns="http://www.w3.org/2000/svg" xmlns:xlink="http://www.w3.org/1999/xlink" x="0px" y="0px" viewBox="0 0 1080 1080"
	 style="enable-background:new 0 0 1080 1080;" xml:space="preserve">
<style type="text/css">
	.st0{fill:#F5AC37;}
	.st1{fill:#FEFEFD;}
</style>
<g id="Layer_x0020_1">
	<path class="st0" d="M540,0c298.3,0,540,241.8,540,540c0,298.3-241.7,540-540,540C241.8,1080,0,838.2,0,540C0,241.8,241.8,0,540,0z
		"/>
	<path class="st1" d="M559.9,578.1h205.2c4.4,0,6.4,0,6.8-5.7c1.7-20.9,1.7-41.9,0-62.8c0-4.1-2-5.7-6.4-5.7H357.1
		c-5.1,0-6.4,1.7-6.4,6.4v60.1c0,7.8,0,7.8,8.1,7.8H559.9L559.9,578.1z M748.9,433.7c0.6-1.5,0.6-3.2,0-4.7
		c-3.4-7.5-7.5-14.6-12.2-21.3c-7.1-11.4-15.5-21.9-25-31.4c-4.5-5.7-9.7-10.8-15.5-15.2c-29.2-24.9-63.9-42.5-101.3-51.3
		c-18.8-4.2-38.1-6.2-57.4-6.1H356.4c-5.1,0-5.7,2-5.7,6.4V430c0,5.1,0,6.4,6.4,6.4h389.5c0,0,3.4-0.7,4.1-2.7H748.9L748.9,433.7z
		 M748.9,648.3c-5.7-0.6-11.5-0.6-17.3,0H357.4c-5.1,0-6.8,0-6.8,6.8v117.1c0,5.4,0,6.8,6.8,6.8h172.8c8.3,0.6,16.5,0,24.6-1.7
		c25.1-1.8,49.7-7.2,73.3-16.2c8.6-3,16.8-6.8,24.6-11.5h2.4c40.5-21.1,73.4-54.2,94.2-94.8C749.2,654.8,751.6,649.7,748.9,648.3
		L748.9,648.3z M282.8,839.7v-2V759v-26.7v-79.3c0-4.4,0-5.1-5.4-5.1h-73.2c-4.1,0-5.7,0-5.7-5.4v-64.1h78.3c4.4,0,6.1,0,6.1-5.7
		v-63.4c0-4.1,0-5.1-5.4-5.1h-73.2c-4.1,0-5.7,0-5.7-5.4v-59.4c0-3.7,0-4.7,5.4-4.7h72.6c5.1,0,6.4,0,6.4-6.4V246.4
		c0-5.4,0-6.8,6.8-6.8h253.1c18.4,0.7,36.6,2.7,54.7,6.1c37.2,6.9,72.9,20.2,105.6,39.1c21.7,12.8,41.6,28.2,59.4,45.9
		c13.4,13.9,25.4,28.9,36.1,44.9c10.6,16.2,19.4,33.5,26.4,51.6c0.9,4.7,5.4,7.9,10.1,7.1h60.4c7.8,0,7.8,0,8.1,7.4v55.4
		c0,5.4-2,6.8-7.4,6.8h-46.6c-4.7,0-6.1,0-5.7,6.1c1.8,20.6,1.8,41.2,0,61.7c0,5.7,0,6.4,6.4,6.4h53.3c2.4,3,0,6.1,0,9.1
		c0.3,3.9,0.3,7.9,0,11.8V640c0,5.7-1.7,7.4-6.8,7.4h-63.8c-4.4-0.9-8.8,2-9.8,6.4c-15.2,39.5-39.5,74.9-70.9,103.3
		c-11.5,10.3-23.5,20-36.1,29c-13.5,7.8-26.7,15.9-40.5,22.3c-25.5,11.5-52.2,19.9-79.7,25.3c-26,4.7-52.5,6.8-79,6.4H282.7
		L282.8,839.7L282.8,839.7z"/>
</g>
</svg>
