<?xml version="1.0" encoding="utf-8"?>
<!-- Generator: Adobe Illustrator 26.0.3, SVG Export Plug-In . SVG Version: 6.00 Build 0)  -->
<svg version="1.1" id="Layer_1" xmlns="http://www.w3.org/2000/svg" xmlns:xlink="http://www.w3.org/1999/xlink" x="0px" y="0px"
	 viewBox="0 0 1080 1080" style="enable-background:new 0 0 1080 1080;" xml:space="preserve">
<style type="text/css">
	.st0{fill-rule:evenodd;clip-rule:evenodd;fill:#50AF95;}
	.st1{fill-rule:evenodd;clip-rule:evenodd;fill:#FFFFFF;}
</style>
<circle class="st0" cx="540" cy="540" r="540"/>
<path class="st1" d="M625,587.7L625,587.7c-4.7,0.4-29.3,1.8-83.9,1.8c-43.5,0-74.4-1.3-85.2-1.8l0,0
	C287.7,580.3,162.2,551,162.2,516s125.5-64.3,293.6-71.8v114.3c11,0.8,42.5,2.6,86,2.6c52.2,0,78.3-2.2,83-2.6V444.3
	c167.7,7.5,292.9,36.7,292.9,71.7s-125.1,64.2-292.9,71.6l0,0L625,587.7z M625,432.5V330.2H859v-156H221.7v156h234v102.3
	c-190.2,8.7-333.3,46.4-333.3,91.6c0,45.2,143.1,82.8,333.3,91.6v327.8h169.2V615.5c189.8-8.7,332.6-46.4,332.6-91.5
	S814.8,441.2,625,432.5L625,432.5L625,432.5z M625,432.5L625,432.5z"/>
</svg>
