<?xml version="1.0" encoding="utf-8"?>
<!-- Generator: Adobe Illustrator 26.0.3, SVG Export Plug-In . SVG Version: 6.00 Build 0)  -->
<svg version="1.1" id="Layer_1" xmlns="http://www.w3.org/2000/svg" xmlns:xlink="http://www.w3.org/1999/xlink" x="0px" y="0px"
	 viewBox="0 0 815.1 237" style="enable-background:new 0 0 815.1 237;" xml:space="preserve">
<style type="text/css">
	.st0{fill:#0F131A;stroke:#4D5466;stroke-width:0.6002;stroke-miterlimit:10;}
	.st1{fill:none;}
	.st2{enable-background:new    ;}
	.st3{fill:#F5C09A;}
	.st4{fill:#FFFFFF;}
	.st5{fill:none;stroke:#F5C09A;stroke-linecap:round;stroke-linejoin:round;stroke-miterlimit:10;}
</style>
<path class="st0" d="M795.8,69.2H585c-6.6,0-12-5.4-12-12V21c0-6.6,5.4-12,12-12h210.8c6.6,0,12,5.4,12,12v36.3
	C807.8,63.8,802.4,69.2,795.8,69.2z"/>
<path class="st0" d="M795.8,148.4H585c-6.6,0-12-5.4-12-12v-36.3c0-6.6,5.4-12,12-12h210.8c6.6,0,12,5.4,12,12v36.3
	C807.8,143,802.4,148.4,795.8,148.4z"/>
<path class="st0" d="M795.8,227.9H585c-6.6,0-12-5.4-12-12v-36.3c0-6.6,5.4-12,12-12h210.8c6.6,0,12,5.4,12,12v36.3
	C807.8,222.5,802.4,227.9,795.8,227.9z"/>
<g>
	<rect x="12" y="88.6" class="st1" width="202" height="88.6"/>
	<g class="st2">
		<path class="st3" d="M14.2,89.2H18c5.2,0,9.1,3.7,9.1,8.7s-3.9,8.7-9.1,8.7h-3.8V89.2z M18,104.9c4.1,0,7.1-3,7.1-6.9
			S22.1,91,18,91h-1.9v13.9H18z"/>
		<path class="st3" d="M39.5,103.3l0.7,1.6c-1.4,1.3-3,2-4.8,2c-3.4,0-5.8-2.5-5.8-5.7c0-3.2,2.5-5.8,5.8-5.8c2.7,0,4.8,1.8,5.2,4.5
			l-8.9,2.9c0.6,1.4,2,2.4,3.8,2.4C36.9,105.4,38.3,104.7,39.5,103.3z M31.2,101.3L31.2,101.3l7.2-2.2c-0.5-1.2-1.7-1.9-3.1-1.9
			C33,97.1,31.2,98.9,31.2,101.3z"/>
		<path class="st3" d="M54.9,101.2c0,3.2-2.6,5.7-5.7,5.7c-1.7,0-3.1-0.7-4-1.9v7.4h-1.8V95.9l1.6-0.3v1.9c0.9-1.2,2.4-2,4.1-2
			C52.3,95.5,54.9,98,54.9,101.2z M53.1,101.2c0-2.3-1.7-4.1-4-4.1c-2.2,0-4,1.8-4,4.1c0,2.3,1.8,4.1,4,4.1
			C51.3,105.4,53.1,103.5,53.1,101.2z"/>
		<path class="st3" d="M56.9,101.2c0-3.2,2.6-5.7,5.8-5.7c3.3,0,5.8,2.5,5.8,5.7c0,3.2-2.6,5.7-5.8,5.7
			C59.5,107,56.9,104.5,56.9,101.2z M66.8,101.2c0-2.3-1.7-4.1-4-4.1c-2.3,0-4,1.8-4,4.1c0,2.3,1.7,4.1,4,4.1
			C65,105.4,66.8,103.6,66.8,101.2z"/>
		<path class="st3" d="M70.7,105.8l0.3-1.6c1.1,0.8,2.1,1.2,3.2,1.2c1.1,0,1.9-0.6,1.9-1.7c0-0.8-0.4-1.3-2-1.8l-0.4-0.2
			c-1.7-0.6-2.6-1.7-2.6-3.2c0-1.7,1.4-3,3.3-3c1,0,2,0.3,3,0.8L77,97.9c-1-0.6-2-0.9-2.7-0.9c-1.1,0-1.7,0.6-1.7,1.4
			c0,0.7,0.4,1.2,1.8,1.7l0.5,0.2c1.8,0.6,2.9,1.8,2.9,3.4c0,1.9-1.4,3.3-3.6,3.3C73,107,71.7,106.5,70.7,105.8z"/>
		<path class="st3" d="M80.6,91.5c0-0.7,0.5-1.2,1.2-1.2c0.7,0,1.2,0.5,1.2,1.2c0,0.7-0.5,1.2-1.2,1.2
			C81.1,92.7,80.6,92.2,80.6,91.5z M81,95.9l1.7-0.3v11.2H81V95.9z"/>
		<path class="st3" d="M88.7,97.3v6.2c0,1.1,0.6,1.7,1.6,1.7c0.5,0,1.2-0.2,1.6-0.3v1.6c-0.4,0.2-1,0.4-1.8,0.4
			c-1.9,0-3.2-1.2-3.2-3.2v-6.4h-1.6l0.3-1.6H87v-2.4l1.7-1v3.5h3.2v1.6H88.7z"/>
	</g>
	<g class="st2">
		<path class="st4" d="M14,130.7h4.4c3.6,0,6,2.3,6,5.6c0,3.3-2.4,5.6-6,5.6H14V130.7z M18.3,141.2c3.2,0,5.2-2,5.2-4.9
			c0-2.8-2-4.9-5.2-4.9h-3.6v9.7H18.3z"/>
		<path class="st4" d="M34,137.9h-7.2c0.1,2,1.5,3.3,3.5,3.3c1.1,0,2-0.4,2.7-1.2l0.5,0.5c-0.7,0.9-1.9,1.4-3.2,1.4
			c-2.5,0-4.3-1.8-4.3-4.2c0-2.5,1.7-4.2,4-4.2c2.3,0,4,1.7,4,4.2C34,137.8,34,137.9,34,137.9z M26.8,137.3h6.4
			c-0.1-1.8-1.4-3.1-3.2-3.1C28.2,134.2,26.9,135.5,26.8,137.3z"/>
		<path class="st4" d="M44.8,137.8c0,2.5-1.8,4.2-4.1,4.2c-1.5,0-2.7-0.7-3.4-2v5h-0.8v-11.5h0.8v2c0.7-1.3,1.9-2,3.4-2
			C43,133.5,44.8,135.3,44.8,137.8z M44,137.8c0-2.1-1.5-3.5-3.4-3.5s-3.4,1.4-3.4,3.5s1.4,3.5,3.4,3.5S44,139.9,44,137.8z"/>
		<path class="st4" d="M46.4,137.8c0-2.5,1.8-4.2,4.2-4.2s4.2,1.8,4.2,4.2c0,2.5-1.8,4.2-4.2,4.2S46.4,140.2,46.4,137.8z
			 M53.9,137.8c0-2.1-1.4-3.5-3.4-3.5s-3.4,1.4-3.4,3.5s1.4,3.5,3.4,3.5S53.9,139.9,53.9,137.8z"/>
		<path class="st4" d="M56,140.9l0.4-0.6c0.6,0.5,1.8,1,3,1c1.8,0,2.5-0.6,2.5-1.6c0-2.4-5.5-0.6-5.5-3.9c0-1.3,1.1-2.3,3.2-2.3
			c1.1,0,2.2,0.3,2.9,0.8l-0.4,0.6c-0.7-0.5-1.6-0.8-2.5-0.8c-1.6,0-2.4,0.7-2.4,1.6c0,2.5,5.5,0.7,5.5,3.9c0,1.4-1.2,2.3-3.3,2.3
			C57.9,142,56.6,141.5,56,140.9z"/>
		<path class="st4" d="M64.6,130.9c0-0.4,0.3-0.7,0.7-0.7s0.7,0.3,0.7,0.6c0,0.4-0.3,0.7-0.7,0.7S64.6,131.3,64.6,130.9z
			 M64.8,133.6h0.8v8.4h-0.8V133.6z"/>
		<path class="st4" d="M73.2,141.4c-0.4,0.4-1.1,0.6-1.7,0.6c-1.5,0-2.3-0.9-2.3-2.3v-5.5h-1.5v-0.7h1.5v-1.8H70v1.8h2.7v0.7H70v5.4
			c0,1.1,0.5,1.7,1.6,1.7c0.5,0,1-0.2,1.3-0.5L73.2,141.4z"/>
		<path class="st4" d="M78.6,137.8c0-2.5,1.8-4.2,4.2-4.2c1.3,0,2.5,0.5,3.2,1.5l-0.6,0.4c-0.6-0.8-1.5-1.2-2.6-1.2
			c-2,0-3.4,1.4-3.4,3.5s1.4,3.5,3.4,3.5c1,0,2-0.4,2.6-1.2l0.6,0.4c-0.7,1-1.8,1.5-3.2,1.5C80.4,142,78.6,140.2,78.6,137.8z"/>
		<path class="st4" d="M87.3,137.8c0-2.5,1.8-4.2,4.2-4.2s4.2,1.8,4.2,4.2c0,2.5-1.8,4.2-4.2,4.2S87.3,140.2,87.3,137.8z
			 M94.9,137.8c0-2.1-1.4-3.5-3.4-3.5s-3.4,1.4-3.4,3.5s1.4,3.5,3.4,3.5S94.9,139.9,94.9,137.8z"/>
		<path class="st4" d="M98.2,130.1H99v11.9h-0.8V130.1z"/>
		<path class="st4" d="M102.3,130.1h0.8v11.9h-0.8V130.1z"/>
		<path class="st4" d="M112.5,136.6v5.3h-0.8v-1.5c-0.5,1-1.6,1.6-3,1.6c-1.9,0-3-1-3-2.4c0-1.3,0.8-2.3,3.1-2.3h2.9v-0.7
			c0-1.6-0.8-2.4-2.5-2.4c-1.2,0-2.2,0.4-2.9,1.1l-0.4-0.6c0.8-0.7,2-1.2,3.3-1.2C111.4,133.5,112.5,134.6,112.5,136.6z
			 M111.7,139.5v-1.6h-2.8c-1.7,0-2.3,0.7-2.3,1.7c0,1.1,0.8,1.8,2.3,1.8C110.3,141.3,111.3,140.7,111.7,139.5z"/>
		<path class="st4" d="M120,141.4c-0.4,0.4-1.1,0.6-1.7,0.6c-1.5,0-2.3-0.9-2.3-2.3v-5.5h-1.5v-0.7h1.5v-1.8h0.8v1.8h2.7v0.7h-2.7
			v5.4c0,1.1,0.5,1.7,1.6,1.7c0.5,0,1-0.2,1.3-0.5L120,141.4z"/>
		<path class="st4" d="M129,137.9h-7.2c0.1,2,1.5,3.3,3.5,3.3c1.1,0,2-0.4,2.7-1.2l0.5,0.5c-0.7,0.9-1.9,1.4-3.2,1.4
			c-2.5,0-4.3-1.8-4.3-4.2c0-2.5,1.7-4.2,4-4.2c2.3,0,4,1.7,4,4.2C129,137.8,129,137.9,129,137.9z M121.8,137.3h6.4
			c-0.1-1.8-1.4-3.1-3.2-3.1C123.2,134.2,121.9,135.5,121.8,137.3z"/>
		<path class="st4" d="M135.4,133.5v0.8c-0.1,0-0.1,0-0.2,0c-1.9,0-3,1.2-3,3.3v4.4h-0.8v-8.4h0.8v1.8
			C132.7,134.2,133.8,133.5,135.4,133.5z"/>
		<path class="st4" d="M143.6,136.6v5.3h-0.8v-1.5c-0.5,1-1.6,1.6-3,1.6c-1.9,0-3-1-3-2.4c0-1.3,0.8-2.3,3.1-2.3h2.9v-0.7
			c0-1.6-0.8-2.4-2.5-2.4c-1.2,0-2.2,0.4-2.9,1.1l-0.4-0.6c0.8-0.7,2-1.2,3.3-1.2C142.5,133.5,143.6,134.6,143.6,136.6z
			 M142.8,139.5v-1.6H140c-1.7,0-2.3,0.7-2.3,1.7c0,1.1,0.8,1.8,2.3,1.8C141.4,141.3,142.4,140.7,142.8,139.5z"/>
		<path class="st4" d="M146.9,130.1h0.8v11.9h-0.8V130.1z"/>
	</g>
</g>
<g>
	<rect x="584.6" y="9" class="st1" width="203.3" height="60.3"/>
	<g class="st2">
		<path class="st3" d="M597.1,33.8c0,2.8-2.2,4.8-5.4,4.8h-4.9V21.1h4.6c3.1,0,5.3,1.9,5.3,4.5c0,1.8-1.1,3.2-2.8,3.9
			C595.9,30.3,597.1,31.8,597.1,33.8z M588.7,22.9v5.9h2.7c2,0,3.3-1.2,3.3-3.1c0-1.7-1.4-2.9-3.3-2.9H588.7z M595.2,33.7
			c0-1.8-1.4-3.1-3.5-3.1h-3v6.1h3C593.7,36.8,595.2,35.6,595.2,33.7z"/>
		<path class="st3" d="M599.6,33.1c0-3.2,2.6-5.7,5.8-5.7c3.3,0,5.8,2.5,5.8,5.7c0,3.2-2.6,5.7-5.8,5.7
			C602.2,38.9,599.6,36.3,599.6,33.1z M609.5,33.1c0-2.3-1.8-4.1-4-4.1c-2.3,0-4,1.8-4,4.1c0,2.3,1.8,4.1,4,4.1
			C607.7,37.2,609.5,35.5,609.5,33.1z"/>
		<path class="st3" d="M619.7,27.4v1.8c-2.5,0-3.7,1.2-3.7,3.7v5.7h-1.8V27.8l1.6-0.3v1.8C616.6,28.1,617.9,27.4,619.7,27.4z"/>
		<path class="st3" d="M627.7,27.4v1.8c-2.5,0-3.7,1.2-3.7,3.7v5.7h-1.8V27.8l1.6-0.3v1.8C624.6,28.1,625.9,27.4,627.7,27.4z"/>
		<path class="st3" d="M629,33.1c0-3.2,2.6-5.7,5.8-5.7s5.8,2.5,5.8,5.7c0,3.2-2.6,5.7-5.8,5.7S629,36.3,629,33.1z M638.9,33.1
			c0-2.3-1.7-4.1-4-4.1s-4,1.8-4,4.1c0,2.3,1.7,4.1,4,4.1S638.9,35.5,638.9,33.1z"/>
		<path class="st3" d="M654.6,39.1l-3.9-8.2l-3.9,8.2l-5.1-11.5h1.9l3.2,7.6l3.8-8.1l3.8,8.1l3.2-7.6h1.9L654.6,39.1z"/>
	</g>
	<g class="st2">
		<path class="st4" d="M595.7,54.8c0,1.9-1.4,3-4.1,3h-5V46.6h4.7c2.4,0,3.9,1,3.9,2.9c0,1.3-0.8,2.2-1.9,2.6
			C594.8,52.3,595.7,53.3,595.7,54.8z M587.3,47.3v4.5h3.8c1.9,0,3.1-0.8,3.1-2.2c0-1.5-1.1-2.2-3.1-2.2H587.3z M594.8,54.8
			c0-1.6-1.2-2.3-3.3-2.3h-4.2v4.6h4.2C593.7,57.1,594.8,56.4,594.8,54.8z"/>
		<path class="st4" d="M597.4,53.6c0-2.5,1.8-4.2,4.2-4.2c2.4,0,4.2,1.8,4.2,4.2c0,2.5-1.8,4.2-4.2,4.2
			C599.2,57.9,597.4,56.1,597.4,53.6z M604.9,53.6c0-2.1-1.4-3.5-3.4-3.5s-3.4,1.4-3.4,3.5s1.4,3.5,3.4,3.5S604.9,55.7,604.9,53.6z"
			/>
		<path class="st4" d="M612.2,49.4v0.8c-0.1,0-0.1,0-0.2,0c-1.9,0-3,1.2-3,3.3v4.4h-0.8v-8.4h0.8v1.8
			C609.5,50.1,610.6,49.4,612.2,49.4z"/>
		<path class="st4" d="M618.3,49.4v0.8c-0.1,0-0.1,0-0.2,0c-1.9,0-3,1.2-3,3.3v4.4h-0.8v-8.4h0.8v1.8
			C615.7,50.1,616.8,49.4,618.3,49.4z"/>
		<path class="st4" d="M619.6,53.6c0-2.5,1.8-4.2,4.2-4.2c2.4,0,4.2,1.8,4.2,4.2c0,2.5-1.8,4.2-4.2,4.2
			C621.3,57.9,619.6,56.1,619.6,53.6z M627.1,53.6c0-2.1-1.4-3.5-3.4-3.5s-3.4,1.4-3.4,3.5s1.4,3.5,3.4,3.5S627.1,55.7,627.1,53.6z"
			/>
		<path class="st4" d="M642.1,49.4l-3.2,8.4h-0.8l-2.8-7.3l-2.8,7.3h-0.7l-3.2-8.4h0.8l2.8,7.5l2.8-7.5h0.7l2.8,7.4l2.8-7.4H642.1z"
			/>
		<path class="st4" d="M654.8,49.4l-4.3,9.5c-0.7,1.5-1.5,2-2.6,2c-0.8,0-1.5-0.3-1.9-0.8l0.4-0.6c0.4,0.4,0.9,0.7,1.6,0.7
			c0.8,0,1.3-0.4,1.8-1.5l0.4-1l-3.8-8.3h0.8l3.3,7.5l3.3-7.5H654.8z"/>
		<path class="st4" d="M655.3,53.6c0-2.5,1.8-4.2,4.2-4.2c2.4,0,4.2,1.8,4.2,4.2c0,2.5-1.8,4.2-4.2,4.2
			C657.1,57.9,655.3,56.1,655.3,53.6z M662.9,53.6c0-2.1-1.4-3.5-3.4-3.5s-3.4,1.4-3.4,3.5s1.4,3.5,3.4,3.5S662.9,55.7,662.9,53.6z"
			/>
		<path class="st4" d="M673.5,49.4v8.4h-0.8V56c-0.5,1.2-1.7,1.9-3.2,1.9c-2.1,0-3.5-1.2-3.5-3.5v-4.9h0.8v4.8c0,1.9,1,2.9,2.8,2.9
			c1.9,0,3.1-1.3,3.1-3.2v-4.5H673.5z"/>
		<path class="st4" d="M680.8,49.4v0.8c-0.1,0-0.1,0-0.2,0c-1.9,0-3,1.2-3,3.3v4.4h-0.8v-8.4h0.8v1.8
			C678.2,50.1,679.3,49.4,680.8,49.4z"/>
		<path class="st4" d="M688.2,48.2v1.2h2.7v0.7h-2.7v7.7h-0.8v-7.7h-1.5v-0.7h1.5v-1.3c0-1.4,0.8-2.3,2.3-2.3c0.6,0,1.2,0.2,1.6,0.5
			l-0.3,0.6c-0.3-0.3-0.8-0.5-1.3-0.5C688.8,46.5,688.2,47.1,688.2,48.2z"/>
		<path class="st4" d="M699.9,49.4v8.4h-0.8V56c-0.5,1.2-1.7,1.9-3.2,1.9c-2.1,0-3.5-1.2-3.5-3.5v-4.9h0.8v4.8c0,1.9,1,2.9,2.8,2.9
			c1.9,0,3.1-1.3,3.1-3.2v-4.5H699.9z"/>
		<path class="st4" d="M707.4,57.3c-0.4,0.4-1.1,0.6-1.7,0.6c-1.5,0-2.3-0.9-2.3-2.3v-5.5h-1.5v-0.7h1.5v-1.8h0.8v1.8h2.7v0.7h-2.7
			v5.4c0,1.1,0.5,1.7,1.6,1.7c0.5,0,1-0.2,1.3-0.5L707.4,57.3z"/>
		<path class="st4" d="M716.9,49.4v8.4h-0.8V56c-0.5,1.2-1.7,1.9-3.2,1.9c-2.1,0-3.5-1.2-3.5-3.5v-4.9h0.8v4.8c0,1.9,1,2.9,2.8,2.9
			c1.9,0,3.1-1.3,3.1-3.2v-4.5H716.9z"/>
		<path class="st4" d="M724.3,49.4v0.8c-0.1,0-0.1,0-0.2,0c-1.9,0-3,1.2-3,3.3v4.4h-0.8v-8.4h0.8v1.8
			C721.6,50.1,722.7,49.4,724.3,49.4z"/>
		<path class="st4" d="M733.5,53.8h-7.2c0.1,2,1.5,3.3,3.5,3.3c1.1,0,2-0.4,2.7-1.2l0.5,0.5c-0.7,0.9-1.9,1.4-3.2,1.4
			c-2.5,0-4.3-1.8-4.3-4.2c0-2.5,1.7-4.2,4-4.2c2.3,0,4,1.7,4,4.2C733.5,53.7,733.5,53.7,733.5,53.8z M726.3,53.2h6.4
			c-0.1-1.8-1.4-3.1-3.2-3.1C727.7,50.1,726.4,51.4,726.3,53.2z"/>
		<path class="st4" d="M746.8,49.4l-4.3,9.5c-0.7,1.5-1.5,2-2.6,2c-0.8,0-1.5-0.3-1.9-0.8l0.4-0.6c0.4,0.4,0.9,0.7,1.6,0.7
			c0.8,0,1.3-0.4,1.8-1.5l0.4-1l-3.8-8.3h0.8l3.3,7.5l3.3-7.5H746.8z"/>
		<path class="st4" d="M748.3,46.8c0-0.4,0.3-0.7,0.7-0.7s0.7,0.3,0.7,0.6c0,0.4-0.3,0.7-0.7,0.7S748.3,47.1,748.3,46.8z
			 M748.5,49.4h0.8v8.4h-0.8V49.4z"/>
		<path class="st4" d="M759.7,53.8h-7.2c0.1,2,1.5,3.3,3.5,3.3c1.1,0,2-0.4,2.7-1.2l0.5,0.5c-0.7,0.9-1.9,1.4-3.2,1.4
			c-2.5,0-4.3-1.8-4.3-4.2c0-2.5,1.7-4.2,4-4.2c2.3,0,4,1.7,4,4.2C759.8,53.7,759.7,53.7,759.7,53.8z M752.6,53.2h6.4
			c-0.1-1.8-1.4-3.1-3.2-3.1C754,50.1,752.7,51.4,752.6,53.2z"/>
		<path class="st4" d="M762.2,45.9h0.8v11.9h-0.8V45.9z"/>
		<path class="st4" d="M773.8,45.9v11.9h-0.8v-2c-0.7,1.3-1.9,2-3.4,2c-2.4,0-4.1-1.7-4.1-4.2c0-2.5,1.8-4.2,4.1-4.2
			c1.5,0,2.7,0.7,3.4,2v-5.5H773.8z M773,53.6c0-2.1-1.4-3.5-3.4-3.5s-3.4,1.4-3.4,3.5s1.4,3.5,3.4,3.5S773,55.7,773,53.6z"/>
	</g>
</g>
<g>
	<rect x="230.3" y="88.6" class="st1" width="202" height="88.6"/>
	<g class="st2">
		<path class="st3" d="M242.4,104.9l-0.3,1.8h-9.5V89.2h9.1L242,91h-7.6v5.8h6.3v1.8h-6.3v6.3H242.4z"/>
		<path class="st3" d="M251.4,106.7l-0.1-0.8c-0.7,0.6-1.7,1-2.7,1c-2.3,0-4.1-1.8-4.1-4c0-2.2,1.8-4,4.1-4c1.1,0,1.9,0.4,2.6,0.9
			v-0.7c0-1.4-0.6-2.1-2.4-2.1c-0.9,0-1.8,0.2-2.7,0.5l0.3-1.6c0.8-0.3,1.6-0.4,2.4-0.4c2.7,0,4,1.3,4,3.5v5.5l0.1,2.1H251.4z
			 M251.4,103c0-1.4-1.2-2.5-2.6-2.5c-1.4,0-2.6,1.1-2.6,2.5s1.1,2.5,2.6,2.5C250.2,105.5,251.4,104.4,251.4,103z"/>
		<path class="st3" d="M262.1,95.6v1.8c-2.5,0-3.7,1.2-3.7,3.7v5.7h-1.8V95.9l1.6-0.3v1.8C259,96.2,260.3,95.6,262.1,95.6z"/>
		<path class="st3" d="M274.1,100.1v6.6h-1.7v-6.5c0-2.1-1.2-3.1-2.8-3.1c-1.8,0-3.1,1.3-3.1,3.4v6.2h-1.8V95.9l1.6-0.3v1.5
			c0.8-1,2-1.6,3.5-1.6C272.2,95.5,274.1,97.2,274.1,100.1z"/>
	</g>
	<g class="st2">
		<path class="st4" d="M232,130.1h0.8v11.9H232V130.1z"/>
		<path class="st4" d="M243.2,137.9h-7.2c0.1,2,1.5,3.3,3.5,3.3c1.1,0,2-0.4,2.7-1.2l0.5,0.5c-0.7,0.9-1.9,1.4-3.2,1.4
			c-2.5,0-4.3-1.8-4.3-4.2c0-2.5,1.7-4.2,4-4.2c2.3,0,4,1.7,4,4.2C243.3,137.8,243.2,137.9,243.2,137.9z M236.1,137.3h6.4
			c-0.1-1.8-1.4-3.1-3.2-3.1C237.5,134.2,236.2,135.5,236.1,137.3z"/>
		<path class="st4" d="M249.9,141.4c-0.4,0.4-1.1,0.6-1.7,0.6c-1.5,0-2.3-0.9-2.3-2.3v-5.5h-1.5v-0.7h1.5v-1.8h0.8v1.8h2.7v0.7h-2.7
			v5.4c0,1.1,0.5,1.7,1.6,1.7c0.5,0,1-0.2,1.3-0.5L249.9,141.4z"/>
		<path class="st4" d="M262.9,133.6l-4.3,9.5c-0.7,1.5-1.5,2-2.6,2c-0.8,0-1.5-0.3-1.9-0.8l0.4-0.6c0.4,0.4,0.9,0.7,1.6,0.7
			c0.8,0,1.3-0.4,1.8-1.5l0.4-1l-3.8-8.3h0.8l3.3,7.5l3.3-7.5H262.9z"/>
		<path class="st4" d="M263.5,137.8c0-2.5,1.8-4.2,4.2-4.2s4.2,1.8,4.2,4.2c0,2.5-1.8,4.2-4.2,4.2S263.5,140.2,263.5,137.8z
			 M271,137.8c0-2.1-1.4-3.5-3.4-3.5s-3.4,1.4-3.4,3.5s1.4,3.5,3.4,3.5S271,139.9,271,137.8z"/>
		<path class="st4" d="M281.7,133.6v8.4h-0.8v-1.8c-0.5,1.2-1.7,1.9-3.2,1.9c-2.1,0-3.5-1.2-3.5-3.5v-4.9h0.8v4.8
			c0,1.9,1,2.9,2.8,2.9c1.9,0,3.1-1.3,3.1-3.2v-4.5H281.7z"/>
		<path class="st4" d="M289,133.5v0.8c-0.1,0-0.1,0-0.2,0c-1.9,0-3,1.2-3,3.3v4.4H285v-8.4h0.8v1.8
			C286.3,134.2,287.4,133.5,289,133.5z"/>
		<path class="st4" d="M302.9,130.1v11.9h-0.8v-2c-0.7,1.3-1.9,2-3.4,2c-2.4,0-4.1-1.7-4.1-4.2c0-2.5,1.8-4.2,4.1-4.2
			c1.5,0,2.7,0.7,3.4,2v-5.5H302.9z M302.1,137.8c0-2.1-1.4-3.5-3.4-3.5s-3.4,1.4-3.4,3.5s1.4,3.5,3.4,3.5S302.1,139.9,302.1,137.8z
			"/>
		<path class="st4" d="M313.3,137.9h-7.2c0.1,2,1.5,3.3,3.5,3.3c1.1,0,2-0.4,2.7-1.2l0.5,0.5c-0.7,0.9-1.9,1.4-3.2,1.4
			c-2.5,0-4.3-1.8-4.3-4.2c0-2.5,1.7-4.2,4-4.2c2.3,0,4,1.7,4,4.2C313.3,137.8,313.3,137.9,313.3,137.9z M306.1,137.3h6.4
			c-0.1-1.8-1.4-3.1-3.2-3.1C307.6,134.2,306.3,135.5,306.1,137.3z"/>
		<path class="st4" d="M324.1,137.8c0,2.5-1.8,4.2-4.1,4.2c-1.5,0-2.7-0.7-3.4-2v5h-0.8v-11.5h0.8v2c0.7-1.3,1.9-2,3.4-2
			C322.4,133.5,324.1,135.3,324.1,137.8z M323.3,137.8c0-2.1-1.5-3.5-3.4-3.5s-3.4,1.4-3.4,3.5s1.4,3.5,3.4,3.5
			S323.3,139.9,323.3,137.8z"/>
		<path class="st4" d="M325.7,137.8c0-2.5,1.8-4.2,4.2-4.2s4.2,1.8,4.2,4.2c0,2.5-1.8,4.2-4.2,4.2S325.7,140.2,325.7,137.8z
			 M333.2,137.8c0-2.1-1.4-3.5-3.4-3.5s-3.4,1.4-3.4,3.5s1.4,3.5,3.4,3.5S333.2,139.9,333.2,137.8z"/>
		<path class="st4" d="M335.3,140.9l0.4-0.6c0.6,0.5,1.8,1,3,1c1.8,0,2.5-0.6,2.5-1.6c0-2.4-5.5-0.6-5.5-3.9c0-1.3,1.1-2.3,3.2-2.3
			c1.1,0,2.2,0.3,2.9,0.8l-0.4,0.6c-0.7-0.5-1.6-0.8-2.5-0.8c-1.6,0-2.4,0.7-2.4,1.6c0,2.5,5.5,0.7,5.5,3.9c0,1.4-1.2,2.3-3.3,2.3
			C337.3,142,336,141.5,335.3,140.9z"/>
		<path class="st4" d="M343.9,130.9c0-0.4,0.3-0.7,0.7-0.7s0.7,0.3,0.7,0.6c0,0.4-0.3,0.7-0.7,0.7S343.9,131.3,343.9,130.9z
			 M344.2,133.6h0.8v8.4h-0.8V133.6z"/>
		<path class="st4" d="M352.5,141.4c-0.4,0.4-1.1,0.6-1.7,0.6c-1.5,0-2.3-0.9-2.3-2.3v-5.5H347v-0.7h1.5v-1.8h0.8v1.8h2.7v0.7h-2.7
			v5.4c0,1.1,0.5,1.7,1.6,1.7c0.5,0,1-0.2,1.3-0.5L352.5,141.4z"/>
	</g>
	<g class="st2">
		<path class="st4" d="M245.7,156.3v4.9h-0.8v-4.8c0-1.9-1-2.9-2.6-2.9c-1.9,0-3.1,1.3-3.1,3.2v4.5h-0.8v-4.8c0-1.9-1-2.9-2.6-2.9
			c-1.9,0-3.1,1.3-3.1,3.2v4.5H232v-8.4h0.8v1.8c0.5-1.2,1.7-1.9,3.2-1.9c1.5,0,2.6,0.7,3.1,2c0.5-1.2,1.8-2,3.4-2
			C244.4,152.7,245.7,153.9,245.7,156.3z"/>
		<path class="st4" d="M255.1,155.8v5.3h-0.8v-1.5c-0.5,1-1.6,1.6-3,1.6c-1.9,0-3-1-3-2.4c0-1.3,0.8-2.3,3.1-2.3h2.9v-0.7
			c0-1.6-0.8-2.4-2.5-2.4c-1.2,0-2.2,0.4-2.9,1.1l-0.4-0.6c0.8-0.7,2-1.2,3.3-1.2C253.9,152.7,255.1,153.8,255.1,155.8z
			 M254.3,158.7v-1.6h-2.8c-1.7,0-2.3,0.7-2.3,1.7c0,1.1,0.8,1.8,2.3,1.8C252.8,160.5,253.8,159.9,254.3,158.7z"/>
		<path class="st4" d="M265.9,152.8v7.5c0,2.8-1.4,4.1-4,4.1c-1.5,0-3-0.5-3.8-1.3l0.4-0.6c0.8,0.8,2,1.2,3.4,1.2
			c2.2,0,3.3-1,3.3-3.2v-1.4c-0.7,1.2-2,1.9-3.5,1.9c-2.4,0-4.2-1.7-4.2-4.1c0-2.4,1.8-4,4.2-4c1.5,0,2.8,0.7,3.5,2v-1.9H265.9z
			 M265.1,156.8c0-2-1.4-3.3-3.4-3.3c-2,0-3.4,1.4-3.4,3.3s1.4,3.3,3.4,3.3C263.7,160.1,265.1,158.7,265.1,156.8z"/>
		<path class="st4" d="M269,150.1c0-0.4,0.3-0.7,0.7-0.7s0.7,0.3,0.7,0.6c0,0.4-0.3,0.7-0.7,0.7S269,150.5,269,150.1z M269.3,152.8
			h0.8v8.4h-0.8V152.8z"/>
		<path class="st4" d="M272.5,157c0-2.5,1.8-4.2,4.2-4.2c1.3,0,2.5,0.5,3.2,1.5l-0.6,0.4c-0.6-0.8-1.5-1.2-2.6-1.2
			c-2,0-3.4,1.4-3.4,3.5s1.4,3.5,3.4,3.5c1,0,2-0.4,2.6-1.2l0.6,0.4c-0.7,1-1.8,1.5-3.2,1.5C274.3,161.2,272.5,159.4,272.5,157z"/>
		<path class="st4" d="M288.4,155.8v5.3h-0.8v-1.5c-0.5,1-1.6,1.6-3,1.6c-1.9,0-3-1-3-2.4c0-1.3,0.8-2.3,3.1-2.3h2.9v-0.7
			c0-1.6-0.8-2.4-2.5-2.4c-1.2,0-2.2,0.4-2.9,1.1l-0.4-0.6c0.8-0.7,2-1.2,3.3-1.2C287.2,152.7,288.4,153.8,288.4,155.8z
			 M287.6,158.7v-1.6h-2.8c-1.7,0-2.3,0.7-2.3,1.7c0,1.1,0.8,1.8,2.3,1.8C286.1,160.5,287.1,159.9,287.6,158.7z"/>
		<path class="st4" d="M291.7,149.3h0.8v11.9h-0.8V149.3z"/>
		<path class="st4" d="M295.8,149.3h0.8v11.9h-0.8V149.3z"/>
		<path class="st4" d="M306.7,152.8l-4.3,9.5c-0.7,1.5-1.5,2-2.6,2c-0.8,0-1.5-0.3-1.9-0.8l0.4-0.6c0.4,0.4,0.9,0.7,1.6,0.7
			c0.8,0,1.3-0.4,1.8-1.5l0.4-1l-3.8-8.3h0.8l3.3,7.5l3.3-7.5H306.7z"/>
		<path class="st4" d="M319.6,157.1h-7.2c0.1,2,1.5,3.3,3.5,3.3c1.1,0,2-0.4,2.7-1.2l0.5,0.5c-0.7,0.9-1.9,1.4-3.2,1.4
			c-2.5,0-4.3-1.8-4.3-4.2c0-2.5,1.7-4.2,4-4.2c2.3,0,4,1.7,4,4.2C319.7,157,319.6,157.1,319.6,157.1z M312.5,156.5h6.4
			c-0.1-1.8-1.4-3.1-3.2-3.1C313.9,153.4,312.6,154.7,312.5,156.5z"/>
		<path class="st4" d="M327.9,155.8v5.3h-0.8v-1.5c-0.5,1-1.6,1.6-3,1.6c-1.9,0-3-1-3-2.4c0-1.3,0.8-2.3,3.1-2.3h2.9v-0.7
			c0-1.6-0.8-2.4-2.5-2.4c-1.2,0-2.2,0.4-2.9,1.1l-0.4-0.6c0.8-0.7,2-1.2,3.3-1.2C326.8,152.7,327.9,153.8,327.9,155.8z
			 M327.1,158.7v-1.6h-2.8c-1.7,0-2.3,0.7-2.3,1.7c0,1.1,0.8,1.8,2.3,1.8C325.7,160.5,326.6,159.9,327.1,158.7z"/>
		<path class="st4" d="M335.2,152.7v0.8c-0.1,0-0.1,0-0.2,0c-1.9,0-3,1.2-3,3.3v4.4h-0.8v-8.4h0.8v1.8
			C332.5,153.4,333.6,152.7,335.2,152.7z"/>
		<path class="st4" d="M344.9,156.3v4.9h-0.8v-4.8c0-1.9-1-2.9-2.7-2.9c-2,0-3.2,1.3-3.2,3.2v4.5h-0.8v-8.4h0.8v1.8
			c0.6-1.2,1.7-1.9,3.3-1.9C343.5,152.7,344.9,153.9,344.9,156.3z"/>
		<path class="st4" d="M359,152.8l-4.3,9.5c-0.7,1.5-1.5,2-2.6,2c-0.8,0-1.5-0.3-1.9-0.8l0.4-0.6c0.4,0.4,0.9,0.7,1.6,0.7
			c0.8,0,1.3-0.4,1.8-1.5l0.4-1l-3.8-8.3h0.8l3.3,7.5l3.3-7.5H359z"/>
		<path class="st4" d="M360.4,150.1c0-0.4,0.3-0.7,0.7-0.7s0.7,0.3,0.7,0.6c0,0.4-0.3,0.7-0.7,0.7S360.4,150.5,360.4,150.1z
			 M360.7,152.8h0.8v8.4h-0.8V152.8z"/>
		<path class="st4" d="M371.9,157.1h-7.2c0.1,2,1.5,3.3,3.5,3.3c1.1,0,2-0.4,2.7-1.2l0.5,0.5c-0.7,0.9-1.9,1.4-3.2,1.4
			c-2.5,0-4.3-1.8-4.3-4.2c0-2.5,1.7-4.2,4-4.2c2.3,0,4,1.7,4,4.2C372,157,371.9,157.1,371.9,157.1z M364.8,156.5h6.4
			c-0.1-1.8-1.4-3.1-3.2-3.1C366.2,153.4,364.9,154.7,364.8,156.5z"/>
		<path class="st4" d="M374.4,149.3h0.8v11.9h-0.8V149.3z"/>
		<path class="st4" d="M386,149.3v11.9h-0.8v-2c-0.7,1.3-1.9,2-3.4,2c-2.4,0-4.1-1.7-4.1-4.2c0-2.5,1.8-4.2,4.1-4.2
			c1.5,0,2.7,0.7,3.4,2v-5.5H386z M385.2,157c0-2.1-1.4-3.5-3.4-3.5s-3.4,1.4-3.4,3.5s1.4,3.5,3.4,3.5S385.2,159.1,385.2,157z"/>
	</g>
</g>
<g>
	<rect x="588.9" y="88.6" class="st1" width="209.1" height="59.9"/>
	<g class="st2">
		<path class="st3" d="M590.1,116.3l0.4-2.1c1.2,1.2,2.9,2.2,4.8,2.2c2,0,3.4-1.3,3.4-3.1c0-1.3-0.8-2.5-2.6-3.1l-1.2-0.4
			c-3.3-1.1-4.3-3-4.3-5c0-2.6,2.1-4.6,4.9-4.6c1.4,0,3.1,0.5,4.4,1.4l-0.4,2c-1.4-1-2.7-1.6-4-1.6c-1.8,0-3,1.2-3,2.8
			c0,1.4,0.7,2.4,3,3.2l1.2,0.4c2.7,0.9,3.9,2.7,3.9,5c0,2.9-2.2,5-5.3,5C593,118.3,591.2,117.3,590.1,116.3z"/>
		<path class="st3" d="M615.4,112.5c0,3.2-2.6,5.7-5.7,5.7c-1.7,0-3.1-0.7-4-1.9v7.4h-1.8v-16.6l1.7-0.3v1.9c0.9-1.2,2.4-2,4.1-2
			C612.8,106.7,615.4,109.2,615.4,112.5z M613.6,112.5c0-2.3-1.7-4.1-4-4.1c-2.2,0-4,1.8-4,4.1c0,2.3,1.8,4.1,4,4.1
			C611.8,116.6,613.6,114.8,613.6,112.5z"/>
		<path class="st3" d="M627.4,114.6l0.7,1.6c-1.4,1.3-3,2-4.8,2c-3.4,0-5.8-2.5-5.8-5.7c0-3.2,2.5-5.8,5.8-5.8
			c2.7,0,4.8,1.8,5.2,4.5l-8.9,2.9c0.6,1.4,2,2.4,3.8,2.4C624.8,116.6,626.2,115.9,627.4,114.6z M619.1,112.5L619.1,112.5l7.2-2.2
			c-0.5-1.2-1.7-1.9-3.1-1.9C620.9,108.3,619.1,110.2,619.1,112.5z"/>
		<path class="st3" d="M640.8,111.3v6.6H639v-6.5c0-2.1-1.2-3.1-2.8-3.1c-1.8,0-3.1,1.3-3.1,3.4v6.2h-1.8v-10.8l1.6-0.3v1.5
			c0.8-1,2-1.6,3.5-1.6C638.9,106.7,640.8,108.4,640.8,111.3z"/>
		<path class="st3" d="M655,99.8V118h-1.8v-1.6c-1,1.2-2.4,1.9-4,1.9c-3.1,0-5.7-2.5-5.7-5.7c0-3.2,2.6-5.7,5.7-5.7
			c1.7,0,3.1,0.7,4,1.9v-8.4L655,99.8z M653.4,112.5c0-2.3-1.8-4.1-4-4.1c-2.3,0-4,1.8-4,4.1c0,2.3,1.7,4.1,4,4.1
			C651.6,116.6,653.4,114.8,653.4,112.5z"/>
	</g>
	<g class="st2">
		<path class="st4" d="M589.6,135.8l0.5-0.9c0.8,0.8,2.2,1.4,3.7,1.4c2.1,0,3-0.9,3-2c0-3.1-6.9-1.2-6.9-5.3c0-1.6,1.3-3.1,4.1-3.1
			c1.3,0,2.6,0.4,3.5,1l-0.4,0.9c-1-0.6-2.1-0.9-3.1-0.9c-2,0-3,0.9-3,2c0,3.1,6.9,1.2,6.9,5.3c0,1.6-1.3,3.1-4.2,3.1
			C592.1,137.3,590.5,136.7,589.6,135.8z"/>
		<path class="st4" d="M608.8,133c0,2.6-1.8,4.3-4.2,4.3c-1.3,0-2.5-0.6-3.2-1.7v4.7h-1.1v-11.5h1.1v1.7c0.7-1.1,1.9-1.7,3.2-1.7
			C607,128.7,608.8,130.4,608.8,133z M607.7,133c0-2-1.4-3.3-3.1-3.3c-1.8,0-3.1,1.3-3.1,3.3c0,2,1.3,3.3,3.1,3.3
			C606.3,136.2,607.7,134.9,607.7,133z"/>
		<path class="st4" d="M618.5,133.3h-7c0.1,1.8,1.5,2.9,3.3,2.9c1,0,1.9-0.4,2.6-1.1l0.6,0.7c-0.8,0.9-1.9,1.4-3.2,1.4
			c-2.6,0-4.4-1.8-4.4-4.3s1.7-4.3,4.1-4.3s4.1,1.7,4.1,4.3C618.5,133.1,618.5,133.2,618.5,133.3z M611.4,132.5h6
			c-0.1-1.6-1.3-2.8-3-2.8C612.8,129.7,611.6,130.8,611.4,132.5z"/>
		<path class="st4" d="M628.6,132.3v4.9h-1.1v-4.8c0-1.8-0.9-2.7-2.5-2.7c-1.8,0-2.9,1.1-2.9,3v4.4h-1.1v-8.4h1.1v1.6
			c0.6-1,1.7-1.6,3.2-1.6C627.1,128.7,628.6,129.9,628.6,132.3z"/>
		<path class="st4" d="M639.4,125.3v11.9h-1.1v-1.7c-0.7,1.1-1.9,1.7-3.2,1.7c-2.4,0-4.2-1.7-4.2-4.3s1.8-4.3,4.2-4.3
			c1.3,0,2.5,0.6,3.2,1.7v-5.1H639.4z M638.2,133c0-2-1.3-3.3-3.1-3.3c-1.8,0-3.1,1.3-3.1,3.3s1.3,3.3,3.1,3.3
			C636.9,136.2,638.2,134.9,638.2,133z"/>
		<path class="st4" d="M653.8,128.8l-4.2,9.4c-0.7,1.6-1.6,2.2-2.8,2.2c-0.8,0-1.5-0.3-2-0.8l0.5-0.8c0.4,0.4,0.9,0.6,1.5,0.6
			c0.8,0,1.3-0.4,1.7-1.4l0.4-0.8l-3.8-8.4h1.2l3.2,7.2l3.2-7.2H653.8z"/>
		<path class="st4" d="M654.3,133c0-2.5,1.8-4.3,4.3-4.3s4.3,1.8,4.3,4.3s-1.8,4.3-4.3,4.3S654.3,135.5,654.3,133z M661.7,133
			c0-2-1.3-3.3-3.1-3.3s-3.1,1.3-3.1,3.3s1.3,3.3,3.1,3.3S661.7,134.9,661.7,133z"/>
		<path class="st4" d="M672.8,128.8v8.4h-1.1v-1.5c-0.6,1-1.7,1.6-3,1.6c-2.1,0-3.6-1.2-3.6-3.6v-4.9h1.1v4.8c0,1.8,0.9,2.7,2.5,2.7
			c1.8,0,2.9-1.1,2.9-3.1v-4.4H672.8z"/>
		<path class="st4" d="M680.2,128.7v1.1c-0.1,0-0.2,0-0.3,0c-1.8,0-2.8,1.1-2.8,3.1v4.3h-1.1v-8.4h1.1v1.6
			C677.6,129.3,678.6,128.7,680.2,128.7z"/>
		<path class="st4" d="M693.9,133.3h-7c0.1,1.8,1.5,2.9,3.3,2.9c1,0,1.9-0.4,2.6-1.1l0.6,0.7c-0.8,0.9-1.9,1.4-3.2,1.4
			c-2.6,0-4.4-1.8-4.4-4.3s1.7-4.3,4.1-4.3s4.1,1.7,4.1,4.3C693.9,133.1,693.9,133.2,693.9,133.3z M686.8,132.5h6
			c-0.1-1.6-1.3-2.8-3-2.8C688.2,129.7,687,130.8,686.8,132.5z"/>
		<path class="st4" d="M702.3,132v5.2h-1.1v-1.3c-0.5,0.9-1.5,1.4-2.9,1.4c-1.9,0-3.1-1-3.1-2.4c0-1.3,0.8-2.4,3.2-2.4h2.7v-0.5
			c0-1.4-0.8-2.2-2.4-2.2c-1.1,0-2.1,0.4-2.8,1l-0.5-0.8c0.8-0.7,2.1-1.1,3.4-1.1C701.1,128.7,702.3,129.8,702.3,132z M701.2,134.6
			v-1.4h-2.6c-1.6,0-2.2,0.6-2.2,1.5c0,1,0.8,1.6,2.1,1.6C699.8,136.4,700.7,135.7,701.2,134.6z"/>
		<path class="st4" d="M709.7,128.7v1.1c-0.1,0-0.2,0-0.3,0c-1.8,0-2.8,1.1-2.8,3.1v4.3h-1.1v-8.4h1.1v1.6
			C707,129.3,708.1,128.7,709.7,128.7z"/>
		<path class="st4" d="M719.5,132.3v4.9h-1.1v-4.8c0-1.8-0.9-2.7-2.5-2.7c-1.8,0-2.9,1.1-2.9,3v4.4h-1.1v-8.4h1.1v1.6
			c0.6-1,1.7-1.6,3.2-1.6C718,128.7,719.5,129.9,719.5,132.3z"/>
		<path class="st4" d="M729.9,133.3h-7c0.1,1.8,1.5,2.9,3.3,2.9c1,0,1.9-0.4,2.6-1.1l0.6,0.7c-0.8,0.9-1.9,1.4-3.2,1.4
			c-2.6,0-4.4-1.8-4.4-4.3s1.7-4.3,4.1-4.3c2.4,0,4.1,1.7,4.1,4.3C729.9,133.1,729.9,133.2,729.9,133.3z M722.9,132.5h6
			c-0.1-1.6-1.3-2.8-3-2.8C724.2,129.7,723,130.8,722.9,132.5z"/>
		<path class="st4" d="M739.9,125.3v11.9h-1.1v-1.7c-0.7,1.1-1.9,1.7-3.2,1.7c-2.4,0-4.2-1.7-4.2-4.3s1.8-4.3,4.2-4.3
			c1.3,0,2.5,0.6,3.2,1.7v-5.1H739.9z M738.8,133c0-2-1.3-3.3-3.1-3.3c-1.8,0-3.1,1.3-3.1,3.3s1.3,3.3,3.1,3.3
			C737.5,136.2,738.8,134.9,738.8,133z"/>
		<path class="st4" d="M746.4,133c0-2.5,1.8-4.3,4.3-4.3c1.4,0,2.6,0.6,3.3,1.7l-0.8,0.6c-0.6-0.8-1.5-1.2-2.4-1.2
			c-1.8,0-3.2,1.3-3.2,3.3c0,2,1.3,3.3,3.2,3.3c1,0,1.9-0.4,2.4-1.2l0.8,0.6c-0.7,1.1-1.9,1.7-3.3,1.7
			C748.2,137.3,746.4,135.5,746.4,133z"/>
		<path class="st4" d="M760.5,128.7v1.1c-0.1,0-0.2,0-0.3,0c-1.8,0-2.8,1.1-2.8,3.1v4.3h-1.1v-8.4h1.1v1.6
			C757.9,129.3,759,128.7,760.5,128.7z"/>
		<path class="st4" d="M769.8,133.3h-7c0.1,1.8,1.5,2.9,3.3,2.9c1,0,1.9-0.4,2.6-1.1l0.6,0.7c-0.8,0.9-1.9,1.4-3.2,1.4
			c-2.6,0-4.4-1.8-4.4-4.3s1.7-4.3,4.1-4.3s4.1,1.7,4.1,4.3C769.8,133.1,769.8,133.2,769.8,133.3z M762.8,132.5h6
			c-0.1-1.6-1.3-2.8-3-2.8C764.1,129.7,762.9,130.8,762.8,132.5z"/>
		<path class="st4" d="M779.8,125.3v11.9h-1.1v-1.7c-0.7,1.1-1.9,1.7-3.2,1.7c-2.4,0-4.2-1.7-4.2-4.3s1.8-4.3,4.2-4.3
			c1.3,0,2.5,0.6,3.2,1.7v-5.1H779.8z M778.7,133c0-2-1.3-3.3-3.1-3.3c-1.8,0-3.1,1.3-3.1,3.3s1.3,3.3,3.1,3.3
			C777.4,136.2,778.7,134.9,778.7,133z"/>
		<path class="st4" d="M782.7,126.1c0-0.4,0.4-0.8,0.8-0.8c0.5,0,0.8,0.4,0.8,0.8c0,0.5-0.4,0.8-0.8,0.8
			C783.1,126.9,782.7,126.5,782.7,126.1z M783,128.8h1.1v8.4H783V128.8z"/>
		<path class="st4" d="M791.7,136.7c-0.4,0.4-1.1,0.6-1.8,0.6c-1.6,0-2.5-0.9-2.5-2.4v-5.1H786v-1h1.5v-1.8h1.1v1.8h2.6v1h-2.6v5
			c0,1,0.5,1.5,1.5,1.5c0.5,0,0.9-0.1,1.2-0.4L791.7,136.7z"/>
	</g>
</g>
<g>
	<rect x="588.9" y="167.7" class="st1" width="218.9" height="60.3"/>
	<g class="st2">
		<path class="st3" d="M590.1,195.6l0.4-2.1c1.2,1.2,2.9,2.2,4.8,2.2c2,0,3.4-1.3,3.4-3.1c0-1.3-0.8-2.5-2.6-3.1l-1.2-0.4
			c-3.3-1.1-4.3-3-4.3-5c0-2.6,2.1-4.6,4.9-4.6c1.4,0,3.1,0.5,4.4,1.4l-0.4,2c-1.4-1-2.7-1.6-4-1.6c-1.8,0-3,1.2-3,2.8
			c0,1.4,0.7,2.4,3,3.2l1.2,0.4c2.7,0.9,3.9,2.7,3.9,5c0,2.9-2.2,5-5.3,5C593,197.6,591.2,196.6,590.1,195.6z"/>
		<path class="st3" d="M609.9,197.3l-0.1-0.8c-0.7,0.6-1.7,1-2.8,1c-2.3,0-4.1-1.8-4.1-4c0-2.2,1.8-4,4.1-4c1.1,0,2,0.4,2.6,0.9
			v-0.7c0-1.4-0.6-2.1-2.4-2.1c-0.9,0-1.8,0.2-2.7,0.5l0.3-1.6c0.8-0.3,1.6-0.4,2.4-0.4c2.7,0,4,1.3,4,3.5v5.5l0.1,2.1H609.9z
			 M609.9,193.5c0-1.4-1.2-2.5-2.6-2.5s-2.6,1.1-2.6,2.5s1.2,2.5,2.6,2.5C608.7,196,609.9,194.9,609.9,193.5z"/>
		<path class="st3" d="M624.2,186.3l-5.5,11.5l-5.5-11.5h1.9l3.5,7.7l3.5-7.7H624.2z"/>
		<path class="st3" d="M635.1,193.9l0.7,1.6c-1.4,1.3-3,2-4.8,2c-3.4,0-5.8-2.5-5.8-5.7c0-3.2,2.5-5.8,5.8-5.8
			c2.7,0,4.8,1.8,5.2,4.5l-8.9,2.9c0.6,1.4,2,2.4,3.8,2.4C632.5,195.9,633.9,195.3,635.1,193.9z M626.8,191.8L626.8,191.8l7.2-2.2
			c-0.5-1.2-1.7-1.9-3.1-1.9C628.6,187.6,626.8,189.5,626.8,191.8z"/>
	</g>
	<g class="st2">
		<path class="st4" d="M589.6,215.1l0.5-0.9c0.8,0.8,2.2,1.4,3.7,1.4c2.1,0,3-0.9,3-2c0-3.1-6.9-1.2-6.9-5.3c0-1.6,1.3-3.1,4.1-3.1
			c1.3,0,2.6,0.4,3.5,1l-0.4,0.9c-1-0.6-2.1-0.9-3.1-0.9c-2,0-3,0.9-3,2c0,3.1,6.9,1.2,6.9,5.3c0,1.6-1.3,3.1-4.2,3.1
			C592.1,216.6,590.5,216,589.6,215.1z"/>
		<path class="st4" d="M606.7,211.3v5.2h-1.1v-1.3c-0.5,0.9-1.5,1.4-2.9,1.4c-1.9,0-3.1-1-3.1-2.4c0-1.3,0.8-2.4,3.2-2.4h2.7v-0.5
			c0-1.4-0.8-2.2-2.4-2.2c-1.1,0-2.1,0.4-2.8,1l-0.5-0.8c0.8-0.7,2.1-1.1,3.4-1.1C605.4,208,606.7,209.1,606.7,211.3z M605.5,213.9
			v-1.4h-2.6c-1.6,0-2.2,0.6-2.2,1.5c0,1,0.8,1.6,2.1,1.6C604.1,215.7,605.1,215.1,605.5,213.9z"/>
		<path class="st4" d="M616.7,208.1l-3.7,8.4h-1.2l-3.7-8.4h1.2l3.2,7.2l3.2-7.2H616.7z"/>
		<path class="st4" d="M625.3,212.6h-7c0.1,1.8,1.5,2.9,3.3,2.9c1,0,1.9-0.4,2.6-1.1l0.6,0.7c-0.8,0.9-1.9,1.4-3.2,1.4
			c-2.6,0-4.4-1.8-4.4-4.3s1.7-4.3,4.1-4.3s4.1,1.7,4.1,4.3C625.4,212.4,625.3,212.5,625.3,212.6z M618.3,211.8h6
			c-0.1-1.6-1.3-2.8-3-2.8C619.6,209,618.4,210.1,618.3,211.8z"/>
		<path class="st4" d="M638.9,208.1l-4.2,9.4c-0.7,1.6-1.6,2.2-2.8,2.2c-0.8,0-1.5-0.3-2-0.8l0.5-0.8c0.4,0.4,0.9,0.6,1.5,0.6
			c0.8,0,1.3-0.4,1.7-1.4l0.4-0.8l-3.8-8.4h1.2l3.2,7.2l3.2-7.2H638.9z"/>
		<path class="st4" d="M639.5,212.3c0-2.5,1.8-4.3,4.3-4.3s4.3,1.8,4.3,4.3s-1.8,4.3-4.3,4.3S639.5,214.8,639.5,212.3z M646.9,212.3
			c0-2-1.3-3.3-3.1-3.3s-3.1,1.3-3.1,3.3s1.3,3.3,3.1,3.3S646.9,214.2,646.9,212.3z"/>
		<path class="st4" d="M657.9,208.1v8.4h-1.1v-1.5c-0.6,1-1.7,1.6-3,1.6c-2.1,0-3.6-1.2-3.6-3.6v-4.9h1.1v4.8c0,1.8,0.9,2.7,2.5,2.7
			c1.8,0,2.9-1.1,2.9-3.1v-4.4H657.9z"/>
		<path class="st4" d="M665.3,208v1.1c-0.1,0-0.2,0-0.3,0c-1.8,0-2.8,1.1-2.8,3.1v4.3h-1.1v-8.4h1.1v1.6
			C662.7,208.6,663.8,208,665.3,208z"/>
		<path class="st4" d="M679,212.6h-7c0.1,1.8,1.5,2.9,3.3,2.9c1,0,1.9-0.4,2.6-1.1l0.6,0.7c-0.8,0.9-1.9,1.4-3.2,1.4
			c-2.6,0-4.4-1.8-4.4-4.3s1.7-4.3,4.1-4.3s4.1,1.7,4.1,4.3C679.1,212.4,679,212.5,679,212.6z M672,211.8h6c-0.1-1.6-1.3-2.8-3-2.8
			C673.3,209,672.1,210.1,672,211.8z"/>
		<path class="st4" d="M687.5,211.3v5.2h-1.1v-1.3c-0.5,0.9-1.5,1.4-2.9,1.4c-1.9,0-3.1-1-3.1-2.4c0-1.3,0.8-2.4,3.2-2.4h2.7v-0.5
			c0-1.4-0.8-2.2-2.4-2.2c-1.1,0-2.1,0.4-2.8,1l-0.5-0.8c0.8-0.7,2.1-1.1,3.4-1.1C686.3,208,687.5,209.1,687.5,211.3z M686.3,213.9
			v-1.4h-2.6c-1.6,0-2.2,0.6-2.2,1.5c0,1,0.8,1.6,2.1,1.6C685,215.7,685.9,215.1,686.3,213.9z"/>
		<path class="st4" d="M694.8,208v1.1c-0.1,0-0.2,0-0.3,0c-1.8,0-2.8,1.1-2.8,3.1v4.3h-1.1v-8.4h1.1v1.6
			C692.2,208.6,693.3,208,694.8,208z"/>
		<path class="st4" d="M704.6,211.6v4.9h-1.1v-4.8c0-1.8-0.9-2.7-2.5-2.7c-1.8,0-2.9,1.1-2.9,3v4.4h-1.1v-8.4h1.1v1.6
			c0.6-1,1.7-1.6,3.2-1.6C703.2,208,704.6,209.2,704.6,211.6z"/>
		<path class="st4" d="M715.1,212.6h-7c0.1,1.8,1.5,2.9,3.3,2.9c1,0,1.9-0.4,2.6-1.1l0.6,0.7c-0.8,0.9-1.9,1.4-3.2,1.4
			c-2.6,0-4.4-1.8-4.4-4.3s1.7-4.3,4.1-4.3c2.4,0,4.1,1.7,4.1,4.3C715.1,212.4,715.1,212.5,715.1,212.6z M708,211.8h6
			c-0.1-1.6-1.3-2.8-3-2.8C709.4,209,708.2,210.1,708,211.8z"/>
		<path class="st4" d="M725.1,204.6v11.9H724v-1.7c-0.7,1.1-1.9,1.7-3.2,1.7c-2.4,0-4.2-1.7-4.2-4.3s1.8-4.3,4.2-4.3
			c1.3,0,2.5,0.6,3.2,1.7v-5.1H725.1z M723.9,212.3c0-2-1.3-3.3-3.1-3.3c-1.8,0-3.1,1.3-3.1,3.3s1.3,3.3,3.1,3.3
			C722.6,215.5,723.9,214.2,723.9,212.3z"/>
		<path class="st4" d="M731.6,212.3c0-2.5,1.8-4.3,4.3-4.3c1.4,0,2.6,0.6,3.3,1.7l-0.8,0.6c-0.6-0.8-1.5-1.2-2.4-1.2
			c-1.8,0-3.2,1.3-3.2,3.3c0,2,1.3,3.3,3.2,3.3c1,0,1.9-0.4,2.4-1.2l0.8,0.6c-0.7,1.1-1.9,1.7-3.3,1.7
			C733.4,216.6,731.6,214.8,731.6,212.3z"/>
		<path class="st4" d="M745.7,208v1.1c-0.1,0-0.2,0-0.3,0c-1.8,0-2.8,1.1-2.8,3.1v4.3h-1.1v-8.4h1.1v1.6
			C743,208.6,744.1,208,745.7,208z"/>
		<path class="st4" d="M755,212.6h-7c0.1,1.8,1.5,2.9,3.3,2.9c1,0,1.9-0.4,2.6-1.1l0.6,0.7c-0.8,0.9-1.9,1.4-3.2,1.4
			c-2.6,0-4.4-1.8-4.4-4.3s1.7-4.3,4.1-4.3s4.1,1.7,4.1,4.3C755,212.4,755,212.5,755,212.6z M747.9,211.8h6c-0.1-1.6-1.3-2.8-3-2.8
			C749.3,209,748.1,210.1,747.9,211.8z"/>
		<path class="st4" d="M765,204.6v11.9h-1.1v-1.7c-0.7,1.1-1.9,1.7-3.2,1.7c-2.4,0-4.2-1.7-4.2-4.3s1.8-4.3,4.2-4.3
			c1.3,0,2.5,0.6,3.2,1.7v-5.1H765z M763.9,212.3c0-2-1.3-3.3-3.1-3.3c-1.8,0-3.1,1.3-3.1,3.3s1.3,3.3,3.1,3.3
			C762.5,215.5,763.9,214.2,763.9,212.3z"/>
		<path class="st4" d="M767.9,205.4c0-0.4,0.4-0.8,0.8-0.8c0.5,0,0.8,0.4,0.8,0.8c0,0.5-0.4,0.8-0.8,0.8
			C768.3,206.2,767.9,205.9,767.9,205.4z M768.2,208.1h1.1v8.4h-1.1V208.1z"/>
		<path class="st4" d="M776.9,216c-0.4,0.4-1.1,0.6-1.8,0.6c-1.6,0-2.5-0.9-2.5-2.4V209h-1.5v-1h1.5v-1.8h1.1v1.8h2.6v1h-2.6v5
			c0,1,0.5,1.5,1.5,1.5c0.5,0,0.9-0.1,1.2-0.4L776.9,216z"/>
	</g>
</g>
<g>
	<polyline class="st5" points="554.4,107.2 564.5,117.3 554.4,127.3 	"/>
	<line class="st5" x1="12" y1="117.3" x2="564.5" y2="117.3"/>
</g>
<g>
	<polyline class="st5" points="554.4,27.1 564.5,37.2 554.4,47.3 	"/>
	<path class="st5" d="M392.3,117.3c127.9,0,98.4-80.1,172.1-80.1"/>
</g>
<g>
	<polyline class="st5" points="554.4,207.4 564.5,197.3 554.4,187.3 	"/>
	<path class="st5" d="M392.3,117.3c127.9,0,98.4,80.1,172.1,80.1"/>
</g>
</svg>
